<svg width="261" height="261" viewBox="0 0 261 261" fill="none" xmlns="http://www.w3.org/2000/svg">
<circle cx="130.5" cy="130.5" r="126.5" fill="white" stroke="#212121" stroke-width="8"/>
<mask id="mask0_63_50" style="mask-type:alpha" maskUnits="userSpaceOnUse" x="7" y="7" width="247" height="247">
<circle cx="130.5" cy="130.5" r="122.748" fill="white"/>
</mask>
<g mask="url(#mask0_63_50)">
<path d="M261 130.5C261 113.362 257.625 96.3928 251.066 80.5598C244.508 64.7268 234.895 50.3406 222.777 38.2226C210.659 26.1045 196.273 16.492 180.44 9.93372C164.607 3.37549 147.637 0 130.5 0C113.362 0 96.3928 3.37549 80.5598 9.93373C64.7268 16.492 50.3406 26.1045 38.2226 38.2226C26.1045 50.3406 16.492 64.7268 9.93372 80.5598C3.37548 96.3928 -1.49821e-06 113.363 0 130.5L130.5 130.5H261Z" fill="#C12E28"/>
<rect x="5.16832" y="120.163" width="250.663" height="20.6733" fill="#212121"/>
</g>
<circle cx="130.5" cy="130.5" r="28.302" fill="white" stroke="#212121" stroke-width="8"/>
</svg>
