<svg width="238" height="201" viewBox="0 0 238 201" fill="none" xmlns="http://www.w3.org/2000/svg">
<path d="M0.769226 52.4268C1.29092 52.3892 53.1188 48.628 63.1005 44.598C70.4704 41.3008 106.08 8.90643 106.44 8.57963L106.565 8.67723C106.207 9.00403 70.5765 41.4164 63.179 44.7268C53.1649 48.7692 1.30616 52.5332 0.783032 52.5704L0.769226 52.4268" fill="#586405"/>
<path d="M62.3831 44.8948L120.83 24.4728L120.895 24.6056L62.9334 44.8584C66.5757 45.5936 107.558 53.7884 113.422 51.5904L113.492 51.7224C107.332 54.0308 64.4599 45.3188 62.6378 44.9468L62.3831 44.8948" fill="#586405"/>
<path d="M62.6026 44.8036L86.157 72.9288L86.0165 73.012L63.0514 45.59C64.1819 48.9512 71.6808 71.872 68.1137 78.3472L67.9585 78.2868C71.7646 71.3772 62.8377 45.4812 62.7463 45.2204L62.6026 44.8036" fill="#586405"/>
<path d="M62.5783 44.8496L62.7373 44.9036C58.2467 54.2116 19.3941 74.636 19.0019 74.8412L18.9105 74.7188C19.3032 74.5136 58.1082 54.114 62.5783 44.8496Z" fill="#586405"/>
<path d="M58.627 45.8991C58.6365 45.9055 59.5519 46.5432 60.5572 47.6948C61.3992 47.3884 63.398 48.156 63.8416 48.3352C63.9401 48.1388 64.2562 47.6447 64.8998 47.7007C64.8698 46.0875 66.7833 45.7815 67.2126 45.7331C67.2017 45.4751 67.2312 44.5431 68.0661 43.0079C67.2817 42.9375 67.117 42.1363 67.1151 42.1279L67.2845 42.1044C67.2907 42.1364 67.4459 42.8799 68.1965 42.8687L68.3341 42.8667L68.2756 42.9711C67.2693 44.7771 67.3873 45.7787 67.3892 45.7887L67.3997 45.8631L67.3102 45.8687C67.2145 45.8743 64.9693 46.0335 65.0745 47.7815L65.0802 47.8744L64.9721 47.8555C64.2472 47.7307 63.9811 48.4263 63.9711 48.4555L63.9401 48.5367L63.8502 48.4987C63.8259 48.4883 61.3993 47.4807 60.5867 47.8423C60.581 47.8447 60.5777 47.8467 60.572 47.8491L60.5058 47.8807L60.4606 47.8287C59.4524 46.6607 58.5275 46.0171 58.5185 46.0107L58.627 45.8991" fill="#586405"/>
<path d="M68.1294 41.438L69.3427 42.5488L68.7587 46.1052L68.7263 46.1232C68.6992 46.138 66.0303 47.6252 66.046 48.9464L66.0469 49.0232L65.956 49.0196C64.8393 48.9708 64.2648 49.466 64.2591 49.4708L64.2229 49.5024L64.1724 49.4908C64.1334 49.4812 60.2326 48.5664 59.1421 49.2872L59.035 49.3572L59.0055 49.2464C58.6175 47.824 57.1914 46.3624 57.1776 46.348L57.3095 46.256C57.3237 46.2704 58.708 47.6892 59.143 49.112C59.1644 49.1012 59.1868 49.0904 59.2092 49.0804C60.4725 48.5184 63.7188 49.2364 64.1724 49.3408C64.3195 49.228 64.8841 48.852 65.876 48.8724C65.9484 47.5616 68.2789 46.202 68.5997 46.0208L69.1623 42.596L68.0028 41.5352L68.1294 41.438" fill="#586405"/>
<path d="M55.1065 46.5991C55.2041 46.6715 57.4694 48.3711 57.8449 50.3039C59.8237 49.5295 64.2405 50.7455 64.6608 50.8643L67.0455 50.2915C67.2164 50.0039 68.6406 47.6703 70.5122 46.4027C70.24 45.3203 70.4137 42.4687 70.4342 42.1495L69.1847 40.6391L69.326 40.5571L70.6089 42.1079L70.607 42.1327C70.6051 42.1647 70.3971 45.3499 70.6907 46.4151L70.7026 46.4595L70.6608 46.4875C68.6834 47.8043 67.1979 50.3579 67.1831 50.3835L67.1655 50.4123L64.656 51.0151L64.6308 51.0079C64.5818 50.9939 59.7408 49.6215 57.8273 50.4723C57.8245 50.4739 57.8211 50.4751 57.8183 50.4767L57.7093 50.5255L57.6926 50.4223C57.387 48.5027 55.0161 46.7247 54.9918 46.7071L55.1065 46.5991" fill="#586405"/>
<path d="M51.2295 47.2303C52.5785 47.7023 54.5282 52.2171 54.7809 52.8151C55.5116 52.7031 61.5297 51.8467 65.3467 53.2791C66.1707 52.6307 68.2755 52.1747 68.5959 52.1083C68.8534 51.7039 71.3514 47.8443 73.4863 46.9511C73.3506 46.4299 72.6876 43.6387 73.3568 41.1315C72.4448 40.4711 71.4557 38.9727 71.4128 38.9087L71.5628 38.8387C71.5737 38.8547 72.6086 40.4219 73.5068 41.0491L73.5477 41.0779L73.5353 41.1207C72.8251 43.7199 73.5801 46.6491 73.6686 46.9747L73.6843 47.0311L73.622 47.0559C71.4681 47.9131 68.7568 52.1615 68.7292 52.2043L68.7106 52.2331L68.673 52.2407C68.6492 52.2455 66.2292 52.7379 65.4257 53.4159L65.3829 53.4515L65.3291 53.4307C61.335 51.9007 54.8071 52.9571 54.7409 52.9679L54.6686 52.9799L54.6443 52.9207C54.6219 52.8703 52.5071 47.8335 51.1624 47.3635L51.2295 47.2303" fill="#586405"/>
<path d="M47.4839 47.7888C48.9433 48.5068 51.6384 52.586 51.7183 55.1256C51.7698 55.0976 51.8235 55.0712 51.8802 55.046C54.9028 53.7008 65.2677 56.3388 66.2335 56.5892C66.4996 56.3176 68.1275 54.7936 71.0363 55.068C70.6274 52.9608 75.406 48.788 77.0963 47.662C76.002 46.8508 75.6188 42.1056 76.1091 40.1788C74.2074 39.2376 74.2531 36.7012 74.256 36.5928L74.4278 36.5956C74.4269 36.6216 74.3817 39.2036 76.2476 40.0796L76.3042 40.106L76.289 40.1588C75.7511 42.1528 76.2733 47.0864 77.2819 47.5992L77.39 47.6536L77.2895 47.718C75.5155 48.8596 70.675 53.1836 71.2272 55.1348L71.2558 55.2364L71.1329 55.2232C67.9794 54.8764 66.3492 56.6972 66.3339 56.7156L66.2977 56.7572L66.2392 56.742C66.1202 56.7104 54.2388 53.6308 51.6879 55.3212L51.5475 55.4148L51.5484 55.2644C51.567 52.7768 48.8543 48.6296 47.3972 47.9132L47.4839 47.7888" fill="#586405"/>
<path d="M44.228 48.2444C44.279 48.2916 49.3136 52.9872 48.4582 57.3436C51.4071 56.4756 66.1854 60.8072 67.3474 61.1504C67.6748 60.884 70.0344 59.0232 73.384 57.8764C74.0494 53.3364 77.8955 50.768 80.1965 49.2312C80.6692 48.916 81.0809 48.6412 81.367 48.4112C80.4907 47.4952 78.8689 41.9156 79.0774 39.1332C77.1853 37.2528 76.8983 34.466 76.8954 34.438L77.0663 34.4264C77.0692 34.454 77.3557 37.2172 79.2297 39.062L79.2531 39.0844L79.2502 39.1136C79.0122 42.092 80.7843 47.7284 81.5455 48.364L81.6069 48.4148L81.5455 48.466C81.2518 48.7108 80.8129 49.0044 80.3036 49.3444C78.0155 50.8716 74.187 53.4284 73.5477 57.936L73.542 57.9784L73.4954 57.9944C69.9068 59.2124 67.4545 61.264 67.4302 61.2844L67.3921 61.3168L67.3412 61.3016C67.1765 61.2528 50.9173 56.4512 48.3845 57.5252L48.2293 57.5912L48.2621 57.4476C49.2308 53.126 44.1519 48.3888 44.1005 48.3416L44.228 48.2444" fill="#586405"/>
<path d="M33.7998 49.4783C33.8741 49.5447 41.1702 56.1539 42.3183 61.3123C48.0889 59.5631 66.651 64.9467 68.1723 65.3939C68.4464 64.9411 70.3985 62.0971 76.3309 61.4251C76.0301 60.1463 77.9255 57.0351 79.6724 54.7203C81.5364 52.2491 84.0445 49.5803 85.5053 49.0847C84.8751 48.1099 82.4085 41.6723 82.7321 37.8563C80.127 35.3671 78.828 32.8939 78.8151 32.8687L78.9722 32.8111C78.9856 32.8359 80.2822 35.3047 82.8845 37.7835L82.9087 37.8067L82.9059 37.8371C82.5665 41.6535 85.2021 48.4823 85.7024 49.0803L85.7686 49.1595L85.6595 49.1903C84.4334 49.5327 82.0895 51.7855 79.8176 54.7975C77.4923 57.8787 76.1981 60.4967 76.5189 61.4667L76.5461 61.5467L76.4475 61.5575C70.0529 62.2527 68.3108 65.4795 68.2941 65.5119L68.2622 65.5731L68.187 65.5511C67.9852 65.4915 47.9961 59.6175 42.2841 61.4775L42.1865 61.5091L42.1679 61.4227C41.0912 56.2939 33.7484 49.6431 33.6751 49.5767L33.7998 49.4783Z" fill="#586405"/>
<path d="M32.239 49.6288C34.9137 50.7788 40.0249 59.4316 40.7742 62.2872C47.9218 61.2364 67.4035 67.7276 68.6102 68.1332C69.1714 67.5876 74.5173 62.5088 77.8931 63.2468C77.4376 58.4232 86.3326 51.338 89.6684 49.8536C89.716 49.8324 89.7612 49.8124 89.806 49.794C88.1428 47.8844 87.3674 39.9592 87.8368 36.0888C83.8531 34.3932 82.5784 29.73 82.5665 29.6828L82.734 29.6516C82.7459 29.6984 84.014 34.3364 87.9672 35.9824L88.02 36.0044L88.0133 36.0544C87.5393 39.842 88.3446 48.0512 90.0049 49.7748L90.0735 49.8464L89.9749 49.8856C86.8543 51.1192 77.4699 58.4548 78.0749 63.3372L78.0883 63.4468L77.9636 63.4136C74.5916 62.5204 68.7587 68.2084 68.7001 68.266L68.6601 68.3052L68.6025 68.286C68.3969 68.216 47.9442 61.306 40.7242 62.4412L40.6414 62.454L40.6247 62.3848C39.9635 59.6944 34.7575 50.8736 32.1605 49.7576L32.239 49.6288" fill="#586405"/>
<path d="M26.2295 50.2703C26.3185 50.3759 35.1721 60.8547 35.0408 65.7683C44.4551 66.1755 67.087 70.7563 68.9643 72.2711C71.004 68.9311 80.2127 67.1151 81.0067 66.9639C81.5393 66.0199 89.211 52.5383 93.7415 50.5211C93.8325 50.4807 93.921 50.4455 94.0091 50.4147C92.3635 46.6535 95.4518 34.4147 95.7317 33.3291C92.9157 32.2899 90.7385 23.0923 90.6466 22.6979L90.8146 22.6703C90.838 22.7667 93.0999 32.3331 95.8621 33.2183L95.9307 33.2403L95.915 33.3011C95.8807 33.4343 92.463 46.7007 94.1995 50.4287L94.2304 50.4963L94.1504 50.5223C89.6784 51.9599 81.2275 66.9063 81.1433 67.0575L81.1257 67.0891L81.0847 67.0967C80.9833 67.1159 70.9816 69.0159 69.061 72.4335L68.991 72.5571L68.9096 72.4387C68.068 71.2243 44.8564 66.3139 34.9489 65.9087L34.8642 65.9055L34.867 65.8343C35.0846 60.9999 26.1791 50.4599 26.0891 50.3539L26.2295 50.2703" fill="#586405"/>
<path d="M97.6676 16.4892L97.8394 16.486C97.8413 16.572 98.1479 25.1852 103.631 30.5356L103.668 30.5712L103.643 30.6132C102.546 32.592 97.2211 42.8856 100.246 51.2472L100.266 51.3016L100.208 51.3304C97.4777 52.6616 92.9233 56.1364 89.132 59.7804C84.7904 63.9536 82.4603 67.284 82.7393 68.918L82.7545 69.0052L82.6493 69C75.4098 68.6412 69.099 74.0188 69.0357 74.0728L68.9995 74.1044L68.9496 74.0916C68.6335 74.0096 37.326 65.9416 30.0142 68.7828L29.8838 68.8336L29.8933 68.7128C30.3645 62.4336 24.4926 50.6196 24.4341 50.5012L24.5921 50.4448C24.6516 50.5628 30.465 62.2624 30.0718 68.6036C37.5298 65.9312 67.5325 73.5768 68.9505 73.9412C69.4832 73.4964 75.5736 68.556 82.557 68.8516C82.1014 64.9312 94.7016 53.8844 100.062 51.2344C97.0816 42.8904 102.315 32.6772 103.465 30.5948C97.976 25.202 97.6695 16.576 97.6676 16.4892" fill="#586405"/>
<path d="M8.80268 51.8276C8.95833 51.9612 24.2732 65.208 23.0889 72.5044C30.4221 70.0736 42.3902 71.2084 51.1672 72.5948C60.3601 74.0468 68.0523 76.0684 68.702 76.2408C69.496 75.7112 79.4668 69.1356 83.8988 70.366C84.7513 69.52 99.2822 55.1544 105.963 52.1812C106.226 52.0644 106.477 51.9648 106.715 51.8848C104.601 49.1008 106.233 32.3676 111.984 27.6212C106.542 26.4736 99.1484 15.948 98.8333 15.4964L98.9809 15.4236C99.058 15.5348 106.794 26.548 112.175 27.5104L112.336 27.5392L112.216 27.6336C108.579 30.5064 107.054 37.6412 106.568 40.5752C105.702 45.7956 105.852 50.654 106.916 51.8764L106.982 51.9524L106.877 51.9864C100.571 54.0036 84.1573 70.332 83.9916 70.4968L83.9536 70.5348L83.8979 70.5184C79.4996 69.2168 68.8796 76.306 68.7734 76.3776L68.7373 76.4016L68.6935 76.39C68.3774 76.3048 36.9571 67.9388 23.0146 72.6848L22.8732 72.7328L22.897 72.6064C24.2655 65.4084 8.83553 52.062 8.68036 51.9284L8.80268 51.8276" fill="#586405"/>
<path d="M37.8077 49.0288C37.8725 49.0868 44.3032 54.8684 45.6356 59.2904L45.469 59.3256C44.1481 54.9396 37.7473 49.1852 37.6821 49.128L37.8077 49.0288" fill="#586405"/>
<path d="M18.5807 50.9928C24.5031 57.8176 28.293 69.5616 28.3306 69.6792L28.1649 69.7168C28.1278 69.5992 24.345 57.8804 18.4421 51.0776L18.5807 50.9928" fill="#586405"/>
<path d="M50.4022 55.9835C50.5222 55.9879 62.3608 56.4907 66.8671 59.0515C69.1457 56.4975 71.8993 56.0411 71.9269 56.0367L71.9588 56.1783C71.9317 56.1827 69.2014 56.6379 66.9561 59.1931L66.9061 59.2495L66.838 59.2095C62.4241 56.6379 50.5136 56.1319 50.3936 56.1275L50.4022 55.9835" fill="#586405"/>
<path d="M86.4164 26.3648L86.5873 26.3596C86.5892 26.398 86.7724 30.2828 89.3328 35.5568L89.3376 35.592C88.7097 40.5156 91.3615 49.9216 91.3882 50.016L91.2211 50.0496C91.194 49.9548 88.5427 40.548 89.1653 35.5948C86.6006 30.3032 86.4173 26.4032 86.4164 26.3648" fill="#586405"/>
<path d="M102.302 51.462L102.405 51.5768C102.246 51.6776 86.5392 61.7264 83.0834 69.3712L82.9225 69.32C86.3959 61.6368 102.143 51.5628 102.302 51.462Z" fill="#586405"/>
<path d="M91.1326 22.3643C91.1883 22.4511 96.8103 31.0511 99.5716 31.9215L99.6606 31.9499L99.6178 32.0215C95.4566 38.9919 96.5823 50.6703 96.5947 50.7875L96.4233 50.7999C96.4124 50.6827 95.2895 39.0403 99.4226 32.0267C96.578 30.9959 91.2107 22.7859 90.9822 22.4335L91.1326 22.3643Z" fill="#586405"/>
<path d="M89.1039 24.0428L89.2733 24.0184C89.2881 24.0888 90.7718 31.1244 94.1923 33.826L94.2413 33.8648L94.209 33.914C92.2203 36.862 91.2078 47.5148 92.661 50.1976L92.5049 50.2572C91.0469 47.566 92.0456 36.9296 94.0267 33.8924C90.599 31.13 89.1191 24.1136 89.1039 24.0428Z" fill="#586405"/>
<path d="M66.6019 42.5208L66.7533 42.4536L67.264 43.2628L66.2692 45.6228L64.3509 47.0044L63.596 47.4672L61.0908 47.17L61.0694 47.1472L59.7294 45.7168L59.8646 45.6276L61.1827 47.0352L63.5517 47.3164L64.2443 46.8916L66.1221 45.5384L67.077 43.2744L66.6019 42.5208" fill="#586405"/>
<path d="M66.1973 42.8027L66.3492 42.7351L66.8109 43.4675L65.7337 45.5343L64.0901 46.6943L63.4175 46.9951L61.4549 46.7243L60.3563 45.5599L60.491 45.4703L61.5482 46.5911L63.3889 46.8451L63.9949 46.5755L65.6071 45.4347L66.6205 43.4739L66.1973 42.8027" fill="#586405"/>
<path d="M65.6823 43.1368L65.846 43.0944L66.0755 43.7204L65.0873 45.4104L63.715 46.2776L63.1938 46.3876L61.8272 46.23L61.0956 45.3568L61.2355 45.274L61.9247 46.0956L63.1999 46.2428L63.6379 46.1456L64.9673 45.3052L65.8917 43.7088L65.6823 43.1368" fill="#586405"/>
<path d="M64.9592 43.6279L65.1106 43.5607L65.3653 43.9648L64.5194 45.2907L63.2985 45.8263L63.0048 45.8387L62.1794 45.6927L61.8253 45.1311L61.9766 45.064L62.2927 45.5655L63.0291 45.6955L63.2699 45.6835L64.3928 45.184L65.1711 43.9644L64.9592 43.6279" fill="#586405"/>
<path d="M64.4328 43.9556L64.5847 43.888L64.7674 44.1788L63.953 45.1848L63.0224 45.4972L62.3689 45.3776L62.1432 45.0188L63.7497 44.4116L63.4613 45.0484L63.3004 44.9972L63.4418 44.6864L62.3803 45.0872L62.4836 45.2508L63.0077 45.3472L63.8397 45.0672L64.5675 44.1696L64.4328 43.9556" fill="#586405"/>
<path d="M218.726 178.972C218.651 178.898 211.238 171.428 203.759 162.016C196.858 153.33 188.488 141.166 187.792 132.53C179.482 121.616 173.421 90.404 173.36 90.09L173.52 90.0684C173.579 90.3824 179.641 121.594 187.939 132.472L187.951 132.486L187.951 132.504C188.636 141.112 196.998 153.262 203.894 161.94C211.368 171.347 218.775 178.811 218.849 178.886L218.726 178.972" fill="#586405"/>
<path d="M191.618 185.261H191.784C190.295 180.626 188.438 174.35 186.941 167.707C184.176 155.44 182.104 139.382 187.936 132.548L187.951 132.518C191.088 114.428 208.39 89.0368 208.565 88.782L208.425 88.7144C208.251 88.9692 190.944 114.367 187.794 132.483C185.21 135.522 183.942 140.594 184.026 147.556C184.093 153.126 185.021 159.914 186.783 167.733C188.278 174.363 190.13 180.627 191.618 185.261" fill="#586405"/>
<path d="M199.541 135.107C195.411 135.107 191.491 134.259 187.833 132.568C175.353 129.252 161.009 119.926 151.178 112.687C140.527 104.846 132.728 97.6972 132.651 97.626L132.769 97.5348C132.847 97.606 140.64 104.75 151.284 112.586C161.105 119.817 175.428 129.13 187.895 132.444C200.188 138.123 213.113 133.081 221.793 127.852C231.208 122.181 237.799 115.074 237.865 115.003L237.991 115.086C237.927 115.157 231.321 122.279 221.886 127.962C216.342 131.302 210.919 133.499 205.768 134.493C203.646 134.902 201.568 135.107 199.541 135.107" fill="#586405"/>
<path d="M150.355 174.365L150.212 174.303C150.264 174.22 155.424 165.915 162.604 156.652C169.233 148.1 178.991 136.958 187.83 132.45L187.913 132.566C179.101 137.061 169.358 148.184 162.738 156.725C155.563 165.982 150.406 174.283 150.355 174.365Z" fill="#586405"/>
<path d="M189.757 179.021L189.706 178.975C179.868 170.151 156.346 165.688 156.109 165.643L156.144 165.512C156.38 165.555 179.869 170.013 189.771 178.836C199.147 172.28 206.031 172.128 212.822 172.593C212.139 165.548 213.034 158.988 215.719 151.337C218.253 144.121 222.555 135.37 230.104 122.087C220.968 119.932 215.039 111.804 211.672 105.352C208.217 98.7355 206.678 92.4891 206.506 91.7603C205.152 92.0455 192.422 94.6699 182.981 94.6703C179.139 94.6703 175.842 94.2363 174.076 93.0323C173.445 95.8403 168.564 99.3171 159.56 103.369C153.117 106.268 146.734 108.448 146.044 108.681C146.433 110.539 156.106 156.793 157.072 164.248C161.051 163.351 182.179 169.49 188.189 173.302C189.033 168.895 204.174 164.033 205.201 163.709C205.615 162.87 215.097 143.699 223.864 126.588L201.657 99.7291C200.626 99.8327 183.788 101.469 175.427 99.0871C167.739 105.876 149.589 110.056 148.228 110.362C148.857 112.232 162.025 151.492 162.168 157.357C162.255 157.344 162.36 157.338 162.483 157.338C165.665 157.338 180.715 161.609 186.697 166.93C189.52 163.119 202.59 161.836 203.632 161.74L220.496 128.656C219.466 127.861 200.494 113.145 197.759 106.724C197.713 106.725 197.664 106.726 197.614 106.726C192.858 106.726 177.185 101.856 176.03 101.495C175.414 102.462 166.521 116.271 159.754 118.569C161.058 121.034 162.583 127.772 163.647 135.793C164.502 142.226 165.148 150.46 164.429 154.45C168.616 152.396 184.231 158.481 185.175 158.852L199.977 156.949C200.546 156.249 212.816 141.12 219.241 129.392C213.052 129.208 196.823 111.513 195.86 110.458L178.099 109.154C177.903 109.561 176.438 112.519 173.969 115.301C170.54 119.167 166.701 120.978 162.852 120.549C167 124.03 168.029 148.421 168.093 150.052C168.883 150.238 177.567 152.342 184.857 156.549C185.367 156.614 193.319 155.716 198.621 155.089C199.052 154.279 206.812 139.746 211.045 133.031C207.721 132.833 203.942 129.445 199.809 122.959C196.872 118.349 194.784 113.714 194.544 113.173C193.456 113.318 181.98 114.753 178.61 110.958C178.424 115.405 171.631 125.128 171.321 125.571C171.292 126.194 170.552 142.454 170.343 147.421C175.138 145.487 183.517 150.389 184.116 150.747L193.994 148.084C194.295 147.586 198.888 140.038 204.684 134.634C201.564 133.957 192.822 119.459 192.207 118.434C191.506 118.408 183.4 118.045 179.951 115.229C179.553 118.843 172.91 125.672 172.425 126.166C172.413 126.838 172.166 140.928 172.418 145.12C175.409 143.406 183.515 147.28 184.124 147.576C184.587 147.519 190.59 146.79 193.382 147.04C193.804 145.812 199.732 137.733 202.423 134.921C200.404 134.071 192.01 121.444 191.383 120.496C190.68 120.53 184.079 120.803 181.28 119.083C180.519 123.061 174.125 126.438 173.525 126.746C173.622 127.503 174.944 137.886 174.915 142.566C176.683 141.92 182.239 143.454 184.113 145.451C184.967 144.891 189.865 144.764 192.923 146.197C194.277 142.029 200.556 135.601 201.156 134.994C200.468 134.369 192.721 127.271 190.47 123.003C188.072 124.312 182.991 122.099 182.286 121.78C181.902 122.428 178.926 127.312 176.056 128.008C177.105 131.01 176.143 140.546 176.044 141.503C176.902 141.478 182.93 141.392 184.106 143.744C184.347 143.364 184.959 143.033 185.864 142.797C187.609 142.343 190.129 142.318 191.225 142.982C192.411 139.494 197.911 135.493 198.57 135.023C197.894 134.393 191.382 128.258 189.874 124.787C189.26 125.336 187.471 125.878 185.965 125.951C185.286 125.985 184.386 125.937 183.857 125.537C182.854 127.395 179.181 129.02 178.698 129.228C178.73 129.821 179.099 136.257 179.835 137.992C180.358 137.801 181.504 137.916 182.477 138.264C183.137 138.502 184.264 139.041 184.645 140.051C185.304 139.139 188.196 138.817 189.405 138.928C189.776 137.696 193.399 134.867 193.886 134.491C193.561 134.029 190.954 130.294 189.217 126.969C189.077 127.109 188.809 127.214 188.584 127.282C187.561 127.59 185.647 127.702 184.698 127.222C184.495 128.385 181.307 129.908 180.84 130.126C180.949 130.606 181.82 134.517 181.882 136.34C182.136 136.265 182.592 136.289 182.953 136.342C183.358 136.4 184.69 136.653 185.271 137.479C185.839 137.06 187.3 136.845 188.943 137.626C189.101 136.157 192.508 134.551 193.063 134.299L188.995 127.653C188.584 127.981 186.7 129.368 185.303 128.519C183.508 128.964 182.774 130.703 182.719 130.839C182.71 131.039 182.566 134.369 183.575 135.128L183.598 135.145L183.601 135.173C183.624 135.419 183.734 135.592 183.94 135.702C184.578 136.044 185.898 135.632 185.909 135.628L185.944 135.617L185.976 135.631C185.988 135.637 187.243 136.177 188.375 135.632L188.412 135.623C189.538 135.596 190.951 134.056 191.066 133.801C191.024 133.745 190.965 133.604 190.801 133.207C190.391 132.212 189.548 130.166 188.582 129.32C188.318 129.606 187.989 129.774 187.6 129.819C186.793 129.914 185.975 129.448 185.75 129.308C185.502 129.532 184.397 130.592 184.531 131.462L184.537 131.498L184.505 131.522C184.101 131.828 183.933 132.57 184.116 133.246C184.249 133.738 184.546 134.076 184.93 134.17L184.989 134.185L184.987 134.238C184.983 134.356 185.025 134.441 185.115 134.498C185.422 134.688 186.209 134.52 186.487 134.44L186.553 134.421L186.584 134.473C186.587 134.478 186.874 134.941 187.324 134.992C187.583 135.022 187.854 134.908 188.13 134.657L188.176 134.614L188.233 134.645C188.837 134.974 189.35 134.359 189.845 133.764C189.924 133.669 190.002 133.576 190.079 133.486C189.408 133.19 188.965 132.215 188.606 131.425C188.477 131.14 188.353 130.869 188.237 130.671C187.689 131.136 187.415 131.133 186.58 130.664C186.107 131.972 185.333 131.831 185.301 131.824L185.337 131.692C185.343 131.692 186.033 131.806 186.457 130.539L186.487 130.448L186.579 130.501C187.501 131.028 187.654 130.99 188.199 130.51L188.275 130.443L188.328 130.524C188.464 130.734 188.599 131.032 188.756 131.377C189.121 132.178 189.574 133.176 190.232 133.396L190.331 133.429L190.267 133.5C190.171 133.608 190.074 133.724 189.977 133.841C189.477 134.442 188.911 135.121 188.204 134.788C187.905 135.046 187.602 135.16 187.301 135.126C186.861 135.075 186.571 134.72 186.475 134.585C186.235 134.648 185.401 134.843 185.02 134.607C184.9 134.532 184.835 134.423 184.828 134.284C184.414 134.158 184.1 133.794 183.959 133.276C183.768 132.572 183.945 131.795 184.367 131.446C184.243 130.412 185.625 129.22 185.685 129.169L185.736 129.126L185.792 129.164C185.802 129.17 186.721 129.788 187.578 129.685C187.95 129.642 188.261 129.471 188.506 129.178L188.56 129.113L188.628 129.168C189.649 129.998 190.529 132.136 190.953 133.162C191.061 133.426 191.164 133.674 191.199 133.724C191.222 133.739 191.24 133.766 191.232 133.804C191.181 134.064 189.672 135.711 188.437 135.758C187.323 136.284 186.147 135.852 185.934 135.764C185.712 135.83 184.509 136.166 183.853 135.816C183.613 135.688 183.476 135.484 183.444 135.21C182.378 134.358 182.552 130.968 182.559 130.823L182.563 130.805C182.57 130.786 183.328 128.844 185.297 128.38L185.335 128.37L185.368 128.391C186.803 129.304 188.939 127.512 188.96 127.494L189.037 127.428L189.088 127.51L193.278 134.356L193.207 134.387C193.166 134.406 189.08 136.228 189.1 137.74L189.101 137.861L188.977 137.799C187.281 136.948 185.787 137.198 185.311 137.634L185.234 137.706L185.181 137.62C184.665 136.787 183.324 136.532 182.925 136.475C182.381 136.396 181.955 136.426 181.858 136.502L181.725 136.606L181.723 136.454C181.695 134.59 180.681 130.147 180.671 130.103L180.66 130.054L180.712 130.03C180.75 130.013 184.56 128.26 184.548 127.102L184.546 126.967L184.676 127.047C185.518 127.569 187.521 127.459 188.529 127.155C188.887 127.047 189.112 126.917 189.148 126.8L189.205 126.607L189.3 126.789C191.139 130.345 194.029 134.428 194.058 134.469L194.091 134.516L194.042 134.554C194 134.586 189.81 137.805 189.548 139.014L189.534 139.078L189.458 139.069C188.221 138.93 185.058 139.306 184.703 140.269L184.615 140.509L184.548 140.264C184.258 139.194 183.085 138.629 182.413 138.388C181.341 138.005 180.214 137.952 179.833 138.144L179.751 138.185L179.717 138.111C178.917 136.396 178.55 129.483 178.535 129.19L178.533 129.146L178.58 129.126C178.622 129.108 182.805 127.332 183.756 125.394L183.804 125.296L183.889 125.374C184.359 125.801 185.271 125.85 185.955 125.816C187.48 125.741 189.366 125.157 189.837 124.613L189.928 124.508L189.979 124.631C191.45 128.224 198.672 134.916 198.745 134.984L198.801 135.036L198.737 135.081C198.675 135.124 192.516 139.441 191.348 143.115L191.316 143.217L191.219 143.149C190.236 142.459 187.634 142.478 185.912 142.926C184.93 143.182 184.314 143.545 184.18 143.948L184.108 144.164L184.026 143.951C183.042 141.394 176.03 141.638 175.959 141.641L175.867 141.644L175.875 141.567C175.888 141.462 177.01 131.018 175.879 127.981L175.853 127.914L175.936 127.896C178.897 127.259 182.146 121.714 182.179 121.658L182.216 121.594L182.289 121.628C182.347 121.655 188.055 124.277 190.458 122.847L190.539 122.799L190.579 122.875C192.858 127.288 201.237 134.87 201.321 134.946L201.369 134.99L201.324 135.036C201.255 135.105 194.396 141.994 193.052 146.316L193.026 146.402L192.934 146.358C189.766 144.821 184.657 145.095 184.164 145.595L184.1 145.66L184.038 145.592C182.211 143.556 176.465 141.974 174.874 142.735L174.752 142.793L174.753 142.676C174.805 137.908 173.374 126.83 173.36 126.718L173.354 126.676L173.399 126.653C173.47 126.618 180.464 123.088 181.14 118.951L181.16 118.835L181.269 118.907C184.045 120.732 191.35 120.362 191.423 120.359L191.475 120.356L191.499 120.394C191.592 120.534 200.813 134.449 202.573 134.827L202.695 134.853L202.616 134.935C199.92 137.72 193.742 146.14 193.522 147.126L193.508 147.188L193.434 147.181C190.598 146.908 184.184 147.705 184.12 147.713L184.092 147.716L184.068 147.704C183.98 147.662 175.245 143.428 172.395 145.302L172.274 145.382L172.264 145.252C171.996 141.141 172.262 126.29 172.264 126.14L172.265 126.117L172.283 126.098C172.357 126.024 179.578 118.656 179.803 115.073L179.813 114.919L179.941 115.03C183.404 118.018 192.172 118.298 192.26 118.3L192.308 118.302L192.33 118.338C192.425 118.497 201.916 134.309 204.848 134.522L205.009 134.534L204.9 134.635C198.903 140.188 194.17 148.091 194.122 148.17L194.108 148.196L184.088 150.896L184.056 150.876C183.966 150.822 175.133 145.495 170.295 147.592L170.173 147.645L170.178 147.53C170.382 142.633 171.153 125.719 171.161 125.548L171.172 125.516C171.246 125.413 178.482 115.133 178.453 110.75L178.451 110.524L178.6 110.712C181.803 114.756 194.456 113.048 194.583 113.03L194.648 113.021L194.671 113.074C194.756 113.269 203.308 132.623 211.177 132.902L211.305 132.907L211.245 133.002C206.929 139.827 198.83 155.026 198.749 155.179L198.731 155.213L198.686 155.218C197.322 155.379 185.33 156.789 184.805 156.678L184.779 156.668C177.192 152.286 168.085 150.19 167.994 150.169L167.936 150.156L167.934 150.106C167.924 149.839 166.86 123.332 162.548 120.502L162.301 120.34L162.611 120.382C171.998 121.68 177.914 109.184 177.972 109.058L177.994 109.01L178.054 109.015L195.944 110.328L195.966 110.352C196.139 110.541 213.248 129.258 219.338 129.258C219.347 129.258 219.355 129.258 219.365 129.258L219.492 129.258L219.439 129.354C212.902 141.325 200.217 156.894 200.089 157.05L200.069 157.074L200.035 157.078L185.151 158.992L185.129 158.984C184.96 158.917 168.273 152.376 164.368 154.643L164.212 154.733L164.243 154.576C165.704 147.048 162.308 123.588 159.573 118.56L159.537 118.495L159.617 118.47C166.549 116.201 175.828 101.527 175.921 101.379L175.953 101.327L176.02 101.347C176.189 101.4 192.728 106.59 197.61 106.59C197.68 106.59 197.748 106.589 197.812 106.587L197.872 106.585L197.892 106.632C200.6 113.142 220.447 128.436 220.647 128.589L220.688 128.622L220.666 128.666L203.743 161.865L203.697 161.87C203.555 161.882 189.495 163.189 186.781 167.075L186.726 167.153L186.652 167.086C180.616 161.642 163.967 157.008 162.113 157.507L162.009 157.535V157.442C161.996 151.797 148.191 110.746 148.052 110.333L148.029 110.266L148.109 110.249C148.302 110.207 167.449 105.972 175.347 98.9631L175.382 98.9311L175.43 98.9455C183.963 101.402 201.51 99.6083 201.686 99.5903L201.734 99.5855L201.762 99.6187L224.048 126.572L224.028 126.607C215.104 144.025 205.432 163.592 205.335 163.788L205.323 163.815L205.29 163.825C205.127 163.877 188.921 169.022 188.33 173.434L188.315 173.553L188.201 173.48C185.515 171.735 179.046 169.239 171.718 167.121C164.439 165.016 158.675 163.949 157.027 164.4L156.933 164.426L156.923 164.343C156.003 157.042 145.976 109.134 145.875 108.651L145.864 108.597L145.924 108.576C146.192 108.487 172.72 99.5455 173.941 92.8951L173.963 92.7739L174.073 92.8539C180.038 97.1851 206.284 91.6679 206.549 91.6119L206.632 91.5943L206.647 91.6647C206.662 91.7303 208.168 98.3079 211.82 105.3C215.184 111.746 221.112 119.871 230.239 121.978L230.332 122L230.29 122.072C215.559 147.989 211.677 159.336 212.989 172.662L212.997 172.741L212.902 172.734C206.1 172.264 199.218 172.387 189.815 178.98L189.757 179.021" fill="#586405"/>
<path d="M163.539 155.49C163.445 155.105 154.061 116.954 153.864 114.609L153.859 114.553L153.925 114.539C162.447 112.738 175.546 100.462 175.677 100.338L175.797 100.428C175.666 100.552 162.603 112.796 154.031 114.656C154.355 117.483 163.603 155.08 163.697 155.462L163.539 155.49" fill="#586405"/>
<path d="M184.45 153.75L184.405 153.693C182.506 151.217 169.85 148.205 169.723 148.174L169.766 148.045C170.286 148.167 182.424 151.058 184.496 153.562C188.552 151.303 194.494 149.767 194.962 149.647L206.602 134.2L206.737 134.272L195.066 149.762L195.037 149.769C194.974 149.786 188.702 151.362 184.518 153.712L184.45 153.75" fill="#586405"/>
<path d="M221.738 127.97L199.639 103.206L199.769 103.124L221.867 127.889L221.738 127.97" fill="#586405"/>
<path d="M195.879 110.457L177.003 105.473L177.051 105.344L195.927 110.328L195.879 110.457Z" fill="#586405"/>
<path d="M169.664 147.764L167.301 123.378L167.461 123.368L169.825 147.753L169.664 147.764" fill="#586405"/>
<path d="M229.715 122.512C225.289 122.174 219.421 117.879 212.275 109.748C206.959 103.7 202.888 97.6736 202.847 97.6136L202.988 97.5468C203.15 97.7872 219.279 121.578 229.729 122.377L229.715 122.512" fill="#586405"/>
<path d="M188.674 174.917L188.586 174.804C188.709 174.736 201.043 168.064 211.278 170.751L211.231 170.88C201.064 168.212 188.795 174.85 188.674 174.917" fill="#586405"/>
<path d="M186.865 167.998C177.528 162.14 158.319 162.832 158.125 162.841L158.118 162.706C158.311 162.699 177.579 162.003 186.961 167.89L186.865 167.998Z" fill="#586405"/>
</svg>
