<svg width="239" height="147" viewBox="0 0 239 147" fill="none" xmlns="http://www.w3.org/2000/svg">
<g clip-path="url(#clip0_38_10789)">
<path d="M-16.9642 12.2998C-16.9642 39.2312 6.86151 61.0635 36.2525 61.0635C65.6434 61.0635 89.4695 39.2312 89.4695 12.2998C89.4695 -14.6314 65.6434 -36.4636 36.2525 -36.4636C6.86151 -36.4636 -16.9642 -14.6314 -16.9642 12.2998Z" fill="#E4A4D7"/>
<path d="M74.8876 20.5783C75.661 20.5783 76.5218 20.5117 77.4809 20.3713C87.1467 18.958 87.321 10.2222 86.1044 3.89723L83.3718 2.78733L86.025 3.49835C85.8106 2.44948 85.5607 1.47362 85.3157 0.620395H74.8357C74.5725 0.811655 74.3073 1.01081 74.0406 1.21871C73.2067 1.86812 72.09 2.48131 70.8179 3.05013C69.1255 10.7163 65.95 19.7654 73.771 20.5269C73.83 20.1219 73.8631 19.8924 73.8631 19.8924C73.8631 19.8924 73.8599 20.1237 73.8504 20.5342C74.1767 20.5634 74.5224 20.5783 74.8876 20.5783" fill="#ECB3DD"/>
<path d="M2.93256e-05 28.4897C0.776939 26.4598 1.83395 24.4061 3.22748 22.4524C2.16568 20.8023 1.10708 19.2526 2.93256e-05 17.8484V28.4897Z" fill="#ECB3DD"/>
<path d="M40.0309 54.9254C42.2845 54.9254 44.5569 54.4088 46.7168 53.0195C48.3988 51.9373 49.1448 50.534 49.2582 48.977C45.8746 50.5956 42.3441 51.6955 38.71 51.935C36.1292 52.6165 33.8459 53.1006 32.6461 53.3413C32.5974 53.3643 32.5502 53.3868 32.5011 53.4096C34.8529 54.2374 37.4296 54.9254 40.0309 54.9254ZM27.4898 51.4725C28.2154 51.1968 28.9432 50.9136 29.6618 50.6259C27.6284 49.8787 25.5765 48.8018 23.5084 47.3404C22.6476 46.7321 21.8226 46.1049 21.0326 45.4628C20.0273 46.9286 19.2236 48.2044 18.7115 49.8057C20.7653 50.3553 22.5224 50.6084 23.5632 50.6081C23.6814 50.6081 23.791 50.6049 23.8898 50.5985C23.9523 50.5944 24.0157 50.5924 24.081 50.5924C24.964 50.5924 26.1259 50.9559 27.4898 51.4725ZM4.71628 40.4068C6.0977 37.1592 7.28378 33.3188 7.90263 29.9345C7.46478 29.2475 7.03648 28.5636 6.61648 27.8879C5.36954 28.8039 4.447 30.1045 3.97027 31.8807C3.07323 35.2235 3.49546 38.0469 4.71628 40.4068Z" fill="#ECB3DD"/>
<path d="M36.3426 25.6743C36.5938 25.6743 36.8382 25.6687 37.073 25.6576C38.1495 25.2923 39.2909 24.8835 40.4633 24.4324C40.6979 24.0134 40.6851 23.4784 40.3626 22.813C38.2435 18.4408 37.9886 15.5971 40.3524 13.459C40.0975 13.5411 39.862 13.6161 39.6456 13.6847C34.9975 17.9269 31.9304 20.6405 31.9304 20.6405C31.9304 20.6405 31.5467 21.8461 30.9142 23.7135C31.4944 24.3051 32.0716 24.8587 32.6474 25.375C33.9699 25.5677 35.2302 25.6743 36.3426 25.6743M24.0418 15.3258C27.493 12.8417 32.0894 9.8645 36.7171 6.53278C36.9255 4.99423 37.2534 2.70787 37.6231 0.620366H33.7519C33.6142 0.82973 33.4797 1.01808 33.3494 1.17984C31.7659 3.14413 29.1264 5.10958 27.0742 9.11815C26.3371 10.558 24.7209 12.2355 22.9526 13.7937C23.32 14.3172 23.682 14.8267 24.0418 15.3258M24.1521 10.2526C24.7359 9.67646 25.1976 9.14268 25.4595 8.69475C26.9426 6.15756 29.5582 3.45744 32.2114 0.620366H24.4185C24.3595 0.674386 24.3034 0.725493 24.2512 0.772797C24.1074 1.43447 23.9851 2.13059 23.8901 2.86526C23.7725 3.77455 23.4599 4.80794 23.0182 5.90177C24.9627 7.07299 24.9576 8.5762 24.1521 10.2526ZM46.9399 6.95618C47.3035 6.82887 47.6731 6.69864 48.0485 6.56491C47.9953 6.40927 47.9332 6.25217 47.8631 6.0942C47.5533 6.38386 47.2449 6.67177 46.9399 6.95618M21.1078 4.77173C21.4246 4.07852 21.6502 3.45656 21.7461 2.9479C21.8879 2.19717 22.0852 1.41986 22.3267 0.620366H19.4594C19.4383 0.942442 19.4253 1.27824 19.4253 1.62922C19.425 2.26607 19.468 2.95345 19.5846 3.70068C20.076 4.07298 20.5865 4.43242 21.1078 4.77173M18.4715 2.80716C18.4718 2.1122 18.5113 1.37898 18.5716 0.620366H16.2552C16.8581 1.33314 17.6175 2.08066 18.4715 2.80716M42.4658 2.17059C42.8485 1.86136 43.2271 1.55067 43.6028 1.23677C43.3249 1.02507 43.0394 0.818926 42.7501 0.620366H42.4046C42.4203 1.18247 42.4422 1.70427 42.4658 2.17059" fill="#ECB3DD"/>
<path d="M108.767 124.43C112.659 124.43 116.668 124.31 120.794 124.062C120.579 123.982 120.362 123.898 120.143 123.808C116.247 124.031 112.455 124.138 108.767 124.138C105.54 124.138 102.392 124.056 99.3214 123.896C99.3105 123.993 99.2991 124.091 99.2879 124.186C102.372 124.348 105.526 124.43 108.767 124.43M136.342 122.576C137.064 122.483 137.796 122.385 138.524 122.284C138.348 122.262 138.171 122.251 137.993 122.251C137.432 122.251 136.868 122.359 136.342 122.576ZM155.157 119.475C165.123 117.504 174.182 115.171 182.404 112.546C182.342 112.47 182.279 112.394 182.213 112.315C173.99 114.931 164.936 117.256 154.974 119.218C155.035 119.304 155.095 119.39 155.157 119.475M49.2435 112.818C49.2515 112.726 49.2598 112.632 49.2681 112.536C32.3089 105.034 19.388 94.6704 9.60044 83.8024C9.5657 83.8617 9.53097 83.921 9.49687 83.9794C19.2911 94.8821 32.2401 105.29 49.2435 112.818ZM193.337 108.705C211.435 101.725 224.877 93.2165 234.836 84.1703C234.699 84.1954 234.561 84.2229 234.422 84.2527C224.462 93.1975 211.065 101.603 193.1 108.505L193.337 108.705" fill="#17132B"/>
<path d="M234.422 84.2527C234.561 84.2229 234.699 84.1955 234.836 84.1703C235.423 83.6377 235.993 83.1063 236.556 82.5705C236.498 82.5311 236.438 82.4905 236.377 82.4487C235.739 83.0531 235.09 83.6526 234.422 84.2527Z" fill="#131023"/>
<path d="M98.9396 124.168C98.9775 124.069 99.0135 123.973 99.0473 123.882C91.5252 123.478 84.4642 122.609 77.8432 121.346C77.907 121.456 77.9704 121.564 78.0344 121.674C84.5716 122.912 91.5258 123.766 98.9396 124.168" fill="#17132B"/>
<path d="M5.52833e-06 146.62H239V82.4391L237.789 83.3936C237.789 83.3936 237.337 83.1007 236.556 82.5705C235.993 83.1063 235.423 83.6377 234.836 84.1703C224.877 93.2165 211.435 101.724 193.337 108.705L194.407 109.611L184.31 114.833C184.31 114.833 183.577 113.962 182.404 112.546C174.182 115.171 165.123 117.504 155.157 119.475C155.4 119.813 155.65 120.146 155.906 120.471C155.933 120.506 155.961 120.541 155.989 120.576C155.991 120.58 155.993 120.581 155.996 120.585C155.999 120.589 156.003 120.593 156.006 120.598C156.012 120.605 156.018 120.613 156.024 120.621C156.027 120.624 156.03 120.628 156.033 120.631C156.034 120.632 156.034 120.633 156.035 120.634C156.037 120.637 156.04 120.64 156.042 120.643C156.043 120.645 156.045 120.647 156.046 120.648C156.047 120.649 156.048 120.65 156.048 120.651C156.561 121.307 156.798 122.049 156.798 122.777C156.799 124.39 155.637 125.939 153.737 126.365C152.783 126.579 151.725 126.717 150.582 126.717C147.681 126.717 144.229 125.833 140.518 123.073C139.929 122.635 139.238 122.371 138.524 122.284C137.796 122.385 137.064 122.483 136.342 122.576C136.136 122.661 135.936 122.763 135.744 122.881C133.881 124.024 130.985 125.284 127.263 125.284C125.321 125.284 123.156 124.942 120.794 124.062C116.668 124.31 112.66 124.43 108.767 124.43C105.526 124.43 102.372 124.348 99.2879 124.186C98.7376 128.886 97.9397 132.419 96.9298 135.017C101.357 134.911 106.086 134.854 111.001 134.854C135.819 134.854 155.938 136.312 155.938 138.109C155.938 139.907 135.819 141.364 111.001 141.364C104.087 141.364 97.5359 141.251 91.6842 141.049C91.0259 141.259 90.3363 141.354 89.6202 141.354C88.6056 141.354 87.5361 141.163 86.4205 140.835C74.1633 140.253 66.0653 139.25 66.0653 138.109C66.0653 137.33 69.8457 136.615 76.1518 136.054C71.9017 133.882 67.4111 131.869 62.9653 131.869C60.6314 131.869 58.3103 132.424 56.043 133.802C49.4472 137.813 42.0863 141.442 34.141 141.441C26.6753 141.441 18.6936 138.237 10.3513 129.136C8.1958 126.784 5.36858 125.83 2.1937 125.83C1.4783 125.83 0.746642 125.878 5.52833e-06 125.97V146.62ZM90.5622 131.746C95.3875 131.746 97.9355 126.774 98.9396 124.168C91.5258 123.766 84.5716 122.912 78.0345 121.674C79.9649 124.972 82.1545 128.177 85.4878 130.149C87.4055 131.283 89.0896 131.746 90.5622 131.746M37.9516 126.859C42.1918 126.859 45.6092 121.24 50.7713 116.386L49.0014 115.668C49.0014 115.668 49.0874 114.605 49.2436 112.818C32.2401 105.29 19.2911 94.8821 9.49691 83.9794C7.36854 87.6083 5.70573 90.0582 5.70573 90.0582L5.52833e-06 88.3722V117.759C4.97057 113.513 9.06034 110.557 13.6061 110.557C18.4687 110.557 23.8516 113.939 31.3887 122.744C33.9109 125.69 36.0167 126.859 37.9516 126.859" fill="#17132B"/>
<path d="M49.2582 48.9771C51.1903 48.0529 53.0733 46.9611 54.9024 45.763C54.643 45.4418 54.3804 45.1028 54.1163 44.7457C52.8457 45.4409 51.5144 46.2842 50.1406 47.3547C49.8713 47.5644 49.5724 47.7705 49.2486 47.9723C49.2779 48.313 49.2821 48.6486 49.2582 48.9771M48.792 45.8839C50.0727 45.0193 51.5644 44.2072 53.1886 43.4185C52.5749 42.4882 51.9723 41.4618 51.4121 40.3394C50.1272 41.1039 48.792 41.9562 47.4239 42.9423C47.9886 43.9167 48.4644 44.908 48.792 45.8839M46.0024 40.7581C47.4058 39.8687 48.8838 38.9836 50.4098 38.0968C49.5262 35.8668 48.8471 33.3314 48.5619 30.4984C47.4373 30.6783 46.3561 30.7685 45.3074 30.7685C42.0531 30.7682 39.1233 29.8969 36.2706 28.1274C34.5317 28.7806 32.6665 29.3789 30.6771 29.889C35.8229 31.7996 39.6357 33.706 39.6357 33.706C39.6357 33.706 41.1185 35.0162 42.9205 36.9902L43.1704 33.5148L43.4696 37.6016C44.308 38.5509 45.1885 39.6237 46.0024 40.7581M75.1068 29.3468C75.19 29.2849 75.2719 29.2241 75.3541 29.164C78.0809 27.1652 80.5516 26.4063 82.7319 26.4063C84.2624 26.4063 85.6499 26.7804 86.8822 27.362C87.3755 25.9692 87.8012 24.5518 88.1578 23.107C86.0059 21.492 83.2252 20.6332 79.7657 20.6332C77.9713 20.6332 75.995 20.8642 73.829 21.3407C73.7809 23.0063 73.67 25.8851 73.4313 28.7847C73.5858 28.8305 73.742 28.8737 73.8978 28.9137C74.3424 29.0279 74.7451 29.1733 75.1068 29.3468M72.6005 28.509C73.0033 25.7923 73.4077 23.0226 73.6467 21.3813C71.3067 21.9087 68.744 22.721 65.9579 23.8344C66.7183 24.697 67.5611 25.4921 68.4706 26.1943C70.8899 24.1092 72.4778 22.5379 72.4778 22.5379C72.4778 22.5379 71.0196 24.3109 68.9999 26.5874C70.1197 27.3854 71.3303 28.0418 72.6005 28.509M29.4521 27.902C29.4648 27.899 31.3364 27.4584 34.1152 26.6104C33.6263 26.2259 33.1368 25.8136 32.6474 25.375C31.9371 25.2713 31.2089 25.1428 30.4766 24.9928C30.1704 25.8804 29.8256 26.8633 29.4521 27.902M6.61645 27.8879C7.03008 27.5843 7.48035 27.3226 7.96154 27.1001L3.62512 21.9095C3.49001 22.0891 3.3568 22.2707 3.22743 22.4524C4.33479 24.1734 5.44567 26.0037 6.61645 27.8879M7.48068 19.8372C7.37966 19.2579 7.27832 18.6739 7.17189 18.0846C6.94022 18.2881 6.71205 18.496 6.4909 18.7045L7.48068 19.8372M18.952 18.6003C19.2117 17.7547 19.6741 16.8944 20.227 16.0357C19.4976 16.601 18.807 17.1125 18.2089 17.545C18.5094 17.9807 18.7608 18.3352 18.952 18.6003ZM17.3383 15.6604C18.5228 14.8279 20.2837 13.5534 21.8838 12.2522C21.4915 11.6799 21.0944 11.0944 20.6923 10.495C19.5827 12.3859 18.3635 14.2057 17.3383 15.6604M15.6003 13.5189C16.0238 12.9361 16.4907 12.282 16.9734 11.5876C17.3527 10.4789 17.9753 8.55666 18.3294 6.91299C17.0486 4.94229 15.7109 2.84339 14.3081 0.620394H8.07307C9.28018 2.41649 10.4548 4.26951 11.4299 6.00312C15.4075 8.1791 18.7879 9.5334 15.0786 12.6531C15.2552 12.9501 15.4295 13.2389 15.6003 13.5189" fill="#C472BF"/>
<path d="M3.22744 22.4523C3.35682 22.2707 3.49002 22.0891 3.62514 21.9095L-7.4023e-06 17.5698V17.8484C1.10704 19.2526 2.16564 20.8022 3.22744 22.4523ZM6.49091 18.7045C6.71207 18.496 6.94023 18.2881 7.17191 18.0846C6.69359 15.435 6.11266 12.6884 4.99031 9.82158C4.13916 7.64676 2.04966 4.41229 -7.4023e-06 1.50105V11.2772L6.49091 18.7045M15.0787 12.6531C18.7879 9.53338 15.4075 8.17908 11.4299 6.00309C11.7263 6.53015 12.0042 7.04583 12.2588 7.54603C13.217 9.42622 14.1819 11.1461 15.0787 12.6531Z" fill="#CA7BC4"/>
<path d="M54.9024 45.7629C56.6557 44.6145 58.3609 43.368 60.0059 42.0829C58.2803 42.8015 56.2871 43.5575 54.1163 44.7456C54.3805 45.1027 54.643 45.4417 54.9024 45.7629ZM53.1887 43.4185C55.6245 42.2356 58.36 41.1041 61.1346 39.9224C62.4545 39.3605 63.8006 38.6466 65.0574 37.9081C67.6035 35.7108 69.9684 33.5684 72.1168 31.7496C72.2701 30.7328 72.4352 29.6253 72.6005 28.509C71.3303 28.0418 70.1197 27.3853 68.9999 26.5873C66.1839 29.7613 62.2767 33.9139 59.707 35.6057C57.4123 37.1168 54.5631 38.4647 51.4121 40.3393C51.9723 41.4618 52.5749 42.4882 53.1887 43.4185M50.4099 38.0968C52.8643 36.6709 55.4442 35.2404 58.0448 33.776C61.8538 31.631 65.7053 28.5773 68.4706 26.1943C67.5612 25.492 66.7183 24.6969 65.9579 23.8343C64.1377 24.5617 62.2216 25.4173 60.2051 26.4071C55.7797 28.5799 51.9768 29.952 48.5619 30.4983C48.8471 33.3313 49.5262 35.8668 50.4099 38.0968ZM73.2414 30.812C73.8845 30.2855 74.5071 29.794 75.1069 29.3467C74.7452 29.1733 74.3424 29.0278 73.8979 28.9137C73.742 28.8737 73.5859 28.8304 73.4313 28.7846C73.3752 29.4644 73.3125 30.1453 73.2414 30.812Z" fill="#CA7BC4"/>
<path d="M38.71 51.935C42.3441 51.6956 45.8746 50.5956 49.2582 48.977C49.2821 48.6485 49.2779 48.313 49.2486 47.9723C46.6317 49.6034 42.3715 50.9679 38.71 51.935ZM29.6618 50.626C33.7264 48.9986 37.5246 47.2145 39.2689 45.6725C39.4652 45.4987 39.6663 45.3256 39.8709 45.153L42.6991 40.0754L42.9205 36.9901C41.1185 35.0162 39.6357 33.706 39.6357 33.706C39.6357 33.706 35.8229 31.7996 30.677 29.889C29.9798 30.0677 29.2663 30.2359 28.5388 30.3918C26.898 34.775 24.9219 39.5516 23.2298 42.2114C22.4284 43.4717 21.6878 44.5074 21.0326 45.4628C21.8226 46.1049 22.6476 46.7321 23.5083 47.3404C25.5765 48.8018 27.6284 49.8787 29.6618 50.626M40.1724 49.0462C43.4897 48.2018 47.0049 47.129 48.5084 46.0784C48.6017 46.0132 48.696 45.9484 48.792 45.8839C48.4644 44.908 47.9886 43.9167 47.4239 42.9423C45.6949 44.1888 43.9138 45.6494 42.114 47.4192C41.5589 47.965 40.905 48.5084 40.1724 49.0462M42.0273 43.4585C43.2602 42.5489 44.5942 41.651 46.0024 40.7581C45.1885 39.6237 44.308 38.5509 43.4696 37.6016L43.6745 40.4019L42.0273 43.4585M7.90258 29.9345C8.06032 29.0734 8.18109 28.2409 8.25884 27.4563L7.96153 27.1001C7.48034 27.3226 7.03006 27.5842 6.61643 27.8879C7.03644 28.5636 7.46474 29.2475 7.90258 29.9345" fill="#CA7BC4"/>
<path d="M32.6474 25.3749C32.0716 24.8587 31.4945 24.3051 30.9142 23.7135C30.7791 24.1115 30.6328 24.5398 30.4767 24.9927C31.209 25.1428 31.9371 25.2713 32.6474 25.3749M19.3686 19.167C20.3797 18.0758 22.0129 16.7861 24.0418 15.3258C23.6821 14.8267 23.32 14.3172 22.9526 13.7936C22.0514 14.5876 21.1111 15.3506 20.2271 16.0356C19.6742 16.8944 19.2118 17.7546 18.9521 18.6003C19.2194 18.9708 19.3686 19.167 19.3686 19.167" fill="#CA7BC4"/>
<path d="M99.2879 124.186C99.2991 124.091 99.3105 123.993 99.3214 123.896C99.2309 123.891 99.1375 123.886 99.0473 123.882C99.0136 123.973 98.9775 124.069 98.9396 124.168C99.0505 124.174 99.1767 124.181 99.2879 124.186ZM78.0344 121.674C77.9704 121.564 77.907 121.456 77.8432 121.346C73.4192 120.502 69.1959 119.484 65.1536 118.309L65.1845 118.61C69.2724 119.797 73.5559 120.826 78.0344 121.674" fill="#141024"/>
<path d="M34.141 141.441C42.0863 141.442 49.4472 137.813 56.0429 133.802C58.3103 132.424 60.6314 131.869 62.9653 131.869C67.4111 131.869 71.9017 133.882 76.1518 136.054C81.5105 135.578 88.6954 135.214 96.9298 135.017C97.9396 132.419 98.7376 128.886 99.2879 124.186C99.1767 124.181 99.0505 124.174 98.9396 124.168C97.9355 126.774 95.3874 131.746 90.5622 131.746C89.0896 131.746 87.4055 131.283 85.4877 130.149C82.1545 128.177 79.9649 124.972 78.0344 121.674C73.5559 120.826 69.2724 119.797 65.1845 118.61L65.572 122.384L50.7712 116.386C45.6092 121.24 42.1918 126.859 37.9516 126.859C36.0167 126.859 33.9109 125.69 31.3887 122.744C23.8516 113.939 18.4686 110.557 13.6061 110.557C9.06033 110.557 4.97055 113.513 -8.32348e-06 117.759V125.97C0.746628 125.878 1.47828 125.83 2.19369 125.83C5.36856 125.83 8.19578 126.784 10.3512 129.136C18.6936 138.237 26.6753 141.441 34.141 141.441M89.6202 141.354C90.3363 141.354 91.0259 141.259 91.6842 141.049C89.8576 140.986 88.1008 140.914 86.4205 140.835C87.5361 141.163 88.6056 141.354 89.6202 141.354" fill="#141024"/>
<path d="M91.6842 141.049C93.7677 140.386 95.5468 138.577 96.9298 135.017C88.6954 135.214 81.5105 135.578 76.1518 136.054C76.5135 136.239 76.8739 136.425 77.232 136.611C80.5 138.309 83.6079 140.007 86.4205 140.835C88.1008 140.914 89.8576 140.986 91.6842 141.049Z" fill="#0A0C13"/>
<path d="M237.789 83.3936C237.789 83.3936 216.119 69.3353 213 59.506C209.882 49.6764 207.219 49.5459 201.381 45.5233C195.542 41.5004 184.229 28.7341 184.229 28.7341C184.229 28.7341 124.751 7.62839 113.94 -2.00761C113.94 -2.00761 149.432 9.16752 161.812 13.7998C174.191 18.4324 189.726 20.3809 195.184 22.9105C195.184 22.9105 196.498 17.2644 196.816 9.67238C197.135 2.08039 200.219 -9.87117 200.219 -9.87117L207.333 -8.2129C207.333 -8.2129 204.175 4.02773 204.479 9.18591C204.783 14.3444 206.376 18.6289 207.333 22.9105C208.289 27.1924 214.766 35.0568 219.972 39.3005C225.178 43.5444 226.176 46.5166 235.078 52.1844C243.979 57.8524 256.767 68.4359 256.767 68.4359L237.789 83.3936Z" fill="#3A2259"/>
<path d="M172.697 21.0592L175.793 24.9568C175.793 24.9568 153.607 26.708 144.62 23.008C135.632 19.3084 128.7 19.483 123.403 18.3737C118.106 17.2644 106.1 10.8687 106.1 10.8687C106.1 10.8687 115.875 14.9284 124.16 16.0964C132.446 17.2644 140.483 18.2534 146.503 20.387C152.522 22.5204 172.697 21.0592 172.697 21.0592" fill="#3A2259"/>
<path d="M154.513 22.7235L156.749 24.9433C156.749 24.9433 143.08 27.5074 137.194 25.8018C131.308 24.0965 127.008 24.6659 123.624 24.3275C120.239 23.9891 112.261 20.8066 112.261 20.8066C112.261 20.8066 118.666 22.6835 123.915 22.8599C129.164 23.036 134.244 23.1177 138.159 24.0454C142.073 24.9731 154.513 22.7235 154.513 22.7235Z" fill="#3A2259"/>
<path d="M136.251 7.61756L138.19 10.0595C138.19 10.0595 124.29 11.1566 118.659 8.83871C113.028 6.52052 108.685 6.63001 105.366 5.93476C102.047 5.2398 94.5248 1.23269 94.5248 1.23269C94.5248 1.23269 100.649 3.7763 105.84 4.50806C111.031 5.23981 116.067 5.85943 119.838 7.19621C123.61 8.53298 136.251 7.61756 136.251 7.61756" fill="#3A2259"/>
<path d="M199.093 18.0338L199.083 21.0542C199.083 21.0542 187.162 14.4121 184.115 9.49275C181.067 4.57372 177.493 2.30984 175.264 -0.0480597C173.035 -2.40596 169.551 -9.71179 169.551 -9.71179C169.551 -9.71179 172.851 -4.34338 176.567 -0.941868C180.283 2.45935 183.945 5.68594 186.126 8.80684C188.306 11.9272 199.093 18.0338 199.093 18.0338Z" fill="#3A2259"/>
<path d="M197.255 19.346L198.061 21.5918C198.061 21.5918 187.416 19.353 183.827 16.3878C180.238 13.4225 176.973 12.5491 174.683 11.3017C172.392 10.054 167.836 5.41442 167.836 5.41442C167.836 5.41442 171.734 8.65619 175.41 10.3428C179.086 12.0294 182.676 13.5983 185.136 15.4236C187.596 17.2486 197.255 19.346 197.255 19.346" fill="#3A2259"/>
<path d="M194.867 15.8032L194.345 17.3671C194.345 17.3671 189.304 12.2098 188.567 9.22178C187.83 6.23404 186.365 4.54657 185.614 3.00393C184.862 1.4613 184.308 -2.82671 184.308 -2.82671C184.308 -2.82671 185.099 0.430546 186.442 2.728C187.785 5.02546 189.131 7.2245 189.726 9.1555C190.322 11.0865 194.867 15.8032 194.867 15.8032" fill="#3A2259"/>
<path d="M183.23 6.32224L183.558 7.92999C183.558 7.92999 176.482 5.50288 174.317 3.16892C172.152 0.834677 170 -0.0378174 168.554 -1.08522C167.107 -2.13263 164.446 -5.6959 164.446 -5.6959C164.446 -5.6959 166.795 -3.14644 169.148 -1.68177C171.501 -0.217096 173.806 1.15939 175.311 2.61735C176.816 4.07501 183.23 6.32224 183.23 6.32224" fill="#3A2259"/>
<path d="M174.828 19.0164C174.828 19.0164 170.367 11.7164 168.136 9.08836C165.906 6.46036 150.628 -4.73083 147.91 -7.89524C147.91 -7.89524 158.108 1.74077 161.37 5.56042C164.631 9.38036 167.499 17.5564 167.499 17.5564L174.828 19.0164Z" fill="#3A2259"/>
<path d="M164.95 8.5044L153.863 5.56046L134.505 -5.96303L151.317 7.31712L166.862 12.8844L164.95 8.5044Z" fill="#3A2259"/>
<path d="M109.974 5.77561L94.5248 7.31708L83.3718 2.78729L94.5248 5.77561L105.84 4.50805L109.974 5.77561Z" fill="#3A2259"/>
<path d="M126.226 17.1888L116.686 18.1404L109.8 15.3433L116.686 17.1888L123.674 16.4059L126.226 17.1888Z" fill="#3A2259"/>
<path d="M147.465 22.8515L140.21 17.0953L137.76 10.5682L140.971 16.4474L146.353 20.6052L147.465 22.8515" fill="#3A2259"/>
<path d="M208.172 29.2744L214.917 5.56045L223.974 -10.9373L210.88 4.93469L204.192 26.5018L208.172 29.2744Z" fill="#3A2259"/>
<path d="M199.093 36.7612L189.588 34.5458C189.588 34.5458 173.406 36.7484 163.123 33.4304C163.123 33.4304 175.2 39.092 191.585 36.5002L199.093 36.7612" fill="#3A2259"/>
<path d="M217.044 51.459L220.669 43.1075C220.669 43.1075 220.373 28.1194 225.291 19.2044C225.291 19.2044 217.606 29.4474 218.296 44.6703L217.044 51.459" fill="#3A2259"/>
<path d="M5.70572 90.0582C5.70572 90.0582 19.7274 69.3978 18.44 59.2297C17.1526 49.0614 19.5515 47.9948 23.2298 42.2114C26.9082 36.4283 31.9304 20.6405 31.9304 20.6405C31.9304 20.6405 77.8155 -19.9548 83.7007 -32.6793C83.7007 -32.6793 55.7185 -9.76313 46.2698 -1.09278C36.821 7.57729 23.3273 14.8954 19.3686 19.1671C19.3686 19.1671 15.7667 14.4299 12.2588 7.54605C8.75122 0.661854 0.849245 -9.25797 0.849245 -9.25797L-5.00529 -5.20064C-5.00529 -5.20064 3.08693 4.95921 4.99032 9.82159C6.89404 14.684 7.23948 19.1992 8.17094 23.4854C9.1024 27.7717 6.46161 37.3227 3.46009 43.0848C0.458565 48.8468 0.797309 51.9411 -5.00784 60.3294C-10.813 68.7177 -18.1191 83.0181 -18.1191 83.0181L5.70572 90.0582" fill="#3A2259"/>
<path d="M39.3104 9.46737L38.1071 14.1604C38.1071 14.1604 59.2968 7.88795 66.014 1.2832C72.7308 -5.32155 79.1944 -7.62485 83.6069 -10.5303C88.0198 -13.4357 96.3778 -23.5984 96.3778 -23.5984C96.3778 -23.5984 89.0867 -16.3816 81.9448 -12.3599C74.8028 -8.3382 67.8135 -4.56965 63.1689 -0.463838C58.524 3.64256 39.3104 9.46737 39.3104 9.46737Z" fill="#3A2259"/>
<path d="M56.7746 4.53783L55.6542 7.37811C55.6542 7.37811 69.3377 4.88268 74.0406 1.21867C78.7435 -2.44535 82.9483 -3.44925 85.9243 -4.96415C88.9004 -6.47934 94.9063 -12.2484 94.9063 -12.2484C94.9063 -12.2484 89.7977 -8.24185 85.0346 -6.21362C80.2715 -4.18509 75.6241 -2.30432 72.4084 -0.0573789C69.1927 2.18927 56.7746 4.53783 56.7746 4.53783" fill="#3A2259"/>
<path d="M13.7004 16.0619L14.9881 18.842C14.9881 18.842 23.1639 8.48247 23.8901 2.86527C24.6163 -2.75194 26.9525 -6.10877 28.0086 -9.07461C29.0649 -12.0402 29.1828 -20.0123 29.1828 -20.0123C29.1828 -20.0123 28.4139 -13.8911 26.4292 -9.43552C24.4443 -4.97931 22.4348 -0.703556 21.7461 2.9479C21.0578 6.59907 13.7004 16.0619 13.7004 16.0619" fill="#3A2259"/>
<path d="M15.9505 16.6176L16.1586 18.974C16.1586 18.974 25.022 13.1267 27.0742 9.11813C29.1264 5.10955 31.7659 3.14411 33.3494 1.17982C34.9325 -0.784461 37.1673 -6.68024 37.1673 -6.68024C37.1673 -6.68024 34.9475 -2.30695 32.2733 0.554361C29.5987 3.41567 26.9541 6.13798 25.4595 8.69473C23.9647 11.2515 15.9505 16.6176 15.9505 16.6176" fill="#3A2259"/>
<path d="M16.6513 12.5036L17.795 13.7592C17.795 13.7592 20.2576 7.21397 19.6719 4.19819C19.0862 1.18242 19.722 -0.893693 19.7612 -2.58262C19.8007 -4.27155 18.496 -8.42058 18.496 -8.42058C18.496 -8.42058 19.1461 -5.13733 18.8807 -2.54233C18.6152 0.0523833 18.3064 2.55774 18.5751 4.54918C18.8437 6.54062 16.6513 12.5036 16.6513 12.5036" fill="#3A2259"/>
<path d="M23.3637 -0.371547L23.7416 1.22687C23.7416 1.22687 29.2361 -3.52514 30.2434 -6.44602C31.2507 -9.36718 32.8647 -10.9361 33.7545 -12.4157C34.6442 -13.8952 35.5884 -18.1254 35.5884 -18.1254C35.5884 -18.1254 34.5024 -14.9406 32.954 -12.7544C31.4056 -10.5679 29.8639 -8.47979 29.094 -6.60136C28.3241 -4.72263 23.3637 -0.371547 23.3637 -0.371547" fill="#3A2259"/>
<path d="M36.4809 8.34229C36.4809 8.34229 37.5023 0.0278683 38.4455 -3.18705C39.3891 -6.40226 48.7324 -22.1478 49.8978 -26.0305C49.8978 -26.0305 44.5786 -13.5244 43.1892 -8.84425C41.8001 -4.16408 42.6181 4.39123 42.6181 4.39123L36.4809 8.34229" fill="#3A2259"/>
<path d="M63.3257 2.15015L67.5745 -5.73415L67.0704 -12.6213L66.5991 -6.0606L63.399 -0.3155L63.3257 2.15015Z" fill="#3A2259"/>
<path d="M15.4104 55.6034L14.2071 60.2961C14.2071 60.2961 35.3968 54.0239 42.114 47.4192C48.8309 40.8144 55.2944 38.5111 59.707 35.6057C64.1199 32.7003 72.4779 22.5379 72.4779 22.5379C72.4779 22.5379 65.1868 29.7543 58.0448 33.7761C50.9029 37.7978 43.9139 41.5663 39.269 45.6724C34.6241 49.7785 15.4104 55.6034 15.4104 55.6034" fill="#3A2259"/>
<path d="M32.8746 50.6735L31.7542 53.5141C31.7542 53.5141 45.4377 51.0187 50.1406 47.3547C54.8435 43.6906 59.0483 42.6867 62.0243 41.1716C65.0003 39.6567 71.0062 33.8876 71.0062 33.8876C71.0062 33.8876 65.8977 37.8941 61.1346 39.9224C56.3715 41.9509 51.724 43.8317 48.5084 46.0783C45.2927 48.3253 32.8746 50.6735 32.8746 50.6735" fill="#3A2259"/>
<path d="M39.4258 48.2861L43.6746 40.4018L43.1704 33.5147L42.6991 40.0754L39.4991 45.8205L39.4258 48.2861Z" fill="#3A2259"/>
<path d="M10.0912 29.6495L-6.16493 10.1901L-21.4966 -1.79622L-2.70837 8.1779L12.586 25.6792L10.0912 29.6495Z" fill="#3A2259"/>
<path d="M21.6285 33.3226L29.4521 27.9019C29.4521 27.9019 45.2994 24.1798 53.3719 17.4664C53.3719 17.4664 44.6375 26.9775 28.4384 30.4131L21.6285 33.3226Z" fill="#3A2259"/>
<path d="M11.306 53.2504L4.42977 46.8413C4.42977 46.8413 -1.64337 32.922 -9.95037 26.4533C-9.95037 26.4533 1.46968 33.1623 7.27834 47.4382L11.306 53.2504Z" fill="#3A2259"/>
<path d="M167.727 78.3367C167.727 78.3367 164.662 78.9339 162.612 77.3568C160.562 75.7797 156.137 73.6081 156.137 73.6081C156.137 73.6081 161.459 77.127 162.708 77.9931C163.957 78.8588 167.317 80.2464 168.462 79.5991C169.608 78.952 167.727 78.3367 167.727 78.3367" fill="#3A2259"/>
<path d="M167.688 78.2544C167.688 78.2544 164.034 76.5762 161.959 73.3902C159.885 70.2042 154.255 65.7936 154.255 65.7936C154.255 65.7936 159.875 73.302 161.177 75.1168C162.479 76.9316 166.366 80.5661 168.149 80.3206C169.931 80.075 167.688 78.2544 167.688 78.2544Z" fill="#3A2259"/>
<path d="M184.31 114.833C184.31 114.833 167.266 94.5647 166.002 90.7608C164.739 86.9566 171.444 84.6752 163.327 72.0199C160.588 67.7494 154.149 55.6066 154.429 52.2235C154.429 52.2235 159.4 62.871 162.525 65.9598C165.65 69.0482 169.61 75.4632 169.61 75.4632C169.61 75.4632 165.275 61.7272 165.016 58.1855C164.757 54.6436 164.315 51.6214 166.078 43.3543C166.078 43.3543 166.253 51.0678 166.668 54.4769C167.084 57.8857 165.654 60.9493 168.141 64.4457C170.628 67.9421 174.328 78.2036 175 82.4034C175.126 83.1907 175.417 84.2416 175.806 85.4291C178.324 93.1143 182.778 99.7713 188.543 104.649L194.407 109.611L184.31 114.833Z" fill="#3A2259"/>
<path d="M160.265 65.5059C160.265 65.5059 155.961 64.6597 153.886 61.474C151.812 58.288 146.832 53.0451 146.832 53.0451C146.832 53.0451 152.452 60.5536 153.754 62.3684C155.056 64.1832 158.944 67.8177 160.726 67.5721C162.508 67.3266 160.265 65.5059 160.265 65.5059" fill="#3A2259"/>
<path d="M162.758 67.4592L164.048 68.1938C164.048 68.1938 163.549 61.2329 162.048 58.6647C160.546 56.0969 160.281 53.9431 159.712 52.3683C159.143 50.7936 156.709 47.4461 156.709 47.4461C156.709 47.4461 158.352 50.237 159.075 52.7327C159.799 55.2282 160.458 57.6573 161.362 59.3968C162.266 61.1365 162.758 67.4592 162.758 67.4592" fill="#3A2259"/>
<path d="M162.634 65.0218L163.403 65.1705C163.403 65.1705 162.191 61.6522 161.061 60.591C159.931 59.5302 159.498 58.4615 158.987 57.7475C158.476 57.0336 156.756 55.7362 156.756 55.7362C156.756 55.7362 157.99 56.8876 158.707 58.0509C159.424 59.2143 160.098 60.3548 160.805 61.0939C161.512 61.8332 162.634 65.0218 162.634 65.0218Z" fill="#3A2259"/>
<path d="M160.869 57.4926L161.49 58.0331C161.49 58.0331 161.841 54.2718 161.269 52.7318C160.698 51.1915 160.747 50.0148 160.583 49.111C160.42 48.2073 159.421 46.144 159.421 46.144C159.421 46.144 160.049 47.8195 160.213 49.231C160.377 50.6426 160.512 52.0112 160.839 53.0416C161.167 54.0718 160.869 57.4926 160.869 57.4926" fill="#3A2259"/>
<path d="M167.167 93.5485L168.607 93.467C168.607 93.467 165.199 87.674 162.793 86.2747C160.387 84.8755 159.236 83.1454 158.067 82.0904C156.898 81.0357 153.346 79.4787 153.346 79.4787C153.346 79.4787 155.971 80.993 157.667 82.7649C159.364 84.5368 160.975 86.2864 162.507 87.2976C164.038 88.3088 167.167 93.5485 167.167 93.5485" fill="#3A2259"/>
<path d="M166.019 91.4916L166.753 91.1906C166.753 91.1906 164.193 88.8006 162.754 88.508C161.315 88.2154 160.482 87.5257 159.731 87.189C158.981 86.8523 156.926 86.6839 156.926 86.6839C156.926 86.6839 158.495 86.9969 159.617 87.6104C160.739 88.2236 161.814 88.8409 162.746 89.0896C163.679 89.3384 166.019 91.4916 166.019 91.4916" fill="#3A2259"/>
<path d="M161.264 85.9124L162.037 86.0359C162.037 86.0359 160.737 82.5588 159.581 81.5353C158.424 80.5118 157.965 79.458 157.436 78.761C156.908 78.0643 155.156 76.8239 155.156 76.8239C155.156 76.8239 156.418 77.9341 157.164 79.0734C157.91 80.2128 158.612 81.3306 159.338 82.0463C160.063 82.762 161.264 85.9124 161.264 85.9124" fill="#3A2259"/>
<path d="M178.256 106.041L180.134 105.016C180.134 105.016 172.782 99.465 168.897 99.1318C165.012 98.7986 162.638 97.2259 160.568 96.564C158.499 95.9023 153.01 96.0883 153.01 96.0883C153.01 96.0883 157.243 96.4355 160.363 97.7168C163.484 98.9984 166.481 100.304 169.012 100.677C171.544 101.05 178.256 106.041 178.256 106.041" fill="#3A2259"/>
<path d="M175.727 104.031L176.56 103.162C176.56 103.162 171.989 101.607 169.929 102.132C168.515 102.493 167.391 102.424 166.449 102.353C166.018 102.322 165.625 102.29 165.261 102.299C164.097 102.328 161.278 103.411 161.278 103.411C161.278 103.411 163.519 102.83 165.312 102.933C167.105 103.036 168.838 103.175 170.2 102.913C171.564 102.651 175.727 104.031 175.727 104.031Z" fill="#3A2259"/>
<path d="M166.684 99.6221L167.774 99.2947C167.774 99.2947 164.354 95.4888 162.316 94.8607C160.279 94.2329 159.155 93.1207 158.113 92.5285C157.07 91.9363 154.134 91.3988 154.134 91.3988C154.134 91.3988 156.355 92.0742 157.902 93.1181C159.448 94.162 160.927 95.2041 162.241 95.6961C163.555 96.1882 166.684 99.6221 166.684 99.6221" fill="#3A2259"/>
<path d="M174.159 86.4567L175.717 88.0352C175.717 88.0352 177.302 78.1154 176.05 73.8902C174.798 69.6649 175.133 66.5478 174.855 64.1079C174.577 61.6676 172.28 55.9552 172.28 55.9552C172.28 55.9552 173.658 60.5525 173.849 64.3423C174.039 68.1325 174.162 71.8021 174.853 74.6161C175.544 77.4298 174.159 86.4567 174.159 86.4567Z" fill="#3A2259"/>
<path d="M174.785 83.0049L175.809 83.5428C175.809 83.5428 175.27 78.1165 174.042 76.1517C172.814 74.1871 172.561 72.511 172.083 71.2963C171.604 70.0816 169.63 67.5336 169.63 67.5336C169.63 67.5336 170.974 69.669 171.593 71.5991C172.211 73.5289 172.778 75.4088 173.522 76.743C174.265 78.0774 174.785 83.0049 174.785 83.0049" fill="#3A2259"/>
<path d="M174.79 71.7492L175.48 72.77C175.48 72.77 177.2 67.6767 176.908 65.2834C176.615 62.8905 177.069 61.2711 177.138 59.941C177.205 58.6107 176.489 55.3049 176.489 55.3049C176.489 55.3049 176.815 57.9104 176.581 59.9489C176.347 61.9873 176.088 63.954 176.207 65.5308C176.325 67.1078 174.79 71.7492 174.79 71.7492" fill="#3A2259"/>
<path d="M183.686 103.71L185.244 105.289C185.244 105.289 186.829 95.3691 185.576 91.1439C184.324 86.9186 184.659 83.8015 184.382 81.3616C184.104 78.9213 181.807 73.2089 181.807 73.2089C181.807 73.2089 183.184 77.8062 183.375 81.5961C183.566 85.3862 183.689 89.0558 184.38 91.8698C185.07 94.6835 183.686 103.71 183.686 103.71" fill="#3A2259"/>
<path d="M184.311 100.259L185.335 100.797C185.335 100.797 184.797 95.3703 183.569 93.4054C182.341 91.4408 182.087 89.765 181.609 88.55C181.13 87.3353 179.157 84.7873 179.157 84.7873C179.157 84.7873 180.501 86.9227 181.119 88.8528C181.738 90.7827 182.304 92.6626 183.048 93.9967C183.792 95.3311 184.311 100.259 184.311 100.259" fill="#3A2259"/>
<path d="M184.317 89.0032L185.006 90.0237C185.006 90.0237 186.727 84.9304 186.434 82.5374C186.142 80.1442 186.596 78.5251 186.664 77.1947C186.732 75.8644 186.015 72.5589 186.015 72.5589C186.015 72.5589 186.341 75.1642 186.108 77.2026C185.874 79.2411 185.615 81.2077 185.733 82.7845C185.852 84.3616 184.317 89.0032 184.317 89.0032" fill="#3A2259"/>
<path d="M165.564 55.597L166.153 57.1025C166.153 57.1025 169.627 51.3618 169.891 48.2862C170.154 45.2105 171.143 43.3534 171.576 41.7229C172.01 40.0924 171.985 35.7366 171.985 35.7366C171.985 35.7366 171.707 39.0879 170.882 41.5416C170.058 43.9955 169.22 46.3514 168.955 48.3528C168.688 50.3541 165.564 55.597 165.564 55.597" fill="#3A2259"/>
<path d="M166.819 53.6236L167.331 54.2982C167.331 54.2982 168.345 50.6981 168.06 49.0568C167.775 47.4151 168.033 46.2749 168.034 45.3519C168.035 44.4288 167.425 42.1758 167.425 42.1758C167.425 42.1758 167.741 43.9625 167.65 45.3825C167.558 46.8028 167.447 48.1743 167.584 49.2594C167.72 50.3445 166.819 53.6236 166.819 53.6236Z" fill="#3A2259"/>
<path d="M171.629 39.7606L171.881 40.9768C171.881 40.9768 175.176 37.2687 175.753 35.0229C176.33 32.7772 177.296 31.5557 177.82 30.4125C178.344 29.2697 178.864 26.0244 178.864 26.0244C178.864 26.0244 178.243 28.4731 177.326 30.1652C176.408 31.8574 175.494 33.4744 175.048 34.9204C174.603 36.3664 171.629 39.7606 171.629 39.7606" fill="#3A2259"/>
<path d="M237.789 83.3936L239 82.4391V54.8121C237.647 53.8683 236.324 52.978 235.078 52.1844C226.622 46.8008 225.298 43.8492 220.725 39.9297C220.675 41.1494 220.665 42.0844 220.665 42.6149C220.665 42.9347 220.669 43.1076 220.669 43.1076L217.044 51.459L218.296 44.6703C218.266 44.0163 218.252 43.3712 218.252 42.7361C218.252 41.1071 218.346 39.5405 218.511 38.0451C214.943 34.8314 211.091 30.3174 208.932 26.6017L208.172 29.2743L204.192 26.5018L206.424 19.3028C205.587 16.167 204.698 12.9034 204.479 9.18591C204.465 8.94939 204.459 8.69768 204.459 8.43284C204.458 6.33745 204.875 3.42446 205.391 0.620386H197.948C197.396 3.69894 196.93 6.96292 196.816 9.67238C196.712 12.1544 196.502 14.4285 196.266 16.3653C197.918 17.3686 199.093 18.0338 199.093 18.0338L199.083 21.0543C199.083 21.0543 198.496 20.7269 197.548 20.1634L198.061 21.5918C198.061 21.5918 197.058 21.3813 195.566 21.0034C195.344 22.2225 195.184 22.9105 195.184 22.9105C191.419 21.1652 182.858 19.6967 173.845 17.4329C174.444 18.3874 174.828 19.0164 174.828 19.0164L167.499 17.5564C167.499 17.5564 167.206 16.7192 166.7 15.4557C165.037 14.9433 163.399 14.3937 161.812 13.7998C153.218 10.584 133.484 4.21491 122.22 0.620386H117.592C121.069 2.78673 125.997 5.27312 131.62 7.85206C134.259 7.76183 136.251 7.61758 136.251 7.61758L138.19 10.0596C138.19 10.0596 137.656 10.1016 136.755 10.1521C137.092 10.2996 137.43 10.4468 137.769 10.5945L137.76 10.5682L137.775 10.5971C146.593 14.4305 156.33 18.2896 164.602 21.4569C169.158 21.3156 172.697 21.0592 172.697 21.0592L175.793 24.9568C175.793 24.9568 175.202 25.0036 174.173 25.0655C175.843 25.6857 177.356 26.2422 178.669 26.7228C178.795 26.2968 178.864 26.0244 178.864 26.0244C178.864 26.0244 178.818 26.3132 178.739 26.7485C182.166 28.0018 184.229 28.7341 184.229 28.7341C184.229 28.7341 186.528 31.3283 189.588 34.5458L199.093 36.7612L191.585 36.5002C191.551 36.5054 191.517 36.5107 191.483 36.5159C194.852 39.9729 198.695 43.6729 201.381 45.5233C207.219 49.5459 209.882 49.6764 213 59.506C216.119 69.3353 237.789 83.3936 237.789 83.3936Z" fill="#17132B"/>
<path d="M164.124 25.3708C168.39 25.3708 172.138 25.1881 174.173 25.0654C175.202 25.0035 175.793 24.9568 175.793 24.9568L172.697 21.0592C172.697 21.0592 165.957 21.5474 159.106 21.5474C154.104 21.5474 149.043 21.2872 146.503 20.387C146.248 20.2965 145.989 20.2083 145.728 20.1221L146.353 20.6051L147.465 22.8515L143.023 19.3267C137.547 17.8872 130.937 17.0515 124.16 16.0963C115.875 14.9283 106.1 10.8687 106.1 10.8687C106.1 10.8687 113.265 14.6851 118.966 16.9332L123.674 16.4059L126.226 17.1887L121.055 17.7044C121.923 17.999 122.719 18.2306 123.403 18.3737C128.7 19.483 135.632 19.3083 144.62 23.008C145.363 23.314 146.195 23.5824 147.098 23.8177C150.987 23.3613 154.513 22.7236 154.513 22.7236L156.749 24.9434C156.749 24.9434 156.424 25.0044 155.853 25.101C158.62 25.3005 161.472 25.3708 164.124 25.3708" fill="#17132B"/>
<path d="M142.722 26.3873C147.752 26.3873 153.646 25.4754 155.853 25.1011C156.424 25.0044 156.749 24.9434 156.749 24.9434L154.513 22.7236C154.513 22.7236 145.963 24.2697 140.809 24.2697C139.747 24.2697 138.828 24.204 138.159 24.0455C134.244 23.1178 129.164 23.036 123.915 22.86C118.666 22.6836 112.261 20.8066 112.261 20.8066C112.261 20.8066 120.239 23.9891 123.624 24.3276C127.008 24.666 131.308 24.0966 137.194 25.8019C138.664 26.2276 140.616 26.3873 142.722 26.3873" fill="#17132B"/>
<path d="M130.879 10.3188C133.281 10.3188 135.421 10.2266 136.755 10.1521C137.656 10.1016 138.19 10.0595 138.19 10.0595L136.251 7.61755C136.251 7.61755 132.028 7.92328 127.735 7.92328C124.602 7.92328 121.43 7.76035 119.838 7.1962C116.067 5.85943 111.031 5.2398 105.84 4.50805L109.974 5.77561L106.433 6.12893C109.601 6.63351 113.613 6.76112 118.659 8.8387C121.552 10.0295 126.627 10.3188 130.879 10.3188M102.274 4.90749L105.84 4.50805C100.649 3.7763 94.5248 1.23269 94.5248 1.23269C94.5248 1.23269 98.7573 3.4875 102.274 4.90749Z" fill="#17132B"/>
<path d="M199.083 21.0542L199.093 18.0338C199.093 18.0338 196.838 16.7574 194.182 15.0732C194.598 15.5237 194.867 15.8032 194.867 15.8032L194.345 17.3671C194.345 17.3671 191.951 14.9181 190.221 12.4174C188.399 11.1066 186.822 9.80431 186.126 8.80684C184.282 6.16774 181.378 3.45273 178.278 0.620331H175.93C177.384 2.01375 179.243 3.465 181.125 5.53615C182.33 6.00715 183.229 6.32222 183.229 6.32222L183.558 7.92997C183.558 7.92997 183.311 7.84529 182.896 7.69258C183.309 8.25146 183.716 8.84948 184.115 9.49275C186.091 12.6834 191.802 16.5992 195.57 18.9568C196.592 19.202 197.255 19.346 197.255 19.346L197.548 20.1633C198.496 20.7269 199.083 21.0542 199.083 21.0542" fill="#17132B"/>
<path d="M198.061 21.5918L197.548 20.1633L197.255 19.346C197.255 19.346 196.592 19.2021 195.57 18.9568C192.689 18.2662 186.952 16.7706 185.136 15.4236C182.676 13.5983 179.086 12.0294 175.41 10.3428C171.734 8.65619 167.836 5.41442 167.836 5.41442C167.836 5.41442 172.392 10.054 174.683 11.3017C176.973 12.5491 180.238 13.4225 183.827 16.3878C187.416 19.353 198.061 21.5918 198.061 21.5918" fill="#17132B"/>
<path d="M194.345 17.3671L194.867 15.8032C194.867 15.8032 190.322 11.0865 189.726 9.1555C189.131 7.2245 187.785 5.02546 186.442 2.728C186.058 2.071 185.719 1.33574 185.431 0.620344H184.9C185.102 1.55153 185.345 2.45264 185.614 3.00394C186.365 4.54657 187.83 6.23404 188.567 9.22178C188.796 10.1506 189.441 11.2894 190.221 12.4174C191.951 14.9181 194.345 17.3671 194.345 17.3671" fill="#17132B"/>
<path d="M183.558 7.92999L183.23 6.32224C183.23 6.32224 182.33 6.00717 181.125 5.53618C179.114 4.74953 176.252 3.52897 175.311 2.61735C174.611 1.93962 173.739 1.27969 172.77 0.620355H171.259C172.223 1.25108 173.269 2.03859 174.317 3.16892C176.482 5.50288 183.558 7.92999 183.558 7.92999" fill="#17132B"/>
<path d="M174.828 19.0164C174.828 19.0164 170.367 11.7164 168.136 9.08836C167.003 7.75246 162.496 4.20291 157.983 0.620357H156.676C158.576 2.52478 160.327 4.33986 161.37 5.56042C161.965 6.2583 162.548 7.10159 163.103 8.0138L164.95 8.50436L166.862 12.8844L165.367 12.3488C165.895 13.4984 166.348 14.5794 166.7 15.4557C167.206 16.7192 167.499 17.5564 167.499 17.5564L174.828 19.0164" fill="#17132B"/>
<path d="M166.862 12.8844L164.95 8.5044L163.103 8.01385L153.863 5.56046L145.564 0.620401H142.839L151.317 7.31712L166.862 12.8844Z" fill="#17132B"/>
<path d="M94.5248 7.31708L106.433 6.12893L109.974 5.77561L105.84 4.50805L102.274 4.90749L94.5248 5.77561L83.3718 2.78729L86.1044 3.89719L88.8812 5.02488L94.5248 7.31708Z" fill="#17132B"/>
<path d="M116.686 18.1404L121.055 17.7044L126.226 17.1888L123.674 16.4059L116.686 17.1888L109.8 15.3433L116.686 18.1404Z" fill="#17132B"/>
<path d="M147.465 22.8515L146.353 20.6052L140.971 16.4474L137.775 10.5971L137.76 10.5682L137.769 10.5945L140.21 17.0953L143.023 19.3268L147.465 22.8515" fill="#17132B"/>
<path d="M208.172 29.2744L214.917 5.56046L217.629 0.6204H214.439L210.88 4.9347L204.192 26.5018L208.172 29.2744Z" fill="#17132B"/>
<path d="M182.928 37.1794C185.601 37.1794 188.469 36.9872 191.483 36.516C191.517 36.5107 191.551 36.5054 191.585 36.5002L199.093 36.7612L189.588 34.5458C189.588 34.5458 184.323 35.2624 177.892 35.2624C177.172 35.2624 176.436 35.2533 175.693 35.2335C175.557 35.6636 175.334 36.1375 175.063 36.624C177.421 36.9583 180.062 37.1791 182.928 37.1794" fill="#17132B"/>
<path d="M174.189 36.4926C174.506 36.0245 174.776 35.5774 174.938 35.2095C170.901 35.0606 166.663 34.5727 163.123 33.4303C163.123 33.4303 166.438 34.9844 171.951 36.0913C171.974 35.8653 171.985 35.7366 171.985 35.7366C171.985 35.7366 171.985 35.7842 171.985 35.8712C171.985 35.9296 171.985 36.0061 171.985 36.0981C172.685 36.2382 173.42 36.3711 174.189 36.4926" fill="#17132B"/>
<path d="M217.044 51.459L220.669 43.1075C220.669 43.1075 220.665 42.9346 220.665 42.6149C220.665 39.9577 220.902 27.1617 225.291 19.2044C225.291 19.2044 218.252 28.586 218.252 42.7361C218.252 43.3712 218.266 44.0162 218.296 44.6703L217.044 51.459Z" fill="#17132B"/>
<path d="M5.70573 90.0582C5.70573 90.0582 18.5219 71.1737 18.5235 60.6284C18.5235 60.1437 18.4967 59.6765 18.44 59.2297C18.4282 59.1366 18.4167 59.0437 18.4056 58.9523C15.8671 59.8047 14.2071 60.2961 14.2071 60.2961L15.4104 55.6034C15.4104 55.6034 16.4448 55.2898 18.091 54.7572C18.0894 54.6436 18.0888 54.5318 18.0888 54.4214C18.0875 50.0866 19.2392 48.078 21.0326 45.4628C21.6878 44.5074 22.4284 43.4717 23.2299 42.2114C24.922 39.5516 26.898 34.775 28.5388 30.3918C28.5054 30.3988 28.4722 30.4058 28.4385 30.4131L21.6286 33.3226L29.4521 27.9019C29.8256 26.8633 30.1704 25.8804 30.4766 24.9927C30.6328 24.5399 30.7791 24.1115 30.9142 23.7135C31.5467 21.8462 31.9304 20.6405 31.9304 20.6405C31.9304 20.6405 34.9976 17.9269 39.6456 13.6848C38.6721 13.9931 38.1071 14.1604 38.1071 14.1604L39.3104 9.4674C39.3104 9.4674 42.6813 8.4454 46.9399 6.9562C49.082 4.95863 51.3458 2.82732 53.6584 0.620385H44.3329C43.7214 1.14277 43.0981 1.65961 42.4658 2.17061C42.5344 3.51498 42.6182 4.39128 42.6182 4.39128L36.481 8.34233C36.481 8.34233 36.5689 7.62576 36.7171 6.5328C29.3686 11.8233 22.0995 16.2202 19.3686 19.1671C19.3686 19.1671 18.9295 18.5895 18.2089 17.545C16.9932 18.4236 16.1586 18.974 16.1586 18.974L16.0264 17.4755C15.3913 18.3316 14.9882 18.8421 14.9882 18.8421L13.7005 16.0619C13.7005 16.0619 14.5019 15.0312 15.6003 13.5189C14.5628 11.8177 13.4057 9.79649 12.2588 7.54605C11.1661 5.40131 9.647 2.96252 8.07311 0.620385H9.19202e-06V1.50106C2.04967 4.4123 4.13917 7.64678 4.99033 9.82159C6.11268 12.6884 6.6936 15.435 7.17192 18.0846C7.27836 18.6739 7.37969 19.2579 7.48071 19.8372L12.5861 25.6792L10.0912 29.6496L8.25889 27.4564C7.84303 31.6483 6.20317 37.1779 4.27556 41.4081C5.36699 43.2425 6.38864 45.252 7.27835 47.4382L11.306 53.2505L4.42979 46.8414C4.42979 46.8414 3.93427 45.7055 3.03276 43.9322C1.7036 46.6562 1.07392 48.8258 9.19202e-06 51.4024V88.3722L5.70573 90.0582Z" fill="#17132B"/>
<path d="M38.1071 14.1604C38.1071 14.1604 45.6222 11.9356 53.1201 8.74116C54.2721 8.25031 55.4222 7.73726 56.5461 7.20524C55.9792 7.31912 55.6542 7.37812 55.6542 7.37812L56.7746 4.53783C56.7746 4.53783 60.2952 3.87177 64.0724 2.91022C64.805 2.37235 65.4589 1.82895 66.014 1.2832C66.2435 1.05719 66.4732 0.836145 66.702 0.620357H64.1501L63.3257 2.15015L63.3713 0.620357H61.6827C58.2685 2.77444 51.9818 5.19278 46.9399 6.95617C42.6812 8.44537 39.3104 9.46737 39.3104 9.46737L38.1071 14.1604" fill="#17132B"/>
<path d="M55.6542 7.37811C55.6542 7.37811 64.9149 5.68947 70.8179 3.05008C72.09 2.48127 73.2066 1.86807 74.0406 1.21867C74.3073 1.01076 74.5724 0.811612 74.8357 0.620352H71.1822C69.403 1.44379 66.6772 2.24708 64.0724 2.91021C60.2952 3.87177 56.7746 4.53783 56.7746 4.53783L55.6542 7.37811" fill="#17132B"/>
<path d="M14.9881 18.842C14.9881 18.842 15.3913 18.3316 16.0264 17.4755L15.9505 16.6176C15.9505 16.6176 16.5002 16.2497 17.3383 15.6604C19.1961 13.0242 21.69 9.19058 23.0182 5.90178C23.4599 4.80795 23.7725 3.77455 23.8901 2.86527C23.9851 2.13059 24.1074 1.43448 24.2511 0.772803C23.9331 1.0613 23.7416 1.22686 23.7416 1.22686L23.5982 0.620373H22.3267C22.0852 1.41987 21.8879 2.19717 21.7461 2.9479C21.5262 4.11474 20.6247 5.87578 19.5001 7.73144C18.9645 10.6511 17.795 13.7592 17.795 13.7592L16.6513 12.5036C16.6513 12.5036 16.781 12.1506 16.9734 11.5876C15.238 14.0842 13.7004 16.0619 13.7004 16.0619L14.9881 18.842" fill="#17132B"/>
<path d="M16.1586 18.974C16.1586 18.974 18.0158 17.7491 20.2271 16.0356C21.111 15.3506 22.0514 14.5876 22.9526 13.7936C24.7209 12.2355 26.3372 10.558 27.0742 9.11813C29.1265 5.10955 31.766 3.1441 33.3494 1.17982C33.4798 1.01805 33.6142 0.829708 33.7519 0.620344H32.2115C29.5582 3.45742 26.9426 6.15754 25.4596 8.69473C24.3563 10.5816 19.7009 13.9998 17.3383 15.6604C16.5002 16.2496 15.9506 16.6176 15.9506 16.6176L16.0264 17.4755L16.1586 18.974" fill="#17132B"/>
<path d="M17.795 13.7592C17.795 13.7592 18.9645 10.6511 19.5002 7.73139C19.6589 6.86532 19.7618 6.01591 19.7621 5.26897C19.7621 4.88032 19.7344 4.5191 19.6719 4.19819C19.489 3.25562 19.425 2.40502 19.4253 1.62918C19.4253 1.2782 19.4383 0.942401 19.4594 0.620325H18.5716C18.5113 1.37982 18.4718 2.11361 18.4715 2.80916C18.4712 3.42177 18.5015 4.0046 18.5751 4.54918C18.5904 4.66394 18.5977 4.79183 18.5977 4.93112C18.5983 7.20813 16.6513 12.5036 16.6513 12.5036L17.795 13.7592" fill="#17132B"/>
<path d="M23.7416 1.22687C23.7416 1.22687 24.0017 1.00203 24.4185 0.620383H23.5982L23.7416 1.22687Z" fill="#17132B"/>
<path d="M36.481 8.34229L42.6182 4.39123C42.6182 4.39123 42.4662 2.80275 42.4047 0.620339H37.6231C36.9908 4.19062 36.481 8.34229 36.481 8.34229" fill="#17132B"/>
<path d="M63.3257 2.15015L64.1501 0.620355H63.3713L63.3257 2.15015Z" fill="#17132B"/>
<path d="M14.2071 60.2961C14.2071 60.2961 24.0938 57.3694 32.5011 53.4096C32.5502 53.3868 32.5974 53.3643 32.6461 53.3412C32.0792 53.4548 31.7542 53.5141 31.7542 53.5141L32.8746 50.6735C32.8746 50.6735 36.3952 50.0078 40.1724 49.0462C40.905 48.5083 41.5589 47.9649 42.114 47.4192C45.338 44.2489 48.5036 42.0697 51.4121 40.3393C54.5631 38.4647 57.4122 37.1168 59.707 35.6057C62.2767 33.9139 66.1839 29.7613 68.9999 26.5873C71.0196 24.3109 72.4779 22.5379 72.4779 22.5379C72.4779 22.5379 65.1868 29.7543 58.0448 33.7761C52.204 37.0649 46.4651 40.1849 42.0273 43.4585L39.4258 48.2861L39.499 45.8205L39.8709 45.153C39.6664 45.3255 39.4653 45.4987 39.269 45.6724C34.6241 49.7785 15.4104 55.6034 15.4104 55.6034L14.2071 60.2961" fill="#17132B"/>
<path d="M31.7542 53.5141C31.7542 53.5141 45.4377 51.0187 50.1406 47.3547C51.5144 46.2842 52.8457 45.4409 54.1163 44.7456C56.287 43.5575 58.2803 42.8015 60.0059 42.0829C60.7276 41.7821 61.4029 41.4881 62.0243 41.1716C65.0003 39.6567 71.0062 33.8876 71.0062 33.8876C71.0062 33.8876 65.8977 37.8941 61.1346 39.9224C56.3715 41.9509 51.724 43.8317 48.5084 46.0783C47.0049 47.1289 43.4897 48.2017 40.1724 49.0462C36.3952 50.0078 32.8746 50.6735 32.8746 50.6735L31.7542 53.5141" fill="#17132B"/>
<path d="M39.4258 48.2861L42.0274 43.4585L43.6746 40.4018L43.1704 33.5147L42.6991 40.0754L39.4991 45.8205L39.4258 48.2861Z" fill="#17132B"/>
<path d="M10.0912 29.6495L12.586 25.6792L7.48069 19.8372L-9.87654e-06 11.2772V17.5698L3.62513 21.9095L10.0912 29.6495" fill="#17132B"/>
<path d="M21.6285 33.3226L28.4384 30.4131C37.9697 28.3916 44.917 24.2668 49.0211 21.2137C51.8923 19.078 53.3719 17.4664 53.3719 17.4664C45.309 24.1719 29.4887 27.8932 29.4521 27.9019L21.6285 33.3226" fill="#17132B"/>
<path d="M11.306 53.2504L7.27834 47.4382C5.28412 42.537 2.62772 38.5269 -6.41166e-06 35.3748V38.4837C2.77048 43.038 4.42977 46.8413 4.42977 46.8413L11.306 53.2504Z" fill="#17132B"/>
<path d="M155.157 119.475C155.095 119.39 155.035 119.304 154.974 119.218C155.035 119.304 155.095 119.39 155.157 119.475Z" fill="#171126"/>
<path d="M155.906 120.471C155.65 120.146 155.4 119.813 155.157 119.475C155.4 119.813 155.65 120.146 155.906 120.471Z" fill="#171126"/>
<path d="M68.2045 111.987C68.2052 111.986 68.2058 111.986 68.2064 111.985C68.2058 111.986 68.2052 111.986 68.2045 111.987ZM68.2115 111.981C68.2147 111.978 68.2176 111.976 68.2205 111.973C68.2176 111.975 68.2147 111.978 68.2115 111.981ZM68.223 111.971C68.2265 111.968 68.23 111.965 68.2338 111.962C68.23 111.965 68.2265 111.968 68.223 111.971ZM68.2635 111.937L68.2641 111.937C68.2654 111.936 68.267 111.935 68.2683 111.933C68.2667 111.935 68.2651 111.936 68.2635 111.937M68.2928 111.913L68.2937 111.912C68.2947 111.911 68.2953 111.911 68.2963 111.91C68.295 111.911 68.2941 111.912 68.2928 111.913ZM68.3081 111.9C68.3087 111.9 68.3094 111.899 68.31 111.899C68.3129 111.896 68.3173 111.892 68.3202 111.89C68.3218 111.889 68.3234 111.888 68.325 111.886C68.3192 111.891 68.3138 111.896 68.3081 111.9ZM68.3323 111.88C68.339 111.874 68.346 111.869 68.353 111.863C68.346 111.869 68.339 111.874 68.3323 111.88Z" fill="#2E1A42"/>
<path d="M69.6548 110.714C70.1634 110.244 70.6583 109.762 71.1395 109.269C71.1455 109.262 71.1509 109.256 71.157 109.249C70.6701 109.749 70.1694 110.238 69.6545 110.713C69.6548 110.714 69.6541 110.713 69.6548 110.714" fill="#3A1E50"/>
<path d="M68.3556 111.86C68.7985 111.487 69.2316 111.104 69.6548 110.714C69.6541 110.713 69.6548 110.714 69.6545 110.713C69.2313 111.104 68.7985 111.487 68.3556 111.86Z" fill="#2E1A42"/>
<path d="M71.1311 109.277C71.1372 109.271 71.1421 109.265 71.1482 109.259C71.1515 109.256 71.1547 109.252 71.1579 109.248C71.1518 109.255 71.1453 109.262 71.1392 109.268C71.1366 109.271 71.1337 109.274 71.1311 109.277" fill="#3A1E50"/>
<path d="M156.006 120.598C156.003 120.594 156 120.59 155.997 120.586C156 120.59 156.003 120.594 156.006 120.598Z" fill="#170E1F"/>
<path d="M154.973 119.219L154.974 119.218C154.973 119.217 154.972 119.216 154.971 119.214C154.971 119.214 154.971 119.215 154.971 119.215C154.971 119.217 154.972 119.217 154.973 119.219Z" fill="#3A1944"/>
<path d="M155.156 119.475L155.157 119.475C155.095 119.39 155.035 119.304 154.974 119.218L154.973 119.219C155.033 119.304 155.095 119.39 155.156 119.475" fill="#170E1F"/>
<path d="M155.989 120.576C155.961 120.541 155.933 120.506 155.906 120.471C155.65 120.146 155.4 119.813 155.157 119.475L155.156 119.475C155.426 119.851 155.704 120.217 155.989 120.576" fill="#170E1F"/>
<path d="M68.2643 111.937C68.2678 111.934 68.2722 111.93 68.2757 111.927C68.2735 111.929 68.2709 111.931 68.2684 111.933C68.2671 111.934 68.2655 111.935 68.2643 111.937ZM68.2938 111.912C68.2995 111.907 68.304 111.904 68.31 111.899C68.3094 111.899 68.3088 111.9 68.3081 111.9C68.3043 111.903 68.3005 111.906 68.2964 111.91C68.2954 111.911 68.2948 111.911 68.2938 111.912" fill="#2E1639"/>
<path d="M69.6548 110.714C70.1611 110.246 70.6525 109.768 71.1315 109.277C71.134 109.274 71.1369 109.271 71.1395 109.269C70.6583 109.762 70.1634 110.244 69.6548 110.714Z" fill="#3A1944"/>
<path d="M71.1396 109.269C71.1456 109.262 71.152 109.256 71.158 109.25C71.165 109.242 71.1723 109.234 71.1796 109.227C71.172 109.234 71.1647 109.242 71.157 109.25C71.151 109.256 71.1456 109.262 71.1396 109.269Z" fill="#3A1944"/>
<path d="M71.3687 109.031C71.3708 109.029 71.3729 109.027 71.375 109.025C71.3729 109.027 71.3708 109.029 71.3687 109.031Z" fill="#3A1E50"/>
<path d="M71.1796 109.226C71.2446 109.159 71.3103 109.093 71.375 109.025C71.3727 109.027 71.3705 109.029 71.3683 109.031C71.3017 109.097 71.2395 109.161 71.1796 109.226Z" fill="#3A1944"/>
<path d="M1.52588e-05 81.9257L51.624 114.933L82.216 121.975H119.978L181.64 112.293L211.276 100.85L239 107.011V146.62H1.52588e-05V81.9257Z" fill="#17132B"/>
</g>
<defs>
<clipPath id="clip0_38_10789">
<rect width="239" height="146" fill="white" transform="matrix(-1 0 0 1 239 0.620361)"/>
</clipPath>
</defs>
</svg>
