<svg width="237" height="146" viewBox="0 0 237 146" fill="none" xmlns="http://www.w3.org/2000/svg">
<g opacity="0.75" clip-path="url(#clip0_38_3243)">
<path d="M0 145.56H237V0.5602H0V145.56Z" fill="url(#paint0_radial_38_3243)" fill-opacity="0.5"/>
<g opacity="0.300003">
<path d="M146.952 -80.7085H120.731H94.5106L120.505 70.5074L94.5106 221.724H120.731H146.952L120.957 70.5077L146.952 -80.7085Z" fill="#FF6666"/>
<path d="M227.025 193.314L245.566 177.433L264.106 161.552L120.891 70.3706L14.4374 -52.2994L-4.10345 -36.4187L-22.644 -20.5377L120.571 70.6441L227.025 193.314Z" fill="#FF6666"/>
<path d="M-55.8116 48.0484V70.5074V92.9662L120.731 70.7009L297.274 92.9662V70.5074V48.0484L120.731 70.314L-55.8116 48.0484Z" fill="#FF6666"/>
<path d="M264.107 -20.5376L245.566 -36.4183L227.025 -52.2993L120.572 70.3707L-22.6438 161.552L-4.10329 177.433L14.4376 193.314L120.891 70.6442L264.107 -20.5376Z" fill="#FF6666"/>
</g>
<path d="M218.266 1.06725H193.147L168.71 28.0062L174.96 32.891L134.778 61.3832L191.697 32.4769L185.252 24.6602L218.266 1.06725Z" fill="#FFC966"/>
<path d="M196.914 41.9569L199.867 52.0489L146.173 65.2668L210.269 60.3612L207.893 50.8014L237 47.9315V32.1225L196.914 41.9569Z" fill="#FFC966"/>
<path d="M192.501 23.2013L204.493 14.865L205.064 16.9982" fill="#BF2222"/>
<path d="M186.699 38.1347L188.509 41.1794L153.156 53.9591L186.699 38.1347Z" fill="#BF2222"/>
<path d="M162.759 68.1573L196.268 73.1151L197.659 68.7149L162.759 68.1573Z" fill="#BF2222"/>
<path d="M213.665 53.3357L232.906 55.1853L233.735 52.564L213.665 53.3357Z" fill="#BF2222"/>
<path d="M153.193 81.755C153.571 81.755 199.986 101.544 199.986 101.544L206.646 91.6495L237 102.614V85.4989L201.443 81.755L195.096 89.7775L153.193 81.755Z" fill="#FFC966"/>
<path d="M155.512 84.9394L178.386 96.7104L168.794 93.9456L155.512 84.9394Z" fill="#FFC966"/>
<path d="M167.281 65.4377L213.611 65.688L214.66 60.8569L224.583 59.3932L213.362 58.9188L211.632 63.183L167.281 65.4377Z" fill="#FFC966"/>
<path d="M228.197 1.06726L210.222 13.1611L230.699 6.45662L229.651 1.06726H228.197Z" fill="#FFC966"/>
<path d="M185.134 101.186L200.352 109.698L210.481 101.186L227.085 107.458V103.874L209.679 97.8262L198.832 105.89L185.134 101.186Z" fill="#BF2222"/>
<path d="M221.567 107.738L231.402 112.898L230.419 114.899L221.567 107.738Z" fill="#BF2222"/>
<path d="M153.193 95.9154L177.323 114.899L169.163 118.765L181.531 133.736L176.242 131.372L186.741 145.202H209.277L181.992 120.932L190.629 114.899L147.363 87.3935L156.464 96.7103L153.193 95.9154Z" fill="#FFC966"/>
<path d="M144.966 84.9394V85.8694L147.363 87.3937L144.966 84.9394Z" fill="#FFC966"/>
<path d="M190.467 84.9393L171.556 83.4189L190.467 87.5894" fill="#FFC966"/>
<path d="M174.847 28.6316L148.503 45.0334L163.943 40.3062L179.001 31.1967L174.234 28.4634" fill="#FFC966"/>
<path d="M161.143 119.597L175.028 142.124H166.384L162.063 130.86L166.949 135.665" fill="#BF2222"/>
<path d="M134.846 123.135L140.786 121.721L143.756 136.843L143.261 123.7L147.349 145.203H160.974L144.966 111.319L138.806 116.068L133.691 86.9546L134.351 101.088L133.196 97.8261L134.846 123.135Z" fill="#FFC966"/>
<path d="M136.758 89.4987C136.661 89.9227 140.291 109.698 140.291 109.698L143.096 106.741L136.758 89.4987Z" fill="#BF2222"/>
<path d="M155.405 1.0672H135.039L130.481 23.3763L132.944 35.0297L124.814 64.6912L146.15 35.5218L142.198 28.7929L155.405 1.0672Z" fill="#FFC966"/>
<path d="M154.571 8.7993C154.349 9.03072 145.383 27.1923 145.383 27.1923L155.44 14.1457L154.571 8.7993Z" fill="#FFC966"/>
<path d="M128.951 35.6026L123.297 58.541L123.139 42.6133L128.951 35.6026Z" fill="#FFC966"/>
<path d="M129.092 1.06722H128.259L124.779 16.0324L122.7 13.0987L122.794 25.654L127.115 30.0104L125.508 24.2133L129.092 1.06722Z" fill="#BF2222"/>
<path d="M33.5371 145.202H58.1418L81.5706 114.684L74.4447 109.918L114.474 76.6313L56.6656 111.557L64.2824 119.439L33.5371 145.202Z" fill="#FFC966"/>
<path d="M88.5348 75.8086L25.637 87.4613L29.3745 96.6958L0.145966 102.783V119.422L41.5455 104.31L37.1593 94.6084L88.5348 75.8086Z" fill="#FFC966"/>
<path d="M52.4632 114.618L42.5014 124.726L41.4752 122.722" fill="#BF2222"/>
<path d="M54.6631 100.499L52.6872 97.5318L87.2925 83.3302L54.6631 100.499Z" fill="#BF2222"/>
<path d="M67.5132 71.4305L33.6564 74.1461V78.7046L67.5132 71.4305Z" fill="#BF2222"/>
<path d="M22.8992 97.1327L3.76282 99.6545V102.37L22.8992 97.1327Z" fill="#BF2222"/>
<path d="M84.4051 64.3651C84.0263 64.3651 37.6118 44.5764 37.6118 44.5764L30.9518 54.4709L0.597504 43.5069V60.6212L36.155 64.3651L42.5015 56.3426L84.4051 64.3651Z" fill="#FFC966"/>
<path d="M82.0857 61.181L59.2115 49.4096L68.8039 52.1748L82.0857 61.181Z" fill="#FFC966"/>
<path d="M67.5635 77.8732L21.5527 82.5288L21.2084 87.4342L11.573 89.9369L22.7766 89.2197L23.8783 84.8053L67.5635 77.8732Z" fill="#FFC966"/>
<path d="M21.1504 143.131L37.2455 127.317L18.5912 137.181L21.1504 143.131Z" fill="#FFC966"/>
<path d="M52.4632 44.934L37.2454 36.4219L27.1167 44.934L10.5125 38.6622V42.246L27.9185 48.2939L38.7653 40.2299L52.4632 44.934Z" fill="#BF2222"/>
<path d="M16.0307 38.3821L6.19556 33.2224L7.17877 31.2214L16.0307 38.3821Z" fill="#BF2222"/>
<path d="M90.5239 44.6148L61.6789 26.6748L69.9347 21.6242L54.3868 6.7646L60.4479 8.75429L53.0193 1.06726H28.0144L55.7539 20.6527L47.2971 28.0964L98.0652 53.2029L86.8717 44.105L90.5239 44.6148Z" fill="#FFC966"/>
<path d="M100.879 54.5939L98.0652 53.2028L101.014 55.5994L100.879 54.5939Z" fill="#FFC966"/>
<path d="M47.1312 61.1811L66.0414 62.7015L47.1312 58.531" fill="#FFC966"/>
<path d="M76.659 112.929L100.182 90.9196L85.1883 98.6928L71.6779 110.995L77.3429 112.994" fill="#FFC966"/>
<path d="M75.8483 7.79269L72.2239 1.0673H63.444L78.4824 19.8683L69.8671 3.12166L75.8483 7.79269Z" fill="#BF2222"/>
<path d="M111.859 40.413L106.39 13.2351L100.176 15.3973L95.3365 1.06727H95.0572L97.2126 13.5231L93.0891 1.06727H80.6002L97.1726 27.0875L103.139 21.2959L112.907 52.2163L110.136 37.0116L111.859 40.413Z" fill="#FFC966"/>
<path d="M109.221 49.7946C109.265 49.3259 102.461 28.3392 102.461 28.3392L99.8605 31.8357L109.221 49.7946Z" fill="#BF2222"/>
<path d="M91.2327 145.202H112.38L115.446 121.462L111.909 109.154L118.255 76.9895L97.7963 109.395L102.535 116.355L91.2327 145.202Z" fill="#FFC966"/>
<path d="M90.9117 138.436C91.1304 138.176 99.2653 118.25 99.2653 118.25L89.5673 132.774L90.9117 138.436Z" fill="#FFC966"/>
<path d="M116.693 111.35L123.616 86.9596L123.168 104.008L116.693 111.35Z" fill="#FFC966"/>
<path d="M118.672 145.202H119.554L122.097 128.978L124.542 131.992L123.46 118.582L118.513 114.178L120.68 120.28L118.672 145.202Z" fill="#BF2222"/>
</g>
<defs>
<radialGradient id="paint0_radial_38_3243" cx="0" cy="0" r="1" gradientUnits="userSpaceOnUse" gradientTransform="translate(138.756 54.9435) rotate(40.5814) scale(130.81 129.257)">
<stop stop-color="#FF4D4D"/>
<stop offset="1" stop-color="#E63131"/>
</radialGradient>
<clipPath id="clip0_38_3243">
<rect width="237" height="145" fill="white" transform="translate(0 0.560181)"/>
</clipPath>
</defs>
</svg>
