<svg width="187" height="188" viewBox="0 0 187 188" fill="none" xmlns="http://www.w3.org/2000/svg">
<path d="M93.5001 182.995C44.1201 182.995 4.08975 142.965 4.08975 93.5852V93.5849C4.08975 44.2053 44.1201 4.17493 93.4997 4.17493H93.5001C142.88 4.17493 182.91 44.2053 182.91 93.5849V93.5852C182.91 142.965 142.88 182.995 93.5001 182.995Z" fill="#EED9FF"/>
<path d="M93.4999 4.175C44.12 4.175 4.09 44.2053 4.09 93.5849V93.5853C4.09 98.1717 4.43669 102.677 5.10279 107.078C21.1665 122.488 42.9707 131.96 66.9882 131.96H66.9886C116.368 131.96 156.398 91.93 156.398 42.5504V42.55C156.398 37.9633 156.052 33.4577 155.385 29.0572C139.322 13.6473 117.518 4.175 93.4999 4.175Z" fill="#F4E9FF"/>
<path d="M142.058 96.4394C142.233 97.0142 141.91 97.6231 141.335 97.7989C141.91 97.6231 142.519 97.9462 142.695 98.5215C142.519 97.9462 142.842 97.3377 143.417 97.1616C142.842 97.3377 142.233 97.0142 142.058 96.4394ZM146.413 111.298C146.654 112.086 146.211 112.92 145.423 113.161C146.211 112.92 147.046 113.363 147.287 114.151C147.046 113.363 147.489 112.529 148.277 112.288C147.489 112.529 146.654 112.086 146.413 111.298M147.036 100.109C147.208 100.67 146.892 101.265 146.33 101.437C146.892 101.265 147.487 101.581 147.658 102.143C147.487 101.581 147.803 100.986 148.364 100.814C147.803 100.986 147.208 100.67 147.036 100.109ZM131.119 45.6278C130.736 47.1787 129.452 48.5076 127.847 48.7596C126.972 48.8973 126.043 48.7185 125.269 48.2929C125.016 48.1534 124.072 47.4798 123.832 46.9469C124.717 47.7584 125.973 48.1264 127.159 47.9088C128.424 47.6765 129.49 46.7311 129.968 45.5511C130.47 44.3132 130.218 42.8777 129.41 41.829C128.705 40.9127 127.657 40.4703 126.555 40.293C127.654 40.3259 128.728 40.6094 129.598 41.3297C130.834 42.3526 131.51 44.0469 131.119 45.6278M126.765 46.0388C127.658 45.1999 127.819 43.8247 127.314 42.7386C126.693 41.4045 125.262 41.0029 123.898 40.9284C123.745 40.9202 123.589 40.9191 123.433 40.921C123.949 40.67 124.553 40.5616 125.117 40.5402C126.403 40.492 127.871 40.7418 128.822 41.6764C129.675 42.515 130.086 43.7967 129.8 44.9677C129.522 46.1054 128.638 47.0916 127.523 47.4626C126.37 47.8463 125.069 47.5561 124.154 46.7808C125.077 46.9566 126.057 46.7041 126.765 46.0388M117.226 54.9665C117.695 57.8508 118.503 60.6801 119.214 63.5113L120.289 67.794C118.497 67.5038 116.565 68.2656 115.314 69.5997C114.48 65.3798 113.699 61.1117 113.828 56.795C113.94 53.0823 114.796 49.3416 116.727 46.1375C117.32 45.1532 118.018 44.2342 118.811 43.4055C118.883 43.3699 118.952 43.3288 119.024 43.2944C116.77 46.623 116.588 51.0463 117.226 54.9665M121.341 71.9824L122.596 76.9828C120.145 77.389 118.053 79.232 117.183 81.5377C116.966 82.1088 116.838 82.7091 116.788 83.3169C116.524 83.1284 116.249 82.9537 115.965 82.7959C116.055 82.7802 116.133 82.7046 116.097 82.592C116.055 82.4653 116.013 82.3385 115.971 82.2117C116.106 82.411 116.245 82.6074 116.39 82.7996C116.522 82.9761 116.773 82.8299 116.684 82.6276C116.006 81.0815 115.328 79.5357 114.65 77.99C114.676 77.9163 114.687 77.8321 114.663 77.7319C114.091 75.3458 114.061 72.4428 115.708 70.4449C116.842 69.0686 118.796 68.2536 120.522 68.723L121.341 71.9824ZM123.519 80.6603C124.219 83.45 124.977 86.2449 125.354 89.1015C126.043 94.3057 125.098 99.7134 121.981 104.021C119.018 108.115 113.901 110.661 108.891 109.61C109.361 109.116 109.679 108.423 110.119 107.171C110.779 104.937 111.349 102.748 111.12 100.329C110.969 98.7395 110.731 97.1537 110.453 95.5762C110.617 95.0118 110.833 94.4643 111.187 93.9953C111.654 93.3752 112.466 92.8823 113.261 93.0689C113.799 93.1949 114.029 92.3665 113.49 92.2401C112.414 91.9881 111.309 92.5019 110.623 93.3322C110.446 93.5461 110.296 93.7746 110.166 94.0129C110.082 93.5802 109.999 93.1471 109.911 92.7159C109.53 90.8507 109.087 88.9987 108.59 87.1608C108.656 85.881 108.912 84.5656 109.769 83.5925C110.874 82.34 112.691 82.04 114.249 82.4522C115.201 82.7039 116.071 83.1886 116.849 83.7829C116.959 83.8663 117.102 83.7514 117.106 83.6355C117.186 81.2064 118.75 78.9616 120.903 77.8841C121.463 77.604 122.062 77.4163 122.679 77.3138L123.519 80.6603ZM96.4128 113.771C94.0798 113.15 91.7834 112.178 90.6577 109.91C90.0021 108.59 90.0526 107.106 90.8746 105.873C91.6731 104.676 92.9802 103.808 94.2728 103.223C95.8952 102.49 97.8232 102.188 99.4759 102.992C99.8734 103.185 100.25 102.799 100.064 102.404C99.3375 100.864 98.5517 99.0948 98.2061 97.319C98.3341 97.2981 98.4111 97.0965 98.2686 96.9993C98.2267 96.9705 98.1803 96.9507 98.1373 96.9245C97.8494 95.084 98.0741 93.2548 99.3719 91.6855C101.599 88.9923 105.672 88.7847 108.172 91.2318C108.208 91.267 108.247 91.286 108.286 91.3055C108.841 93.7735 109.303 96.264 109.648 98.7702C110.034 101.585 109.826 105.459 108.72 107.379C106.463 111.64 101.117 113.231 96.4128 113.771M89.0379 113.988C88.5252 113.554 88.088 113.027 87.7543 112.439C86.9906 111.092 86.8306 109.488 87.1847 107.991C87.3332 107.362 87.5703 106.763 87.8774 106.198C88.2473 106.218 88.6179 106.231 88.9885 106.23C89.2204 106.261 89.4519 106.297 89.6846 106.325C89.3259 107.219 89.2331 108.196 89.4815 109.19C89.8731 110.758 90.9678 112.098 92.294 112.987C92.8785 113.378 93.505 113.686 94.1527 113.946C92.4544 114.038 90.7426 114.054 89.0379 113.988M86.0485 113.784C85.2485 113.705 84.4474 113.6 83.6504 113.464C82.702 112.761 81.7861 111.951 81.3608 110.839C80.8077 109.393 81.1858 107.588 82.0699 106.348C82.3553 105.947 82.7297 105.596 83.1702 105.396C83.2536 105.413 83.3378 105.425 83.4208 105.443C83.4238 105.443 83.426 105.443 83.429 105.443C84.7586 105.828 86.1248 106.078 87.5045 106.178C86.8743 107.394 86.5602 108.78 86.6907 110.147C86.8279 111.588 87.4723 112.951 88.5065 113.963C87.6844 113.922 86.8642 113.864 86.0485 113.784M79.6307 112.466C78.1283 111.747 76.9259 110.507 76.9637 108.679C77.0134 106.252 79.6127 105.539 81.5875 105.155C81.9394 105.192 82.2902 105.241 82.6403 105.298C81.8033 105.873 81.2539 106.946 80.9894 107.877C80.7478 108.729 80.679 109.647 80.8993 110.512C81.0957 111.283 81.5317 111.965 82.0714 112.542C82.3377 112.827 82.6294 113.085 82.9312 113.331C81.8134 113.112 80.7078 112.83 79.6307 112.466ZM71.4868 107.132C73.7525 105.923 76.2639 105.227 78.8124 105.085C77.3317 105.741 76.1424 106.816 76.1042 108.679C76.0829 109.713 76.4008 110.6 76.9282 111.343C74.8637 110.305 72.9679 108.911 71.4868 107.132M75.6846 101.431C75.6102 101.396 75.5361 101.36 75.4617 101.325C75.0743 100.896 74.8278 100.34 74.7223 99.7654C74.5151 98.6337 74.79 97.4383 75.0627 96.3407C75.2972 95.3967 75.6435 94.4819 76.307 93.7533C76.8751 93.1295 77.6081 92.6583 78.4062 92.3871C79.3019 92.083 80.2672 92.0258 81.1847 92.2678C81.2202 92.2771 81.2509 92.2727 81.2789 92.2633C83.0337 93.4302 85.5384 95.1188 87.7573 96.6859C86.6196 96.5871 85.4535 96.8362 84.4545 97.4125C82.9099 98.3042 81.9689 99.9456 81.8433 101.711C81.7991 102.333 81.8605 102.958 82.0247 103.556C79.8891 102.973 77.7491 102.285 75.6846 101.431M74.1594 100.687C72.5198 99.8383 70.9217 98.7975 69.7952 97.3071C68.7473 95.9207 68.0573 94.1131 68.4283 92.3632C68.8333 90.4558 70.6087 89.5032 72.4398 89.3921C74.6703 89.2571 77.0157 89.8989 79.0409 90.7939C79.0633 90.8036 79.6636 91.1937 80.5971 91.8111C79.0319 91.6294 77.4054 92.1979 76.2722 93.2989C75.5245 94.0252 75.0862 94.9535 74.8121 95.9491C74.4931 97.1074 74.2036 98.3808 74.3528 99.587C74.4141 100.084 74.572 100.58 74.8214 101.018C74.6 100.909 74.3786 100.8 74.1594 100.687M65.7168 94.8144C63.5259 92.4305 62.2173 89.4478 60.238 86.9099C58.2831 84.403 54.8809 82.1186 51.6349 83.6695C50.0484 84.4276 48.9309 86.4113 49.5461 88.1452C49.9504 89.2844 50.9946 90.0496 52.1275 90.1764C51.6173 90.4139 51.0593 90.5448 50.4912 90.5321C49.4953 90.51 48.5573 90.0062 47.9922 89.1834C46.7022 87.3056 48.1448 85.0279 49.7406 83.8752C51.6211 82.5169 54.0154 82.2401 56.2647 82.5584C58.5203 82.877 60.7078 83.7081 62.6343 84.9187C64.9089 86.3481 66.6649 88.3576 68.386 90.3885C68.3909 90.3944 68.3969 90.3963 68.4025 90.4015C68.2977 90.5339 68.1975 90.6712 68.1074 90.8193C67.1002 92.4787 67.3957 94.655 68.193 96.3291C68.45 96.868 68.769 97.3651 69.1273 97.8318C67.9047 96.9398 66.7557 95.945 65.7168 94.8144M49.3266 91.4674C47.7117 91.3829 46.519 90.2097 46.0949 88.6927C45.6225 87.0041 46.0466 85.1584 47.1215 83.7885C48.3235 82.2569 50.1457 81.3193 52.0018 80.8413C56.4655 79.692 61.1469 81.0515 65.2231 82.8954C69.0499 84.6262 72.7259 86.7547 76.3107 88.9557C75.2287 88.6875 74.1217 88.5274 73.0169 88.5188C71.424 88.5061 69.7238 88.968 68.6242 90.1435C66.9813 88.2047 65.3065 86.2812 63.1747 84.8619C61.1588 83.5203 58.8326 82.5947 56.4341 82.2405C54.0753 81.8919 51.5474 82.1507 49.5686 83.5805C47.9155 84.7743 46.4072 87.0752 47.5374 89.0985C48.0954 90.0975 49.1284 90.7632 50.2665 90.8616C50.8417 90.9113 51.418 90.8193 51.9558 90.6192C51.2624 91.2378 50.259 91.5161 49.3266 91.4674M84.6453 104.702C84.5129 104.683 84.3809 104.664 84.2488 104.645C84.2361 104.64 84.2234 104.636 84.2107 104.631C84.2099 104.627 84.2107 104.623 84.2096 104.619C84.2103 104.601 84.2051 104.584 84.2047 104.567C84.3517 104.612 84.4976 104.659 84.6453 104.702ZM90.5152 98.692C90.835 99.0537 91.1544 99.4153 91.4741 99.777C90.532 99.851 89.6228 100.238 88.9152 100.87C88.0016 101.685 87.5191 102.891 87.5539 104.109C87.5625 104.417 87.61 104.721 87.6833 105.019C86.4457 104.787 85.2197 104.498 84.011 104.145C83.9425 104.086 83.8621 104.035 83.7533 104.008C83.3097 103.898 82.8647 103.782 82.4196 103.663C82 102.351 82.1256 100.875 82.7641 99.6517C83.524 98.1957 84.9879 97.2502 86.6062 97.0423C87.1896 96.9675 87.7858 96.9903 88.3602 97.1133C89.1471 97.6747 89.8817 98.211 90.5152 98.692ZM87.209 91.7524C87.4525 90.6753 88.2533 89.7699 89.2283 89.2646C90.2833 88.7182 91.5044 88.649 92.6672 88.8382C93.7286 89.894 94.8435 90.8945 96.007 91.8388C94.7695 91.7637 93.487 91.9076 92.3976 92.524C91.3275 93.1295 90.5803 94.2111 90.464 95.4446C90.4576 95.5119 90.4599 95.5796 90.4584 95.6473C89.5458 94.2055 88.4305 92.9346 87.209 91.7524M86.9319 91.4888C85.9034 90.5156 84.8106 89.5956 83.7084 88.6811C83.4242 87.5879 83.5906 86.3852 84.2724 85.4502C85.1607 84.2328 86.8085 83.6553 88.2641 84.0028C88.2779 84.0061 88.2903 84.0058 88.3037 84.0076C88.3251 84.0237 88.3453 84.0413 88.3666 84.0574C88.4193 84.0974 88.4706 84.0959 88.5132 84.0738C88.6501 84.2522 88.7862 84.4291 88.9194 84.6016C89.9606 85.9494 91.0837 87.2274 92.2726 88.4403C91.479 88.3584 90.6745 88.4014 89.9067 88.6295C88.8677 88.9381 87.9413 89.5967 87.359 90.5175C87.1675 90.82 87.028 91.148 86.9319 91.4888M82.7158 87.8568C80.4606 85.9797 78.2488 84.0559 76.5852 81.6503C75.5118 80.0978 74.7044 78.367 74.4276 76.5007C74.8225 76.9514 75.2418 77.3789 75.6872 77.7719C77.5337 79.4018 79.7231 80.6106 81.4061 82.4282C81.9708 83.0382 82.8807 82.1249 82.3175 81.5168C80.9677 80.0589 79.2963 78.9807 77.7274 77.782C76.1862 76.6047 74.845 75.2329 73.8842 73.5368C72.0703 70.3342 71.8227 66.4046 73.8374 63.2357C74.2305 62.6174 74.7025 62.0553 75.2347 61.5602C75.7007 64.9714 76.6937 68.2963 78.1612 71.4109C79.6498 74.5705 81.6196 77.5045 83.9852 80.075C84.9636 81.1383 86.0122 82.1339 87.1197 83.0607C85.746 83.1448 84.4224 83.8165 83.5861 84.9411C82.963 85.7782 82.6784 86.8227 82.7158 87.8568M77.9484 59.8973C78.2465 60.6487 78.5603 61.3941 78.8879 62.1328C79.2234 62.8894 80.3346 62.2345 80.0009 61.482C78.2379 57.5079 76.8354 53.2529 76.7543 48.8685C76.6866 45.2272 77.6332 41.5747 79.7713 38.5936C80.3914 37.7289 81.1196 36.9525 81.9323 36.2781C81.2314 37.7034 80.8623 39.2847 80.7407 40.8862C80.5474 43.4226 80.9176 45.973 81.4674 48.4447C82.0804 51.2019 82.889 53.9152 83.8816 56.5594C84.8704 59.1946 86.0399 61.7621 87.3811 64.2365C88.7234 66.7131 90.2385 69.0963 91.9125 71.3616C91.9114 71.4562 91.9039 71.5512 91.9057 71.6454C90.4464 70.9992 88.72 70.8526 87.2652 71.5946C85.8858 72.2981 85.087 73.7541 84.8719 75.2467C84.4639 78.0782 86.062 80.7639 87.7495 83.0618C87.7169 83.0595 87.6848 83.0625 87.6522 83.061C85.2553 81.105 83.1362 78.8083 81.3675 76.2707C79.3996 73.4474 77.8534 70.3297 76.813 67.0486C76.2247 65.1932 75.7968 63.2862 75.5451 61.3563C75.5425 61.335 75.5346 61.3174 75.5264 61.3002C76.2415 60.6955 77.0561 60.2123 77.9484 59.8973M82.5864 35.7699C82.7689 35.6378 82.9544 35.5096 83.1448 35.3876C83.1598 37.8145 83.2469 40.2552 83.8172 42.6219C84.4194 45.1202 85.6334 47.414 87.0729 49.5256C88.5162 51.6428 90.1737 53.6018 91.7225 55.6405C93.2806 57.6919 94.7515 59.8098 96.1316 61.9854C96.6862 62.8598 97.2218 63.7454 97.7465 64.6378C97.3411 64.5163 96.9099 64.4729 96.4887 64.5166C95.455 64.6236 94.5469 65.2055 93.87 65.9748C92.7083 67.2943 92.0643 69.0432 91.9323 70.8039C90.6087 68.9818 89.3812 67.0901 88.2686 65.1319C86.8926 62.7106 85.6816 60.1951 84.6513 57.6077C83.6194 55.0182 82.7656 52.3579 82.1002 49.6509C81.4898 47.169 81.0085 44.6344 81.0324 42.0688C81.0526 39.8854 81.4637 37.6578 82.5864 35.7699ZM98.4578 66.096C98.5184 66.1697 98.5869 66.2034 98.6564 66.2217C99.0877 66.9891 99.5051 67.7641 99.9138 68.5431C98.9044 68.4152 97.7981 69.118 97.2461 69.9497C96.2733 71.4158 96.2868 73.2563 96.6125 74.9217C96.6967 75.3529 96.8033 75.7793 96.9226 76.2023C96.6103 75.7916 96.2898 75.3873 95.9539 74.9954C95.0604 73.953 94.0652 72.9275 92.8946 72.1847C92.904 72.1485 92.8976 72.107 92.8658 72.0651C92.8377 72.0288 92.8119 71.9914 92.7843 71.9551C92.6896 70.1524 93.1586 68.2948 94.2593 66.8474C94.7676 66.1791 95.4617 65.593 96.2984 65.4105C97.0909 65.2381 97.9369 65.461 98.4578 66.096ZM104.527 78.7956C103.677 78.7825 102.828 79.0301 102.127 79.5234C101.228 80.1551 100.648 81.1406 100.497 82.2263C100.484 82.3209 100.478 82.4163 100.472 82.5113C100.039 81.4083 99.5361 80.332 98.9553 79.293C98.5188 78.5125 98.0408 77.7551 97.5273 77.0232C97.1077 75.7359 96.758 74.4078 96.7502 73.0524C96.7416 71.5875 97.2184 69.9247 98.5858 69.1748C99.0525 68.9186 99.6217 68.787 100.123 68.9384C101.781 72.1354 103.251 75.4284 104.527 78.7956M106.356 80.0238C106.531 78.6998 107.968 76.6499 109.497 76.3029C111.089 75.9416 112.782 76.7202 113.789 77.9548C114.039 78.4403 114.277 78.9313 114.502 79.4284C114.627 79.7429 114.762 80.0537 114.909 80.3589C115.225 81.1219 115.514 81.8957 115.768 82.6826C115.769 82.687 115.773 82.6897 115.774 82.6938C114.609 82.0871 113.301 81.7752 111.982 82.0168C111.159 82.1672 110.366 82.5367 109.756 83.1145C109.151 83.6886 108.76 84.4505 108.538 85.2471C108.448 85.5706 108.384 85.8997 108.337 86.2314C107.749 84.14 107.088 82.0692 106.356 80.0238M100.969 83.876C100.602 82.6811 100.856 81.3126 101.69 80.3671C102.427 79.5305 103.55 79.0761 104.657 79.1352C105.981 82.6683 107.091 86.2819 107.974 89.9531C106.285 88.7458 104.106 88.3397 102.116 88.8951C101.893 87.1863 101.509 85.5055 100.969 83.876M92.564 87.5236C92.0007 86.9364 91.4536 86.3332 90.9244 85.7146C89.8271 84.4318 88.8075 83.0839 87.8718 81.6787C86.9465 80.2901 86.0553 78.8087 85.7534 77.1436C85.5006 75.7501 85.7598 74.1434 86.7382 73.0681C87.8385 71.8594 89.6045 71.7288 91.0811 72.2334C92.6283 72.7622 93.8644 73.9463 94.937 75.1371C95.4154 75.6682 95.866 76.2236 96.2961 76.7935C94.9157 76.3519 93.2376 76.7659 92.2034 77.7768C90.3742 79.566 90.3675 82.451 91.1806 84.7123C91.5355 85.7 92.0254 86.6256 92.564 87.5236M95.9315 90.6761C95.1438 90.013 94.3805 89.3214 93.6422 88.6041C92.3007 86.5258 90.9345 84.256 90.9973 81.7004C91.025 80.5706 91.3328 79.4258 92.0138 78.5106C92.6309 77.6814 93.5457 77.1466 94.5668 76.9955C95.2979 76.8874 96.0553 76.9959 96.6941 77.3377C97.0875 77.8901 97.4645 78.4545 97.8134 79.0364C98.6998 80.5141 99.4314 82.0812 100.006 83.7039C98.8865 83.7256 97.8235 84.5066 97.1631 85.3817C96.2632 86.5744 95.8069 88.0921 95.8249 89.5802C95.8297 89.9486 95.8672 90.3148 95.9315 90.6761M96.3474 91.0201C96.1024 89.9909 96.1076 88.9082 96.3638 87.8755C96.6922 86.5501 97.4327 85.2243 98.6198 84.4927C99.0821 84.2081 99.6019 84.0349 100.128 84.0514C100.691 85.7153 101.086 87.435 101.297 89.1808C101.113 89.2601 100.931 89.3465 100.753 89.4437C99.4927 90.1319 98.5723 91.132 97.981 92.3003C97.4256 91.8874 96.8822 91.4588 96.3474 91.0201M92.966 99.6416C93.2649 98.6838 93.8472 97.8071 94.7141 97.2775C95.4715 96.8153 96.4139 96.6735 97.2592 96.9091C97.2715 97.0034 97.2812 97.0976 97.2966 97.1919C97.5625 98.8236 98.1875 100.372 98.8741 101.874C97.4634 101.501 95.9304 101.66 94.5077 102.172C94.0521 101.293 93.5364 100.448 92.966 99.6416M91.767 100.108C92.4544 100.886 93.1422 101.664 93.83 102.442C92.5909 102.999 91.4708 103.82 90.6394 104.779C90.4658 104.979 90.3095 105.188 90.1678 105.405C89.4613 105.321 88.7589 105.211 88.0588 105.088C87.7413 103.982 87.9002 102.748 88.5573 101.787C89.2724 100.742 90.5107 100.124 91.767 100.108M97.2184 96.5509C96.3406 96.3463 95.3798 96.4921 94.5978 96.9492C93.7039 97.4724 93.0711 98.3397 92.7199 99.3046C92.3934 98.8603 92.0449 98.4328 91.6862 98.0139C91.4472 97.432 91.1753 96.8777 90.8757 96.3466C90.6861 95.5919 90.8597 94.7624 91.2613 94.0817C91.9024 92.9952 93.0865 92.435 94.296 92.2409C95.0122 92.1261 95.746 92.138 96.4656 92.2128C96.8508 92.5173 97.2405 92.8161 97.6358 93.1082C97.2502 94.1827 97.1126 95.3604 97.2184 96.5509M107.984 66.433C108.047 66.4248 108.107 66.4091 108.165 66.3892C108.312 67.9309 108.524 69.4665 108.773 70.9939C108.906 71.8104 110.148 71.4641 110.016 70.651C109.223 65.7819 108.808 60.7138 109.881 55.8529C110.75 51.9222 112.665 48.2147 115.693 45.5152C116.385 44.8981 117.136 44.355 117.928 43.8857C116.372 45.7362 115.247 47.9469 114.528 50.2654C113.269 54.3236 113.293 58.6295 113.815 62.8097C114.113 65.1992 114.565 67.5644 115.032 69.9254C113.539 71.7689 113.26 74.2515 113.575 76.5665C112.372 75.6098 110.816 75.1206 109.268 75.4744C108.97 75.5425 108.683 75.6442 108.408 75.7733C107.065 73.5872 106.552 70.9083 107.029 68.3823C107.091 68.0532 107.151 67.7054 107.285 67.3961C107.395 67.1436 107.607 66.7823 107.933 66.8283C108.148 66.859 108.241 66.5299 108.024 66.4992C107.408 66.4121 107.047 66.9813 106.884 67.5C106.671 68.1788 106.577 68.9164 106.534 69.6244C106.444 71.0972 106.661 72.5943 107.164 73.9818C107.41 74.6621 107.728 75.3133 108.106 75.9296C107.009 76.5538 106.186 77.6414 105.936 78.8786C105.804 78.5233 105.674 78.1669 105.537 77.8135C104.865 76.0744 103.425 72.4903 103.416 72.3979C103.126 69.6632 105.196 66.7962 107.984 66.433M86.4502 32.5748C86.3608 32.62 86.2722 32.6657 86.1839 32.7124C86.145 32.7285 86.1054 32.7423 86.0669 32.7584C86.1929 32.6933 86.3219 32.635 86.4502 32.5748M91.3208 31.7374C92.8232 31.9805 94.2216 32.8242 94.4471 34.4403C94.6584 35.9572 94.0084 37.7098 92.6421 38.4963C91.4551 39.1792 89.8315 38.8722 89.0503 37.7726C89.1015 37.7502 89.1505 37.7236 89.201 37.6997C90.9606 38.2125 92.8707 36.8406 92.9219 35.0013C92.947 34.1018 92.5685 33.1837 91.9084 32.5703C91.1921 31.9053 90.1966 31.6675 89.238 31.7191C89.9258 31.6274 90.6233 31.6248 91.3208 31.7374ZM91.2056 35.7332C91.6279 34.7283 91.4543 33.5053 90.7134 32.69C90.3937 32.3384 90.0212 32.1372 89.6225 32.0381C90.1902 32.0512 90.7505 32.1888 91.283 32.519C92.7469 33.4264 93.0494 35.6438 91.7244 36.7987C91.1634 37.2879 90.4053 37.5295 89.6722 37.4446C90.3368 37.0355 90.8959 36.4704 91.2056 35.7332M125.884 39.4411C123.568 39.5686 121.328 40.4307 119.413 41.7251C116.097 43.0344 113.363 45.5545 111.455 48.5655C108.897 52.5995 107.962 57.3938 107.953 62.1189C107.951 63.1291 107.992 64.1381 108.063 65.1453C108.037 65.1438 108.011 65.1405 107.984 65.1442C105.239 65.5017 102.908 67.684 102.27 70.3349C101.192 68.128 100.031 65.9614 98.7817 63.8457C97.4563 61.6009 96.0358 59.4123 94.5249 57.288C93.0173 55.1689 91.3769 53.1556 89.7983 51.0904C88.0793 48.8412 86.4237 46.4595 85.4928 43.7626C84.4639 40.7803 84.4343 37.604 84.4302 34.4837C85.0945 34.1284 85.7736 33.8004 86.4712 33.5135C87.4005 33.1309 88.8173 32.4128 89.7833 33.0195C90.4849 33.46 90.7288 34.4526 90.4879 35.2126C90.1775 36.1921 89.2515 36.8316 88.3172 37.1413C88.0304 37.2367 87.9477 37.5112 88.0606 37.7726C88.7118 39.281 90.5032 39.9609 92.0531 39.6363C93.7862 39.2739 94.9767 37.6006 95.2598 35.9292C95.5762 34.0569 94.8929 32.2599 93.137 31.4102C91.4715 30.6046 89.517 30.6909 87.773 31.1824C85.6753 31.7733 83.8098 32.9851 82.2139 34.45C79.5189 36.265 77.5984 39.0573 76.5138 42.1181C75.0806 46.1618 75.2523 50.5634 76.2538 54.6864C76.5845 56.0467 77.0067 57.3803 77.488 58.6934C74.0701 59.9295 71.672 63.2095 71.1989 66.7842C70.8039 69.7709 71.7356 72.7772 73.4399 75.2351C73.2106 75.3076 73.0341 75.5018 73.0584 75.8204C73.5427 82.2046 78.6415 86.0602 83.2757 89.9486C84.4916 91.0905 86.053 92.3527 86.9645 93.2963C87.8179 94.1801 88.6078 95.1334 89.2773 96.163C85.795 93.5704 82.2143 91.1114 78.5311 88.8132C74.1262 86.0639 69.5828 83.3318 64.7904 81.3096C60.3559 79.4389 55.1745 78.2335 50.4935 79.9617C48.509 80.6944 46.6562 81.9484 45.56 83.7974C44.5876 85.4382 44.3191 87.5689 44.9594 89.3783C45.664 91.3687 47.3747 92.7368 49.514 92.7619C51.4251 92.7843 53.303 91.7472 53.9283 89.8813C53.9653 89.7706 53.9702 89.67 53.9545 89.5787C54.0472 89.1389 53.5412 88.5843 52.9813 88.8386C51.7415 89.4015 50.5051 87.999 50.6887 86.8194C50.9468 85.1599 52.6309 84.3768 54.1605 84.483C57.1245 84.6891 59.116 87.343 60.572 89.6382C62.1761 92.1668 63.6456 94.6913 65.8379 96.7749C68.0509 98.8783 70.664 100.528 73.4182 101.826C75.0552 102.597 76.7412 103.253 78.456 103.824C75.5567 104.027 72.7121 104.891 70.1831 106.384C69.9093 106.546 69.7406 106.986 69.9519 107.266C73.4395 111.89 78.9829 114.139 84.5802 114.9C86.6181 115.177 88.6852 115.304 90.7501 115.318C90.7897 115.331 90.8271 115.348 90.8668 115.359C90.9341 115.378 90.9868 115.356 91.0239 115.318C92.0845 115.32 93.1448 115.295 94.1995 115.241C95.3133 115.185 96.4311 115.087 97.5404 114.93C97.7446 114.976 97.9485 115.021 98.1515 115.065C98.4178 115.124 98.6074 114.951 98.6673 114.747C100.182 114.47 101.671 114.067 103.098 113.482C104.806 112.782 106.401 111.844 107.788 110.659C112.481 112.005 117.586 110.364 121.058 107.034C124.718 103.522 126.637 98.4321 126.856 93.4223C126.983 90.5115 126.497 87.6074 125.855 84.7785C125.202 81.9013 124.443 79.0465 123.725 76.1851C123.131 73.8232 120.117 61.8751 119.327 58.6617C118.007 53.285 116.929 46.4199 121.618 42.2823C121.683 42.2247 121.729 42.1608 121.761 42.0938C121.878 42.0422 121.999 41.9996 122.122 41.9618C122.195 42.0396 122.327 42.0579 122.384 41.936C122.392 41.9192 122.404 41.9061 122.412 41.8896C122.741 41.8171 123.081 41.78 123.424 41.7767C124.441 41.7666 125.743 41.8908 126.37 42.8056C126.868 43.5326 126.891 44.5974 126.303 45.2807C125.704 45.9759 124.635 46.1869 123.816 45.7848C123.624 45.6913 123.456 45.7254 123.295 45.8522C122.543 46.4435 123.101 47.4753 123.586 48.0348C124.206 48.7499 125.072 49.2544 125.983 49.4945C127.936 50.0084 129.934 49.2481 131.117 47.6264C132.304 45.9976 132.384 43.8363 131.366 42.1043C130.218 40.152 128.082 39.3202 125.884 39.4411M148.68 87.6149C149.066 88.8726 148.358 90.2048 147.1 90.5897C148.358 90.2048 149.69 90.9124 150.075 92.1702C149.69 90.9124 150.397 89.5806 151.655 89.1954C150.397 89.5806 149.066 88.8726 148.68 87.6149ZM139.498 97.401C139.623 97.8109 139.393 98.2447 138.983 98.3704C139.393 98.2447 139.827 98.4755 139.952 98.8854C139.827 98.4755 140.057 98.0416 140.467 97.9159C140.057 98.0416 139.623 97.8109 139.498 97.401M94.9868 106.097C95.1625 106.672 94.8394 107.28 94.2642 107.456C94.8394 107.28 95.4479 107.604 95.6241 108.179C95.4479 107.604 95.7714 106.995 96.3462 106.819C95.7714 106.995 95.1625 106.672 94.9868 106.097M137.431 101.032C137.607 101.607 137.284 102.216 136.709 102.392C137.284 102.216 137.892 102.539 138.068 103.114C137.892 102.539 138.216 101.93 138.79 101.755C138.216 101.93 137.607 101.607 137.431 101.032M166.7 93.0401C165.804 93.3146 164.854 92.8101 164.58 91.9132C164.854 92.8101 164.35 93.7593 163.453 94.0338C164.35 93.7593 165.299 94.2638 165.574 95.1607C165.299 94.2638 165.804 93.3146 166.7 93.0401ZM163.714 83.0311C163.15 83.6321 162.205 83.6621 161.604 83.0984C162.205 83.6621 162.236 84.6064 161.672 85.2074C162.236 84.6064 163.18 84.5765 163.781 85.1401C163.18 84.5765 163.15 83.6321 163.714 83.0311ZM150.119 82.0337C150.36 82.8217 149.917 83.6561 149.129 83.8973C149.917 83.6561 150.751 84.0993 150.992 84.8873C150.751 84.0993 151.194 83.2649 151.983 83.0236C151.194 83.2649 150.36 82.8217 150.119 82.0337ZM168.888 99.4688C168.1 99.71 167.266 99.2665 167.024 98.4784C167.266 99.2665 166.822 100.101 166.034 100.342C166.822 100.101 167.656 100.544 167.898 101.332C167.656 100.544 168.1 99.71 168.888 99.4688M160.862 89.9857C159.621 89.5492 158.968 88.1893 159.405 86.9484C158.968 88.1893 157.609 88.8416 156.368 88.4055C157.609 88.8416 158.261 90.2014 157.825 91.4424C158.261 90.2014 159.621 89.5492 160.862 89.9857M161.003 97.947C161.148 98.4216 160.881 98.9235 160.407 99.0686C160.881 98.9235 161.383 99.1905 161.528 99.6648C161.383 99.1905 161.65 98.6883 162.125 98.5431C161.65 98.6883 161.148 98.4216 161.003 97.947M159.604 103.615C159.65 104.573 158.91 105.388 157.952 105.434C158.91 105.388 159.725 106.127 159.771 107.086C159.725 106.127 160.465 105.313 161.423 105.267C160.465 105.313 159.65 104.573 159.604 103.615ZM59.4983 147.45C59.6741 148.025 59.3505 148.634 58.7757 148.809C59.3505 148.634 59.9594 148.957 60.1352 149.532C59.9594 148.957 60.2829 148.348 60.8578 148.172C60.2829 148.348 59.6741 148.025 59.4983 147.45M66.9476 124.813C67.1888 125.601 66.7456 126.435 65.9576 126.677C66.7456 126.435 67.5797 126.879 67.8209 127.667C67.5797 126.879 68.0232 126.044 68.8112 125.803C68.0232 126.044 67.1888 125.601 66.9476 124.813M77.365 155.44C77.564 156.09 77.1982 156.778 76.5482 156.977C77.1982 156.778 77.8867 157.144 78.0857 157.794C77.8867 157.144 78.2521 156.456 78.9025 156.257C78.2521 156.456 77.564 156.09 77.365 155.44M127.157 110.808C127.334 111.383 127.01 111.992 126.435 112.168C127.01 111.992 127.619 112.315 127.795 112.89C127.619 112.315 127.942 111.706 128.517 111.531C127.942 111.706 127.334 111.383 127.157 110.808ZM121.18 132.561C121.356 133.136 121.032 133.745 120.457 133.921C121.032 133.745 121.641 134.069 121.817 134.643C121.641 134.069 121.964 133.46 122.539 133.284C121.964 133.46 121.356 133.136 121.18 132.561ZM80.1838 156.972C80.3839 157.627 80.0159 158.319 79.3618 158.519C80.0159 158.319 80.7086 158.687 80.909 159.341C80.7086 158.687 81.0766 157.995 81.7307 157.794C81.0766 157.995 80.3839 157.627 80.1838 156.972ZM59.3502 142.38C59.631 143.297 59.1149 144.269 58.1971 144.55C59.1149 144.269 60.0866 144.785 60.3674 145.703C60.0866 144.785 60.6027 143.814 61.5205 143.533C60.6027 143.814 59.631 143.297 59.3502 142.38ZM19.4889 151.893C19.7301 152.682 19.2869 153.516 18.4989 153.757C19.2869 153.516 20.1213 153.959 20.3622 154.747C20.1213 153.959 20.5645 153.125 21.3525 152.884C20.5645 153.125 19.7301 152.682 19.4889 151.893M42.4491 172.537C42.73 173.454 42.2135 174.426 41.2961 174.707C42.2135 174.426 43.1851 174.942 43.466 175.86C43.1851 174.942 43.7016 173.971 44.6194 173.69C43.7016 173.971 42.73 173.454 42.4491 172.537Z" fill="#461D6D"/>
</svg>
