<svg width="238" height="147" viewBox="0 0 238 147" fill="none" xmlns="http://www.w3.org/2000/svg">
<g clip-path="url(#clip0_38_1189)">
<path d="M0 147H238V1.50204e-05H0V147Z" fill="url(#paint0_radial_38_1189)"/>
<g opacity="0.240005">
<path d="M259.876 52.2626L128.515 71.4041L255.116 33.7165L249.143 19.2058L127.605 69.1938L239.365 2.43317L229.541 -10.1509L126.109 67.2772L215.41 -24.0075L202.406 -33.807L124.128 65.7846L184.885 -43.8027L169.586 -50.1502L121.798 64.8179L149.87 -55.6042L133.32 -58.0671L119.277 64.4427L112.752 -58.6074L96.0771 -57.0175L116.738 64.685L76.0591 -52.6077L60.3968 -47.0738L114.352 65.5279L42.2929 -38.0139L28.7101 -28.9128L112.283 66.9141L13.7539 -15.8207L3.17652 -3.77288L110.673 68.749L-7.6125 12.4594L-14.4637 26.6332L109.629 70.9078L-20.3506 44.8997L-23.0089 60.2333L109.224 73.2431L-23.5921 79.2886L-21.8763 94.7371L109.485 75.5959L-17.1163 113.283L-11.1431 127.794L110.395 77.8059L-1.3642 144.567L8.45917 157.151L111.891 79.7228L22.5903 171.007L35.5943 180.807L113.872 81.2154L53.1149 190.803L68.4136 197.15L116.202 82.1821L88.1298 202.604L104.68 205.067L118.723 82.5573L125.248 205.607L141.923 204.017L121.262 82.315L161.941 199.607L177.603 194.074L123.648 81.4721L195.707 185.014L209.29 175.913L125.717 80.0859L224.246 162.821L234.823 150.773L127.327 78.251L245.612 134.541L252.464 120.367L128.371 76.0922L258.351 102.1L261.009 86.7668L128.776 73.757L261.592 67.7114L259.876 52.2626Z" fill="url(#paint1_radial_38_1189)"/>
</g>
<path d="M189.258 1.50204e-05L124.954 66.3114L171.546 1.50204e-05H158.465L122.743 65.1289L145.669 1.50204e-05H134.999L120.276 64.5165L124.002 1.50204e-05H113.998L117.723 64.5165L103.001 1.50204e-05H92.331L115.257 65.1289L79.5355 1.50204e-05H66.454L113.047 66.3114L48.7421 1.50204e-05H29.565L111.241 67.984L0 0.894657V18.263L109.965 70.0326L0 36.8068V50.9082L109.304 72.3172L0 66.8991V80.1012L109.304 74.6828L0 96.0918V110.193L109.965 76.9674L0 128.737V146.105L111.241 79.016L29.565 147H48.7421L113.046 80.6883L66.4537 147H79.5358L115.257 81.8714L92.331 147H103.001L117.723 82.4835L113.998 147H124.002L120.276 82.4835L134.999 147H145.669L122.743 81.8714L158.464 147H171.546L124.954 80.6883L189.258 147H208.435L126.759 79.016L238 146.105V128.737L128.036 76.9674L238 110.193V96.0918L128.696 74.6828L238 80.1012V66.8991L128.696 72.3172L238 50.9082V36.8068L128.036 70.0326L238 18.263V0.894657L126.759 67.984L208.435 1.50204e-05H189.258Z" fill="url(#paint2_radial_38_1189)"/>
<g opacity="0.460007">
<path d="M260.846 58.8118L128.616 71.8472L257.092 40.0684L251.909 25.2993L127.826 69.5978L243.047 8.09475L233.915 -4.92828L126.436 67.6142L220.549 -19.4219L208.089 -29.8113L124.538 66.0318L191.13 -40.6058L176.193 -47.6535L122.263 64.9582L156.796 -54.0136L140.399 -57.2394L119.765 64.4669L119.885 -58.7317L103.146 -57.9159L117.216 64.5912L82.9151 -54.4382L66.9738 -49.6363L114.788 65.3227L48.4038 -41.426L34.3472 -32.9653L112.647 66.6113L18.7033 -20.582L7.48938 -9.03899L110.939 68.3694L-4.16183 6.67384L-11.7689 20.5127L109.781 70.4771L-18.6338 38.4835L-22.1156 53.6747L109.25 72.7909L-23.7264 72.6795L-22.8458 88.1883L109.384 75.1529L-19.092 106.932L-13.909 121.701L110.174 77.4023L-5.04719 138.905L4.08503 151.929L111.565 79.3859L17.4511 166.422L29.9103 176.811L113.462 80.9682L46.8701 187.606L61.8073 194.654L115.737 82.0419L81.2043 201.014L97.6013 204.239L118.235 82.5332L118.114 205.732L134.854 204.916L120.784 82.4088L155.085 201.438L171.026 196.636L123.212 81.6773L189.596 188.426L203.653 179.965L125.353 80.389L219.297 167.582L230.51 156.039L127.061 78.6306L242.162 140.326L249.769 126.487L128.22 76.5229L256.634 108.517L260.116 93.3253L128.75 74.2092L261.726 74.3203L260.846 58.8118Z" fill="url(#paint3_radial_38_1189)"/>
</g>
<g opacity="0.759995">
<path d="M324.679 73.5C324.679 178.741 232.593 264.056 119 264.056C5.40656 264.056 -86.6791 178.741 -86.6791 73.5C-86.6791 -31.7411 5.40656 -117.056 119 -117.056C232.593 -117.056 324.679 -31.7411 324.679 73.5Z" stroke="#BF0000" stroke-width="8" stroke-linecap="round" stroke-linejoin="round"/>
<path d="M321.366 73.5001C321.366 177.046 230.764 260.986 119 260.986C7.23648 260.986 -83.366 177.046 -83.366 73.5001C-83.366 -30.0456 7.23648 -113.986 119 -113.986C230.764 -113.986 321.366 -30.0456 321.366 73.5001Z" stroke="#BF0000" stroke-width="7.89067" stroke-linecap="round" stroke-linejoin="round"/>
<path d="M318.053 73.5C318.053 175.35 228.934 257.917 119 257.917C9.06609 257.917 -80.0529 175.35 -80.0529 73.5C-80.0529 -28.3504 9.06609 -110.917 119 -110.917C228.934 -110.917 318.053 -28.3504 318.053 73.5Z" stroke="#BF0000" stroke-width="7.78133" stroke-linecap="round" stroke-linejoin="round"/>
<path d="M314.739 73.5C314.739 173.655 227.104 254.847 119 254.847C10.896 254.847 -76.7394 173.655 -76.7394 73.5C-76.7394 -26.6553 10.896 -107.847 119 -107.847C227.104 -107.847 314.739 -26.6553 314.739 73.5Z" stroke="#BF0000" stroke-width="7.672" stroke-linecap="round" stroke-linejoin="round"/>
<path d="M311.426 73.5C311.426 171.96 225.274 251.777 119 251.777C12.726 251.777 -73.4262 171.96 -73.4262 73.5C-73.4262 -24.9597 12.726 -104.777 119 -104.777C225.274 -104.777 311.426 -24.9597 311.426 73.5Z" stroke="#BF0000" stroke-width="7.56267" stroke-linecap="round" stroke-linejoin="round"/>
<path d="M308.113 73.5C308.113 170.265 223.444 248.708 119 248.708C14.5559 248.708 -70.1131 170.265 -70.1131 73.5C-70.1131 -23.2645 14.5559 -101.707 119 -101.707C223.444 -101.707 308.113 -23.2645 308.113 73.5Z" stroke="#BF0000" stroke-width="7.45333" stroke-linecap="round" stroke-linejoin="round"/>
<path d="M304.8 73.5001C304.8 168.569 221.614 245.638 119 245.638C16.3855 245.638 -66.7996 168.569 -66.7996 73.5001C-66.7996 -21.5692 16.3855 -98.6378 119 -98.6378C221.614 -98.6378 304.8 -21.5692 304.8 73.5001Z" stroke="#BF0000" stroke-width="7.344" stroke-linecap="round" stroke-linejoin="round"/>
<path d="M301.487 73.5C301.487 166.874 219.784 242.568 119 242.568C18.2154 242.568 -63.4865 166.874 -63.4865 73.5C-63.4865 -19.8738 18.2154 -95.5682 119 -95.5682C219.784 -95.5682 301.487 -19.8738 301.487 73.5Z" stroke="#BF0000" stroke-width="7.23467" stroke-linecap="round" stroke-linejoin="round"/>
<path d="M298.173 73.5C298.173 165.179 217.955 239.499 119 239.499C20.0454 239.499 -60.1733 165.179 -60.1733 73.5C-60.1733 -18.1786 20.0454 -92.4989 119 -92.4989C217.955 -92.4989 298.173 -18.1786 298.173 73.5Z" stroke="#BF0000" stroke-width="7.12533" stroke-linecap="round" stroke-linejoin="round"/>
<path d="M294.86 73.5C294.86 163.483 216.125 236.429 119 236.429C21.8753 236.429 -56.8598 163.483 -56.8598 73.5C-56.8598 -16.4831 21.8753 -89.4292 119 -89.4292C216.125 -89.4292 294.86 -16.4831 294.86 73.5Z" stroke="#BF0000" stroke-width="7.016" stroke-linecap="round" stroke-linejoin="round"/>
<path d="M291.547 73.5C291.547 161.788 214.295 233.359 119 233.359C23.7052 233.359 -53.5467 161.788 -53.5467 73.5C-53.5467 -14.7879 23.7052 -86.3595 119 -86.3595C214.295 -86.3595 291.547 -14.7879 291.547 73.5Z" stroke="#BF0000" stroke-width="6.90667" stroke-linecap="round" stroke-linejoin="round"/>
<path d="M288.234 73.5C288.234 160.092 212.465 230.29 119 230.29C25.5348 230.29 -50.2336 160.092 -50.2336 73.5C-50.2336 -13.0927 25.5348 -83.2899 119 -83.2899C212.465 -83.2899 288.234 -13.0927 288.234 73.5Z" stroke="#BF0000" stroke-width="6.79733" stroke-linecap="round" stroke-linejoin="round"/>
<path d="M284.92 73.5C284.92 158.398 210.635 227.22 119 227.22C27.3648 227.22 -46.9201 158.398 -46.9201 73.5C-46.9201 -11.3972 27.3648 -80.2199 119 -80.2199C210.635 -80.2199 284.92 -11.3972 284.92 73.5Z" stroke="#BF0000" stroke-width="6.688" stroke-linecap="round" stroke-linejoin="round"/>
<path d="M281.607 73.5C281.607 156.702 208.805 224.151 119 224.151C29.1947 224.151 -43.6067 156.702 -43.6067 73.5C-43.6067 -9.70196 29.1947 -77.1506 119 -77.1506C208.805 -77.1506 281.607 -9.70196 281.607 73.5Z" stroke="#BF0000" stroke-width="6.57867" stroke-linecap="round" stroke-linejoin="round"/>
<path d="M278.294 73.5C278.294 155.006 206.975 221.081 119 221.081C31.0246 221.081 -40.2935 155.006 -40.2935 73.5C-40.2935 -8.00652 31.0246 -74.081 119 -74.081C206.975 -74.081 278.294 -8.00652 278.294 73.5Z" stroke="#BF0000" stroke-width="6.46933" stroke-linecap="round" stroke-linejoin="round"/>
<path d="M274.981 73.5001C274.981 153.311 205.146 218.011 119 218.011C32.8545 218.011 -36.9804 153.311 -36.9804 73.5001C-36.9804 -6.31124 32.8545 -71.0112 119 -71.0112C205.146 -71.0112 274.981 -6.31124 274.981 73.5001Z" stroke="#BF0000" stroke-width="6.36" stroke-linecap="round" stroke-linejoin="round"/>
<path d="M271.667 73.5C271.667 151.616 203.316 214.942 119 214.942C34.6845 214.942 -33.6669 151.616 -33.6669 73.5C-33.6669 -4.61605 34.6845 -67.9416 119 -67.9416C203.316 -67.9416 271.667 -4.61605 271.667 73.5Z" stroke="#BF0000" stroke-width="6.252" stroke-linecap="round" stroke-linejoin="round"/>
<path d="M268.354 73.4999C268.354 149.921 201.486 211.872 119 211.872C36.5141 211.872 -30.3538 149.921 -30.3538 73.4999C-30.3538 -2.92095 36.5141 -64.8721 119 -64.8721C201.486 -64.8721 268.354 -2.92095 268.354 73.4999Z" stroke="#BF0000" stroke-width="6.14267" stroke-linecap="round" stroke-linejoin="round"/>
<path d="M265.041 73.5001C265.041 148.225 199.656 208.802 119 208.802C38.344 208.802 -27.0406 148.225 -27.0406 73.5001C-27.0406 -1.22531 38.344 -61.8022 119 -61.8022C199.656 -61.8022 265.041 -1.22531 265.041 73.5001Z" stroke="#BF0000" stroke-width="6.03333" stroke-linecap="round" stroke-linejoin="round"/>
<path d="M261.727 73.5C261.727 146.53 197.826 205.733 119 205.733C40.174 205.733 -23.7271 146.53 -23.7271 73.5C-23.7271 0.469849 40.174 -58.7326 119 -58.7326C197.826 -58.7326 261.727 0.469849 261.727 73.5Z" stroke="#BF0000" stroke-width="5.924" stroke-linecap="round" stroke-linejoin="round"/>
<path d="M258.414 73.5001C258.414 144.835 195.997 202.663 119 202.663C42.0039 202.663 -20.414 144.835 -20.414 73.5001C-20.414 2.16538 42.0039 -55.6629 119 -55.6629C195.997 -55.6629 258.414 2.16538 258.414 73.5001Z" stroke="#BF0000" stroke-width="5.81467" stroke-linecap="round" stroke-linejoin="round"/>
<path d="M255.101 73.5C255.101 143.14 194.166 199.593 119 199.593C43.8335 199.593 -17.1009 143.14 -17.1009 73.5C-17.1009 3.86055 43.8335 -52.5933 119 -52.5933C194.166 -52.5933 255.101 3.86055 255.101 73.5Z" stroke="#BF0000" stroke-width="5.70533" stroke-linecap="round" stroke-linejoin="round"/>
<path d="M251.788 73.5C251.788 141.444 192.336 196.524 119 196.524C45.6634 196.524 -13.7874 141.444 -13.7874 73.5C-13.7874 5.55567 45.6634 -49.5238 119 -49.5238C192.336 -49.5238 251.788 5.55567 251.788 73.5Z" stroke="#BF0000" stroke-width="5.596" stroke-linecap="round" stroke-linejoin="round"/>
<path d="M248.474 73.5C248.474 139.749 190.507 193.454 119 193.454C47.4933 193.454 -10.4743 139.749 -10.4743 73.5C-10.4743 7.25121 47.4933 -46.4541 119 -46.4541C190.507 -46.4541 248.474 7.25121 248.474 73.5Z" stroke="#BF0000" stroke-width="5.48667" stroke-linecap="round" stroke-linejoin="round"/>
<path d="M245.161 73.5C245.161 138.054 188.677 190.384 119 190.384C49.3233 190.384 -7.1611 138.054 -7.1611 73.5C-7.1611 8.94643 49.3233 -43.3844 119 -43.3844C188.677 -43.3844 245.161 8.94643 245.161 73.5Z" stroke="#BF0000" stroke-width="5.37733" stroke-linecap="round" stroke-linejoin="round"/>
<path d="M241.848 73.5C241.848 136.358 186.847 187.315 119 187.315C51.1529 187.315 -3.84766 136.358 -3.84766 73.5C-3.84766 10.6416 51.1529 -40.3148 119 -40.3148C186.847 -40.3148 241.848 10.6416 241.848 73.5Z" stroke="#BF0000" stroke-width="5.268" stroke-linecap="round" stroke-linejoin="round"/>
<path d="M238.535 73.5C238.535 134.663 185.017 184.245 119 184.245C52.9828 184.245 -0.534515 134.663 -0.534515 73.5C-0.534515 12.3371 52.9828 -37.2454 119 -37.2454C185.017 -37.2454 238.535 12.3371 238.535 73.5Z" stroke="#BF0000" stroke-width="5.15867" stroke-linecap="round" stroke-linejoin="round"/>
<path d="M235.221 73.5C235.221 132.968 183.187 181.175 119 181.175C54.8127 181.175 2.77866 132.968 2.77866 73.5C2.77866 14.0323 54.8127 -34.1757 119 -34.1757C183.187 -34.1757 235.221 14.0323 235.221 73.5Z" stroke="#BF0000" stroke-width="5.04933" stroke-linecap="round" stroke-linejoin="round"/>
<path d="M231.908 73.5C231.908 131.272 181.357 178.106 119 178.106C56.6426 178.106 6.09207 131.272 6.09207 73.5C6.09207 15.7278 56.6426 -31.1061 119 -31.1061C181.357 -31.1061 231.908 15.7278 231.908 73.5Z" stroke="#BF0000" stroke-width="4.94" stroke-linecap="round" stroke-linejoin="round"/>
<path d="M228.595 73.5C228.595 129.577 179.528 175.036 119 175.036C58.4726 175.036 9.40524 129.577 9.40524 73.5C9.40524 17.423 58.4726 -28.0364 119 -28.0364C179.528 -28.0364 228.595 17.423 228.595 73.5Z" stroke="#BF0000" stroke-width="4.83067" stroke-linecap="round" stroke-linejoin="round"/>
<path d="M225.282 73.5C225.282 127.882 177.698 171.967 119 171.967C60.3022 171.967 12.7184 127.882 12.7184 73.5C12.7184 19.1183 60.3022 -24.9667 119 -24.9667C177.698 -24.9667 225.282 19.1183 225.282 73.5Z" stroke="#BF0000" stroke-width="4.72133" stroke-linecap="round" stroke-linejoin="round"/>
<path d="M221.968 73.5C221.968 126.186 175.868 168.897 119 168.897C62.1321 168.897 16.0319 126.186 16.0319 73.5C16.0319 20.8138 62.1321 -21.8971 119 -21.8971C175.868 -21.8971 221.968 20.8138 221.968 73.5Z" stroke="#BF0000" stroke-width="4.612" stroke-linecap="round" stroke-linejoin="round"/>
<path d="M218.655 73.5C218.655 124.491 174.038 165.828 119 165.828C63.9621 165.828 19.345 124.491 19.345 73.5C19.345 22.509 63.9621 -18.8274 119 -18.8274C174.038 -18.8274 218.655 22.509 218.655 73.5Z" stroke="#BF0000" stroke-width="4.50267" stroke-linecap="round" stroke-linejoin="round"/>
<path d="M215.342 73.5C215.342 122.796 172.208 162.758 119 162.758C65.792 162.758 22.6585 122.796 22.6585 73.5C22.6585 24.2044 65.792 -15.7578 119 -15.7578C172.208 -15.7578 215.342 24.2044 215.342 73.5Z" stroke="#BF0000" stroke-width="4.39333" stroke-linecap="round" stroke-linejoin="round"/>
<path d="M212.029 73.5C212.029 121.1 170.378 159.688 119 159.688C67.6219 159.688 25.9716 121.1 25.9716 73.5C25.9716 25.8996 67.6219 -12.6882 119 -12.6882C170.378 -12.6882 212.029 25.8996 212.029 73.5Z" stroke="#BF0000" stroke-width="4.284" stroke-linecap="round" stroke-linejoin="round"/>
<path d="M208.715 73.5C208.715 119.405 168.548 156.619 119 156.619C69.4519 156.619 29.2848 119.405 29.2848 73.5C29.2848 27.5949 69.4519 -9.61846 119 -9.61846C168.548 -9.61846 208.715 27.5949 208.715 73.5Z" stroke="#BF0000" stroke-width="4.17467" stroke-linecap="round" stroke-linejoin="round"/>
<path d="M205.402 73.5C205.402 117.71 166.718 153.549 119 153.549C71.2815 153.549 32.5982 117.71 32.5982 73.5C32.5982 29.29 71.2815 -6.54885 119 -6.54885C166.718 -6.54885 205.402 29.29 205.402 73.5Z" stroke="#BF0000" stroke-width="4.06533" stroke-linecap="round" stroke-linejoin="round"/>
<path d="M202.089 73.5001C202.089 116.015 164.889 150.479 119 150.479C73.1114 150.479 35.9113 116.015 35.9113 73.5001C35.9113 30.9856 73.1114 -3.47914 119 -3.47914C164.889 -3.47914 202.089 30.9856 202.089 73.5001Z" stroke="#BF0000" stroke-width="3.956" stroke-linecap="round" stroke-linejoin="round"/>
<path d="M198.776 73.5001C198.776 114.319 163.059 147.41 119 147.41C74.9413 147.41 39.2245 114.319 39.2245 73.5001C39.2245 32.6808 74.9413 -0.409447 119 -0.409447C163.059 -0.409447 198.776 32.6808 198.776 73.5001Z" stroke="#BF0000" stroke-width="3.84667" stroke-linecap="round" stroke-linejoin="round"/>
<path d="M195.462 73.5C195.462 112.624 161.229 144.34 119 144.34C76.7712 144.34 42.538 112.624 42.538 73.5C42.538 34.3762 76.7712 2.66007 119 2.66007C161.229 2.66007 195.462 34.3762 195.462 73.5Z" stroke="#BF0000" stroke-width="3.73733" stroke-linecap="round" stroke-linejoin="round"/>
<path d="M192.149 73.5C192.149 110.929 159.399 141.271 119 141.271C78.6009 141.271 45.8511 110.929 45.8511 73.5C45.8511 36.0715 78.6009 5.72977 119 5.72977C159.399 5.72977 192.149 36.0715 192.149 73.5Z" stroke="#BF0000" stroke-width="3.628" stroke-linecap="round" stroke-linejoin="round"/>
<path d="M188.836 73.5C188.836 109.233 157.569 138.201 119 138.201C80.4308 138.201 49.1642 109.233 49.1642 73.5C49.1642 37.7666 80.4308 8.79941 119 8.79941C157.569 8.79941 188.836 37.7666 188.836 73.5Z" stroke="#BF0000" stroke-width="3.51867" stroke-linecap="round" stroke-linejoin="round"/>
<path d="M185.523 73.5C185.523 107.538 155.74 135.131 119 135.131C82.2607 135.131 52.4777 107.538 52.4777 73.5C52.4777 39.4622 82.2607 11.8691 119 11.8691C155.74 11.8691 185.523 39.4622 185.523 73.5Z" stroke="#BF0000" stroke-width="3.40933" stroke-linecap="round" stroke-linejoin="round"/>
<path d="M182.209 73.5C182.209 105.843 153.909 132.061 119 132.061C84.0907 132.061 55.7909 105.843 55.7909 73.5C55.7909 41.1574 84.0907 14.9388 119 14.9388C153.909 14.9388 182.209 41.1574 182.209 73.5Z" stroke="#BF0000" stroke-width="3.3" stroke-linecap="round" stroke-linejoin="round"/>
<path d="M178.896 73.5C178.896 104.147 152.079 128.992 119 128.992C85.9206 128.992 59.104 104.147 59.104 73.5C59.104 42.8529 85.9206 18.0081 119 18.0081C152.079 18.0081 178.896 42.8529 178.896 73.5Z" stroke="#BF0000" stroke-width="3.19067" stroke-linecap="round" stroke-linejoin="round"/>
<path d="M175.583 73.5C175.583 102.452 150.25 125.922 119 125.922C87.7501 125.922 62.4174 102.452 62.4174 73.5C62.4174 44.548 87.7501 21.0777 119 21.0777C150.25 21.0777 175.583 44.548 175.583 73.5Z" stroke="#BF0000" stroke-width="3.08133" stroke-linecap="round" stroke-linejoin="round"/>
<path d="M172.269 73.5C172.269 100.757 148.42 122.852 119 122.852C89.5801 122.852 65.7306 100.757 65.7306 73.5C65.7306 46.2435 89.5801 24.1474 119 24.1474C148.42 24.1474 172.269 46.2435 172.269 73.5Z" stroke="#BF0000" stroke-width="2.97333" stroke-linecap="round" stroke-linejoin="round"/>
<path d="M168.956 73.5C168.956 99.0613 146.59 119.783 119 119.783C91.41 119.783 69.0438 99.0613 69.0438 73.5C69.0438 47.9388 91.41 27.2171 119 27.2171C146.59 27.2171 168.956 47.9388 168.956 73.5Z" stroke="#BF0000" stroke-width="2.864" stroke-linecap="round" stroke-linejoin="round"/>
<path d="M165.643 73.5C165.643 97.366 144.76 116.713 119 116.713C93.2399 116.713 72.3572 97.366 72.3572 73.5C72.3572 49.634 93.2399 30.2867 119 30.2867C144.76 30.2867 165.643 49.634 165.643 73.5Z" stroke="#BF0000" stroke-width="2.75467" stroke-linecap="round" stroke-linejoin="round"/>
<path d="M162.33 73.5C162.33 95.6706 142.93 113.644 119 113.644C95.0696 113.644 75.6703 95.6706 75.6703 73.5C75.6703 51.3292 95.0696 33.3564 119 33.3564C142.93 33.3564 162.33 51.3292 162.33 73.5Z" stroke="#BF0000" stroke-width="2.64533" stroke-linecap="round" stroke-linejoin="round"/>
<path d="M159.016 73.5C159.016 93.9756 141.101 110.574 119 110.574C96.8995 110.574 78.9835 93.9756 78.9835 73.5C78.9835 53.0247 96.8995 36.426 119 36.426C141.101 36.426 159.016 53.0247 159.016 73.5Z" stroke="#BF0000" stroke-width="2.536" stroke-linecap="round" stroke-linejoin="round"/>
<path d="M155.703 73.5001C155.703 92.2802 139.271 107.504 119 107.504C98.7294 107.504 82.2969 92.2802 82.2969 73.5001C82.2969 54.7199 98.7294 39.4957 119 39.4957C139.271 39.4957 155.703 54.7199 155.703 73.5001Z" stroke="#BF0000" stroke-width="2.42667" stroke-linecap="round" stroke-linejoin="round"/>
<path d="M152.39 73.5C152.39 90.5846 137.441 104.435 119 104.435C100.559 104.435 85.6101 90.5846 85.6101 73.5C85.6101 56.4154 100.559 42.5653 119 42.5653C137.441 42.5653 152.39 56.4154 152.39 73.5Z" stroke="#BF0000" stroke-width="2.31733" stroke-linecap="round" stroke-linejoin="round"/>
<path d="M149.077 73.5C149.077 88.8894 135.611 101.365 119 101.365C102.389 101.365 88.9232 88.8894 88.9232 73.5C88.9232 58.1105 102.389 45.6349 119 45.6349C135.611 45.6349 149.077 58.1105 149.077 73.5Z" stroke="#BF0000" stroke-width="2.208" stroke-linecap="round" stroke-linejoin="round"/>
<path d="M145.763 73.5C145.763 87.1943 133.781 98.2954 119 98.2954C104.219 98.2954 92.2367 87.1943 92.2367 73.5C92.2367 59.8058 104.219 48.7047 119 48.7047C133.781 48.7047 145.763 59.8058 145.763 73.5Z" stroke="#BF0000" stroke-width="2.09867" stroke-linecap="round" stroke-linejoin="round"/>
<path d="M142.45 73.5C142.45 85.499 131.951 95.2257 119 95.2257C106.049 95.2257 95.5499 85.499 95.5499 73.5C95.5499 61.501 106.049 51.7743 119 51.7743C131.951 51.7743 142.45 61.501 142.45 73.5Z" stroke="#BF0000" stroke-width="1.98933" stroke-linecap="round" stroke-linejoin="round"/>
<path d="M139.137 73.4999C139.137 83.8035 130.121 92.156 119 92.156C107.879 92.156 98.8633 83.8035 98.8633 73.4999C98.8633 63.1964 107.879 54.8439 119 54.8439C130.121 54.8439 139.137 63.1964 139.137 73.4999Z" stroke="#BF0000" stroke-width="1.88" stroke-linecap="round" stroke-linejoin="round"/>
<path d="M135.824 73.5C135.824 82.108 128.291 89.0867 119 89.0867C109.709 89.0867 102.176 82.108 102.176 73.5C102.176 64.8916 109.709 57.9136 119 57.9136C128.291 57.9136 135.824 64.8916 135.824 73.5Z" stroke="#BF0000" stroke-width="1.77067" stroke-linecap="round" stroke-linejoin="round"/>
<path d="M132.51 73.5C132.51 80.4131 126.461 86.0167 119 86.0167C111.539 86.0167 105.49 80.4131 105.49 73.5C105.49 66.5871 111.539 60.9832 119 60.9832C126.461 60.9832 132.51 66.5871 132.51 73.5Z" stroke="#BF0000" stroke-width="1.66133" stroke-linecap="round" stroke-linejoin="round"/>
<path d="M129.197 73.5C129.197 78.7176 124.632 82.9474 119 82.9474C113.369 82.9474 108.803 78.7176 108.803 73.5C108.803 68.2824 113.369 64.0529 119 64.0529C124.632 64.0529 129.197 68.2824 129.197 73.5Z" stroke="#BF0000" stroke-width="1.552" stroke-linecap="round" stroke-linejoin="round"/>
<path d="M125.884 73.5C125.884 77.0221 122.802 79.8774 119 79.8774C115.198 79.8774 112.116 77.0221 112.116 73.5C112.116 69.9779 115.198 67.1225 119 67.1225C122.802 67.1225 125.884 69.9779 125.884 73.5Z" stroke="#BF0000" stroke-width="1.44267" stroke-linecap="round" stroke-linejoin="round"/>
<path d="M122.571 73.5C122.571 75.3269 120.972 76.8081 119 76.8081C117.028 76.8081 115.43 75.3269 115.43 73.5C115.43 71.6731 117.028 70.1922 119 70.1922C120.972 70.1922 122.571 71.6731 122.571 73.5Z" stroke="#BF0000" stroke-width="1.33333" stroke-linecap="round" stroke-linejoin="round"/>
</g>
<path d="M0 -9.14208e-05V5.23575L45.9661 30.9575L0 -9.14208e-05Z" fill="#FF0000"/>
<path d="M0 16.145L28.5733 28.7559L0 11.9417V16.145Z" fill="#770000"/>
<path d="M11.721 -4.28192e-05L30.167 11.9417L16.2313 -4.28192e-05H11.721Z" fill="#770000"/>
<path d="M22.4699 -0.000107313L51.3945 21.8997L26.6019 -0.000107313H22.4699Z" fill="#C90000"/>
<path d="M32.5953 -0.000156222L64.6818 26.4037L36.9323 -0.000156222H32.5953Z" fill="#FF0000"/>
<path d="M43.5894 -4.28192e-05L56.2285 11.9417L46.5603 -4.28192e-05H43.5894Z" fill="#770000"/>
<path d="M0 38.2637L37.4177 48.1127L0 34.5604V38.2637Z" fill="#FF0000"/>
<path d="M0 48.9718L23.6042 52.0756L0 46.1706V48.9718Z" fill="#C90000"/>
<path d="M0 61.1458L51.2055 65.8372L0 58.0432V61.1458Z" fill="#770000"/>
<path d="M0 29.7066L14.287 33.2346L0 27.0794V29.7066Z" fill="#770000"/>
<path d="M0 74.2946L36.5673 72.7299L0 69.4906V74.2946Z" fill="#770000"/>
<path d="M56.2286 -0.000148056L86.402 33.2345L60.2686 -0.000148056H56.2286Z" fill="#770000"/>
<path d="M68.7485 -6.22883e-05L79.5899 14.1681L72.541 -6.22883e-05H68.7485Z" fill="#C90000"/>
<path d="M81.2915 -3.61575e-05L90.9156 16.6174L84.4782 -3.61575e-05H81.2915Z" fill="#FF0000"/>
<path d="M93.7354 -4.77378e-05L103.653 25.7532L97.4954 -4.77378e-05H93.7354Z" fill="#770000"/>
<path d="M104.301 -0.000106387L112.728 35.3613L108.515 -0.000106387H104.301Z" fill="#770000"/>
<path d="M114.646 -7.98349e-05L117.446 17.6808L118.669 -7.98349e-05H114.646Z" fill="#FF0000"/>
<path d="M238 -9.14208e-05L192.034 30.9575L238 5.23575V-9.14208e-05Z" fill="#FF0000"/>
<path d="M209.427 28.7559L238 16.145V11.9417L209.427 28.7559Z" fill="#770000"/>
<path d="M221.769 -4.28192e-05L207.833 11.9417L226.279 -4.28192e-05H221.769Z" fill="#770000"/>
<path d="M211.398 -0.000107313L186.606 21.8997L215.53 -0.000107313H211.398Z" fill="#C90000"/>
<path d="M201.068 -0.000156222L173.318 26.4037L205.405 -0.000156222H201.068Z" fill="#FF0000"/>
<path d="M191.44 -4.28192e-05L181.771 11.9417L194.411 -4.28192e-05H191.44Z" fill="#770000"/>
<path d="M200.582 48.1127L238 38.2637V34.5607L200.582 48.1127Z" fill="#FF0000"/>
<path d="M214.396 52.0756L238 48.9718V46.1706L214.396 52.0756Z" fill="#C90000"/>
<path d="M211.25 62.9847L238 61.1458V58.0432L211.25 62.9847Z" fill="#770000"/>
<path d="M223.713 33.2345L238 29.7065V27.0793L223.713 33.2345Z" fill="#770000"/>
<path d="M201.433 72.73L238 74.2947V69.4904L201.433 72.73Z" fill="#770000"/>
<path d="M177.731 -0.000148056L151.598 33.2345L181.771 -0.000148056H177.731Z" fill="#770000"/>
<path d="M165.459 -6.22883e-05L158.41 14.1681L169.251 -6.22883e-05H165.459Z" fill="#C90000"/>
<path d="M153.522 -3.61575e-05L147.084 16.6174L156.709 -3.61575e-05H153.522Z" fill="#FF0000"/>
<path d="M140.504 -0.000140599L129.364 42.0671L144.264 -0.000140599H140.504Z" fill="#770000"/>
<path d="M129.486 -3.81152e-05L127.96 20.3489L133.699 -3.81152e-05H129.486Z" fill="#770000"/>
<path d="M0 141.764V147L45.9661 116.042L0 141.764Z" fill="#FF0000"/>
<path d="M0 130.855V135.058L28.5733 118.244L0 130.855Z" fill="#770000"/>
<path d="M11.721 147H16.2313L30.167 135.059L11.721 147Z" fill="#770000"/>
<path d="M22.4699 147H26.6019L51.3945 125.1L22.4699 147Z" fill="#C90000"/>
<path d="M32.5953 147H36.9323L64.6818 120.596L32.5953 147Z" fill="#FF0000"/>
<path d="M43.5894 147H46.5603L56.2285 135.059L43.5894 147Z" fill="#770000"/>
<path d="M0 108.736V112.439L37.4177 98.8872L0 108.736Z" fill="#FF0000"/>
<path d="M0 98.0284V100.829L23.6042 94.9244L0 98.0284Z" fill="#C90000"/>
<path d="M0 85.8544V88.957L29.5187 83.8276L0 85.8544Z" fill="#770000"/>
<path d="M0 117.293V119.921L14.287 113.765L0 117.293Z" fill="#770000"/>
<path d="M56.2286 147H60.2686L86.402 113.765L56.2286 147Z" fill="#770000"/>
<path d="M68.7485 147H72.541L79.5899 132.832L68.7485 147Z" fill="#C90000"/>
<path d="M81.2915 147H84.4782L90.9156 130.383L81.2915 147Z" fill="#FF0000"/>
<path d="M93.7354 147H97.4954L103.653 121.247L93.7354 147Z" fill="#770000"/>
<path d="M104.301 147H108.515L112.728 111.639L104.301 147Z" fill="#770000"/>
<path d="M114.646 147H118.669L117.446 129.319L114.646 147Z" fill="#FF0000"/>
<path d="M238 147V141.764L192.034 116.042L238 147Z" fill="#FF0000"/>
<path d="M238 135.059V130.855L209.427 118.244L238 135.059Z" fill="#770000"/>
<path d="M221.769 147H226.279L207.833 135.059L221.769 147Z" fill="#770000"/>
<path d="M211.398 147H215.53L186.606 125.1L211.398 147Z" fill="#C90000"/>
<path d="M201.068 147H205.405L173.318 120.596L201.068 147Z" fill="#FF0000"/>
<path d="M191.44 147H194.411L181.771 135.059L191.44 147Z" fill="#770000"/>
<path d="M238 112.44V108.736L200.582 98.8874L238 112.44Z" fill="#FF0000"/>
<path d="M238 100.829V98.0285L214.396 94.9245L238 100.829Z" fill="#C90000"/>
<path d="M238 88.9568V85.8542L186.795 81.1628L238 88.9568Z" fill="#770000"/>
<path d="M238 119.921V117.293L223.713 113.765L238 119.921Z" fill="#770000"/>
<path d="M177.731 147H181.771L151.598 113.765L177.731 147Z" fill="#770000"/>
<path d="M165.459 147H169.251L158.41 132.832L165.459 147Z" fill="#C90000"/>
<path d="M153.522 147H156.709L147.084 130.383L153.522 147Z" fill="#FF0000"/>
<path d="M140.504 147H144.264L129.364 104.933L140.504 147Z" fill="#770000"/>
<path d="M129.486 147H133.699L127.96 126.651L129.486 147Z" fill="#770000"/>
</g>
<defs>
<radialGradient id="paint0_radial_38_1189" cx="0" cy="0" r="1" gradientUnits="userSpaceOnUse" gradientTransform="translate(119 73.5) scale(101.131 93.6945)">
<stop stop-color="#FF0000"/>
<stop offset="0.635046" stop-color="#BF0000"/>
<stop offset="1" stop-color="#BF0000"/>
</radialGradient>
<radialGradient id="paint1_radial_38_1189" cx="0" cy="0" r="1" gradientUnits="userSpaceOnUse" gradientTransform="translate(119 73.5) rotate(-5.44615) scale(138.126 128.16)">
<stop stop-color="#FF0000"/>
<stop offset="0.635046" stop-color="#BF0000"/>
<stop offset="1" stop-color="#BF0000"/>
</radialGradient>
<radialGradient id="paint2_radial_38_1189" cx="0" cy="0" r="1" gradientUnits="userSpaceOnUse" gradientTransform="translate(119 73.5) scale(138.229 128.065)">
<stop stop-color="#FF0000"/>
<stop offset="0.635046" stop-color="#BF0000"/>
<stop offset="1" stop-color="#BF0000"/>
</radialGradient>
<radialGradient id="paint3_radial_38_1189" cx="0" cy="0" r="1" gradientUnits="userSpaceOnUse" gradientTransform="translate(119 73.5) rotate(-2.78997) scale(138.202 128.09)">
<stop stop-color="#FF0000"/>
<stop offset="0.635046" stop-color="#BF0000"/>
<stop offset="1" stop-color="#BF0000"/>
</radialGradient>
<clipPath id="clip0_38_1189">
<rect width="238" height="147" fill="white"/>
</clipPath>
</defs>
</svg>
