<svg width="239" height="215" viewBox="0 0 239 215" fill="none" xmlns="http://www.w3.org/2000/svg">
<g opacity="0.75" clip-path="url(#clip0_38_1127)">
<path d="M150.728 201.758C150.457 203.197 150.673 204.776 151.669 205.925C152.665 207.075 154.553 207.642 155.986 206.968C157.773 206.127 158.106 203.95 157.917 202.138C157.727 200.326 157.269 198.375 158.233 196.777C158.137 198.446 158.066 200.22 158.982 201.671C159.898 203.123 162.197 203.989 163.66 202.967C165.007 202.027 164.905 200.188 164.587 198.678C166.012 203.246 166.531 208.045 166.112 212.776C165.794 216.363 164.596 220.352 161.1 222.074C158.153 223.526 154.265 222.803 151.76 220.785C149.254 218.768 148.02 215.689 147.848 212.661C147.676 209.633 148.468 206.627 149.476 203.734C150.054 202.075 150.578 199.795 151.723 198.418C151.96 199.267 150.912 200.773 150.728 201.758Z" fill="#FF5D00"/>
<path d="M20.749 181.005C24.551 180.801 28.5396 192.16 30.7072 197.68C30.9482 198.294 31.2323 198.974 31.8806 199.259C32.6975 199.618 33.7215 199.125 34.1672 198.41C34.6128 197.694 34.6324 196.833 34.6405 196.013C34.6726 192.81 34.7047 189.608 34.7369 186.405C35.5175 190.586 36.2984 194.767 37.0791 198.949C37.4099 200.72 37.7645 202.548 38.8534 204.051C39.9422 205.555 41.9739 206.655 43.9029 206.219C45.648 205.824 46.8365 204.288 47.2506 202.707C47.665 201.125 47.4613 199.473 47.3482 197.851C46.9841 192.625 47.7272 187.039 51.2916 182.91C49.7511 187.934 49.6702 193.318 51.0586 198.378C51.6896 200.678 52.9156 203.186 55.406 203.93C58.4331 204.836 61.6003 202.537 62.8929 199.904C64.5997 196.426 64.2206 192.4 63.2279 188.703C62.2354 185.006 60.6643 181.43 60.0485 177.667C59.4324 173.904 59.9102 169.763 62.5933 166.831C60.6602 170.95 62.314 175.683 64.3316 179.769C66.3496 183.854 68.7885 188.06 68.3833 192.519C68.1465 195.128 66.9431 197.573 65.7855 199.972C64.6282 202.372 63.4825 204.85 63.3728 207.466C63.263 210.081 64.4036 212.899 66.8984 214.23C70.3727 216.084 75.185 214.223 77.1908 211.06C79.1965 207.898 78.9654 203.949 77.9309 200.425C76.8968 196.902 75.1336 193.574 74.1979 190.029C72.2555 182.669 74.1658 174.556 79.256 168.548C77.0173 173.446 76.5764 179 78.0181 184.137C78.4831 185.792 79.3896 187.627 81.2168 188.065C83.5034 188.613 85.6639 186.442 85.8296 184.31C85.995 182.178 84.8529 180.17 83.9146 178.208C82.976 176.246 82.2179 173.987 83.1315 172.016C85.8543 176.599 88.6645 181.61 87.7615 186.747C87.3995 188.808 86.4525 190.741 85.7201 192.721C84.9877 194.7 84.4635 196.83 84.9784 198.865C85.4931 200.899 87.296 202.789 89.5977 202.968C92.4891 203.194 94.8929 200.668 95.3874 198.084C95.8818 195.501 95.0188 192.887 94.3738 190.331C93.7285 187.775 93.3272 184.97 94.6427 182.633C93.7312 184.487 94.4749 186.672 95.606 188.425C96.7371 190.177 98.2532 191.746 99.0437 193.645C100.374 196.84 99.448 200.406 98.3823 203.681C97.3167 206.956 96.1094 210.385 96.9225 213.719C97.7358 217.052 101.466 220.075 105.078 219.074C107.551 218.39 109.716 216.892 110.31 214.618C110.904 212.345 110.322 209.954 109.475 207.746C108.628 205.539 107.511 203.404 106.988 201.116C105.811 195.969 107.985 190.31 112.439 186.928C110.699 188.931 110.549 191.943 112.082 194.079C113.616 196.215 116.721 197.32 119.456 196.701C122.19 196.083 124.353 193.787 124.592 191.25C124.863 188.364 122.909 185.729 122.128 182.92C121.077 179.134 122.323 174.894 125.314 172.077C123.66 174.09 123.508 177.015 124.947 179.159C126.386 181.302 129.328 182.533 132.069 182.137C135.314 181.668 137.853 179.126 138.828 176.291C139.802 173.455 139.451 170.382 138.707 167.49C137.671 163.466 135.891 159.599 133.461 156.099C136.8 159.144 139.758 162.618 141.491 166.608C143.224 170.598 143.65 175.154 142.006 179.175C139.881 184.369 134.653 188.086 132.201 193.161C130.814 196.031 130.481 199.619 132.585 202.108C134.798 204.724 139.256 205.259 142.486 203.733C145.716 202.207 147.713 199.015 148.206 195.752C148.7 192.49 147.86 189.166 146.54 186.097C150.804 189.123 153.11 194.253 152.389 199.108C151.89 202.466 150.065 205.637 150.064 209.025C150.064 211.883 151.447 214.719 153.782 216.647C156.117 218.575 159.368 219.566 162.518 219.31C164.614 219.139 164.968 216.779 165.411 214.92C167.252 207.194 163.602 199.245 164.015 191.35C164.437 183.284 169.047 175.903 174.169 169.285C173.214 171.041 172.261 172.821 171.798 174.732C171.334 176.643 171.4 178.724 172.413 180.453C174.165 183.44 178.163 184.635 181.815 185.374C185.466 186.114 189.461 186.819 191.902 189.382C194.137 191.728 194.502 195.069 196.114 197.801C197.875 200.786 201.215 202.969 204.905 203.548C208.595 204.126 212.553 203.086 215.325 200.811C215.519 206.183 212.736 211.778 208.147 215.199C203.52 218.649 197.443 219.984 191.564 221.06C185.684 222.136 179.599 223.115 174.553 226.045C172.857 227.029 171.022 228.282 169.049 227.91C149.951 233.678 133.226 242.054 116.264 251.859C105.106 258.307 93.8796 265.801 80.7084 267.071C68.7703 268.222 57.0771 264.053 45.9577 259.962C36.2431 256.389 26.2453 252.648 18.8572 245.922C15.6796 243.029 13.0247 239.563 11.8201 235.635C10.6694 231.883 10.8875 227.915 11.1147 224.027C11.6678 214.558 12.3086 204.778 17.0151 196.302C19.321 192.15 23.0674 185.152 20.749 181.005Z" fill="#FF5D00"/>
<path d="M228.721 250.297C223.025 248.544 216.907 248.321 210.89 248.256C204.872 248.191 198.79 248.261 192.924 247.052C187.057 245.842 181.314 243.187 177.891 238.716C175.382 235.439 174.288 231.413 174.058 227.434C173.828 223.454 174.41 219.477 174.991 215.527C175.676 210.873 176.372 206.175 178.169 201.769C179.965 197.363 184.004 193.173 188.419 190.696C188.845 196.293 194.052 201.29 200.211 202.011C206.371 202.733 212.816 199.103 214.809 193.789C216.804 188.47 214.57 182.63 211.675 177.661C208.78 172.692 205.141 167.897 204.094 162.361C203.174 157.496 204.383 152.438 206.734 147.982C209.085 143.527 212.529 139.613 216.223 135.977C213.741 139.105 211.954 142.382 210.215 145.896C208.475 149.41 207.529 153.352 208.309 157.136C209.088 160.92 211.797 164.495 215.755 165.92C220.145 167.501 225.443 166.145 228.773 163.117C232.104 160.089 233.582 155.655 233.389 151.389C233.1 144.987 229.402 139.087 228.493 132.732C227.41 125.16 230.62 117.189 236.834 112.014C231.568 118.185 229.848 126.471 232.392 133.916C234.427 139.872 239.016 145.354 238.619 151.577C238.356 155.709 235.88 159.459 233.058 162.72C230.237 165.981 226.983 168.972 224.717 172.57C222.413 176.229 221.208 180.571 222.074 184.707C222.94 188.844 226.09 192.684 230.493 194.063C234.897 195.443 240.384 193.924 242.653 190.247C244.636 187.034 243.967 183.017 242.63 179.542C241.293 176.067 239.335 172.732 238.84 169.08C238.346 165.428 239.801 161.194 243.512 159.68C242.117 161.948 240.993 164.472 241.119 167.064C241.246 169.657 243.63 172.341 246.479 172.011C248.392 171.79 249.857 170.33 250.719 168.771C251.854 166.716 252.243 164.332 251.812 162.07C251.222 158.972 249.195 156.273 247.947 153.338C246.698 150.404 246.401 146.703 248.84 144.461C247.418 148.214 249.362 151.567 251.469 155.047C253.575 158.527 256.088 162.062 256.159 166.028C256.212 169.01 254.854 171.864 253.253 174.472C251.651 177.08 249.77 179.571 248.615 182.365C247.46 185.159 247.105 188.392 248.58 191.06C250.055 193.728 253.746 195.494 256.806 194.374C259.374 193.435 260.779 190.824 260.959 188.327C261.14 185.831 260.344 183.373 259.714 180.937C259.084 178.5 257.574 176.088 259.444 173.526C258.235 175.051 259.516 177.38 261.263 178.393C263.01 179.407 265.64 178.826 266.673 177.199C268.114 174.929 266.418 172.176 265.336 169.749C263.338 165.266 263.552 160.02 265.911 155.683C264.327 159.133 266.088 163.038 267.982 166.359C269.876 169.68 271.995 173.312 271.087 176.957C269.969 181.447 264.503 184.6 264.487 189.203C264.472 193.308 269.589 196.487 274.025 195.596C278.461 194.706 281.543 190.556 281.565 186.452C281.591 181.729 278.318 177.568 276.827 173.041C274.807 166.903 276.29 159.913 280.68 154.885C279.73 156.828 278.582 158.477 278.519 160.6C278.456 162.722 279.516 165.017 281.652 165.904C284.46 167.07 287.864 165.305 289.399 162.882C291.424 159.682 291.123 155.687 290.086 152.122C289.05 148.557 287.343 145.146 286.698 141.505C285.741 136.098 287.288 130.364 290.894 125.962C289.183 129.175 288.049 132.927 288.364 136.482C288.679 140.036 291.914 143.642 295.844 143.308C299.467 143 301.872 139.609 302.444 136.362C304.109 126.929 295.285 117.921 296.854 108.475C298.515 116.428 306.476 122.725 306.806 130.813C307.006 135.702 304.326 140.291 301.383 144.398C298.439 148.504 295.094 152.521 293.677 157.243C293.253 158.658 293.014 160.177 293.492 161.577C293.969 162.978 295.319 164.217 296.94 164.28C298.717 164.35 300.208 163.064 301.138 161.694C303.167 158.705 303.568 154.859 302.193 151.58C304.525 155.39 304.655 159.801 302.791 163.816C300.928 167.832 297.936 171.32 295.416 175.031C292.895 178.743 290.781 182.912 290.998 187.262C291.101 189.32 291.78 191.428 293.339 192.931C294.898 194.435 297.448 195.191 299.559 194.413C301.895 193.551 303.095 191.099 303.103 188.819C303.111 186.54 302.18 184.357 301.391 182.192C300.602 180.027 299.937 177.714 300.487 175.489C301.305 180.927 307.646 184.776 308.639 190.192C309.86 196.849 302.174 202.493 302.143 209.241C302.124 213.574 305.746 217.701 310.42 218.672C315.094 219.643 320.347 217.36 322.425 213.455C324.425 209.697 323.535 205.213 321.996 201.281C320.456 197.35 318.294 193.545 317.799 189.399C317.16 184.061 319.551 178.5 324.009 174.95C321.422 178.391 319.939 182.412 320.39 186.551C320.673 189.147 321.972 192.041 324.742 192.777C326.383 193.213 328.209 192.747 329.569 191.81C330.928 190.873 331.868 189.515 332.532 188.091C334.132 184.663 334.243 180.688 332.835 177.191C331.869 174.791 330.235 172.646 329.273 170.245C328.31 167.844 328.14 164.928 329.925 162.947C329.624 170.878 338.798 177.006 338.348 184.931C338.11 189.129 335.067 192.691 332.922 196.422C331.99 198.044 331.202 199.781 331.094 201.606C330.987 203.431 331.651 205.367 333.206 206.536C335.936 208.585 340.439 207.404 342.477 204.779C344.514 202.154 344.577 198.656 343.886 195.511C343.194 192.366 341.837 189.357 341.277 186.191C340.717 183.025 341.089 179.495 343.441 177.094C342.935 179.33 342.555 181.766 343.2 183.972C343.846 186.179 345.813 188.223 348.329 188.42C351.883 188.698 354.582 185.261 354.856 182.048C355.13 178.836 353.828 175.699 353.402 172.5C352.977 169.301 353.787 165.526 356.912 163.973C355.155 166.588 355.689 169.932 356.559 172.888C357.429 175.844 358.589 178.896 357.901 181.891C356.755 186.877 350.758 190.439 350.805 195.531C350.832 198.487 353.257 201.292 356.426 202.031C359.594 202.77 363.22 201.378 364.828 198.803C366.141 196.701 366.121 194.135 365.773 191.742C365.424 189.349 364.783 186.96 364.982 184.553C365.18 182.145 366.428 179.624 368.844 178.592C368.081 180.176 367.397 181.208 367.383 182.936C367.369 184.664 368.317 186.519 370.1 187.144C372.262 187.901 374.798 186.489 375.692 184.556C376.586 182.623 376.197 180.396 375.44 178.416C374.682 176.436 373.574 174.563 373.013 172.531C372.452 170.498 372.522 168.174 373.944 166.519C372.867 169.414 374.54 172.519 376.347 175.1C378.155 177.681 380.234 180.416 380.022 183.465C379.681 188.371 373.603 191.698 373.07 196.59C372.618 200.727 376.986 204.603 381.586 204.494C386.186 204.385 390.198 200.697 390.688 196.563C391.049 193.512 389.771 190.503 388.278 187.747C386.785 184.99 385.032 182.291 384.332 179.288C383.633 176.285 384.208 172.813 386.76 170.787C386.032 172.411 385.471 174.173 385.462 175.925C385.454 177.677 386.177 179.512 387.736 180.554C390.295 182.264 394.244 181.135 396.068 178.779C397.891 176.422 397.993 173.295 397.399 170.471C396.805 167.647 395.595 164.951 395.008 162.125C394.422 159.3 394.54 156.171 396.381 153.826C394.744 156.793 395.766 160.386 397.297 163.399C398.829 166.412 400.873 169.319 401.29 172.613C401.748 176.233 400.174 179.781 398.684 183.168C397.193 186.554 395.731 190.168 396.416 193.759C397.101 197.35 400.791 200.735 404.753 200.045C407.112 199.634 408.982 197.891 409.953 195.906C412.114 191.488 410.394 186.403 408.891 181.768C407.389 177.133 406.239 171.761 409.259 167.775C408.461 169.946 408.184 172.053 408.646 174.302C409.108 176.551 411.319 178.684 413.831 178.399C415.784 178.178 417.239 176.62 418.019 174.987C418.865 173.215 419.154 171.23 418.842 169.321C418.468 167.021 417.263 164.911 416.443 162.708C415.622 160.504 415.211 157.991 416.385 155.922C415.163 157.877 416.054 160.373 417.425 162.244C418.797 164.116 420.64 165.744 421.526 167.841C422.778 170.804 421.878 174.175 420.335 177.024C418.791 179.872 416.632 182.427 415.174 185.312C413.716 188.197 413.019 191.642 414.531 194.504C416.043 197.367 420.369 199.074 423.278 197.297C425.522 195.926 426.127 193.059 425.418 190.696C424.709 188.334 422.965 186.354 421.265 184.448C425.253 186.927 427.911 191.075 428.305 195.434C428.468 197.242 428.263 199.072 428.556 200.867C428.847 202.661 429.761 204.509 431.527 205.373C434.515 206.834 438.61 206.119 440.482 203.557C442.354 200.994 442.44 197.665 441.744 194.66C441.049 191.655 439.655 188.82 438.752 185.861C436.149 177.334 437.885 167.809 443.377 160.486C441.616 163.362 440.444 166.617 440.642 169.899C440.841 173.181 442.553 176.479 445.59 178.289C448.627 180.1 453.009 180.117 455.738 177.942C461.453 180.253 465.555 184.893 467.841 190.158C472.623 201.178 470.183 214.413 461.978 223.64C453.772 232.868 440.198 237.859 427.153 236.755C415.637 235.78 403.476 235.927 392.101 237.822C368.363 241.776 347.049 253.399 323.801 259.268C292.924 267.063 258.892 264.156 230.179 251.271" fill="#FF5D00"/>
<path d="M233.622 140.516C232.623 138.527 231.59 136.47 230.863 134.342C230.419 133.043 230.095 131.707 229.891 130.351C229.913 131.084 229.975 131.817 230.079 132.547C230.471 135.285 231.4 137.92 232.382 140.708C233.581 144.108 234.82 147.624 234.988 151.331C235.144 154.796 234.302 158.103 232.619 160.852C235.432 157.386 236.838 154.391 237.022 151.494C237.26 147.759 235.493 144.241 233.622 140.516Z" fill="#FF7A00"/>
<path d="M230.179 251.271L230.89 249.977C259.209 262.685 292.917 265.564 323.371 257.876C333.283 255.374 343.04 251.742 352.476 248.229C365.084 243.535 378.122 238.681 391.811 236.401C402.461 234.627 414.733 234.252 427.303 235.316C433.476 235.839 439.861 234.947 445.768 232.737C451.717 230.511 456.891 227.053 460.73 222.735C464.601 218.383 467.184 213.06 468.2 207.342C469.223 201.588 468.583 195.829 466.352 190.686C464.155 185.624 460.475 181.73 455.93 179.628C452.761 181.546 448.132 181.536 444.708 179.495C442.257 178.034 440.46 175.7 439.596 172.964C438.841 177.114 439.051 181.407 440.294 185.477C440.654 186.657 441.111 187.857 441.553 189.018C442.206 190.736 442.882 192.513 443.31 194.364C443.947 197.117 444.205 201.084 441.817 204.353C439.533 207.479 434.575 208.506 430.765 206.643C428.772 205.669 427.39 203.64 426.973 201.077C426.788 199.944 426.784 198.831 426.78 197.755C426.777 196.989 426.775 196.265 426.71 195.552C426.71 195.546 426.709 195.54 426.709 195.534C426.182 196.754 425.319 197.795 424.174 198.494C422.595 199.459 420.612 199.717 418.593 199.221C416.223 198.639 414.114 197.07 413.087 195.126C412.795 194.572 412.566 193.988 412.402 193.38C412.229 194.432 411.913 195.473 411.416 196.49C410.123 199.136 407.744 200.996 405.055 201.464C403.067 201.81 401.052 201.391 399.227 200.252C396.956 198.833 395.315 196.498 394.84 194.005C394.1 190.131 395.533 186.416 397.197 182.634L397.224 182.573C398.643 179.349 400.11 176.015 399.7 172.777C399.578 171.81 399.295 170.87 398.913 169.937C398.933 170.025 398.952 170.113 398.971 170.202C399.525 172.837 399.698 176.608 397.379 179.607C396.116 181.238 394.046 182.406 391.84 182.732C390.007 183.003 388.244 182.66 386.863 181.768C387.419 183.009 388.11 184.236 388.822 185.504C389.117 186.029 389.422 186.571 389.715 187.111C391.217 189.884 392.696 193.193 392.278 196.717C391.69 201.677 386.912 205.814 381.627 205.938C378.899 206.009 376.073 204.882 374.073 202.94C372.174 201.097 371.229 198.73 371.478 196.448C371.782 193.653 373.542 191.432 375.245 189.283C376.806 187.312 378.281 185.45 378.425 183.374C378.51 182.164 378.127 180.964 377.522 179.779C377.994 181.792 377.876 183.581 377.168 185.113C376.004 187.63 372.654 189.589 369.522 188.491C368.133 188.005 367.159 187.057 366.553 185.957C366.6 187.158 366.817 188.383 367.043 189.659C367.153 190.277 367.266 190.915 367.359 191.554C367.67 193.691 367.89 196.842 366.221 199.513C364.264 202.646 359.881 204.33 356.025 203.43C352.17 202.53 349.238 199.14 349.205 195.543C349.183 193.174 350.229 191.163 351.539 189.281C350.484 189.752 349.35 189.95 348.191 189.859C346.215 189.705 344.362 188.646 343.084 187.064C343.378 188.319 343.78 189.564 344.2 190.866C344.655 192.276 345.126 193.735 345.455 195.23C346.098 198.155 346.331 202.33 343.786 205.609C342.39 207.409 340.088 208.66 337.63 208.957C335.574 209.205 333.639 208.74 332.183 207.647C330.356 206.274 329.352 203.987 329.497 201.529C329.631 199.272 330.639 197.258 331.502 195.756C332.031 194.837 332.613 193.927 333.175 193.047C334.93 190.3 336.589 187.706 336.751 184.857C336.886 182.467 336.018 180.218 334.781 177.958C335.838 181.468 335.572 185.298 334.006 188.652C333.131 190.527 331.965 191.976 330.539 192.958C328.661 194.254 326.325 194.704 324.29 194.163C322.023 193.561 320.299 191.832 319.404 189.364C319.76 192.143 320.914 194.775 322.134 197.559C322.597 198.614 323.075 199.705 323.504 200.8C325.623 206.213 325.742 210.558 323.867 214.082C321.853 217.866 317.207 220.334 312.581 220.335C311.735 220.335 310.89 220.252 310.061 220.08C304.702 218.966 300.521 214.203 300.544 209.235C300.559 205.738 302.35 202.637 304.082 199.638C305.904 196.484 307.625 193.504 307.061 190.428C306.69 188.403 305.418 186.566 303.963 184.676C304.389 186.004 304.707 187.377 304.703 188.824C304.694 191.442 303.287 194.599 300.164 195.751C297.568 196.708 294.282 195.955 292.171 193.919C290.05 191.873 289.494 189.205 289.4 187.327C289.142 182.149 291.932 177.399 294.052 174.276C294.81 173.16 295.615 172.056 296.394 170.989C298.024 168.755 299.576 166.628 300.778 164.344C299.597 165.29 298.248 165.775 296.87 165.724C294.698 165.638 292.68 164.108 291.963 162.003C291.905 161.832 291.855 161.661 291.813 161.49C291.548 162.234 291.206 162.937 290.787 163.599C289.349 165.87 286.454 167.713 283.513 167.713C282.662 167.713 281.808 167.559 280.984 167.217C279.784 166.718 278.592 165.719 277.812 164.32C277.31 167.079 277.474 169.937 278.361 172.629C278.861 174.149 279.572 175.621 280.324 177.18C281.73 180.093 283.183 183.105 283.165 186.459C283.137 191.471 279.357 196.006 274.372 197.007C271.628 197.558 268.584 196.866 266.232 195.156C264.099 193.605 262.879 191.433 262.887 189.198C262.898 186.208 264.741 183.878 266.524 181.624C267.846 179.954 269.094 178.377 269.527 176.64C270.293 173.564 268.44 170.317 266.649 167.177L266.56 167.021C266.281 166.531 266.005 166.031 265.742 165.521C265.934 166.785 266.293 168.026 266.82 169.209C266.964 169.531 267.119 169.86 267.276 170.193C268.356 172.483 269.701 175.334 268.061 177.918C267.352 179.035 266.096 179.863 264.616 180.19C263.403 180.458 262.153 180.364 261.081 179.94C261.149 180.16 261.213 180.382 261.272 180.608C261.359 180.945 261.449 181.282 261.539 181.62C262.123 183.8 262.727 186.054 262.556 188.421C262.312 191.796 260.29 194.658 257.407 195.714C253.719 197.064 249.117 195.265 247.149 191.705C245.635 188.968 245.624 185.471 247.117 181.859C248 179.723 249.269 177.777 250.496 175.895C250.95 175.199 251.419 174.479 251.854 173.771C253.14 171.676 254.61 168.905 254.559 166.051C254.53 164.423 254.011 162.826 253.266 161.259C253.311 161.446 253.352 161.634 253.388 161.825C253.877 164.391 253.437 167.087 252.15 169.416C250.876 171.722 248.883 173.19 246.682 173.445C245.135 173.623 243.567 173.178 242.268 172.19C241.696 171.755 241.194 171.228 240.781 170.643C241.246 172.398 242.01 174.12 242.807 175.917C243.26 176.94 243.729 177.998 244.141 179.068C245.986 183.865 245.956 187.863 244.05 190.951C241.473 195.128 235.287 197.095 229.969 195.429C225.237 193.946 221.521 189.843 220.502 184.976C219.627 180.797 220.631 176.137 223.327 171.855C224.942 169.29 227.027 167.032 229.055 164.85C225.15 167.86 219.596 168.859 215.163 167.263C210.902 165.728 207.673 161.949 206.736 157.4C206.402 155.779 206.348 154.065 206.568 152.297C205.59 155.128 204.994 158.539 205.671 162.118C206.443 166.2 208.706 169.851 211.103 173.716C211.765 174.783 212.449 175.887 213.09 176.988C217.065 183.81 218.123 189.458 216.324 194.253C214.087 200.217 206.917 204.256 200.005 203.444C193.986 202.739 188.817 198.434 187.266 193.185C183.847 195.596 181.031 198.93 179.67 202.268C177.927 206.543 177.24 211.207 176.577 215.717C176.014 219.543 175.432 223.499 175.655 227.358C175.9 231.591 177.095 235.136 179.206 237.894C182.049 241.606 187.047 244.358 193.279 245.643C198.414 246.701 203.882 246.749 209.169 246.794C209.75 246.799 210.33 246.804 210.909 246.811C216.912 246.876 223.271 247.093 229.237 248.93L228.721 250.298L230.179 251.271Z" fill="#FF7A00"/>
<path d="M14.4484 215.903C15.5462 213.018 17.6141 210.85 19.8921 208.836C19.6496 208.047 19.5205 207.229 19.5243 206.404C19.5544 199.656 27.2409 194.012 26.02 187.354C25.0272 181.94 18.686 178.091 17.8676 172.652C17.3181 174.877 17.9824 177.19 18.772 179.355C19.5612 181.52 20.4915 183.703 20.4841 185.982C20.4764 188.262 19.2759 190.714 16.94 191.576C14.8289 192.354 12.2784 191.598 10.7195 190.094C9.16063 188.591 8.48144 186.483 8.3788 184.425C8.16192 180.075 10.2763 175.906 12.7967 172.194C15.3174 168.483 18.3085 164.995 20.172 160.98C22.0355 156.964 21.9058 152.553 19.574 148.743C20.9485 152.022 20.5472 155.868 18.5185 158.857C17.5891 160.227 16.0974 161.513 14.3208 161.443C12.7 161.379 11.3499 160.141 10.8727 158.741C10.3953 157.34 10.6338 155.821 11.0584 154.406C12.4751 149.684 15.8199 145.667 18.7633 141.56C21.7071 137.454 24.387 132.865 24.1871 127.976C23.8566 119.888 15.8954 113.591 14.2348 105.638C12.6655 115.085 21.4893 124.093 19.8251 133.525C19.2524 136.772 16.8483 140.162 13.2251 140.471C9.2954 140.806 6.05948 137.199 5.74443 133.644C5.42938 130.09 6.56315 126.338 8.27467 123.125C4.66897 127.527 3.12167 133.261 4.07932 138.668C4.72401 142.308 6.43017 145.719 7.46696 149.285C8.50375 152.85 8.80511 156.845 6.77943 160.045C5.24522 162.468 1.84093 164.233 -0.966879 163.067C-3.10263 162.18 -4.16352 159.885 -4.10045 157.763C-4.03738 155.64 -2.88873 153.991 -1.9394 152.048C-6.32932 157.076 -7.81236 164.066 -5.79174 170.204C-4.30185 174.731 -1.02816 178.892 -1.05375 183.614C-1.07606 187.719 -4.15846 191.869 -8.59419 192.759C-13.0299 193.65 -18.1466 190.471 -18.1324 186.366C-18.1163 181.764 -12.65 178.61 -11.5317 174.12C-10.624 170.475 -12.7434 166.843 -14.637 163.522C-16.5306 160.201 -18.2921 156.296 -16.7079 152.846C-19.0668 157.183 -19.2813 162.429 -17.283 166.912C-16.201 169.339 -14.5055 172.092 -15.946 174.362C-16.9786 175.989 -19.6088 176.57 -21.3564 175.556C-23.0212 174.59 -24.2609 172.432 -23.3282 170.91C-24.9579 173.39 -23.5171 175.734 -22.9052 178.1C-22.2753 180.536 -21.4795 182.993 -21.6601 185.49C-21.8404 187.987 -23.2458 190.598 -25.8129 191.537C-28.8727 192.657 -32.5641 190.891 -34.0394 188.223C-35.5147 185.555 -35.1589 182.322 -34.004 179.528C-32.8488 176.734 -30.968 174.243 -29.3666 171.635C-27.7651 169.027 -26.4073 166.173 -26.4606 163.191C-26.5311 159.225 -29.0438 155.691 -31.1507 152.21C-33.2573 148.73 -35.2014 145.377 -33.7788 141.624C-36.218 143.866 -35.9208 147.567 -34.6725 150.502C-33.4239 153.435 -31.397 156.135 -30.8071 159.233C-30.3766 161.495 -30.7654 163.879 -31.9004 165.934C-32.7619 167.493 -34.2268 168.953 -36.14 169.174C-38.9895 169.503 -41.3734 166.82 -41.4998 164.227C-41.6266 161.635 -40.5023 159.111 -39.1067 156.843C-42.8186 158.357 -44.2734 162.591 -43.7787 166.243C-43.2839 169.895 -41.3264 173.23 -39.9894 176.705C-38.6524 180.18 -37.9828 184.197 -39.9659 187.41C-42.2355 191.087 -47.7226 192.606 -52.1259 191.226C-56.5292 189.847 -59.6789 186.007 -60.5449 181.871C-61.4109 177.734 -60.2063 173.392 -57.9019 169.733C-55.6361 166.135 -52.3824 163.145 -49.5609 159.883C-46.7394 156.622 -44.2633 152.872 -44 148.74C-43.6034 142.517 -48.1924 137.035 -50.2279 131.079C-52.7718 123.634 -51.0508 115.348 -45.7856 109.177C-51.9998 114.352 -55.2086 122.323 -54.126 129.895C-53.2178 136.25 -49.5189 142.15 -49.2298 148.553C-49.0373 152.818 -50.5153 157.252 -53.8458 160.28C-57.1763 163.308 -62.4745 164.665 -66.8638 163.083C-70.8217 161.658 -73.5308 158.083 -74.3105 154.299C-75.09 150.515 -74.1436 146.573 -72.4047 143.059C-70.6656 139.545 -68.8782 136.268 -66.3958 133.139C-70.0905 136.776 -73.5344 140.69 -75.8855 145.145C-78.2367 149.601 -79.4451 154.659 -78.5249 159.524C-77.4783 165.06 -73.8396 169.854 -70.9443 174.824C-68.0493 179.793 -65.8151 185.633 -67.8099 190.952C-69.8031 196.266 -76.2485 199.896 -82.4079 199.175C-88.5673 198.452 -93.7736 193.456 -94.1996 187.859C-98.6148 190.336 -102.654 194.526 -104.451 198.932C-106.247 203.338 -106.943 208.036 -107.628 212.69C-108.209 216.64 -108.791 220.617 -108.561 224.597C-108.331 228.576 -107.238 232.602 -104.728 235.879C-101.305 240.35 -95.5625 243.005 -89.6958 244.215C-83.8288 245.424 -77.7467 245.354 -71.7297 245.419C-65.7125 245.484 -59.5941 245.707 -53.8981 247.461L-52.4404 248.435C-35.0084 256.257 -15.6161 260.401 3.84073 260.706C3.91897 258.96 4.09956 257.227 4.28222 255.495C5.63793 241.821 9.70416 228.964 14.4484 215.903Z" fill="#FF5D00"/>
<path d="M17.7265 116.527C17.6111 116.344 17.4957 116.161 17.3802 115.978C17.7473 116.99 18.1466 118.012 18.5512 119.047C20.3963 123.77 22.3045 128.654 21.4048 133.753C21.3798 133.895 21.3513 134.039 21.3197 134.182C22.159 132.205 22.6748 130.137 22.5886 128.029C22.4232 123.984 20.1419 120.362 17.7265 116.527Z" fill="#FF7A00"/>
<path d="M9.8208 153.093C11.1703 149.295 13.619 145.963 15.993 142.733C16.4655 142.091 16.9537 141.427 17.4204 140.775C17.6329 140.479 17.8453 140.179 18.0562 139.874C16.8088 140.979 15.2413 141.751 13.3753 141.91C11.4008 142.077 9.47867 141.5 7.81624 140.239C6.91928 139.559 6.1544 138.721 5.55672 137.787C5.58647 138.005 5.62039 138.223 5.65877 138.44C6.03243 140.551 6.78243 142.578 7.57616 144.725C8.07893 146.083 8.59867 147.488 9.01427 148.917C9.44119 150.385 9.70983 151.779 9.8208 153.093Z" fill="#FF7A00"/>
<path d="M14.4484 215.903C15.3394 213.561 16.8713 211.692 18.6343 209.994C18.1713 208.843 17.9191 207.627 17.9247 206.398C17.9402 202.901 19.7311 199.8 21.4632 196.801C23.2854 193.647 25.0061 190.667 24.4418 187.591C24.0708 185.566 22.7993 183.729 21.3442 181.839C21.7705 183.167 22.0885 184.54 22.0838 185.987C22.0748 188.605 20.6677 191.762 17.5445 192.913C14.9491 193.871 11.6623 193.117 9.55216 191.082C7.43098 189.036 6.87436 186.368 6.78095 184.49C6.52272 179.312 9.31238 174.562 11.4333 171.439C12.191 170.323 12.996 169.219 13.7752 168.152C15.4049 165.918 16.9563 163.791 18.1585 161.507C16.9778 162.453 15.6283 162.938 14.2512 162.887C12.0791 162.801 10.0615 161.271 9.34391 159.166C9.2856 158.995 9.23592 158.824 9.19427 158.653C8.9289 159.397 8.58677 160.1 8.16789 160.762C6.73037 163.033 3.8348 164.876 0.89341 164.876C0.0428565 164.876 -0.81067 164.722 -1.63504 164.38C-2.83546 163.881 -4.02724 162.882 -4.80729 161.483C-5.30917 164.242 -5.14495 167.099 -4.2587 169.792C-3.7583 171.312 -3.04758 172.784 -2.29549 174.343C-0.889508 177.256 0.564077 180.268 0.54593 183.622C0.51856 188.634 -3.26178 193.169 -8.24729 194.17C-10.9911 194.721 -14.0349 194.029 -16.3872 192.319C-18.5206 190.767 -19.7397 188.596 -19.732 186.361C-19.7213 183.371 -17.878 181.041 -16.0948 178.787C-14.7733 177.117 -13.5249 175.539 -13.0924 173.803C-12.3263 170.727 -14.1788 167.48 -15.9701 164.34L-16.0588 164.184C-16.3381 163.694 -16.6136 163.194 -16.8769 162.684C-16.6853 163.948 -16.3262 165.189 -15.7993 166.372C-15.6553 166.694 -15.5004 167.023 -15.3436 167.356C-14.2633 169.646 -12.9186 172.497 -14.5582 175.081C-15.2671 176.198 -16.5229 177.026 -18.0029 177.353C-19.2158 177.621 -20.4659 177.527 -21.5378 177.102C-21.47 177.323 -21.4057 177.545 -21.3474 177.771C-21.2603 178.108 -21.1701 178.445 -21.08 178.783C-20.496 180.962 -19.8923 183.217 -20.0637 185.584C-20.3077 188.959 -22.3286 191.821 -25.2125 192.876C-28.9001 194.227 -33.5018 192.428 -35.4704 188.868C-36.984 186.131 -36.9953 182.634 -35.5025 179.022C-34.6192 176.886 -33.3504 174.94 -32.1235 173.058C-31.6695 172.362 -31.2006 171.642 -30.7654 170.934C-29.479 168.839 -28.009 166.068 -28.0599 163.214C-28.0888 161.586 -28.6082 159.989 -29.3529 158.422C-29.3079 158.609 -29.2669 158.797 -29.2306 158.988C-28.7424 161.554 -29.1821 164.25 -30.4694 166.579C-31.743 168.885 -33.7359 170.353 -35.9371 170.608C-37.4841 170.786 -39.0526 170.341 -40.3512 169.353C-40.9232 168.918 -41.4251 168.391 -41.8387 167.806C-41.3728 169.561 -40.6094 171.283 -39.8127 173.08C-39.359 174.103 -38.8901 175.161 -38.4787 176.231C-36.6327 181.028 -36.6633 185.026 -38.5688 188.114C-41.1467 192.291 -47.332 194.258 -52.6498 192.591C-57.3819 191.109 -61.0976 187.006 -62.1166 182.139C-62.9918 177.959 -61.9887 173.3 -59.2921 169.018C-57.677 166.453 -55.5918 164.195 -53.5646 162.013C-57.469 165.023 -63.0228 166.022 -67.4564 164.426C-71.7169 162.891 -74.946 159.112 -75.8831 154.563C-76.2172 152.942 -76.2711 151.228 -76.0512 149.46C-77.0297 152.291 -77.625 155.702 -76.9482 159.281C-76.1762 163.362 -73.9125 167.014 -71.5158 170.879C-70.8545 171.946 -70.1702 173.05 -69.5288 174.151C-65.5542 180.973 -64.4966 186.621 -66.295 191.416C-68.5322 197.38 -75.7025 201.419 -82.6135 200.607C-88.6337 199.902 -93.8025 195.597 -95.3533 190.348C-98.7722 192.759 -101.589 196.093 -102.949 199.431C-104.692 203.706 -105.379 208.37 -106.042 212.88C-106.605 216.706 -107.187 220.662 -106.964 224.521C-106.719 228.754 -105.525 232.299 -103.413 235.057C-100.571 238.769 -95.5726 241.521 -89.3397 242.806C-84.2048 243.864 -78.7373 243.912 -73.4499 243.957C-72.8694 243.962 -72.2896 243.967 -71.7104 243.974C-65.7077 244.039 -59.3483 244.256 -53.3823 246.093L-53.8984 247.46L-53.8981 247.461L-52.4404 248.434L-51.7285 247.14C-34.5201 254.862 -15.3219 258.954 3.92732 259.252C4.01984 257.996 4.15044 256.745 4.28223 255.495C5.63794 241.821 9.70418 228.964 14.4484 215.903Z" fill="#FF7A00"/>
<path d="M208.173 202.29C208.127 202.214 208.078 202.14 208.021 202.068C208.075 202.142 208.125 202.216 208.173 202.29Z" fill="#EC6705"/>
<path d="M219.332 132.056C218.368 131.081 217.906 129.716 218.103 128.42C218.3 127.125 219.152 125.923 220.371 125.219C219.751 125.874 220.21 126.611 220.354 127.464C220.498 128.316 220.813 129.149 220.831 130.011C220.849 130.873 220.184 131.667 219.332 132.056Z" fill="#D44D00"/>
<path d="M190.888 182.14C190.648 180.015 191.033 177.835 191.995 175.884C193.738 177.997 193.321 181.311 191.096 183.016" fill="#FF7A00"/>
<path d="M149.904 151.545C148.995 149.51 149.146 147.11 150.305 145.181C151.828 147.131 151.294 149.516 149.904 151.545Z" fill="#FF7A00"/>
<path d="M114.04 146.352C113.29 146.17 112.824 145.452 112.758 144.753C112.693 144.055 112.943 143.367 113.189 142.702C113.625 141.527 114.061 140.352 114.497 139.177C116.757 141.122 115.836 144.045 114.04 146.352Z" fill="#EC6705"/>
<path d="M163.227 164.865C162.851 164.774 162.618 164.414 162.585 164.064C162.552 163.714 162.678 163.37 162.801 163.037C163.019 162.449 163.237 161.861 163.455 161.272C164.587 162.246 164.126 163.71 163.227 164.865Z" fill="#EC6705"/>
<path d="M102.27 178.253C101.895 178.162 101.661 177.803 101.629 177.453C101.596 177.103 101.721 176.759 101.844 176.426C102.062 175.837 102.281 175.249 102.499 174.661C103.631 175.635 103.169 177.098 102.27 178.253Z" fill="#EC6705"/>
<path d="M80.8055 163.053C79.3317 161.131 79.4504 158.334 81.0828 156.52C82.1651 158.739 81.9684 160.867 80.8055 163.053Z" fill="#EC6705"/>
<path d="M31.1408 167.047C29.6941 166.46 29.5102 164.656 29.8756 163.262C30.2406 161.868 30.9344 160.426 30.4622 159.059C32.036 160.026 32.9752 161.405 33.1986 163.112C33.4224 164.82 32.4216 165.775 31.1408 167.047Z" fill="#FF7A00"/>
<path d="M58.0628 156.526C56.8541 154.841 57.1105 152.416 58.6504 150.968C60.0757 152.497 59.5304 155.03 58.0628 156.526Z" fill="#D44D00"/>
<path d="M214.381 159.786C212.627 158.189 212.71 155.261 214.553 153.747C214.389 154.571 214.82 155.03 215.27 155.761C215.721 156.493 216.236 157.234 216.306 158.069C216.377 158.904 215.304 159.705 214.381 159.786Z" fill="#EC6705"/>
<path d="M184.469 160.064C183.031 159.157 182.946 156.961 184.311 155.966C185.79 156.972 185.673 158.793 184.469 160.064Z" fill="#EC6705"/>
<path d="M39.0058 136.696C37.5677 135.79 37.4826 133.593 38.8469 132.598C40.3261 133.604 40.2098 135.425 39.0058 136.696Z" fill="#EC6705"/>
<path d="M26.8096 119.172C25.1334 117.515 24.9413 114.788 26.3719 112.952C27.8264 114.668 27.3828 117.073 26.8096 119.172Z" fill="#FF7A00"/>
<path d="M115.794 174.166C114.881 173.382 114.41 172.198 114.564 171.069C114.717 169.94 115.49 168.894 116.585 168.333C116.086 168.945 116.342 169.876 116.646 170.586C116.949 171.295 117.395 171.978 117.443 172.737C117.491 173.497 116.636 174.165 115.794 174.166Z" fill="#FF7A00"/>
<path d="M191.16 219.26C196.758 218.235 202.581 216.968 206.853 213.783C209.946 211.477 212.147 208.01 212.958 204.379C210.352 205.442 207.412 205.804 204.557 205.357C200.218 204.677 196.391 202.176 194.32 198.665C193.602 197.449 193.125 196.179 192.664 194.952C192.041 193.292 191.452 191.725 190.361 190.58C188.472 188.596 185.118 187.921 181.874 187.268L181.37 187.167C177.503 186.383 172.785 185.01 170.617 181.312C170.264 180.712 169.994 180.06 169.806 179.371C166.845 184.814 166.195 188.582 166.046 191.437C165.88 194.622 166.41 197.808 166.972 201.182C167.74 205.786 168.533 210.547 167.398 215.307C167.363 215.457 167.327 215.611 167.292 215.767C166.855 217.672 166.125 220.861 162.701 221.139C159.001 221.439 155.153 220.268 152.41 218.003C149.668 215.738 148.031 212.382 148.031 209.025C148.031 206.807 148.692 204.761 149.332 202.782C149.77 201.426 150.184 200.146 150.374 198.864C150.549 197.684 150.521 196.487 150.308 195.318C150.284 195.547 150.255 195.775 150.221 196.001C149.593 200.149 147.054 203.648 143.428 205.36C139.16 207.376 133.688 206.437 130.97 203.223C128.639 200.467 128.402 196.43 130.337 192.426C131.6 189.814 133.492 187.589 135.322 185.437C137.259 183.16 139.088 181.008 140.098 178.538C140.183 178.331 140.262 178.122 140.335 177.911C138.826 181.133 135.813 183.456 132.39 183.951C129.202 184.412 125.823 183.179 123.822 180.906C123.866 181.434 123.958 181.959 124.101 182.473C124.342 183.339 124.721 184.216 125.123 185.144C125.964 187.089 126.835 189.099 126.618 191.406C126.308 194.703 123.503 197.679 119.95 198.483C116.396 199.286 112.37 197.855 110.377 195.078C110.072 194.654 109.818 194.203 109.616 193.735C108.706 195.971 108.449 198.426 108.979 200.745C109.305 202.169 109.897 203.557 110.524 205.028C110.817 205.714 111.12 206.424 111.396 207.145C112.151 209.111 113.065 212.069 112.289 215.04C111.581 217.752 109.17 219.862 105.674 220.83C103.745 221.365 101.638 221.108 99.7422 220.109C97.3758 218.862 95.5349 216.565 94.9369 214.114C94.0468 210.465 95.2395 206.814 96.2917 203.592L96.4316 203.163C97.2119 200.766 97.9694 198.077 97.5427 195.678C97.6013 196.569 97.5677 197.474 97.391 198.397C96.7541 201.725 93.5187 205.119 89.4234 204.799C86.4028 204.563 83.7601 202.292 82.9962 199.274C82.3318 196.649 83.0723 194.082 83.792 192.138C83.9964 191.585 84.2162 191.039 84.4286 190.509C84.625 190.021 84.8172 189.542 84.9945 189.068C83.6771 189.915 82.151 190.19 80.6953 189.84C79.1429 189.468 77.0768 188.254 76.0474 184.588C75.8466 183.872 75.6791 183.149 75.5461 182.421C75.3513 184.818 75.5536 187.245 76.176 189.603C76.646 191.384 77.3368 193.107 78.0678 194.93C78.7172 196.55 79.3884 198.224 79.8965 199.955C81.2793 204.666 80.9538 208.822 78.9552 211.973C77.5659 214.164 75.1038 215.862 72.3694 216.515C70.0587 217.067 67.7493 216.817 65.8643 215.812C62.9223 214.242 61.1894 211.017 61.3411 207.396C61.389 206.254 61.5984 205.161 61.9188 204.082C59.9193 205.631 57.3254 206.439 54.7669 205.674C52.3768 204.959 50.6195 203.122 49.5297 200.204C49.5497 201.158 49.4905 202.133 49.2296 203.129C48.581 205.606 46.7294 207.472 44.397 208C41.8099 208.585 38.831 207.375 37.1519 205.057C36.0217 203.497 35.5657 201.756 35.2429 200.137C34.0984 201.163 32.3777 201.52 30.9913 200.911C29.5734 200.288 29.0644 198.991 28.791 198.294C28.5917 197.787 28.3769 197.229 28.1481 196.636C27.0771 193.858 25.744 190.4 24.2728 187.525C23.953 186.901 23.6549 186.359 23.3783 185.889C22.7904 189.999 20.3691 194.358 18.8325 197.126C14.2388 205.398 13.6577 215.346 13.1451 224.124C12.9292 227.82 12.7054 231.643 13.7794 235.145C14.7811 238.411 16.9752 241.601 20.3006 244.628C27.512 251.193 37.7187 254.948 46.7243 258.261C57.0621 262.064 68.7783 266.375 80.493 265.245C91.5999 264.174 101.531 258.326 111.136 252.671C112.457 251.893 113.823 251.089 115.168 250.311C135.651 238.472 151.573 231.252 168.405 226.168L168.926 226.011L169.464 226.112C170.419 226.293 171.698 225.536 172.934 224.805C173.109 224.701 173.282 224.599 173.453 224.5C178.522 221.557 184.413 220.486 190.111 219.451L191.16 219.26Z" fill="#FF7A00"/>
<path d="M63.8847 184.018C64.3426 185.398 64.8156 186.825 65.2039 188.27C65.7462 190.29 66.0446 192.156 66.0979 193.885C66.2216 193.382 66.3109 192.877 66.357 192.369C66.6691 188.93 64.9441 185.432 63.2389 182.043C63.4453 182.694 63.6631 183.351 63.8847 184.018Z" fill="#FF7A00"/>
<path d="M-15.8252 202.357C-8.01132 201.615 -0.82282 196.842 2.2929 190.327C2.52941 192.376 2.76593 194.425 3.00274 196.474C3.40555 194.859 3.80837 193.244 4.21118 191.629C4.97189 194.02 5.7326 196.411 6.49331 198.803C6.5067 196.655 6.52038 194.507 6.53377 192.359C8.77484 197.047 12.548 201.126 17.256 203.952C16.1805 201.789 15.1051 199.626 14.0296 197.463C16.4914 199.214 18.9529 200.965 21.4144 202.716C20.4324 200.9 19.4503 199.084 18.4683 197.268C20.4955 198.862 22.5223 200.457 24.5495 202.052C23.2592 200.187 22.3971 198.082 22.0329 195.908C23.7522 199.932 27.6878 202.763 31.1748 205.71C34.6615 208.656 38.0391 212.337 38.0105 216.65C43.2929 214.639 47.5579 210.681 50.4389 206.204C51.033 207.189 51.6271 208.173 52.2212 209.157C52.289 208.53 52.3569 207.902 52.4247 207.274C53.4258 208.026 54.4269 208.777 55.4283 209.528C55.2646 208.98 55.101 208.432 54.9374 207.883C57.5444 208.894 59.4442 210.985 60.9267 213.17C62.4088 215.356 63.589 217.718 65.3219 219.747C67.0546 221.776 69.4994 223.497 72.3266 223.711C76.5728 224.033 80.3386 220.781 81.6479 217.118C82.9572 213.455 82.3967 209.488 81.8228 205.673C82.8078 206.913 83.7925 208.152 84.7776 209.391L83.8925 205.808C84.7975 207.698 86.8901 209.079 89.1588 209.283C91.4276 209.487 93.7805 208.506 95.08 206.813C94.3598 212.393 94.6971 218.082 96.0731 223.56C100.719 226.063 105.866 226.356 110.734 224.223C115.601 222.091 118.772 216.761 117.188 212.088C116.089 208.846 112.968 206.096 113.163 202.71C115.293 205.339 118.966 206.882 122.564 206.659C122.465 203.496 123.762 200.315 126.109 197.966C125.75 200.506 126.57 203.167 128.331 205.174C128.297 204.355 128.263 203.538 128.228 202.72C131.835 207.289 138.483 209.72 144.592 208.705C143.409 212.618 143.917 216.977 146.234 220.453C148.55 223.928 152.71 226.414 157.188 226.726C161.665 227.037 166.317 225.057 168.673 221.604C171.731 217.123 170.649 211.386 169.535 206.219C168.422 201.052 167.514 195.246 170.814 190.908C172.153 194.494 175.019 197.468 178.849 199.002C176.972 197.29 175.816 194.947 175.663 192.541C177.347 194.707 179.761 196.403 182.499 197.345C181.184 195.577 180.156 193.635 179.458 191.601C181.69 194.9 186.719 195.541 189.915 198.113C192.11 199.879 193.288 202.43 195.013 204.581C197.013 207.074 199.838 209.065 203.09 209.986C206.343 210.908 210.016 210.706 213.008 209.229C216.206 207.65 218.444 204.715 219.371 201.53C220.298 198.346 219.995 194.938 218.956 191.781C221.073 195.524 224.194 198.971 228.425 200.72C232.655 202.468 238.103 202.181 241.476 199.287C242.784 198.165 243.237 196.905 243.551 195.3C243.792 195.961 244.032 196.622 244.273 197.283L244.921 195.067C245.197 195.727 245.473 196.388 245.749 197.048C245.761 196.158 245.773 195.267 245.784 194.376C247.16 197.497 249.395 200.468 252.703 202.003C256.01 203.537 260.51 203.26 262.96 200.733C263.935 203.43 265.542 205.903 266.674 208.549C267.805 211.195 268.444 214.178 267.402 216.854C266.354 219.544 263.764 221.516 261.018 222.924C253.662 226.697 244.886 227.256 236.443 227.729C203.821 252.561 165.341 269.883 123.134 275.483C80.9279 281.083 37.0261 275.843 -2.1223 260.533C-8.68784 257.965 -15.6136 254.684 -18.5684 248.798C-20.8389 244.274 -20.3103 239.06 -19.7361 234.12C-18.4286 222.869 -17.1327 213.607 -15.8252 202.357Z" fill="#EC6705"/>
<path d="M-15.2808 211.957C-11.405 209.226 -8.048 205.895 -5.40025 202.154C-5.40054 203.526 -5.40114 204.898 -5.40144 206.269C-4.79662 205.062 -4.1918 203.855 -3.58669 202.648C-3.38587 203.539 -3.18506 204.429 -2.98425 205.32C-2.50616 203.976 -2.02778 202.632 -1.5497 201.288C-1.39411 202.086 -1.23852 202.884 -1.08322 203.683C-0.86188 201.794 -0.640539 199.904 -0.419199 198.015C-0.134788 199.451 0.149324 200.888 0.433437 202.324C0.534289 201.309 0.635143 200.293 0.735698 199.278C1.53121 200.483 2.32673 201.689 3.12225 202.895C3.03686 201.69 2.95178 200.486 2.86639 199.281C4.55798 201.167 6.24927 203.053 7.94056 204.938C7.82007 204.077 7.69988 203.216 7.5794 202.354C8.20177 203.246 8.82414 204.138 9.44651 205.03C9.83832 204.457 10.2301 203.883 10.6219 203.31C11.0042 203.89 11.3865 204.47 11.7685 205.05C11.7093 204.364 12.0773 203.661 12.7015 203.267C13.43 204.858 14.1589 206.448 14.8875 208.038C15.1047 207.099 15.3218 206.161 15.5393 205.222C16.2042 206.406 16.8691 207.589 17.5341 208.772C18.0642 208.036 18.5943 207.299 19.1245 206.563C19.6758 207.114 20.2267 207.666 20.778 208.217C21.2272 207.531 21.6765 206.844 22.1257 206.157C22.466 206.617 22.8064 207.077 23.1467 207.538C23.1895 206.942 23.2324 206.346 23.2752 205.751C29.3755 208.955 33.9742 214.412 35.7684 220.577C42.5759 220.287 49.1661 216.208 52.6123 210.897C52.8575 211.62 53.1023 212.342 53.3472 213.065C53.5944 212.405 53.8413 211.744 54.0882 211.084C54.4696 211.748 54.8513 212.412 55.2327 213.076C55.2279 212.423 55.2232 211.769 55.2181 211.116C57.5035 214.93 60.1168 218.738 64.003 221.284C67.8893 223.83 73.3386 224.858 77.5488 222.774C80.2927 221.416 82.1764 218.925 83.2531 216.271C84.3294 213.617 84.6864 210.777 85.0354 207.968C85.6075 208.488 86.1796 209.008 86.7514 209.528L86.7627 207.281C88.5331 208.628 90.0581 210.238 91.2588 212.025C95.0954 217.737 92.8433 225.584 93.5124 232.238C93.7037 234.139 93.9497 236.166 95.2923 237.641C96.8015 239.298 99.3565 239.853 101.732 239.881C106.115 239.934 110.5 238.486 113.812 235.892C117.233 233.213 119.417 229.476 121.12 225.686C122.419 222.794 123.498 219.721 123.247 216.608C122.955 212.984 120.754 209.523 117.435 207.47L124.243 209.144C124.58 209.227 124.956 209.308 125.266 209.161C125.925 208.851 125.658 207.947 125.262 207.379C124.865 206.811 124.449 206.005 124.996 205.55L127.416 208.199C127.277 207.434 127.139 206.668 127.001 205.903C128.614 208.156 132.092 208.362 134.805 209.453C138.202 210.82 140.563 213.774 141.815 216.936C143.067 220.099 143.353 223.497 143.628 226.846C147.482 229.462 151.6 231.512 156.287 232.527C160.94 233.535 165.946 233.66 170.417 232.123C174.889 230.586 178.728 227.209 179.781 222.993C180.561 219.867 179.796 216.587 178.6 213.57C177.403 210.554 175.778 207.679 174.751 204.612C175.865 205.686 176.978 206.761 178.091 207.835C177.958 207.159 177.825 206.483 177.692 205.807C181.048 208.929 186.219 209.577 190.787 210.96C198.198 213.203 204.694 217.834 208.832 223.825C218.047 220.345 224.737 212.685 226.451 203.797C227.367 204.757 228.283 205.717 229.199 206.678C229.171 206.115 229.144 205.553 229.117 204.991C229.742 205.607 230.367 206.224 230.993 206.841C230.737 206.1 230.481 205.359 230.226 204.617C231.975 206.035 233.976 207.2 236.129 208.053C235.652 206.78 235.176 205.507 234.7 204.234C237.974 206.678 242.139 207.88 246.199 209.005C250.258 210.131 254.431 211.283 257.769 213.655C261.107 216.027 263.465 219.94 262.514 223.679C261.847 226.302 259.673 228.438 257.171 229.898C254.67 231.359 251.825 232.25 249.058 233.247C237.581 237.383 227.129 243.492 216.166 248.641C213.788 249.758 211.183 250.862 208.536 250.481C179.526 246.313 152.329 270.997 122.956 271.133C110.29 271.192 97.9987 267.427 85.4049 266.21C74.5708 265.163 63.3902 265.983 52.9884 263.053C39.9364 259.376 29.7738 250.302 18.2463 243.662C11.4225 239.731 4.01296 236.602 -2.37437 232.112C-8.7617 227.622 -14.4529 219.23 -15.2808 211.957Z" fill="#FFF194"/>
<path d="M151.505 192.482C153.123 195.243 152.643 198.574 152.245 201.677C152.071 203.041 151.95 204.53 152.78 205.68C153.401 206.539 154.489 207.07 155.612 207.225C156.735 207.38 157.889 207.191 158.958 206.842C158.195 207.489 157.361 208.206 156.448 208.667C155.534 209.127 154.451 209.382 153.431 209.17C151.68 208.807 150.566 207.147 150.393 205.531C150.22 203.915 150.775 202.317 151.274 200.758C151.774 199.198 152.226 197.555 151.85 195.967C151.554 194.719 151.045 193.688 151.505 192.482Z" fill="#FF5D00"/>
</g>
<defs>
<clipPath id="clip0_38_1127">
<rect width="238" height="215" fill="white" transform="translate(0.666687)"/>
</clipPath>
</defs>
</svg>
