<svg width="240" height="147" viewBox="0 0 240 147" fill="none" xmlns="http://www.w3.org/2000/svg">
<g opacity="0.75" clip-path="url(#clip0_38_2966)">
<path d="M183.762 132.113H123.585C118.186 132.113 113.809 129.439 113.809 126.14C113.809 122.842 118.186 120.168 123.585 120.168H183.762C189.162 120.168 193.539 122.842 193.539 126.14C193.539 129.439 189.162 132.113 183.762 132.113Z" fill="white"/>
<path d="M139.985 120.558C139.985 124.264 135.067 127.268 129.001 127.268C122.935 127.268 118.017 124.264 118.017 120.558C118.017 116.853 122.935 113.848 129.001 113.848C135.067 113.848 139.985 116.853 139.985 120.558Z" fill="white"/>
<path d="M150.735 121.577C150.735 124.998 146.195 127.771 140.595 127.771C134.994 127.771 130.454 124.998 130.454 121.577C130.454 118.155 134.994 115.382 140.595 115.382C146.195 115.382 150.735 118.155 150.735 121.577Z" fill="white"/>
<path d="M163.635 118.022C163.635 121.812 158.605 124.885 152.4 124.885C146.195 124.885 141.165 121.812 141.165 118.022C141.165 114.232 146.195 111.159 152.4 111.159C158.605 111.159 163.635 114.232 163.635 118.022Z" fill="white"/>
<path d="M183.145 119.287C183.145 124.631 176.053 128.963 167.306 128.963C158.558 128.963 151.467 124.631 151.467 119.287C151.467 113.943 158.558 109.611 167.306 109.611C176.053 109.611 183.145 113.943 183.145 119.287Z" fill="white"/>
<path d="M188.931 122.775C188.931 126.565 183.901 129.638 177.696 129.638C171.491 129.638 166.461 126.565 166.461 122.775C166.461 118.984 171.491 115.911 177.696 115.911C183.901 115.911 188.931 118.984 188.931 122.775Z" fill="white"/>
<path d="M110.901 134.531H46.225C40.4221 134.531 35.7176 131.657 35.7176 128.112C35.7176 124.567 40.4221 121.693 46.225 121.693H110.901C116.705 121.693 121.409 124.567 121.409 128.112C121.409 131.657 116.705 134.531 110.901 134.531Z" fill="white"/>
<path d="M62.7365 123.776C62.7365 127.453 57.857 130.434 51.8381 130.434C45.8186 130.434 40.9392 127.453 40.9392 123.776C40.9392 120.099 45.8186 117.118 51.8381 117.118C57.857 117.118 62.7365 120.099 62.7365 123.776Z" fill="white"/>
<path d="M75.4049 123.207C75.4049 126.884 70.5254 129.865 64.5065 129.865C58.487 129.865 53.6076 126.884 53.6076 123.207C53.6076 119.53 58.487 116.549 64.5065 116.549C70.5254 116.549 75.4049 119.53 75.4049 123.207Z" fill="white"/>
<path d="M93.4125 118.121C93.4125 122.894 87.079 126.763 79.2661 126.763C71.4532 126.763 65.1192 122.894 65.1192 118.121C65.1192 113.348 71.4532 109.479 79.2661 109.479C87.079 109.479 93.4125 113.348 93.4125 118.121Z" fill="white"/>
<path d="M107.559 121.693C107.559 126.466 101.226 130.335 93.4124 130.335C85.5994 130.335 79.2659 126.466 79.2659 121.693C79.2659 116.92 85.5994 113.051 93.4124 113.051C101.226 113.051 107.559 116.92 107.559 121.693Z" fill="white"/>
<path d="M116.457 124.495C116.457 128.568 111.05 131.871 104.382 131.871C97.7133 131.871 92.3071 128.568 92.3071 124.495C92.3071 120.421 97.7133 117.118 104.382 117.118C111.05 117.118 116.457 120.421 116.457 124.495Z" fill="white"/>
<path d="M165.542 154.722H73.8109C65.5802 154.722 58.9078 150.646 58.9078 145.618C58.9078 140.59 65.5802 136.514 73.8109 136.514H165.542C173.773 136.514 180.445 140.59 180.445 145.618C180.445 150.646 173.773 154.722 165.542 154.722Z" fill="#E2F7FA"/>
<path d="M97.229 139.468C97.229 144.683 90.3085 148.911 81.7715 148.911C73.2344 148.911 66.3139 144.683 66.3139 139.468C66.3139 134.253 73.2344 130.025 81.7715 130.025C90.3085 130.025 97.229 134.253 97.229 139.468Z" fill="#E2F7FA"/>
<path d="M112.687 134.262C112.687 139.477 105.766 143.704 97.229 143.704C88.6919 143.704 81.7714 139.477 81.7714 134.262C81.7714 129.047 88.6919 124.819 97.229 124.819C105.766 124.819 112.687 129.047 112.687 134.262Z" fill="#E2F7FA"/>
<path d="M139.741 134.262C139.741 141.031 130.758 146.519 119.676 146.519C108.595 146.519 99.6121 141.031 99.6121 134.262C99.6121 127.493 108.595 122.005 119.676 122.005C130.758 122.005 139.741 127.493 139.741 134.262Z" fill="#E2F7FA"/>
<path d="M160.802 134.262C160.802 141.031 151.819 146.519 140.737 146.519C129.656 146.519 120.673 141.031 120.673 134.262C120.673 127.493 129.656 122.005 140.737 122.005C151.819 122.005 160.802 127.493 160.802 134.262Z" fill="#E2F7FA"/>
<path d="M115.742 125.956C115.742 129.078 111.598 131.61 106.486 131.61C101.373 131.61 97.229 129.078 97.229 125.956C97.229 122.833 101.373 120.301 106.486 120.301C111.598 120.301 115.742 122.833 115.742 125.956Z" fill="#E2F7FA"/>
<path d="M173.421 140.487C173.421 146.265 165.753 150.949 156.295 150.949C146.837 150.949 139.169 146.265 139.169 140.487C139.169 134.71 146.837 130.026 156.295 130.026C165.753 130.026 173.421 134.71 173.421 140.487Z" fill="#E2F7FA"/>
<path d="M63.0861 142.03H-28.645C-36.8756 142.03 -43.548 137.954 -43.548 132.926C-43.548 127.898 -36.8756 123.822 -28.645 123.822H63.0861C71.3168 123.822 77.9892 127.898 77.9892 132.926C77.9892 137.954 71.3168 142.03 63.0861 142.03Z" fill="#D9F7F9"/>
<path d="M10.2307 121.57C10.2307 126.785 3.31022 131.012 -5.22686 131.012C-13.7639 131.012 -20.6844 126.785 -20.6844 121.57C-20.6844 116.355 -13.7639 112.127 -5.22686 112.127C3.31022 112.127 10.2307 116.355 10.2307 121.57Z" fill="#D9F7F9"/>
<path d="M37.2848 121.57C37.2848 128.339 28.3018 133.827 17.2203 133.827C6.1393 133.827 -2.84375 128.339 -2.84375 121.57C-2.84375 114.8 6.1393 109.313 17.2203 109.313C28.3018 109.313 37.2848 114.8 37.2848 121.57Z" fill="#D9F7F9"/>
<path d="M58.3458 121.57C58.3458 128.339 49.3627 133.827 38.2813 133.827C27.2003 133.827 18.2172 128.339 18.2172 121.57C18.2172 114.8 27.2003 109.313 38.2813 109.313C49.3627 109.313 58.3458 114.8 58.3458 121.57Z" fill="#D9F7F9"/>
<path d="M13.2865 113.264C13.2865 116.386 9.14229 118.918 4.03008 118.918C-1.08261 118.918 -5.22687 116.386 -5.22687 113.264C-5.22687 110.141 -1.08261 107.609 4.03008 107.609C9.14229 107.609 13.2865 110.141 13.2865 113.264Z" fill="#D9F7F9"/>
<path d="M70.9651 127.795C70.9651 133.573 63.2975 138.257 53.8393 138.257C44.3807 138.257 36.7131 133.573 36.7131 127.795C36.7131 122.017 44.3807 117.333 53.8393 117.333C63.2975 117.333 70.9651 122.017 70.9651 127.795Z" fill="#D9F7F9"/>
<path d="M175.667 143.973H267.398C275.629 143.973 282.301 139.897 282.301 134.869C282.301 129.841 275.629 125.766 267.398 125.766H175.667C167.436 125.766 160.764 129.841 160.764 134.869C160.764 139.897 167.436 143.973 175.667 143.973Z" fill="#D7F7F9"/>
<path d="M228.522 123.513C228.522 128.729 235.443 132.956 243.98 132.956C252.517 132.956 259.437 128.729 259.437 123.513C259.437 118.299 252.517 114.071 243.98 114.071C235.443 114.071 228.522 118.299 228.522 123.513Z" fill="#D7F7F9"/>
<path d="M201.469 123.513C201.469 130.283 210.452 135.77 221.533 135.77C232.614 135.77 241.597 130.283 241.597 123.513C241.597 116.744 232.614 111.257 221.533 111.257C210.452 111.257 201.469 116.744 201.469 123.513Z" fill="#D7F7F9"/>
<path d="M180.408 123.513C180.408 130.283 189.391 135.77 200.472 135.77C211.553 135.77 220.536 130.283 220.536 123.513C220.536 116.744 211.553 111.257 200.472 111.257C189.391 111.257 180.408 116.744 180.408 123.513Z" fill="#D7F7F9"/>
<path d="M225.467 115.207C225.467 118.33 229.611 120.862 234.723 120.862C239.836 120.862 243.979 118.33 243.979 115.207C243.979 112.084 239.836 109.553 234.723 109.553C229.611 109.553 225.467 112.084 225.467 115.207Z" fill="#D7F7F9"/>
<path d="M167.788 129.739C167.788 135.517 175.455 140.201 184.914 140.201C194.372 140.201 202.04 135.517 202.04 129.739C202.04 123.961 194.372 119.277 184.914 119.277C175.455 119.277 167.788 123.961 167.788 129.739Z" fill="#D7F7F9"/>
<g opacity="0.740005">
<path d="M148.337 31.5165H116.391C113.525 31.5165 111.201 30.0971 111.201 28.3459C111.201 26.5951 113.525 25.1754 116.391 25.1754H148.337C151.204 25.1754 153.527 26.5951 153.527 28.3459C153.527 30.0971 151.204 31.5165 148.337 31.5165Z" fill="white"/>
<path d="M125.097 25.3827C125.097 27.3499 122.487 28.9448 119.266 28.9448C116.046 28.9448 113.435 27.3499 113.435 25.3827C113.435 23.4155 116.046 21.8206 119.266 21.8206C122.487 21.8206 125.097 23.4155 125.097 25.3827Z" fill="white"/>
<path d="M130.804 25.9233C130.804 27.7395 128.394 29.2118 125.421 29.2118C122.448 29.2118 120.038 27.7395 120.038 25.9233C120.038 24.107 122.448 22.6348 125.421 22.6348C128.394 22.6348 130.804 24.107 130.804 25.9233Z" fill="white"/>
<path d="M137.652 24.0362C137.652 26.0484 134.982 27.6798 131.688 27.6798C128.394 27.6798 125.724 26.0484 125.724 24.0362C125.724 22.0241 128.394 20.3927 131.688 20.3927C134.982 20.3927 137.652 22.0241 137.652 24.0362Z" fill="white"/>
<path d="M148.01 24.7078C148.01 27.5446 144.245 29.8441 139.601 29.8441C134.957 29.8441 131.193 27.5446 131.193 24.7078C131.193 21.8711 134.957 19.5716 139.601 19.5716C144.245 19.5716 148.01 21.8711 148.01 24.7078Z" fill="white"/>
<path d="M122.419 28.918C122.419 30.9848 119.676 32.6603 116.293 32.6603C112.909 32.6603 110.166 30.9848 110.166 28.918C110.166 26.8509 112.909 25.1754 116.293 25.1754C119.676 25.1754 122.419 26.8509 122.419 28.918Z" fill="white"/>
<path d="M131.85 29.8442C131.85 31.9112 129.108 33.5864 125.724 33.5864C122.34 33.5864 119.597 31.9112 119.597 29.8442C119.597 27.7771 122.34 26.1016 125.724 26.1016C129.108 26.1016 131.85 27.7771 131.85 29.8442Z" fill="white"/>
<path d="M140.91 28.6788C140.91 30.7459 138.168 32.4214 134.784 32.4214C131.401 32.4214 128.658 30.7459 128.658 28.6788C128.658 26.612 131.401 24.9366 134.784 24.9366C138.168 24.9366 140.91 26.612 140.91 28.6788Z" fill="white"/>
<path d="M154.136 28.6788C154.136 30.7459 151.393 32.4214 148.01 32.4214C144.626 32.4214 141.883 30.7459 141.883 28.6788C141.883 26.612 144.626 24.9366 148.01 24.9366C151.393 24.9366 154.136 26.612 154.136 28.6788Z" fill="white"/>
<path d="M148.01 29.8442C148.01 31.9112 145.267 33.5864 141.883 33.5864C138.499 33.5864 135.756 31.9112 135.756 29.8442C135.756 27.7771 138.499 26.1016 141.883 26.1016C145.267 26.1016 148.01 27.7771 148.01 29.8442Z" fill="white"/>
<path d="M151.082 26.5593C151.082 28.5715 148.411 30.2029 145.117 30.2029C141.823 30.2029 139.153 28.5715 139.153 26.5593C139.153 24.5471 141.823 22.9157 145.117 22.9157C148.411 22.9157 151.082 24.5471 151.082 26.5593Z" fill="white"/>
</g>
<g opacity="0.809998">
<path d="M204.981 88.6132H179.587C177.309 88.6132 175.462 87.4849 175.462 86.0929C175.462 84.7012 177.309 83.5727 179.587 83.5727H204.981C207.26 83.5727 209.107 84.7012 209.107 86.0929C209.107 87.4849 207.26 88.6132 204.981 88.6132Z" fill="white"/>
<path d="M186.508 83.7376C186.508 85.301 184.433 86.5688 181.873 86.5688C179.313 86.5688 177.238 85.301 177.238 83.7376C177.238 82.174 179.313 80.9061 181.873 80.9061C184.433 80.9061 186.508 82.174 186.508 83.7376Z" fill="white"/>
<path d="M191.044 84.167C191.044 85.6107 189.128 86.781 186.765 86.781C184.402 86.781 182.486 85.6107 182.486 84.167C182.486 82.7237 184.402 81.553 186.765 81.553C189.128 81.553 191.044 82.7237 191.044 84.167Z" fill="white"/>
<path d="M196.488 82.6671C196.488 84.2667 194.365 85.5635 191.747 85.5635C189.129 85.5635 187.006 84.2667 187.006 82.6671C187.006 81.0676 189.129 79.7711 191.747 79.7711C194.365 79.7711 196.488 81.0676 196.488 82.6671Z" fill="white"/>
<path d="M204.72 83.2009C204.72 85.4561 201.728 87.2837 198.037 87.2837C194.346 87.2837 191.353 85.4561 191.353 83.2009C191.353 80.9458 194.346 79.1182 198.037 79.1182C201.728 79.1182 204.72 80.9458 204.72 83.2009Z" fill="white"/>
<path d="M184.379 86.5476C184.379 88.1906 182.198 89.5225 179.509 89.5225C176.82 89.5225 174.639 88.1906 174.639 86.5476C174.639 84.9048 176.82 83.5727 179.509 83.5727C182.198 83.5727 184.379 84.9048 184.379 86.5476Z" fill="white"/>
<path d="M191.875 87.2838C191.875 88.9269 189.695 90.2587 187.005 90.2587C184.316 90.2587 182.136 88.9269 182.136 87.2838C182.136 85.6407 184.316 84.3089 187.005 84.3089C189.695 84.3089 191.875 85.6407 191.875 87.2838Z" fill="white"/>
<path d="M199.078 86.3576C199.078 88.0004 196.897 89.3325 194.208 89.3325C191.518 89.3325 189.338 88.0004 189.338 86.3576C189.338 84.7145 191.518 83.3827 194.208 83.3827C196.897 83.3827 199.078 84.7145 199.078 86.3576Z" fill="white"/>
<path d="M209.59 86.3576C209.59 88.0004 207.41 89.3325 204.72 89.3325C202.031 89.3325 199.851 88.0004 199.851 86.3576C199.851 84.7145 202.031 83.3827 204.72 83.3827C207.41 83.3827 209.59 84.7145 209.59 86.3576Z" fill="white"/>
<path d="M204.72 87.2838C204.72 88.9269 202.54 90.2587 199.85 90.2587C197.161 90.2587 194.981 88.9269 194.981 87.2838C194.981 85.6407 197.161 84.3089 199.85 84.3089C202.54 84.3089 204.72 85.6407 204.72 87.2838Z" fill="white"/>
<path d="M207.162 84.6726C207.162 86.2722 205.04 87.569 202.421 87.569C199.803 87.569 197.68 86.2722 197.68 84.6726C197.68 83.073 199.803 81.7766 202.421 81.7766C205.04 81.7766 207.162 83.073 207.162 84.6726Z" fill="white"/>
</g>
<path d="M233.377 154.874H143.916C135.889 154.874 129.382 150.899 129.382 145.995C129.382 141.092 135.889 137.116 143.916 137.116H233.377C241.404 137.116 247.911 141.092 247.911 145.995C247.911 150.899 241.404 154.874 233.377 154.874Z" fill="white"/>
<path d="M168.296 137.697C168.296 143.206 160.985 147.672 151.968 147.672C142.95 147.672 135.639 143.206 135.639 137.697C135.639 132.188 142.95 127.722 151.968 127.722C160.985 127.722 168.296 132.188 168.296 137.697Z" fill="white"/>
<path d="M184.278 139.211C184.278 144.297 177.529 148.42 169.203 148.42C160.877 148.42 154.128 144.297 154.128 139.211C154.128 134.125 160.877 130.002 169.203 130.002C177.529 130.002 184.278 134.125 184.278 139.211Z" fill="white"/>
<path d="M203.455 133.926C203.455 139.561 195.977 144.129 186.753 144.129C177.529 144.129 170.051 139.561 170.051 133.926C170.051 128.292 177.529 123.723 186.753 123.723C195.977 123.723 203.455 128.292 203.455 133.926Z" fill="white"/>
<path d="M232.459 135.807C232.459 143.751 221.917 150.19 208.912 150.19C195.908 150.19 185.367 143.751 185.367 135.807C185.367 127.863 195.908 121.423 208.912 121.423C221.917 121.423 232.459 127.863 232.459 135.807Z" fill="white"/>
<path d="M241.061 140.992C241.061 146.627 233.583 151.195 224.359 151.195C215.135 151.195 207.657 146.627 207.657 140.992C207.657 135.357 215.135 130.789 224.359 130.789C233.583 130.789 241.061 135.357 241.061 140.992Z" fill="white"/>
<path d="M64.7992 44.7599H22.6554C18.8739 44.7599 15.8085 42.8873 15.8085 40.5773C15.8085 38.2673 18.8739 36.3947 22.6554 36.3947H64.7992C68.5807 36.3947 71.6461 38.2673 71.6461 40.5773C71.6461 42.8873 68.5807 44.7599 64.7992 44.7599Z" fill="white"/>
<path d="M33.4144 37.752C33.4144 40.1478 30.2352 42.0902 26.3127 42.0902C22.3907 42.0902 19.2111 40.1478 19.2111 37.752C19.2111 35.3558 22.3907 33.4137 26.3127 33.4137C30.2352 33.4137 33.4144 35.3558 33.4144 37.752Z" fill="white"/>
<path d="M30.33 41.1728C30.33 43.7438 26.918 45.8281 22.7093 45.8281C18.5005 45.8281 15.0885 43.7438 15.0885 41.1728C15.0885 38.6017 18.5005 36.5174 22.7093 36.5174C26.918 36.5174 30.33 38.6017 30.33 41.1728Z" fill="white"/>
<path d="M41.6695 37.3811C41.6695 39.7773 38.4898 41.7194 34.5678 41.7194C30.6458 41.7194 27.4662 39.7773 27.4662 37.3811C27.4662 34.9853 30.6458 33.0429 34.5678 33.0429C38.4898 33.0429 41.6695 34.9853 41.6695 37.3811Z" fill="white"/>
<path d="M53.4033 34.0673C53.4033 37.1771 49.2763 39.6985 44.1851 39.6985C39.0944 39.6985 34.9673 37.1771 34.9673 34.0673C34.9673 30.9572 39.0944 28.436 44.1851 28.436C49.2763 28.436 53.4033 30.9572 53.4033 34.0673Z" fill="white"/>
<path d="M62.6214 36.3947C62.6214 39.5048 58.4944 42.0259 53.4032 42.0259C48.3125 42.0259 44.1854 39.5048 44.1854 36.3947C44.1854 33.2849 48.3125 30.7634 53.4032 30.7634C58.4944 30.7634 62.6214 33.2849 62.6214 36.3947Z" fill="white"/>
<path d="M39.131 43.7862C39.131 45.9484 36.2616 47.7013 32.722 47.7013C29.1824 47.7013 26.313 45.9484 26.313 43.7862C26.313 41.6239 29.1824 39.871 32.722 39.871C36.2616 39.871 39.131 41.6239 39.131 43.7862Z" fill="white"/>
<path d="M45.9411 43.3951C45.9411 45.1033 43.674 46.4879 40.8782 46.4879C38.0819 46.4879 35.8147 45.1033 35.8147 43.3951C35.8147 41.6869 38.0819 40.3019 40.8782 40.3019C43.674 40.3019 45.9411 41.6869 45.9411 43.3951Z" fill="white"/>
<path d="M53.8538 44.3484C53.8538 46.0566 51.5871 47.4413 48.7908 47.4413C45.9945 47.4413 43.7274 46.0566 43.7274 44.3484C43.7274 42.6402 45.9945 41.2556 48.7908 41.2556C51.5871 41.2556 53.8538 42.6402 53.8538 44.3484Z" fill="white"/>
<path d="M63.5298 43.0267C63.5298 44.7349 61.2631 46.1199 58.4668 46.1199C55.6705 46.1199 53.4034 44.7349 53.4034 43.0267C53.4034 41.3185 55.6705 39.9339 58.4668 39.9339C61.2631 39.9339 63.5298 41.3185 63.5298 43.0267Z" fill="white"/>
<path d="M71.7169 40.7787C71.7169 43.3395 68.3188 45.4156 64.1268 45.4156C59.9347 45.4156 56.5366 43.3395 56.5366 40.7787C56.5366 38.2179 59.9347 36.142 64.1268 36.142C68.3188 36.142 71.7169 38.2179 71.7169 40.7787Z" fill="white"/>
<path d="M56.5365 44.9424C56.5365 45.746 55.47 46.3977 54.1541 46.3977C52.8387 46.3977 51.7718 45.746 51.7718 44.9424C51.7718 44.1388 52.8387 43.487 54.1541 43.487C55.47 43.487 56.5365 44.1388 56.5365 44.9424Z" fill="white"/>
<path d="M68.4193 38.2203C68.4193 40.8749 64.8964 43.0266 60.5514 43.0266C56.2059 43.0266 52.683 40.8749 52.683 38.2203C52.683 35.5657 56.2059 33.414 60.5514 33.414C64.8964 33.414 68.4193 35.5657 68.4193 38.2203Z" fill="white"/>
<path d="M87.2398 151.604H-3.57494C-11.7234 151.604 -18.3289 147.568 -18.3289 142.591V142.59C-18.3289 137.613 -11.7234 133.578 -3.57494 133.578H87.2398C95.3883 133.578 101.994 137.613 101.994 142.59V142.591C101.994 147.568 95.3883 151.604 87.2398 151.604Z" fill="white"/>
<path d="M19.6093 136.502C19.6093 141.665 12.7582 145.851 4.30616 145.851C-4.14536 145.851 -10.997 141.665 -10.997 136.502C-10.997 131.339 -4.14536 127.154 4.30616 127.154C12.7582 127.154 19.6093 131.339 19.6093 136.502Z" fill="white"/>
<path d="M37.3978 135.703C37.3978 140.866 30.5461 145.052 22.0946 145.052C13.6431 145.052 6.79144 140.866 6.79144 135.703C6.79144 130.54 13.6431 126.355 22.0946 126.355C30.5461 126.355 37.3978 130.54 37.3978 135.703Z" fill="white"/>
<path d="M62.683 128.562C62.683 135.264 53.7898 140.697 42.8193 140.697C31.8487 140.697 22.9555 135.264 22.9555 128.562C22.9555 121.86 31.8487 116.428 42.8193 116.428C53.7898 116.428 62.683 121.86 62.683 128.562Z" fill="white"/>
<path d="M82.5468 133.578C82.5468 140.279 73.6536 145.712 62.6831 145.712C51.7125 145.712 42.8193 140.279 42.8193 133.578C42.8193 126.876 51.7125 121.443 62.6831 121.443C73.6536 121.443 82.5468 126.876 82.5468 133.578Z" fill="white"/>
<path d="M95.0402 137.511C95.0402 143.232 87.4496 147.869 78.0856 147.869C68.7216 147.869 61.1309 143.232 61.1309 137.511C61.1309 131.791 68.7216 127.154 78.0856 127.154C87.4496 127.154 95.0402 131.791 95.0402 137.511Z" fill="white"/>
<path d="M225.442 63.6188H192.485C189.528 63.6188 187.131 62.1544 187.131 60.3478C187.131 58.5415 189.528 57.0771 192.485 57.0771H225.442C228.4 57.0771 230.797 58.5415 230.797 60.3478C230.797 62.1544 228.4 63.6188 225.442 63.6188Z" fill="white"/>
<path d="M200.899 58.1385C200.899 60.0123 198.412 61.5312 195.345 61.5312C192.278 61.5312 189.792 60.0123 189.792 58.1385C189.792 56.2647 192.278 54.7458 195.345 54.7458C198.412 54.7458 200.899 56.2647 200.899 58.1385Z" fill="white"/>
<path d="M206.452 56.2681C206.452 58.1418 203.966 59.6605 200.899 59.6605C197.832 59.6605 195.345 58.1418 195.345 56.2681C195.345 54.3943 197.832 52.8753 200.899 52.8753C203.966 52.8753 206.452 54.3943 206.452 56.2681Z" fill="white"/>
<path d="M216.173 56.2681C216.173 58.7002 212.945 60.6718 208.964 60.6718C204.983 60.6718 201.755 58.7002 201.755 56.2681C201.755 53.836 204.983 51.8642 208.964 51.8642C212.945 51.8642 216.173 53.836 216.173 56.2681Z" fill="white"/>
<path d="M223.739 56.2681C223.739 58.7002 220.512 60.6718 216.531 60.6718C212.549 60.6718 209.322 58.7002 209.322 56.2681C209.322 53.836 212.549 51.8642 216.531 51.8642C220.512 51.8642 223.739 53.836 223.739 56.2681Z" fill="white"/>
<path d="M207.55 53.2838C207.55 54.4057 206.061 55.3156 204.224 55.3156C202.387 55.3156 200.899 54.4057 200.899 53.2838C200.899 52.1617 202.387 51.2521 204.224 51.2521C206.061 51.2521 207.55 52.1617 207.55 53.2838Z" fill="white"/>
<path d="M228.273 58.5046C228.273 60.5805 225.518 62.2635 222.121 62.2635C218.722 62.2635 215.967 60.5805 215.967 58.5046C215.967 56.4288 218.722 54.7457 222.121 54.7457C225.518 54.7457 228.273 56.4288 228.273 58.5046Z" fill="white"/>
<path d="M232.326 60.6715C232.326 62.7473 229.571 64.4304 226.173 64.4304C222.775 64.4304 220.02 62.7473 220.02 60.6715C220.02 58.5957 222.775 56.9129 226.173 56.9129C229.571 56.9129 232.326 58.5957 232.326 60.6715Z" fill="white"/>
<path d="M223.739 62.2634C223.739 64.3393 220.984 66.0223 217.586 66.0223C214.188 66.0223 211.433 64.3393 211.433 62.2634C211.433 60.1876 214.188 58.5045 217.586 58.5045C220.984 58.5045 223.739 60.1876 223.739 62.2634Z" fill="white"/>
<path d="M215.117 61.531C215.117 63.6068 212.362 65.2899 208.964 65.2899C205.566 65.2899 202.811 63.6068 202.811 61.531C202.811 59.4552 205.566 57.7721 208.964 57.7721C212.362 57.7721 215.117 59.4552 215.117 61.531Z" fill="white"/>
<path d="M205.742 62.7867C205.742 64.8626 202.986 66.5457 199.589 66.5457C196.191 66.5457 193.435 64.8626 193.435 62.7867C193.435 60.7109 196.191 59.0278 199.589 59.0278C202.986 59.0278 205.742 60.7109 205.742 62.7867Z" fill="white"/>
<path d="M197.783 60.6715C197.783 62.7473 195.028 64.4304 191.63 64.4304C188.232 64.4304 185.477 62.7473 185.477 60.6715C185.477 58.5957 188.232 56.9129 191.63 56.9129C195.028 56.9129 197.783 58.5957 197.783 60.6715Z" fill="white"/>
<g opacity="0.789993">
<path d="M49.1356 80.9441H23.7075C21.426 80.9441 19.5766 79.8143 19.5766 78.4203C19.5766 77.0266 21.426 75.8969 23.7075 75.8969H49.1356C51.4171 75.8969 53.267 77.0266 53.267 78.4203C53.267 79.8143 51.4171 80.9441 49.1356 80.9441Z" fill="white"/>
<path d="M30.1991 76.7158C30.1991 78.1612 28.2804 79.3333 25.9143 79.3333C23.5477 79.3333 21.6295 78.1612 21.6295 76.7158C21.6295 75.2701 23.5477 74.0983 25.9143 74.0983C28.2804 74.0983 30.1991 75.2701 30.1991 76.7158Z" fill="white"/>
<path d="M34.484 75.2726C34.484 76.718 32.5653 77.8901 30.1992 77.8901C27.8327 77.8901 25.914 76.718 25.914 75.2726C25.914 73.827 27.8327 72.6552 30.1992 72.6552C32.5653 72.6552 34.484 73.827 34.484 75.2726Z" fill="white"/>
<path d="M41.9836 75.2727C41.9836 77.1491 39.4932 78.6704 36.4216 78.6704C33.35 78.6704 30.8596 77.1491 30.8596 75.2727C30.8596 73.396 33.35 71.875 36.4216 71.875C39.4932 71.875 41.9836 73.396 41.9836 75.2727Z" fill="white"/>
<path d="M47.8216 75.2727C47.8216 77.1491 45.3317 78.6704 42.2596 78.6704C39.188 78.6704 36.6981 77.1491 36.6981 75.2727C36.6981 73.396 39.188 71.875 42.2596 71.875C45.3317 71.875 47.8216 73.396 47.8216 75.2727Z" fill="white"/>
<path d="M35.3311 72.9701C35.3311 73.8356 34.1824 74.5376 32.7652 74.5376C31.3479 74.5376 30.1992 73.8356 30.1992 72.9701C30.1992 72.1044 31.3479 71.4027 32.7652 71.4027C34.1824 71.4027 35.3311 72.1044 35.3311 72.9701Z" fill="white"/>
<path d="M51.3198 76.9984C51.3198 78.5997 49.1941 79.8986 46.5723 79.8986C43.9504 79.8986 41.8253 78.5997 41.8253 76.9984C41.8253 75.3968 43.9504 74.0983 46.5723 74.0983C49.1941 74.0983 51.3198 75.3968 51.3198 76.9984Z" fill="white"/>
<path d="M54.4468 78.6703C54.4468 80.2719 52.3212 81.5704 49.6993 81.5704C47.0775 81.5704 44.9523 80.2719 44.9523 78.6703C44.9523 77.0687 47.0775 75.7701 49.6993 75.7701C52.3212 75.7701 54.4468 77.0687 54.4468 78.6703Z" fill="white"/>
<path d="M47.8216 79.8984C47.8216 81.4998 45.6959 82.7986 43.0741 82.7986C40.4523 82.7986 38.3271 81.4998 38.3271 79.8984C38.3271 78.2968 40.4523 76.9983 43.0741 76.9983C45.6959 76.9983 47.8216 78.2968 47.8216 79.8984Z" fill="white"/>
<path d="M41.1691 79.3333C41.1691 80.9349 39.0434 82.2334 36.4216 82.2334C33.7997 82.2334 31.6741 80.9349 31.6741 79.3333C31.6741 77.7316 33.7997 76.4331 36.4216 76.4331C39.0434 76.4331 41.1691 77.7316 41.1691 79.3333Z" fill="white"/>
<path d="M33.9356 80.302C33.9356 81.9036 31.8099 83.2024 29.1881 83.2024C26.5662 83.2024 24.4406 81.9036 24.4406 80.302C24.4406 78.7006 26.5662 77.4018 29.1881 77.4018C31.8099 77.4018 33.9356 78.7006 33.9356 80.302Z" fill="white"/>
<path d="M27.7953 78.6703C27.7953 80.2719 25.6701 81.5704 23.0478 81.5704C20.426 81.5704 18.3008 80.2719 18.3008 78.6703C18.3008 77.0687 20.426 75.7701 23.0478 75.7701C25.6701 75.7701 27.7953 77.0687 27.7953 78.6703Z" fill="white"/>
</g>
<path d="M90.0992 102.293C84.2915 101.747 83.845 105.477 83.845 105.477C86.5251 101.93 91.514 103.339 91.514 103.339C89.4046 99.1396 95.7582 98.2905 95.7582 98.2905C95.2898 98.2385 94.8605 98.2143 94.4652 98.2146C89.3296 98.2148 90.0992 102.293 90.0992 102.293Z" fill="url(#paint0_radial_38_2966)"/>
<path d="M115.803 110.601C109.995 110.055 109.548 113.785 109.548 113.785C112.229 110.237 117.218 111.647 117.218 111.647C115.108 107.448 121.461 106.599 121.461 106.599C120.993 106.547 120.564 106.523 120.168 106.523C115.033 106.523 115.803 110.601 115.803 110.601" fill="url(#paint1_radial_38_2966)"/>
<path d="M116.285 96.5121C110.478 95.9664 110.031 99.6958 110.031 99.6958C112.712 96.148 117.701 97.5584 117.701 97.5584C115.591 93.3585 121.944 92.5094 121.944 92.5094C121.476 92.4574 121.047 92.4332 120.651 92.4332C115.516 92.4338 116.285 96.5121 116.285 96.5121Z" fill="url(#paint2_radial_38_2966)"/>
<path d="M95.9862 91.7418C91.5379 91.3239 91.1957 94.1805 91.1957 94.1805C93.2487 91.4629 97.0698 92.5433 97.0698 92.5433C95.4542 89.3263 100.321 88.6761 100.321 88.6761C99.9617 88.636 99.6324 88.6177 99.3298 88.6177C95.3963 88.6177 95.9862 91.7418 95.9862 91.7418" fill="url(#paint3_radial_38_2966)"/>
<path d="M80.0344 95.557C76.1234 95.1894 75.8222 97.7012 75.8222 97.7012C77.6272 95.3123 80.9875 96.2613 80.9875 96.2613C79.5664 93.4333 83.845 92.8613 83.845 92.8613C83.53 92.8262 83.2408 92.8102 82.9745 92.8102C79.5157 92.8102 80.0344 95.557 80.0344 95.557" fill="url(#paint4_radial_38_2966)"/>
<path d="M86.8134 83.733C82.3163 83.3105 81.9703 86.199 81.9703 86.199C84.0462 83.4515 87.9094 84.5433 87.9094 84.5433C86.2751 81.2913 91.1957 80.6337 91.1957 80.6337C90.8329 80.5934 90.5002 80.5748 90.1938 80.5748C86.2173 80.5751 86.8134 83.733 86.8134 83.733Z" fill="url(#paint5_radial_38_2966)"/>
<path d="M113.031 82.3679C107.123 81.8126 106.669 85.6068 106.669 85.6068C109.395 81.998 114.469 83.432 114.469 83.432C112.324 79.16 118.787 78.296 118.787 78.296C118.311 78.2432 117.874 78.2186 117.472 78.2186C112.248 78.2192 113.031 82.3679 113.031 82.3679" fill="url(#paint6_radial_38_2966)"/>
<path d="M128.392 83.2495C124.583 82.8915 124.291 85.337 124.291 85.337C126.049 83.0107 129.32 83.9354 129.32 83.9354C127.936 81.1816 132.102 80.6247 132.102 80.6247C131.795 80.5906 131.514 80.5748 131.254 80.5748C127.887 80.5751 128.392 83.2495 128.392 83.2495Z" fill="url(#paint7_radial_38_2966)"/>
</g>
<defs>
<radialGradient id="paint0_radial_38_2966" cx="0" cy="0" r="1" gradientUnits="userSpaceOnUse" gradientTransform="translate(89.8016 101.846) scale(5.95048 3.63502)">
<stop stop-color="#129FDD"/>
<stop offset="0.0570995" stop-color="#129FDD"/>
<stop offset="0.240904" stop-color="#129FDD"/>
<stop offset="0.811688" stop-color="#44A7D3"/>
<stop offset="1" stop-color="#44A7D3"/>
</radialGradient>
<radialGradient id="paint1_radial_38_2966" cx="0" cy="0" r="1" gradientUnits="userSpaceOnUse" gradientTransform="translate(115.505 110.154) scale(5.95048 3.63502)">
<stop stop-color="#129FDD"/>
<stop offset="0.0570995" stop-color="#129FDD"/>
<stop offset="0.240904" stop-color="#129FDD"/>
<stop offset="0.811688" stop-color="#44A7D3"/>
<stop offset="1" stop-color="#44A7D3"/>
</radialGradient>
<radialGradient id="paint2_radial_38_2966" cx="0" cy="0" r="1" gradientUnits="userSpaceOnUse" gradientTransform="translate(115.988 96.0646) scale(5.9505 3.63503)">
<stop stop-color="#129FDD"/>
<stop offset="0.0570995" stop-color="#129FDD"/>
<stop offset="0.240904" stop-color="#129FDD"/>
<stop offset="0.811688" stop-color="#44A7D3"/>
<stop offset="1" stop-color="#44A7D3"/>
</radialGradient>
<radialGradient id="paint3_radial_38_2966" cx="0" cy="0" r="1" gradientUnits="userSpaceOnUse" gradientTransform="translate(95.7581 91.3991) scale(4.5578 2.78427)">
<stop stop-color="#129FDD"/>
<stop offset="0.0570995" stop-color="#129FDD"/>
<stop offset="0.240904" stop-color="#129FDD"/>
<stop offset="0.811688" stop-color="#44A7D3"/>
<stop offset="1" stop-color="#44A7D3"/>
</radialGradient>
<radialGradient id="paint4_radial_38_2966" cx="0" cy="0" r="1" gradientUnits="userSpaceOnUse" gradientTransform="translate(79.8337 95.2557) scale(4.00717 2.4479)">
<stop stop-color="#129FDD"/>
<stop offset="0.0570995" stop-color="#129FDD"/>
<stop offset="0.240904" stop-color="#129FDD"/>
<stop offset="0.811688" stop-color="#44A7D3"/>
<stop offset="1" stop-color="#44A7D3"/>
</radialGradient>
<radialGradient id="paint5_radial_38_2966" cx="0" cy="0" r="1" gradientUnits="userSpaceOnUse" gradientTransform="translate(86.583 83.3868) scale(4.60801 2.81494)">
<stop stop-color="#129FDD"/>
<stop offset="0.0570995" stop-color="#129FDD"/>
<stop offset="0.240904" stop-color="#129FDD"/>
<stop offset="0.811688" stop-color="#44A7D3"/>
<stop offset="1" stop-color="#44A7D3"/>
</radialGradient>
<radialGradient id="paint6_radial_38_2966" cx="0" cy="0" r="1" gradientUnits="userSpaceOnUse" gradientTransform="translate(112.728 81.9128) scale(6.05321 3.69778)">
<stop stop-color="#129FDD"/>
<stop offset="0.0570995" stop-color="#129FDD"/>
<stop offset="0.240904" stop-color="#129FDD"/>
<stop offset="0.811688" stop-color="#44A7D3"/>
<stop offset="1" stop-color="#44A7D3"/>
</radialGradient>
<radialGradient id="paint7_radial_38_2966" cx="0" cy="0" r="1" gradientUnits="userSpaceOnUse" gradientTransform="translate(128.197 82.9559) scale(3.90182 2.38354)">
<stop stop-color="#129FDD"/>
<stop offset="0.0570995" stop-color="#129FDD"/>
<stop offset="0.240904" stop-color="#129FDD"/>
<stop offset="0.811688" stop-color="#44A7D3"/>
<stop offset="1" stop-color="#44A7D3"/>
</radialGradient>
<clipPath id="clip0_38_2966">
<rect width="239" height="146" fill="white" transform="translate(0.176331 0.0601807)"/>
</clipPath>
</defs>
</svg>
