<svg width="237" height="147" viewBox="0 0 237 147" fill="none" xmlns="http://www.w3.org/2000/svg">
<g clip-path="url(#clip0_38_10635)">
<path d="M102.672 0.620326C104.919 2.61761 112.799 9.62269 114.937 11.5061C117.438 13.7136 124.762 26.5616 125.478 29.6743C126.193 32.79 132.983 121.038 132.983 121.038H144.774C144.774 121.038 134.41 23.7058 134.768 22.4094C135.126 21.11 141.739 12.5456 144.955 9.94973C147.077 8.23569 152.54 3.58705 156.014 0.620326H151.045C148.701 2.69645 145.662 5.38285 143.704 7.09397C140.131 10.2096 133.699 19.1623 133.699 19.1623L132.931 0.620326H120.115L123.154 19.8135C123.154 19.8135 119.761 14.4903 116.722 10.9863C114.366 8.26781 108.891 2.89209 106.556 0.620326H102.672Z" fill="#D5D5D5"/>
<path d="M118.555 18.4499C104.618 23.9015 94.4348 27.4055 94.4348 27.4055C94.4348 27.4055 97.1162 69.4535 101.136 89.3095C105.156 109.166 110.246 123.374 110.246 123.374L79.6935 126.686C79.6935 126.686 80.4975 78.4063 79.1588 64.0019C77.8202 49.5975 77.2815 47.2615 77.2815 47.2615C77.2815 47.2615 57.7202 25.2623 52.3575 20.0063C48.7033 16.4205 42.6773 10.2097 39.2161 6.6239V0.620386H40.4784C47.8189 8.93071 75.2836 40.0462 76.2122 41.2259C77.1046 42.3618 73.5268 11.5733 72.3128 0.620386H91.2229C91.2309 7.10571 91.2791 21.8867 91.4882 22.3423C91.7535 22.9263 104.083 9.68991 107.568 6.96555C109.538 5.42379 112.195 2.69651 114.129 0.620386H120.207L96.3122 21.7583C96.3122 21.7583 134.703 6.28227 146.731 0.620386H152.64C145.396 4.91863 129.123 14.3152 118.555 18.4499Z" fill="#3C5992"/>
<path d="M118.555 18.4499C104.618 23.9015 94.4348 27.4055 94.4348 27.4055C94.4348 27.4055 97.1162 69.4535 101.136 89.3095C105.156 109.166 110.246 123.374 110.246 123.374L79.6935 126.686C79.6935 126.686 80.4975 78.4063 79.1588 64.0019C77.8202 49.5975 77.2815 47.2615 77.2815 47.2615C77.2815 47.2615 57.7202 25.2623 52.3575 20.0063C48.7033 16.4205 42.6773 10.2097 39.2161 6.6239V0.620386H40.4784C47.8189 8.93071 75.2836 40.0462 76.2122 41.2259C77.1046 42.3618 73.5268 11.5733 72.3128 0.620386H91.2229C91.2309 7.10571 91.2791 21.8867 91.4882 22.3423C91.7535 22.9263 104.083 9.68991 107.568 6.96555C109.538 5.42379 112.195 2.69651 114.129 0.620386H120.207L96.3122 21.7583C96.3122 21.7583 134.703 6.28227 146.731 0.620386H152.64C145.396 4.91863 129.123 14.3152 118.555 18.4499Z" fill="#BFBFBF"/>
<path d="M56.1161 0.620356C55.6779 1.04668 55.2156 1.48468 54.7533 1.90224C52.6107 3.84988 43.4973 11.4419 43.4973 11.4419L48.1284 0.620356H44.643C41.8612 5.52012 36.7678 14.3823 35.996 14.9459C34.9227 15.7255 11.3373 33.0499 11.3373 33.0499C11.3373 33.0499 8.9012 9.90304 7.9565 0.620356H-1.00006V133.699L29.564 124.934C29.564 124.934 20.4507 100.99 17.7693 84.2462C15.092 67.5059 12.1413 45.1182 12.1413 45.1182C12.1413 45.1182 23.936 34.8019 34.388 25.4579C42.2431 18.4353 56.0035 6.24428 62.6968 0.620356H56.1161Z" fill="#3C5992"/>
<path d="M56.1161 0.620356C55.6779 1.04668 55.2156 1.48468 54.7533 1.90224C52.6107 3.84988 43.4973 11.4419 43.4973 11.4419L48.1284 0.620356H44.643C41.8612 5.52012 36.7678 14.3823 35.996 14.9459C34.9227 15.7255 11.3373 33.0499 11.3373 33.0499C11.3373 33.0499 8.9012 9.90304 7.9565 0.620356H-1.00006V133.699L29.564 124.934C29.564 124.934 20.4507 100.99 17.7693 84.2462C15.092 67.5059 12.1413 45.1182 12.1413 45.1182C12.1413 45.1182 23.936 34.8019 34.388 25.4579C42.2431 18.4353 56.0035 6.24428 62.6968 0.620356H56.1161Z" fill="#949494"/>
<path d="M132.379 0.620368C143.298 5.29821 176.977 19.8077 176.977 20.7859C176.977 21.9539 182.34 31.6862 182.34 33.4382C182.34 35.1902 182.07 52.9059 182.07 52.9059C182.07 52.9059 169.206 29.9342 166.26 27.9895C163.309 26.0419 144.282 21.1742 144.282 21.1742C144.282 21.1742 163.578 28.7662 164.113 29.5459C164.652 30.3255 167.598 34.0222 167.598 34.0222L150.457 31.1052C151.012 31.2658 168.676 36.3699 168.937 37.1379C169.206 37.9175 181.536 59.3299 181.536 59.3299L177.246 123.766L200.562 125.518C200.562 125.518 196.008 68.4782 195.738 62.2499C195.469 56.0215 196.008 48.6222 197.077 45.7022C198.026 43.121 220.538 8.60073 225.756 0.620368H218.914C215.256 6.35525 197.881 33.5317 197.881 32.6615C197.881 31.8644 198.954 8.95697 199.348 0.620368H183.506C183.711 6.54797 184.173 19.8573 184.209 20.5727C184.016 19.8661 174.28 6.54797 169.93 0.620368H164.764C168.72 5.82965 177.182 17.0746 176.977 17.6702C176.768 18.2893 148.097 5.81797 136.218 0.620368H132.379Z" fill="#3C5992"/>
<path d="M132.379 0.620368C143.298 5.29821 176.977 19.8077 176.977 20.7859C176.977 21.9539 182.34 31.6862 182.34 33.4382C182.34 35.1902 182.07 52.9059 182.07 52.9059C182.07 52.9059 169.206 29.9342 166.26 27.9895C163.309 26.0419 144.282 21.1742 144.282 21.1742C144.282 21.1742 163.578 28.7662 164.113 29.5459C164.652 30.3255 167.598 34.0222 167.598 34.0222L150.457 31.1052C151.012 31.2658 168.676 36.3699 168.937 37.1379C169.206 37.9175 181.536 59.3299 181.536 59.3299L177.246 123.766L200.562 125.518C200.562 125.518 196.008 68.4782 195.738 62.2499C195.469 56.0215 196.008 48.6222 197.077 45.7022C198.026 43.121 220.538 8.60073 225.756 0.620368H218.914C215.256 6.35525 197.881 33.5317 197.881 32.6615C197.881 31.8644 198.954 8.95697 199.348 0.620368H183.506C183.711 6.54797 184.173 19.8573 184.209 20.5727C184.016 19.8661 174.28 6.54797 169.93 0.620368H164.764C168.72 5.82965 177.182 17.0746 176.977 17.6702C176.768 18.2893 148.097 5.81797 136.218 0.620368H132.379Z" fill="#BFBFBF"/>
<path d="M170.2 0.620366C183.273 12.5223 224.373 50.0676 224.148 51.5422C223.879 53.2942 220.663 131.942 220.663 131.942L237 136.535V0.620366H226.431C226.777 11.1061 227.541 38.668 226.021 37.7219C224.148 36.5539 210.211 27.0142 210.211 27.0142C210.211 27.0142 205.66 7.93205 203.349 0.620366H198.621L202.975 21.7582L174.782 0.620366H170.2Z" fill="#3C5992"/>
<path d="M170.2 0.620366C183.273 12.5223 224.373 50.0676 224.148 51.5422C223.879 53.2942 220.663 131.942 220.663 131.942L237 136.535V0.620366H226.431C226.777 11.1061 227.541 38.668 226.021 37.7219C224.148 36.5539 210.211 27.0142 210.211 27.0142C210.211 27.0142 205.66 7.93205 203.349 0.620366H198.621L202.975 21.7582L174.782 0.620366H170.2Z" fill="#949494"/>
<path d="M230.741 128.49C231.558 127.407 232.375 126.323 233.193 125.239C231.028 125.723 229.294 126.726 227.631 127.708C227.621 127.705 227.611 127.703 227.601 127.701C228.259 126.36 229.257 125.082 230.551 123.93C228.484 124.729 226.726 125.829 225.461 127.114C225.365 125.845 225.27 124.576 225.174 123.306C224.77 124.509 224.543 125.732 224.476 126.959C197.095 120.646 159.718 116.758 118.5 116.758C116.499 116.758 114.51 116.77 112.528 116.788C113.147 115.319 113.829 113.859 114.579 112.413C112.133 113.48 110.298 115.058 109.411 116.821C109.236 116.824 109.062 116.828 108.886 116.83C108.525 116.389 108.383 115.876 108.184 115.39C107.931 114.772 107.478 114.113 106.539 113.843C106.819 114.847 107.099 115.852 107.38 116.856C102.12 116.946 96.9316 117.097 91.8338 117.311C91.4351 115.672 91.4095 113.998 91.7646 112.356C90.4393 113.896 89.7975 115.656 89.9055 117.397C88.6319 117.455 87.364 117.516 86.1017 117.581C86.0036 117.36 85.8931 117.141 85.7609 116.927C85.2897 116.164 84.6598 115.405 83.68 114.843C83.4283 114.699 83.0956 114.879 83.2264 115.059C83.7307 115.752 84.3266 116.419 84.7342 117.139C84.8276 117.305 84.9129 117.471 84.9935 117.638C83.2653 117.73 81.5451 117.828 79.8401 117.933C80.1506 116.402 80.7294 114.892 81.5745 113.439C79.4083 114.608 77.5564 115.998 76.1173 117.535C76.5653 116.127 76.7719 114.689 76.7326 113.254C74.8162 114.611 73.5985 116.337 73.297 118.126C72.0684 116.997 70.8218 115.855 69.1732 114.952C70.1269 116.108 70.9953 117.29 71.7921 118.491C50.5801 120.112 31.412 122.809 15.4164 126.309C15.2221 124.864 15.1803 123.412 15.2965 121.963C13.5612 122.976 12.3852 124.345 12.0036 125.799C11.2281 124.135 10.9096 122.39 11.066 120.66C8.96809 122.515 9.26007 124.983 9.63737 127.232C8.09166 126.019 6.46537 124.765 4.20771 124.098C5.55861 125.383 6.84742 126.693 8.07366 128.025C5.26189 128.729 2.56671 129.46 0 130.216V146.62H237V130.216C234.993 129.624 232.899 129.05 230.741 128.49Z" fill="#222222"/>
<path d="M201.962 113.729C201.962 113.729 205.418 100.986 207.124 92.0994C208.584 84.4902 209.21 78.1012 209.21 78.1012C209.21 78.1012 210.034 77.356 212.833 77.7368C216.166 78.19 216.39 79.0888 216.39 79.0888C216.39 79.0888 213.757 86.8869 211.906 95.159C209.761 104.747 208.246 114.128 208.246 114.128L201.962 113.729Z" fill="#222222"/>
<path d="M226.2 95.7053C226.2 95.7053 213.554 93.8172 209.296 93.3739C204.957 92.9225 191.847 92.1405 191.847 92.1405C191.178 92.071 190.611 91.8114 190.236 91.4476C189.86 91.0838 189.675 90.6157 189.771 90.1301L189.84 89.7809L189.909 89.4316C190.004 88.946 190.362 88.5343 190.863 88.2616C191.363 87.9886 192.007 87.8545 192.676 87.924C192.676 87.924 205.605 89.8629 209.962 90.2995C216.346 90.9395 227.029 91.4888 227.029 91.4888C227.697 91.5583 228.264 91.8179 228.64 92.1817C229.016 92.5455 229.2 93.0136 229.105 93.4992L229.036 93.8484L228.967 94.1974C228.872 94.6833 228.514 95.095 228.013 95.3677C227.512 95.6407 226.868 95.7748 226.2 95.7053Z" fill="#222222"/>
<path d="M207.32 97.8158C202.591 96.8104 199.879 93.2106 201.264 89.7753C202.648 86.3402 207.603 84.3706 212.333 85.376C217.062 86.3816 219.774 89.9814 218.39 93.4165C217.005 96.8516 212.049 98.8211 207.32 97.8158ZM213.175 83.2853C206.857 81.9421 200.235 84.5736 198.385 89.1635C196.536 93.7532 200.159 98.563 206.477 99.9065C212.796 101.25 219.418 98.6182 221.268 94.0285C223.117 89.4386 219.494 84.6288 213.175 83.2853" fill="#222222"/>
<path d="M184.483 120.747C184.483 120.747 185.823 110.722 187.431 110.624C189.039 110.527 223.075 114.615 224.281 115.394C225.487 116.172 221.467 126.976 221.467 126.976L184.483 120.747Z" fill="#222222"/>
<path d="M209.674 85.9885C209.65 85.9885 209.627 85.9862 209.603 85.9812C209.47 85.9523 209.394 85.8507 209.433 85.754C209.698 85.1064 209.783 84.4234 209.862 83.6613C210.036 81.9668 210.167 80.2405 210.253 78.5311C210.258 78.4304 210.357 78.3539 210.513 78.3551C210.652 78.3589 210.76 78.4435 210.755 78.5443C210.669 80.2586 210.537 81.9893 210.363 83.6884C210.283 84.4719 210.194 85.1756 209.915 85.858C209.883 85.9371 209.783 85.9885 209.674 85.9885Z" fill="#3C5992"/>
<path d="M209.565 86.8904C209.539 86.8904 209.512 86.8872 209.486 86.8811C209.354 86.849 209.283 86.7456 209.327 86.6501L209.417 86.4557C209.46 86.3602 209.603 86.3091 209.735 86.3403C209.866 86.3724 209.937 86.4758 209.893 86.5713L209.804 86.7658C209.768 86.8423 209.671 86.8904 209.565 86.8904Z" fill="#3C5992"/>
<path d="M201.148 87.335C201.11 87.335 201.072 87.3289 201.036 87.316C200.912 87.2711 200.861 87.1616 200.923 87.0716C201.973 85.5334 203.951 84.3216 206.215 83.8296C206.349 83.8007 206.488 83.8556 206.528 83.9522C206.567 84.0486 206.492 84.1505 206.359 84.1791C204.226 84.6425 202.362 85.7842 201.373 87.2334C201.329 87.2979 201.24 87.335 201.148 87.335Z" fill="#3C5992"/>
<path d="M191.152 90.1344C191.139 90.1344 191.127 90.1338 191.115 90.1324C190.977 90.118 190.883 90.0255 190.903 89.9256C190.95 89.6873 191.018 89.4502 191.103 89.221C191.18 89.0149 191.282 88.8017 191.506 88.6408C191.96 88.3141 192.64 88.3666 193.245 88.4618C195.264 88.7786 197.292 89.1515 199.274 89.5694C199.407 89.5977 199.484 89.699 199.445 89.796C199.406 89.8923 199.267 89.9475 199.133 89.9204C197.163 89.5043 195.146 89.1337 193.139 88.8189C192.666 88.7445 192.144 88.696 191.859 88.9001C191.728 88.9947 191.656 89.1349 191.589 89.3165C191.508 89.532 191.445 89.7542 191.4 89.9782C191.381 90.0687 191.275 90.1344 191.152 90.1344Z" fill="#3C5992"/>
<path d="M200.641 90.1518C200.592 90.1518 200.542 90.1413 200.499 90.1197L200.233 89.9871C200.119 89.9299 200.09 89.8163 200.169 89.7331C200.247 89.6504 200.404 89.6294 200.518 89.6863L200.784 89.8189C200.898 89.8761 200.927 89.9897 200.848 90.0727C200.8 90.1241 200.721 90.1518 200.641 90.1518Z" fill="#3C5992"/>
<path d="M216.572 85.4453C216.529 85.4453 216.484 85.4371 216.444 85.4198L215.337 84.9442C215.218 84.8928 215.178 84.781 215.249 84.6942C215.32 84.6075 215.473 84.5786 215.593 84.63L216.7 85.1057C216.819 85.157 216.859 85.2689 216.788 85.3556C216.741 85.4134 216.658 85.4453 216.572 85.4453Z" fill="#3C5992"/>
<path d="M224.132 92.6537C224.114 92.6537 224.095 92.6523 224.077 92.6491C220.377 92.04 216.578 91.6612 212.788 91.5228C212.65 91.5176 212.543 91.432 212.55 91.3316C212.556 91.2308 212.677 91.1514 212.813 91.1584C216.633 91.2977 220.459 91.6796 224.187 92.2934C224.323 92.3156 224.408 92.4134 224.377 92.5115C224.351 92.5965 224.247 92.6537 224.132 92.6537Z" fill="#3C5992"/>
<path d="M204.171 109.209C204.155 109.209 204.139 109.208 204.123 109.206C203.987 109.187 203.898 109.091 203.925 108.992C205.074 104.705 206.134 100.342 207.075 96.0253C207.097 95.9257 207.223 95.8591 207.362 95.8734C207.5 95.8892 207.593 95.9826 207.571 96.0822C206.629 100.404 205.568 104.771 204.417 109.062C204.394 109.149 204.289 109.209 204.171 109.209Z" fill="#3C5992"/>
<path d="M187.718 113.881H187.715C187.576 113.88 187.466 113.798 187.467 113.697C187.48 112.94 187.603 112.185 188.406 111.786C188.965 111.509 189.67 111.519 190.286 111.549C193.045 111.684 195.772 112.078 198.394 112.719C198.525 112.751 198.596 112.855 198.551 112.95C198.507 113.046 198.363 113.096 198.233 113.065C195.653 112.434 192.968 112.046 190.253 111.913C189.695 111.885 189.115 111.876 188.69 112.087C188.076 112.392 187.981 113.043 187.97 113.701C187.968 113.801 187.856 113.881 187.718 113.881Z" fill="#3C5992"/>
<path d="M116.901 118.609L112.626 81.7127C112.626 81.7127 113.21 80.8262 116.134 80.7293C119.617 80.6139 120.132 81.475 120.132 81.475L123.32 117.936L116.901 118.609Z" fill="#222222"/>
<path d="M131.919 97.1072L103.186 98.9646C102.626 99.0008 102.092 98.8067 101.681 98.4638C101.269 98.1207 100.98 97.629 100.912 97.0695L100.862 96.6675L100.813 96.2654C100.745 95.7059 100.909 95.1847 101.231 94.7943C101.553 94.4039 102.031 94.1446 102.591 94.1084L131.324 92.251C131.884 92.2148 132.418 92.4086 132.829 92.7517C133.241 93.0945 133.53 93.5866 133.598 94.146L133.648 94.5481L133.697 94.9502C133.765 95.5097 133.601 96.0309 133.279 96.4213C132.957 96.8114 132.479 97.071 131.919 97.1072Z" fill="#222222"/>
<path d="M119.174 89.8774C119.038 89.8774 118.926 89.7989 118.923 89.7002L118.7 84.0033C118.672 83.308 118.556 82.6215 117.894 82.3097C117.499 82.1231 116.968 82.1102 116.499 82.0989C116.361 82.0956 116.252 82.0113 116.257 81.9105C116.261 81.8095 116.373 81.7333 116.516 81.7339C117.024 81.7464 117.655 81.7619 118.168 82.0034C119.024 82.4072 119.171 83.1982 119.202 83.9931L119.425 89.6897C119.429 89.7904 119.32 89.8745 119.181 89.8774H119.174Z" fill="#3C5992"/>
<path d="M124.808 93.8349C124.683 93.8349 124.574 93.7674 124.559 93.6749C124.541 93.5747 124.64 93.4836 124.777 93.4714C126.83 93.2862 128.919 93.2235 130.983 93.2877C131.121 93.2918 131.229 93.377 131.223 93.4775C131.217 93.5782 131.099 93.662 130.961 93.6521C128.925 93.5905 126.865 93.6509 124.839 93.8334C124.828 93.8343 124.818 93.8349 124.808 93.8349Z" fill="#3C5992"/>
<path d="M103.187 94.9658C103.054 94.9658 102.943 94.8901 102.936 94.7929C102.929 94.6922 103.035 94.6066 103.173 94.6011L111.308 94.286C111.443 94.2784 111.565 94.3578 111.572 94.4586C111.58 94.559 111.474 94.6449 111.335 94.6504L103.2 94.9655C103.196 94.9658 103.191 94.9658 103.187 94.9658Z" fill="#3C5992"/>
<path d="M112.302 94.5523H112.213C112.074 94.5523 111.961 94.4705 111.961 94.3698C111.961 94.2691 112.074 94.1873 112.213 94.1873H112.302C112.44 94.1873 112.553 94.2691 112.553 94.3698C112.553 94.4705 112.44 94.5523 112.302 94.5523Z" fill="#3C5992"/>
<path d="M121.119 106.617C120.993 106.617 120.884 106.547 120.869 106.454C120.477 103.856 120.156 101.215 119.914 98.6042C119.904 98.5035 120.009 98.4165 120.148 98.4097C120.287 98.4051 120.406 98.479 120.415 98.5797C120.657 101.185 120.978 103.821 121.369 106.414C121.384 106.514 121.284 106.605 121.146 106.616C121.137 106.616 121.128 106.617 121.119 106.617Z" fill="#3C5992"/>
<path d="M121.159 108.891C121.034 108.891 120.926 108.824 120.911 108.731L120.812 108.148C120.795 108.048 120.893 107.957 121.031 107.945C121.169 107.933 121.294 108.004 121.311 108.104L121.409 108.687C121.426 108.787 121.328 108.878 121.191 108.89C121.18 108.891 121.17 108.891 121.159 108.891Z" fill="#3C5992"/>
<path d="M134.903 117.632C134.903 117.632 139.325 91.6445 155.003 86.8752C170.681 82.1057 178.587 92.6177 179.257 101.962C179.927 111.306 177.113 121.136 177.113 121.136L134.903 117.632Z" fill="#222222"/>
<path d="M144.12 99.6928C144.087 99.6928 144.053 99.6881 144.021 99.6779C143.894 99.6385 143.834 99.531 143.889 99.4385C145.506 96.691 147.178 93.8499 149.821 91.4645C152.768 88.803 156.64 87.1605 160.443 86.9584C160.578 86.9502 160.703 87.0264 160.712 87.1269C160.723 87.2276 160.619 87.3146 160.48 87.3222C156.815 87.5173 153.073 89.1104 150.212 91.6932C147.613 94.0397 145.955 96.8572 144.351 99.5821C144.31 99.6513 144.217 99.6928 144.12 99.6928Z" fill="#3C5992"/>
<path d="M150.01 95.5928C149.984 95.5928 149.957 95.5896 149.93 95.5835C149.799 95.5511 149.728 95.4477 149.772 95.3522C149.949 94.9688 150.193 94.6035 150.497 94.2663C150.573 94.1819 150.728 94.1585 150.844 94.2131C150.96 94.2686 150.993 94.3816 150.917 94.466C150.637 94.7773 150.412 95.1145 150.249 95.4684C150.213 95.5447 150.115 95.5928 150.01 95.5928Z" fill="#3C5992"/>
<path d="M174.089 93.7855C173.997 93.7855 173.909 93.749 173.864 93.686C173.39 93.01 172.712 92.3976 171.906 91.9153C171.799 91.851 171.783 91.736 171.871 91.6583C171.96 91.5803 172.119 91.5698 172.225 91.6335C173.085 92.1474 173.807 92.7997 174.312 93.5201C174.375 93.6097 174.326 93.7198 174.202 93.7657C174.166 93.7794 174.127 93.7855 174.089 93.7855Z" fill="#3C5992"/>
<path d="M93.5969 121.912C93.5969 121.912 90.92 94.8172 87.2478 92.2438C82.265 88.7523 74.5932 89.1606 68.2979 89.9212C61.976 90.6848 54.3839 91.6101 50.8852 96.0246C48.3394 99.2366 56.1112 125.809 56.1112 125.809L93.5969 121.912Z" fill="#222222"/>
<path d="M64.6317 91.7288L61.7023 76.956L67.4344 76.2657L70.7003 91.0415L64.6317 91.7288Z" fill="#222222"/>
<path d="M57.2757 81.8758L58.3743 85.7825L74.1757 83.6754L73.2455 79.7679L57.2757 81.8758Z" fill="#222222"/>
<path d="M66.769 79.4305C66.6448 79.4305 66.5371 79.3636 66.5202 79.2719L66.1886 77.4612C66.1705 77.3614 66.2669 77.2697 66.4044 77.2565C66.5415 77.2414 66.6685 77.3132 66.6866 77.4133L67.0187 79.224C67.0368 79.3239 66.9403 79.4156 66.8024 79.4287C66.7916 79.4299 66.7803 79.4305 66.769 79.4305Z" fill="#3C5992"/>
<path d="M73.0338 82.9288C72.9257 82.9288 72.826 82.878 72.7934 82.7991C72.4991 82.0931 72.3223 81.3613 72.2676 80.6243C72.2604 80.5239 72.3665 80.4377 72.5052 80.4322C72.6415 80.4252 72.7621 80.504 72.7693 80.6045C72.8224 81.3123 72.992 82.0151 73.2742 82.6934C73.3144 82.7898 73.2392 82.8917 73.1066 82.9212C73.0824 82.9261 73.0579 82.9288 73.0338 82.9288Z" fill="#3C5992"/>
<path d="M68.8628 87.8731C68.7511 87.8731 68.6494 87.8185 68.62 87.7365C68.2739 86.7696 68.0476 85.7742 67.9467 84.7782C67.9366 84.6778 68.0404 84.5904 68.1786 84.5829C68.3197 84.5764 68.4375 84.6512 68.448 84.7516C68.5465 85.7257 68.768 86.699 69.1061 87.6448C69.141 87.7423 69.0606 87.8422 68.9264 87.867C68.9051 87.8711 68.8837 87.8731 68.8628 87.8731Z" fill="#3C5992"/>
<path d="M87.3201 100.97C87.2007 100.97 87.095 100.908 87.0733 100.819C86.6347 99.0361 85.9762 97.2698 85.1163 95.5698C84.5318 94.414 83.8111 93.2387 82.5033 92.4714C81.1932 91.7022 79.4481 91.4359 77.7573 91.2628C75.675 91.0487 72.5711 90.8335 69.6639 91.4245C69.5316 91.4517 69.3913 91.395 69.3543 91.2978C69.3169 91.2009 69.3949 91.1001 69.5284 91.073C72.5265 90.4639 75.7007 90.6832 77.8277 90.9013C79.5897 91.0817 81.4143 91.3626 82.8193 92.1875C84.2219 93.0107 84.9789 94.2388 85.5883 95.4436C86.4578 97.1641 87.1239 98.9508 87.5677 100.755C87.5923 100.854 87.5014 100.949 87.3647 100.967C87.3499 100.969 87.335 100.97 87.3201 100.97Z" fill="#3C5992"/>
<path d="M88.2077 104.087C88.0924 104.087 87.9886 104.029 87.9625 103.944L87.6678 102.975C87.6381 102.876 87.7233 102.779 87.8588 102.757C87.9959 102.736 88.1285 102.798 88.1583 102.896L88.4534 103.865C88.4831 103.963 88.3979 104.061 88.262 104.082C88.2439 104.085 88.2254 104.087 88.2077 104.087Z" fill="#3C5992"/>
<path d="M89.801 109.8C89.6812 109.8 89.5751 109.737 89.5538 109.649L89.0179 107.443C88.9938 107.344 89.0846 107.249 89.2213 107.231C89.3592 107.212 89.4887 107.28 89.5124 107.38L90.0486 109.586C90.0728 109.685 89.9815 109.779 89.8448 109.797C89.83 109.799 89.8155 109.8 89.801 109.8Z" fill="#3C5992"/>
<path d="M60.1828 140.669C60.0919 140.669 60.0043 140.633 59.9592 140.57L57.5883 137.246C57.5243 137.156 57.5726 137.046 57.6956 137C57.8186 136.953 57.9706 136.989 58.0345 137.078L60.4059 140.403C60.4694 140.492 60.4211 140.602 60.2981 140.649C60.2611 140.663 60.2218 140.669 60.1828 140.669Z" fill="#3C5992"/>
<path d="M63.9059 137.766C63.7821 137.766 63.6744 137.699 63.6571 137.608C63.5092 136.81 63.5723 135.975 63.8392 135.194C63.8726 135.096 64.0088 135.035 64.1435 135.06C64.2782 135.085 64.3606 135.184 64.3268 135.281C64.0752 136.019 64.0157 136.807 64.1556 137.559C64.1741 137.659 64.0776 137.751 63.9397 137.764C63.9284 137.765 63.9172 137.766 63.9059 137.766Z" fill="#3C5992"/>
<path d="M102.775 130.739C102.708 130.739 102.641 130.719 102.592 130.681C101.604 129.915 100.976 128.919 100.824 127.876C100.81 127.776 100.909 127.686 101.048 127.676C101.183 127.662 101.309 127.737 101.324 127.838C101.465 128.802 102.045 129.723 102.958 130.431C103.053 130.505 103.048 130.62 102.947 130.689C102.898 130.722 102.836 130.739 102.775 130.739Z" fill="#3C5992"/>
<path d="M113.162 135.62C113.137 135.62 113.113 135.617 113.088 135.611C112.955 135.582 112.881 135.479 112.922 135.383L113.749 133.442C113.79 133.345 113.931 133.29 114.064 133.321C114.196 133.351 114.27 133.453 114.229 133.549L113.402 135.491C113.369 135.569 113.269 135.62 113.162 135.62Z" fill="#3C5992"/>
<path d="M156.891 131.146C156.79 131.146 156.695 131.102 156.657 131.03L156.132 130.054C156.082 129.96 156.146 129.854 156.275 129.817C156.404 129.78 156.549 129.826 156.6 129.921L157.125 130.898C157.175 130.992 157.112 131.097 156.982 131.134C156.952 131.142 156.921 131.146 156.891 131.146Z" fill="#3C5992"/>
<path d="M160.648 131.542C160.627 131.542 160.606 131.54 160.584 131.536C160.45 131.511 160.37 131.411 160.405 131.313L160.966 129.76C161.002 129.663 161.135 129.604 161.273 129.63C161.408 129.656 161.488 129.756 161.452 129.854L160.891 131.406C160.861 131.488 160.759 131.542 160.648 131.542Z" fill="#3C5992"/>
<path d="M185.019 139.326C184.893 139.326 184.785 139.258 184.769 139.164L183.945 134.105C183.929 134.005 184.027 133.914 184.165 133.902C184.299 133.889 184.428 133.962 184.444 134.062L185.269 139.122C185.285 139.222 185.186 139.312 185.048 139.324C185.039 139.325 185.028 139.326 185.019 139.326Z" fill="#3C5992"/>
<path d="M195.203 137.768C195.182 137.768 195.159 137.766 195.137 137.762C195.004 137.736 194.925 137.635 194.96 137.538C195.406 136.35 196.245 135.241 197.387 134.329C197.48 134.255 197.639 134.249 197.741 134.317C197.844 134.385 197.851 134.501 197.758 134.575C196.669 135.444 195.87 136.501 195.446 137.634C195.415 137.715 195.314 137.768 195.203 137.768Z" fill="#3C5992"/>
<path d="M227.578 140.479C227.547 140.479 227.516 140.475 227.486 140.466C227.356 140.428 227.293 140.322 227.345 140.229L229.029 137.151L225.341 138.904C225.253 138.946 225.136 138.944 225.052 138.897C224.967 138.851 224.931 138.77 224.963 138.697C225.443 137.583 226.007 136.479 226.644 135.402C225.258 136.377 223.94 137.412 222.713 138.49C222.653 138.542 222.558 138.566 222.467 138.552C222.376 138.538 222.303 138.488 222.277 138.423L221.167 135.573L221.492 139.715C221.5 139.816 221.394 139.902 221.255 139.908C221.127 139.914 220.999 139.837 220.99 139.736L220.535 133.936C220.527 133.843 220.618 133.761 220.744 133.746C220.869 133.731 220.993 133.786 221.027 133.876L222.631 137.991C224.055 136.764 225.595 135.594 227.215 134.508C227.303 134.448 227.436 134.443 227.533 134.494C227.63 134.546 227.663 134.639 227.613 134.718C226.871 135.886 226.215 137.094 225.66 138.316L229.418 136.529C229.51 136.486 229.63 136.491 229.715 136.541C229.8 136.591 229.83 136.676 229.789 136.75L227.812 140.363C227.772 140.435 227.678 140.479 227.578 140.479Z" fill="#3C5992"/>
<path d="M209.68 131.344C209.549 131.344 209.438 131.27 209.43 131.173C209.314 129.841 209.49 128.511 209.953 127.219C209.988 127.122 210.124 127.063 210.259 127.089C210.393 127.114 210.474 127.214 210.439 127.311C209.99 128.565 209.819 129.857 209.931 131.15C209.94 131.251 209.835 131.338 209.696 131.344C209.691 131.344 209.686 131.344 209.68 131.344Z" fill="#3C5992"/>
<path d="M143.292 139.297C143.275 139.297 143.258 139.296 143.241 139.294C143.105 139.274 143.017 139.177 143.045 139.079C143.564 137.224 144.007 135.337 144.363 133.46C142.608 134.157 141.329 135.483 141.056 136.923C141.041 136.997 140.968 137.057 140.869 137.075C140.771 137.095 140.666 137.066 140.605 137.007L138.423 134.866L139.708 138.118C139.747 138.215 139.669 138.316 139.536 138.343C139.401 138.371 139.263 138.315 139.225 138.219L137.556 133.997C137.522 133.912 137.577 133.821 137.686 133.782C137.794 133.743 137.927 133.767 137.999 133.837L140.665 136.453C141.146 134.947 142.631 133.611 144.573 132.977C144.657 132.95 144.753 132.957 144.826 132.997C144.9 133.037 144.937 133.102 144.925 133.168C144.557 135.164 144.089 137.177 143.537 139.151C143.513 139.238 143.409 139.297 143.292 139.297Z" fill="#3C5992"/>
<path d="M157.616 120.649C157.506 120.649 157.406 120.597 157.374 120.516C156.781 119.004 156.377 117.444 156.172 115.879C156.161 115.793 156.234 115.714 156.347 115.688C156.459 115.663 156.583 115.697 156.641 115.772L158.891 118.662C159.012 118.817 159.135 118.889 159.186 118.877C159.25 118.862 159.31 118.739 159.343 118.673C159.863 117.617 161.02 116.72 162.436 116.273C162.526 116.244 162.631 116.257 162.703 116.304C162.777 116.352 162.805 116.425 162.777 116.494C162.543 117.056 162.279 117.616 161.988 118.166C163.11 117.351 164.414 116.658 165.818 116.134C165.915 116.098 166.033 116.111 166.111 116.167C166.188 116.223 166.206 116.309 166.156 116.38C165.275 117.628 164.576 118.949 164.08 120.305C164.044 120.403 163.907 120.46 163.773 120.435C163.638 120.409 163.559 120.309 163.594 120.212C164.031 119.018 164.622 117.851 165.354 116.735C163.862 117.37 162.51 118.202 161.413 119.167C161.333 119.237 161.194 119.254 161.088 119.207C160.981 119.159 160.939 119.062 160.989 118.978C161.412 118.27 161.791 117.539 162.12 116.798C161.067 117.243 160.225 117.966 159.816 118.796C159.75 118.931 159.639 119.156 159.335 119.225C159.149 119.267 158.789 119.272 158.454 118.842L156.81 116.73C157.034 117.975 157.385 119.211 157.858 120.417C157.895 120.513 157.818 120.615 157.684 120.642C157.661 120.647 157.638 120.649 157.616 120.649Z" fill="#3C5992"/>
<path d="M179.134 122.974C179.125 122.974 179.117 122.974 179.109 122.974C178.971 122.964 178.87 122.875 178.883 122.774C178.955 122.241 179.252 121.719 179.72 121.305C179.808 121.227 179.966 121.216 180.073 121.279C180.181 121.343 180.196 121.458 180.108 121.536C179.703 121.895 179.445 122.348 179.384 122.81C179.371 122.904 179.261 122.974 179.134 122.974Z" fill="#3C5992"/>
<path d="M182.858 124.719C182.819 124.719 182.779 124.713 182.741 124.698C182.618 124.651 182.572 124.541 182.636 124.452L183.647 123.065C183.711 122.976 183.864 122.942 183.986 122.989C184.109 123.036 184.156 123.147 184.091 123.236L183.081 124.622C183.036 124.684 182.949 124.719 182.858 124.719Z" fill="#3C5992"/>
<path d="M124.422 122.004C124.302 122.004 124.196 121.942 124.175 121.853L123.894 120.687C123.87 120.587 123.961 120.493 124.097 120.476C124.236 120.457 124.364 120.525 124.389 120.623L124.67 121.79C124.694 121.889 124.602 121.984 124.465 122.001C124.451 122.003 124.436 122.004 124.422 122.004Z" fill="#3C5992"/>
<path d="M132.496 122.586C132.463 122.586 132.43 122.581 132.398 122.571C132.27 122.531 132.211 122.424 132.266 122.332L133.07 120.969C133.124 120.876 133.272 120.834 133.4 120.873C133.527 120.913 133.586 121.02 133.532 121.113L132.728 122.475C132.687 122.545 132.594 122.586 132.496 122.586Z" fill="#3C5992"/>
<path d="M80.7929 120.636C80.6623 120.636 80.5517 120.563 80.5425 120.467C80.4078 119.093 80.4532 117.703 80.6771 116.336C80.6932 116.236 80.8211 116.165 80.9561 116.176C81.094 116.188 81.1925 116.279 81.176 116.379C80.9561 117.723 80.9115 119.09 81.0438 120.441C81.0534 120.542 80.9493 120.629 80.811 120.636C80.805 120.636 80.7989 120.636 80.7929 120.636Z" fill="#3C5992"/>
<path d="M70.135 124.114C70.0389 124.114 69.9473 124.074 69.9055 124.006C68.8538 122.296 67.6044 120.635 66.191 119.068C66.1242 118.994 66.1403 118.896 66.23 118.835C66.3196 118.774 66.4559 118.769 66.5528 118.823C67.9578 119.595 69.2643 120.467 70.4425 121.421C70.732 120.541 71.2337 119.686 71.9074 118.929C71.9645 118.865 72.0706 118.834 72.1727 118.85C72.2753 118.866 72.3528 118.927 72.3673 119.003L72.8678 121.602C72.8871 121.701 72.791 121.794 72.6535 121.808C72.5152 121.821 72.3894 121.752 72.3701 121.652L71.9681 119.565C71.4274 120.275 71.0379 121.055 70.8305 121.847C70.8128 121.916 70.742 121.971 70.6492 121.99C70.5563 122.008 70.457 121.985 70.3939 121.933C69.4805 121.166 68.4836 120.449 67.4183 119.793C68.5186 121.1 69.5067 122.463 70.3641 123.857C70.4208 123.95 70.3637 124.058 70.2371 124.098C70.2037 124.109 70.1692 124.114 70.135 124.114Z" fill="#3C5992"/>
<path d="M76.7481 121.806C76.6191 121.806 76.5094 121.734 76.4981 121.639C76.4076 120.872 76.595 120.098 77.0396 119.4C77.0979 119.308 77.247 119.269 77.3729 119.311C77.4991 119.354 77.5538 119.462 77.4955 119.553C77.0878 120.194 76.9158 120.904 76.9986 121.607C77.0106 121.708 76.9077 121.796 76.7699 121.805C76.7626 121.805 76.7554 121.806 76.7481 121.806Z" fill="#3C5992"/>
<path d="M89.0938 119.856C88.9808 119.856 88.8783 119.8 88.8502 119.717C88.7002 119.277 88.7939 118.8 89.1078 118.409C89.1774 118.321 89.331 118.292 89.4511 118.343C89.5709 118.394 89.6119 118.505 89.542 118.592C89.2936 118.903 89.2192 119.281 89.3378 119.629C89.3712 119.727 89.2891 119.826 89.1545 119.85C89.1344 119.854 89.1139 119.856 89.0938 119.856Z" fill="#3C5992"/>
<path d="M84.2252 134.853C84.1127 134.853 84.0106 134.798 83.982 134.715L83.7127 133.937C83.6789 133.839 83.7605 133.739 83.8952 133.715C84.0303 133.691 84.1666 133.75 84.1999 133.848L84.4689 134.626C84.503 134.724 84.4214 134.823 84.2868 134.847C84.2663 134.851 84.2453 134.853 84.2252 134.853Z" fill="#3C5992"/>
<path d="M95.7753 142.246C95.6366 142.246 95.524 142.164 95.524 142.063V140.895C95.524 140.794 95.6366 140.713 95.7753 140.713C95.914 140.713 96.0265 140.794 96.0265 140.895V142.063C96.0265 142.164 95.914 142.246 95.7753 142.246Z" fill="#3C5992"/>
</g>
<defs>
<clipPath id="clip0_38_10635">
<rect width="237" height="146" fill="white" transform="translate(0 0.620361)"/>
</clipPath>
</defs>
</svg>
