<svg width="260" height="89" viewBox="0 0 260 89" fill="none" xmlns="http://www.w3.org/2000/svg">
<g opacity="0.75">
<path d="M30.7241 89H216.521C222.387 70.747 241.751 39.8387 241.751 39.8387C219.401 39.7226 214.805 57.0247 214.805 57.0247C212.986 40.6638 226.24 28.1589 226.24 28.1589C211.751 29.6577 205.504 53.6389 205.504 53.6389C203.154 20.6377 221.736 11.6861 221.736 11.6861C207.429 11.7068 199.843 33.0473 198.559 38.1243C198.517 33.663 195.828 22.6403 195.823 22.6486C192.123 7.68912 184.933 0.375245 184.933 0.375245C187.205 7.41134 190.542 24.0044 190.704 30.9804C181.405 10.6702 170.654 11.2196 171.305 11.8001C176.435 16.3692 183.679 31.7599 185.411 39.0199C176.595 19.6965 163.849 18.8569 163.849 18.8569C171.281 23.625 174.588 33.0949 175.943 38.6488C170.52 30.7897 160.912 24.1972 152.355 21.5976C151.283 21.2742 159.088 29.3634 162.326 32.9871C157.693 30.4974 152.44 28.7021 147.567 28.7684C153.956 33.1281 159.171 38.9515 160.893 46.0058C161.141 47.0237 158.659 42.3244 153.029 39.0675C148.967 36.7167 146.082 36.528 142.724 36.839C142.557 37.1292 153.882 43.203 153.31 50.2314C152.044 48.5064 150.454 46.5622 148.705 45.7467C148.026 45.4316 147.562 45.3864 147.227 45.5151C146.869 50.2314 145.196 54.7217 142.531 58.8468C142.385 59.0727 141.942 59.0437 141.878 58.7724C141.015 54.9663 141.183 51.1431 142.328 47.3954C142.979 45.264 143.749 42.5091 145.924 41.1552L145.795 41.1593C139.936 42.0549 136.696 46.6489 135.218 51.5602C134.754 52.0891 134.509 52.4388 134.509 52.4388C134.509 46.8877 138.32 41.6921 138.32 41.6921C132.857 41.2111 129.463 48.3324 129.463 48.3324C129.463 37.2266 137.822 29.0172 137.822 29.0172C125.822 26.4797 121.027 45.1936 121.027 45.1936C121.027 30.3439 111.178 19.2363 111.178 19.2363C112.922 24.6388 113.373 31.1545 113.396 36.2336C112.161 32.4523 110.335 28.8244 108.174 25.5717C104.307 20.6874 98.8676 17.3912 92.797 14.9989C94.9297 18.3925 96.6972 22.0039 98.1606 25.7458C95.3822 22.3957 92.2197 19.3855 88.2441 17.4057C87.4758 17.0264 92.2078 28.503 94.0389 33.862L93.8905 33.7418C93.6478 33.2691 93.4215 32.8337 93.2401 32.4854C90.6879 27.6966 86.4319 22.7274 80.8326 20.4491C80.234 20.2065 87.6172 32.954 82.329 41.5573C82.8097 29.2867 74.4555 19.029 74.472 19.5555C74.6747 25.5551 78.1602 35.9164 63.7307 50.3019C62.9884 35.137 69.9003 21.0233 73.077 15.3928C63.9781 19.0808 60.2641 26.1584 57.2971 34.1274C55.2516 39.6086 53.8094 45.2721 52.8102 50.9715C56.3639 23.6706 45.7639 6.13637 41.1874 1.84663e-06C41.7435 3.13245 43.3696 8.97859 44.9745 13.2098C46.0797 18.4319 47.6963 29.013 48.0192 34.0817C45.1182 24.9995 42.1135 20.2853 39.1914 17.0492C37.6384 15.7659 35.8969 14.5842 34.0469 13.5995C38.2511 19.1845 40.5417 25.1363 41.7624 31.2976C40.332 29.0255 38.7483 26.8363 36.9762 24.8254C32.0603 20.59 25.9567 18.0836 19.4384 16.4314C21.2954 18.3905 23.1924 20.3081 24.9292 22.2983C28.1789 25.7417 31.1436 29.3344 32.9016 33.9781C35.204 40.0481 36.5096 46.1596 37.7397 52.3393C34.6856 45.264 29.3172 38.6488 22.304 34.6124C19.0189 32.7197 9.68904 27.0146 4.42911 27.7401C15.7125 35.1515 23.0203 44.6689 27.4013 55.5445C28.4547 57.5762 29.6966 76.2755 30.7241 89" fill="#1A552B"/>
<path d="M30.7241 89H216.521C222.387 70.747 241.751 39.8387 241.751 39.8387C219.401 39.7226 214.805 57.0247 214.805 57.0247C212.986 40.6638 226.24 28.1589 226.24 28.1589C211.751 29.6577 205.504 53.6389 205.504 53.6389C203.154 20.6377 221.736 11.6861 221.736 11.6861C207.429 11.7068 199.843 33.0473 198.559 38.1243C198.517 33.663 195.828 22.6403 195.823 22.6486C192.123 7.68912 184.933 0.375245 184.933 0.375245C187.205 7.41134 190.542 24.0044 190.704 30.9804C181.405 10.6702 170.654 11.2196 171.305 11.8001C176.435 16.3692 183.679 31.7599 185.411 39.0199C176.595 19.6965 163.849 18.8569 163.849 18.8569C171.281 23.625 174.588 33.0949 175.943 38.6488C170.52 30.7897 160.912 24.1972 152.355 21.5976C151.283 21.2742 159.088 29.3634 162.326 32.9871C157.693 30.4974 152.44 28.7021 147.567 28.7684C153.956 33.1281 159.171 38.9515 160.893 46.0058C161.141 47.0237 158.659 42.3244 153.029 39.0675C148.967 36.7167 146.082 36.528 142.724 36.839C142.557 37.1292 153.882 43.203 153.31 50.2314C152.044 48.5064 150.454 46.5622 148.705 45.7467C148.026 45.4316 147.562 45.3864 147.227 45.5151C146.869 50.2314 145.196 54.7217 142.531 58.8468C142.385 59.0727 141.942 59.0437 141.878 58.7724C141.015 54.9663 141.183 51.1431 142.328 47.3954C142.979 45.264 143.749 42.5091 145.924 41.1552L145.795 41.1593C139.936 42.0549 136.696 46.6489 135.218 51.5602C134.754 52.0891 134.509 52.4388 134.509 52.4388C134.509 46.8877 138.32 41.6921 138.32 41.6921C132.857 41.2111 129.463 48.3324 129.463 48.3324C129.463 37.2266 137.822 29.0172 137.822 29.0172C125.822 26.4797 121.027 45.1936 121.027 45.1936C121.027 30.3439 111.178 19.2363 111.178 19.2363C112.922 24.6388 113.373 31.1545 113.396 36.2336C112.161 32.4523 110.335 28.8244 108.174 25.5717C104.307 20.6874 98.8676 17.3912 92.797 14.9989C94.9297 18.3925 96.6972 22.0039 98.1606 25.7458C95.3822 22.3957 92.2197 19.3855 88.2441 17.4057C87.4758 17.0264 92.2078 28.503 94.0389 33.862L93.8905 33.7418C93.6478 33.2691 93.4215 32.8337 93.2401 32.4854C90.6879 27.6966 86.4319 22.7274 80.8326 20.4491C80.234 20.2065 87.6172 32.954 82.329 41.5573C82.8097 29.2867 74.4555 19.029 74.472 19.5555C74.6747 25.5551 78.1602 35.9164 63.7307 50.3019C62.9884 35.137 69.9003 21.0233 73.077 15.3928C63.9781 19.0808 60.2641 26.1584 57.2971 34.1274C55.2516 39.6086 53.8094 45.2721 52.8102 50.9715C56.3639 23.6706 45.7639 6.13637 41.1874 1.84663e-06C41.7435 3.13245 43.3696 8.97859 44.9745 13.2098C46.0797 18.4319 47.6963 29.013 48.0192 34.0817C45.1182 24.9995 42.1135 20.2853 39.1914 17.0492C37.6384 15.7659 35.8969 14.5842 34.0469 13.5995C38.2511 19.1845 40.5417 25.1363 41.7624 31.2976C40.332 29.0255 38.7483 26.8363 36.9762 24.8254C32.0603 20.59 25.9567 18.0836 19.4384 16.4314C21.2954 18.3905 23.1924 20.3081 24.9292 22.2983C28.1789 25.7417 31.1436 29.3344 32.9016 33.9781C35.204 40.0481 36.5096 46.1596 37.7397 52.3393C34.6856 45.264 29.3172 38.6488 22.304 34.6124C19.0189 32.7197 9.68904 27.0146 4.42911 27.7401C15.7125 35.1515 23.0203 44.6689 27.4013 55.5445C28.4547 57.5762 29.6966 76.2755 30.7241 89" fill="#1A552B"/>
<path d="M94.4678 67.2534C94.4371 67.2534 94.4371 67.2016 94.463 67.0899C96.4685 58.8785 102.537 52.0972 109.974 47.0237C109.873 47.0221 109.772 47.0221 109.67 47.0221C107.905 47.0221 106.102 47.2271 104.292 47.5988C106.934 46.2527 109.859 45.3758 112.816 44.706C111.704 45.6204 110.778 46.6843 109.906 47.8142C108.282 49.9074 106.75 52.0535 105.379 54.2845C104.295 56.0442 103.347 57.854 102.494 59.6972C97.3098 63.0515 94.7341 67.2534 94.4678 67.2534" fill="#13341D"/>
<path d="M103.286 72.0068C102.622 63.8262 115.807 56.7573 115.614 56.4173C114.727 56.3363 113.872 56.282 113.021 56.282C112.199 56.282 111.383 56.3321 110.554 56.4505C111.181 56.1476 111.817 55.8576 112.456 55.5775C114.167 54.8308 115.948 54.2339 117.739 53.6574C119.28 53.1603 120.921 52.5367 122.587 52.5367C122.613 52.5367 122.636 52.5384 122.662 52.5384C118.96 55.252 115.802 58.2951 113.186 61.6704C112.814 61.5814 112.43 61.5068 112.036 61.4461L111.888 61.4421C112.225 61.6519 112.533 61.8899 112.816 62.1532C111.782 63.5281 110.834 64.9558 109.974 66.4401C109.955 66.4401 109.937 66.4401 109.918 66.4401C109.585 66.4401 109.173 66.5463 108.652 66.7909C106.614 67.7358 104.764 69.9976 103.286 72.0068" fill="#13341D"/>
<path d="M125.606 81.0793C125.582 81.0793 125.558 81.0769 125.535 81.0727C125.82 80.3844 126.169 79.7065 126.555 79.0475C126.558 79.0863 126.56 79.1261 126.562 79.1657C126.338 79.7107 126.152 80.2621 126.011 80.8152C125.966 80.9894 125.785 81.0793 125.606 81.0793ZM125.087 80.254C124.448 77.1087 124.493 73.962 123.148 70.9251C122.452 69.3574 121.628 67.8567 120.68 66.4161C120.626 66.3498 120.569 66.2832 120.515 66.2169C120.426 64.6743 120.214 63.147 119.839 61.6789C122.511 65.4704 124.906 69.3371 125.869 73.8065C126.155 75.1167 126.348 76.4414 126.47 77.7744C125.954 78.573 125.481 79.4022 125.087 80.254" fill="#13341D"/>
<path d="M131.832 89H128.917C128.825 82.6316 130.656 76.0245 134.612 70.8069C133.194 71.4863 131.874 72.3804 130.71 73.4209C132.958 70.8069 135.553 68.4334 138.798 66.8098C137.44 68.8868 136.135 70.9786 135.074 73.191C133.858 75.7305 133.196 78.4643 132.664 81.1682C132.159 83.7225 131.834 86.3657 131.832 89Z" fill="#13341D"/>
<path d="M147.644 89H146.188C146.146 87.3933 146.186 85.7826 146.047 84.1784C145.821 81.5764 145.144 79.058 144.312 76.5598C143.127 72.9731 141.727 69.5112 140.158 66.0736L139.964 65.6532C139.698 65.0808 139.441 64.5065 139.168 63.934C145.481 68.2445 149.506 73.9885 152.065 80.3407C149.584 76.3856 147.711 72.1745 144.395 68.6527C143.716 67.9271 142.993 67.247 142.25 66.5919C143.662 69.4942 144.583 72.5398 145.316 75.6285C146.353 79.999 147.437 84.5014 147.644 89" fill="#13341D"/>
<path d="M157.825 73.2816C157.175 71.6816 156.43 70.1268 155.607 68.6091C155.624 67.5101 155.666 66.4137 155.732 65.3188C156.121 58.9546 157.142 52.2446 160.561 46.5386C160.076 48.8441 159.739 51.187 159.531 53.5443C159.182 54.7363 158.862 55.93 158.558 57.1139C157.467 61.3849 157.311 65.6056 157.644 69.9566C157.724 70.9892 157.761 72.1188 157.825 73.2816Z" fill="#13341D"/>
<path d="M195.288 73.3132C180.015 58.084 183.328 47.0301 183.67 40.4959C184.104 39.7827 184.591 39.0986 185.15 38.4642C185.237 38.6487 185.324 38.827 185.411 39.0198C185.362 38.8042 185.305 38.5803 185.246 38.3523L185.562 37.9833C184.624 47.107 186.375 56.04 190.417 64.5001C191.334 66.4241 192.37 68.2963 193.49 70.129L193.422 70.5249C194.032 71.3931 194.661 72.2539 195.297 73.1074C195.295 73.1762 195.293 73.2444 195.288 73.3132" fill="#13341D"/>
<path d="M224.328 70.7883C225.415 65.7198 226.687 60.6876 228.582 55.6839C230.482 50.6687 233.682 46.7881 237.195 43.0687C237.891 42.2702 238.609 41.4849 239.342 40.7033C239.847 40.4317 240.372 40.1622 240.912 39.9176C237.683 42.7416 235.786 46.7549 233.818 50.2873C231.252 54.8854 228.872 59.5418 227.041 64.4094C226.624 65.5181 226.235 66.638 225.865 67.7612C225.346 68.7671 224.833 69.7785 224.328 70.7883" fill="#13341D"/>
<path d="M207.08 74.0364C206.003 67.8795 204.446 61.7638 202.238 55.8433C199.339 48.0733 195.792 41.0867 187.895 36.8701C186.818 35.8149 185.711 34.7804 184.789 33.6174C186.99 34.0051 188.968 35.4085 190.737 36.5218C193.202 38.0745 195.366 39.9486 197.308 41.9906C201.302 46.1928 204.3 51.3652 206.439 56.4839C206.461 56.5332 206.479 56.5834 206.501 56.6304C206.14 61.9419 206.263 67.7507 207.08 74.0364" fill="#13341D"/>
<path d="M169.142 73.4144C168.913 72.8387 168.694 72.2556 168.498 71.6629C167.197 67.7117 166.304 63.6335 165.717 59.5562C165.68 59.297 165.644 59.0356 165.611 58.7748C166.809 53.511 168.684 48.2182 171.423 43.5205C170.414 46.8269 169.797 50.254 169.464 53.7094C169.156 54.7841 168.908 55.8741 168.727 56.977C167.81 62.5145 168.267 67.9684 169.142 73.4144" fill="#13341D"/>
<path d="M153.31 77.708C153.083 76.6487 152.827 75.5936 152.556 74.549C151.733 71.3971 150.59 68.3021 149.414 65.2443C148.448 62.7363 146.697 60.5838 145.476 58.1877C147.769 58.9342 149.6 62.1289 150.694 63.7065C151.271 64.5438 151.839 65.3957 152.379 66.2606C152.426 66.5197 152.468 66.7788 152.511 67.0355C153.074 70.5728 153.324 74.14 153.31 77.708" fill="#13341D"/>
<path d="M92.7899 51.9336C96.4874 47.7971 105.292 38.6612 104.462 38.6612C104.446 38.6612 104.424 38.6653 104.401 38.6736C98.9052 40.3425 93.0397 43.425 87.8222 47.3914C87.8811 47.3346 87.9376 47.2789 87.9966 47.2254C90.8645 44.4905 94.192 42.1772 97.8683 40.3404C100.687 38.9307 104.401 36.8307 107.834 36.8307C107.983 36.8307 108.129 36.8348 108.278 36.841C106.8 38.6156 104.95 40.1248 103.435 41.8745C101.644 43.9374 100.053 46.1306 98.5777 48.3737C98.3161 48.7738 98.0592 49.1762 97.8071 49.5802C96.0915 50.2685 94.4089 51.0646 92.7899 51.9336" fill="#13341D"/>
<path d="M76.9394 58.5255C78.5042 52.1134 82.3053 41.2174 90.8056 35.6242C90.8575 35.6035 90.9093 35.5807 90.9635 35.5599C85.2087 40.3592 82.2464 47.4699 80.2504 54.3364C79.0414 55.6878 77.9292 57.0889 76.9394 58.5255Z" fill="#13341D"/>
<path d="M65.9152 58.9547C67.7086 51.4623 74.538 36.5302 80.2268 29.5314C80.3164 29.774 80.4059 30.0186 80.4907 30.2653C78.259 34.368 75.6974 38.3234 73.9677 42.6355C73.1853 44.5863 72.5231 46.5769 71.934 48.5836C69.8531 51.3968 67.8075 54.811 65.9152 58.9547Z" fill="#13341D"/>
<path d="M29.9771 28.4036C29.9628 28.3994 29.9484 28.3931 29.9365 28.3889C29.884 28.3094 29.8292 28.232 29.7767 28.1547C29.7886 28.1609 29.8029 28.1651 29.8148 28.1693C29.8697 28.2488 29.9222 28.3262 29.9771 28.4036" fill="#73AC8D"/>
<path d="M50.6115 57.9138C49.3224 52.8057 42.5472 33.5489 29.9747 28.4035C29.9205 28.3268 29.8687 28.2501 29.8145 28.1713C39.2739 31.6873 44.515 42.0299 49.6194 49.5074C49.6901 49.6133 49.8314 49.6693 49.9705 49.6693C50.1331 49.6693 50.291 49.5907 50.3216 49.4272C51.0757 45.4153 52.0726 41.4205 53.4771 37.5479C53.5148 38.6985 53.529 39.8739 53.5148 41.0701C52.7442 44.3562 50.6515 53.6787 50.6115 57.9138M59.7575 49.5963C59.9012 43.377 62.213 30.5968 64.4754 21.2741C65.4463 20.2272 66.5233 19.2528 67.7299 18.3634C66.4714 21.0792 65.5948 23.9546 64.8666 26.7989C63.1322 33.5593 61.8737 40.4793 60.8203 47.3597C60.4644 48.0788 60.111 48.8256 59.7575 49.5963" fill="#13341D"/>
<path d="M31.6973 79.9155C31.6973 79.9155 31.1718 77.9363 29.6471 75.2229C29.2111 69.7186 28.7634 64.4427 28.3274 60.7151C30.7759 66.1012 32.5033 72.6833 31.6973 79.9155" fill="#13341D"/>
<path d="M23.6189 47.7704C23.6166 47.7704 23.6142 47.7687 23.6119 47.7687C22.542 45.9255 21.3684 44.1319 20.084 42.3948C20.0888 42.399 20.0934 42.4013 20.1005 42.4054C21.3825 44.1408 22.5514 45.9313 23.6189 47.7704Z" fill="#73AC8D"/>
<path d="M42.5259 75.9749C42.5259 75.9749 36.7711 53.8738 23.6189 47.7703C22.5514 45.9313 21.3825 44.1408 20.1005 42.4054C20.4516 42.6272 20.8004 42.8467 21.1468 43.0644C23.7273 44.6777 26.164 46.4585 28.4711 48.363C33.1183 52.2047 36.7428 56.7154 39.8559 61.5871C40.8763 63.1857 41.826 64.8094 42.7145 66.4589C42.8182 69.422 42.7663 72.5891 42.5259 75.9749Z" fill="#13341D"/>
<path d="M240.03 56.3671C232.456 60.7273 226.657 67.8728 223.357 75.5126C224.687 68.8391 226.101 62.2384 228.582 55.6838C230.481 50.6686 233.682 46.788 237.195 43.0686C239.071 40.9188 241.119 38.8499 243.122 36.7332C236.085 38.5182 229.494 41.2256 224.182 45.7993C222.273 47.9696 220.558 50.335 219.012 52.7871C220.332 46.1345 222.806 39.7081 227.345 33.6775C225.351 34.7368 223.466 36.0159 221.788 37.4008C218.635 40.896 215.392 45.9855 212.258 55.7956C212.607 50.322 214.351 38.8934 215.545 33.2546C217.275 28.6834 219.035 22.3687 219.634 18.9875C214.695 25.6131 203.244 44.5505 207.08 74.0364C206.003 67.8795 204.446 61.7638 202.238 55.8433C199.028 47.2374 195.022 39.5941 185.195 35.6117C188.623 41.6921 196.089 56.9333 195.288 73.3133C179.706 57.7754 183.47 46.5865 183.689 40.1082C183.708 39.5402 174.684 50.6168 175.203 63.8676C169.488 54.5785 177.463 40.8089 176.819 41.0702C176.473 41.2132 176.131 41.3666 175.794 41.5262C175.448 42.0321 175.151 42.5462 174.894 42.9527C174.107 44.1918 173.221 45.3839 172.488 46.6489C170.61 49.8929 169.323 53.3717 168.727 56.977C167.81 62.5145 168.267 67.9684 169.141 73.4144C168.913 72.8387 168.694 72.2556 168.498 71.6629C167.197 67.7118 166.304 63.6336 165.717 59.5562C164.664 52.2379 165.76 45.0754 168.852 38.286C168.979 38.002 168.696 37.7947 168.392 37.9128C166.163 38.7815 164.607 41.4018 163.622 43.2096C161.249 47.559 159.76 52.4162 158.558 57.1139C157.467 61.3849 157.311 65.6055 157.644 69.9565C157.724 70.9891 157.761 72.1187 157.825 73.2815C156.199 69.2788 153.981 65.5553 151.403 62.0043C151.889 63.6734 152.242 65.3706 152.511 67.0355C153.241 71.615 153.444 76.2463 153.23 80.8654C153.213 81.195 152.709 81.3399 152.511 81.037C149.801 76.8852 147.906 72.3818 144.395 68.6527C143.716 67.9271 142.993 67.247 142.25 66.5919C143.662 69.4942 144.583 72.5398 145.316 75.6285C146.353 79.999 147.437 84.5014 147.644 89H230.272C231.459 85.5502 232.852 82.1959 234.523 78.9745C239.257 67.2308 247.147 56.9503 259.333 48.9463C253.654 48.1599 243.582 54.3233 240.03 56.3671" fill="#63C338"/>
<path d="M134.613 70.8069C130.382 72.8282 127.055 76.754 126.011 80.8152C125.924 81.1618 125.292 81.1699 125.21 80.8152C124.439 77.4862 124.573 74.144 123.148 70.9251C122.452 69.3574 121.628 67.8567 120.68 66.4161C118.607 63.8968 115.783 62.0213 112.036 61.4462L111.888 61.4423C114.419 63.0181 115.314 66.2249 116.073 68.7062C117.407 73.0687 117.603 77.5194 116.599 81.9498C116.523 82.2664 116.007 82.2995 115.837 82.0387C112.734 77.2352 110.785 72.007 110.37 66.5197C109.979 66.3684 109.442 66.4202 108.652 66.7911C106.614 67.736 104.764 69.9978 103.286 72.007C102.622 63.8264 115.807 56.7575 115.614 56.4175C111.706 56.0547 108.346 56.2741 103.616 59.0103C97.0601 62.8027 94.1756 68.2713 94.4631 67.0898C96.4686 58.8785 102.537 52.0972 109.974 47.0237C104.302 46.9451 98.1842 49.0352 92.79 51.9336C96.5629 47.7145 105.645 38.2943 104.401 38.6737C94.4372 41.7004 83.2551 49.3729 76.9394 58.5255C78.5184 52.0599 82.3691 41.0329 91.0225 35.4832C91.0225 35.4832 76.1806 36.4617 65.9152 58.9546C67.9372 50.5051 76.3668 32.5891 82.3408 27.2675C83.0972 26.5937 70.5813 25.9531 59.7574 49.5964C59.9459 41.4744 63.832 22.1573 66.4761 13.9686C66.4761 13.9686 58.1031 22.4848 53.7952 39.8968C53.7928 39.8864 50.6586 52.7231 50.6114 57.9139C49.1197 52.0041 40.2848 27.1597 23.6307 27.1348C23.6307 27.1348 45.262 37.5583 42.526 75.9749C42.526 75.9749 35.2558 48.0586 18.3872 46.3126C18.3872 46.3126 33.816 60.8705 31.6974 79.9155C31.6974 79.9155 26.3502 59.7782 0.333344 59.9101C0.333344 59.9101 19.5892 69.9857 22.3794 89H128.917C128.825 82.6316 130.656 76.0245 134.613 70.8069" fill="#63C338"/>
<path d="M159.369 72.2686C158.69 61.1257 159.095 50.2751 166.09 40.5891L166.196 40.6099C160.792 50.5172 159.668 61.3612 159.614 72.1981L159.369 72.2686Z" fill="#9ED852"/>
<path d="M24.5214 83.2081C24.4672 83.2081 24.4201 83.1831 24.3918 83.1231C20.3149 74.872 13.6009 64.7486 3.67963 61.1522L3.71967 61.0795C14.8098 63.1615 21.7524 74.0589 24.8301 82.8414C24.8843 82.9903 24.6769 83.2081 24.5214 83.2081Z" fill="#9ED852"/>
<path d="M33.4931 70.0439C33.4318 70.0439 33.3776 70.0108 33.3587 69.9314C31.2095 61.975 27.1797 54.0042 21.1186 47.7492L21.1633 47.6999C29.5623 51.0525 32.7248 62.5702 33.7877 69.7597C33.8065 69.8926 33.6298 70.0439 33.4931 70.0439" fill="#9ED852"/>
<path d="M53.7222 53.1538C53.6538 53.1538 53.602 53.115 53.6067 53.017C53.9013 47.8181 54.3089 42.5026 55.6993 37.4256C56.8564 33.1986 58.0088 28.3496 60.8744 24.7382L60.9993 24.761C59.887 26.8113 59.5594 29.2493 58.876 31.453C58.0512 34.1169 57.2547 36.7975 56.6019 39.4987C55.5202 43.9578 54.7897 48.4425 53.9979 52.945C53.979 53.0551 53.8306 53.1538 53.7222 53.1538" fill="#9ED852"/>
<path d="M70.2349 55.8075C70.0841 55.8075 69.9757 55.7186 70.0558 55.5046C72.3936 49.2756 76.6661 43.7398 82.6802 39.8013L82.7438 39.8759C77.5828 44.2112 73.48 49.7849 70.6898 55.5428C70.612 55.7022 70.3975 55.8075 70.2349 55.8075Z" fill="#9ED852"/>
<path d="M80.0502 73.5845C79.9347 73.5845 79.8522 73.527 79.8946 73.3755C82.4233 63.8183 89.0501 51.8835 100.92 49.271L100.923 49.3958C90.6243 53.1725 84.0328 64.6476 80.4885 73.3384C80.4366 73.4703 80.2104 73.5845 80.0502 73.5845" fill="#9ED852"/>
<path d="M97.5903 67.2015C97.4254 67.2015 97.3076 67.119 97.3594 66.88C98.1182 63.3705 102.544 60.3831 106.201 59.2695L106.223 59.4048C102.716 61.2041 100.586 64.1649 98.2125 66.9304C98.1041 67.0583 97.8048 67.2015 97.5903 67.2015" fill="#9ED852"/>
<path d="M177.411 68.3896C177.29 68.3896 177.192 68.3231 177.161 68.1573C176.4 64.0612 176.383 60.0987 177.262 56.0068C177.965 52.7247 178.891 48.6328 181.205 45.9256L181.332 45.9498C179.692 49.0806 179.126 53.4196 178.662 56.8216C178.153 60.5345 177.929 64.0563 178.045 67.8048C178.052 68.0656 177.677 68.3896 177.411 68.3896Z" fill="#9ED852"/>
<path d="M197.352 72.9254C197.289 72.9254 197.239 72.8945 197.235 72.8135C196.841 67.7053 196.092 62.6012 195.029 57.5658C194.041 52.8891 192.691 47.5258 190.167 43.2695L190.271 43.1868C193.81 46.9103 195.255 52.4762 196.052 57.1593C196.923 62.2861 197.868 67.49 197.663 72.6889C197.661 72.8031 197.48 72.9254 197.352 72.9254Z" fill="#9ED852"/>
<path d="M215.067 71.5431C214.902 71.5431 214.775 71.4475 214.791 71.2029C215.413 60.6755 220.777 47.8724 232.027 42.6752L232.06 42.7683C222.024 48.8296 217.72 61.0115 215.755 71.0329C215.703 71.2976 215.333 71.5431 215.067 71.5431" fill="#9ED852"/>
</g>
</svg>
