<svg width="237" height="189" viewBox="0 0 237 189" fill="none" xmlns="http://www.w3.org/2000/svg">
<g clip-path="url(#clip0_38_3357)">
<path d="M0 188.12H237V159.738C232.26 160.248 227.239 161.549 223.212 162.382C216.351 163.801 209.537 165.748 202.254 165.674C190.139 165.549 178.165 165.814 166.24 163.412C155.469 161.243 144.343 162.61 133.548 163.846C125.619 164.754 117.672 163.614 109.751 163.169C101.565 162.71 94.1326 164.414 86.1438 166.319C75.5746 168.837 65.595 166.873 55.2741 163.975C45.3251 161.182 39.755 164.22 35.5895 164.487C25.6601 165.121 17.5203 163.539 11.0382 161.957C6.59334 160.872 2.92774 159.787 0 159.416V188.12Z" fill="url(#paint0_radial_38_3357)"/>
<path d="M57.8303 160.492C57.8875 162.916 58.5258 164.182 58.5232 166.257C58.521 168.223 57.5617 170.762 58.9043 172.293C63.6131 177.661 68.8871 174.94 74.4348 174.746C78.4796 174.239 81.9376 172.966 85.7786 171.517C86.8037 171.125 88.5894 170.209 89.6129 168.863C90.4611 167.747 90.6323 166.659 90.054 163.712C89.04 158.545 85.1845 155.378 82.0014 152.996C79.6178 151.211 76.8952 149.368 74.2901 148.145C73.1341 147.603 72.079 147.107 70.6987 147.873C69.4183 148.585 67.9792 149.844 66.4362 150.136C61.3195 151.107 57.6271 151.879 57.8303 160.492Z" fill="#3C4367"/>
<path d="M72.8669 150.806C72.7389 150.824 72.1979 151.221 72.2194 151.601C72.2393 151.957 73.0302 151.632 73.1345 151.605C73.338 151.553 74.3126 151.404 74.0294 150.796C73.8945 150.506 73.07 150.414 72.9004 150.865" fill="#B2C4E2"/>
<path d="M78.1081 151.385C77.4142 151.504 76.5572 151.43 75.9707 152.417C76.2238 153.271 76.8931 153.122 77.3987 153.117C78.2876 153.11 78.962 153.826 79.7497 154.743C80.6048 155.738 81.7854 155.397 82.8532 155.479C83.4842 155.528 84.1112 155.545 84.7425 155.396C84.9385 155.349 85.4826 155.366 85.5679 155.019C85.9847 153.321 81.3841 152.552 80.9452 152.397C80.3198 152.176 79.8044 151.431 79.2201 151.288C78.8564 151.198 78.4608 151.47 78.1081 151.385Z" fill="#B2C4E2"/>
<path d="M89.8832 159.414C88.5465 157.871 86.2359 158.835 84.8562 158.946C83.591 159.047 81.7487 158.977 80.5425 158.261C79.7317 157.78 79.2071 156.849 78.3634 156.803C77.6571 156.763 76.9645 157.244 76.2607 157.599C74.6722 158.4 73.2524 158.287 71.734 158.897C70.3136 159.467 69.262 159.157 67.8611 159.138C67.0373 159.126 66.4259 159.006 65.7913 158.306C64.7624 157.172 63.8824 157.777 62.4512 157.666C60.8207 157.539 59.9716 154.684 58.3922 153.818C58.1163 155.178 57.7378 156.78 57.351 158.356C56.9759 159.882 55.8339 162.949 55.7002 164.59C55.54 166.553 55.9129 169.656 56.5449 171.04C57.4982 173.127 60.681 174.414 62.9679 175.077C66.0043 175.958 68.8502 175.808 71.8253 174.352C74.3616 173.111 77.3155 172.039 79.8217 170.992C82.3671 169.928 85.6665 171.752 87.7691 171.702C88.8088 171.677 91.8139 169.003 91.3055 165.242C91.09 163.65 88.8685 160.55 89.8832 159.414Z" fill="#B2C4E2"/>
<g opacity="0.529999">
<mask id="mask0_38_3357" style="mask-type:alpha" maskUnits="userSpaceOnUse" x="-10355" y="-12133" width="20710" height="24642">
<path d="M-10354.7 -12132.3H10354.4V12508.9H-10354.7V-12132.3Z" fill="url(#paint1_linear_38_3357)"/>
</mask>
<g mask="url(#mask0_38_3357)">
<path d="M60.9461 150.263C60.462 152.104 60.0025 153.683 61.2542 155.203C62.3893 156.581 64.338 156.702 65.6084 156.693C67.1546 156.68 70.9083 158.231 71.892 157.82C73.2682 157.245 74.4674 158.166 75.8423 158.044C80.4563 157.636 85.0841 158.321 89.7463 156.709C87.9771 156.938 86.5585 158.772 84.8445 158.78C84.9811 159.837 85.3751 161.54 85.2443 162.516C85.2936 161.408 84.4843 160.054 84.4843 160.054C81.5329 157.857 77.7292 158.904 74.894 159.099C71.461 159.334 65.0882 159.228 64.3655 158.879C63.1098 158.274 61.6979 158.045 60.1498 158.174C58.6456 158.299 59.0795 151.271 60.9461 150.263" fill="url(#paint2_linear_38_3357)"/>
</g>
</g>
<path d="M91.0553 160.856C89.2911 160.168 87.8539 161.656 86.4187 162.768C84.4297 164.308 81.8641 163.629 79.7207 163.718C77.954 163.791 76.1515 163.951 74.7071 164.871C73.3925 165.707 72.3497 167.929 70.1033 166.675C69.3082 166.231 68.9603 165.293 68.382 165.249C67.7525 165.201 66.9464 165.919 66.2787 166.273C64.9395 166.983 63.879 167.149 63.0388 166.002C62.1631 164.807 62.0017 162.047 60.9936 160.817C60.0276 159.638 57.9926 159.406 56.6328 159.833C57.2996 162.171 58.7955 163.302 58.501 165.89C57.9648 170.606 59.5833 173.646 63.0723 175.456C66.1909 177.075 69.7898 176.637 73.0354 176.068C76.7933 175.409 81.0514 174.894 84.4692 172.753C85.9409 171.832 87.0424 170.591 88.6246 169.455C89.2604 168.998 90.0305 168.273 90.2318 166.562C90.3851 165.26 89.8599 162.511 91.0553 160.856Z" fill="#B2C4E2"/>
<path d="M13.4726 161.884C12.4589 156.718 8.60306 153.551 5.41999 151.168C3.0364 149.384 0.314064 147.541 -2.29104 146.318C-3.44697 145.775 -4.50209 145.28 -5.88238 146.046C-7.16281 146.758 -8.60188 148.016 -10.1449 148.309C-14.1009 149.06 -17.2031 149.694 -18.3145 153.922V162.039C-18.1754 162.79 -18.0569 163.535 -18.0582 164.43C-18.0591 165.227 -18.2162 166.118 -18.3145 166.998V169.081C-18.2203 169.592 -18.0291 170.064 -17.6768 170.465C-12.968 175.834 -7.69432 173.112 -2.14631 172.919C1.89849 172.412 5.35616 171.138 9.19714 169.69C10.2226 169.298 12.0083 168.382 13.0315 167.035C13.8796 165.92 14.0512 164.832 13.4726 161.884Z" fill="#3C4367"/>
<path d="M1.5261 149.557C0.83216 149.676 -0.0248321 149.602 -0.611328 150.589C-0.358212 151.443 0.311076 151.294 0.816676 151.289C1.70558 151.282 2.37993 151.997 3.16772 152.915C4.02281 153.91 5.20339 153.569 6.27115 153.651C6.9022 153.7 7.52915 153.716 8.16052 153.568C8.35675 153.521 8.90059 153.538 8.98591 153.191C9.40271 151.493 4.80207 150.724 4.36314 150.569C3.73778 150.348 3.22238 149.603 2.6381 149.459C2.27438 149.37 1.87875 149.642 1.5261 149.557Z" fill="#B2C4E2"/>
<path d="M14.7246 163.414C14.5094 161.823 12.2876 158.723 13.3023 157.586C11.9656 156.044 9.65502 157.008 8.27537 157.119C7.0101 157.22 5.16782 157.15 3.96165 156.434C3.15079 155.953 2.62623 155.023 1.78251 154.976C1.07625 154.936 0.383898 155.417 -0.32015 155.772C-1.90868 156.572 -3.32847 156.46 -4.84685 157.069C-6.26727 157.64 -7.31892 157.33 -8.71975 157.311C-9.54356 157.299 -10.155 157.179 -10.7895 156.48C-11.8184 155.345 -12.6985 155.95 -14.1297 155.838C-15.7602 155.711 -16.6093 152.857 -18.1887 151.991C-18.2282 152.187 -18.2708 152.389 -18.3145 152.594V171.139C-16.9326 172.133 -15.0878 172.822 -13.613 173.25C-10.5766 174.131 -7.73067 173.981 -4.75553 172.525C-2.21931 171.284 0.734973 170.212 3.24085 169.165C5.78623 168.101 9.08559 169.925 11.1883 169.875C12.2279 169.85 15.2331 167.176 14.7246 163.414Z" fill="#B2C4E2"/>
<g opacity="0.529999">
<mask id="mask1_38_3357" style="mask-type:alpha" maskUnits="userSpaceOnUse" x="-10355" y="-12133" width="20710" height="24642">
<path d="M-10354.7 -12132.3H10354.4V12508.9H-10354.7V-12132.3Z" fill="url(#paint3_linear_38_3357)"/>
</mask>
<g mask="url(#mask1_38_3357)">
<path d="M-15.635 148.435C-16.1191 150.277 -16.5782 151.856 -15.3269 153.375C-14.1915 154.754 -12.2427 154.875 -10.9727 154.865C-9.4265 154.853 -5.67242 156.404 -4.68871 155.993C-3.31285 155.417 -2.11331 156.339 -0.738396 156.217C3.8752 155.808 8.50302 156.493 13.1656 154.881C11.396 155.11 9.9778 156.945 8.2635 156.953C8.40001 158.01 8.79438 159.712 8.66355 160.688C8.71253 159.581 7.90326 158.226 7.90326 158.226C4.95182 156.029 1.14844 157.077 -1.68671 157.271C-5.12005 157.506 -11.4928 157.4 -12.2152 157.052C-13.471 156.447 -14.8832 156.217 -16.4313 156.346C-17.9354 156.471 -17.5016 149.443 -15.635 148.435" fill="url(#paint4_linear_38_3357)"/>
</g>
</g>
<path d="M14.4753 159.028C12.7111 158.34 11.2739 159.828 9.83862 160.939C7.84971 162.48 5.28411 161.801 3.14068 161.89C1.37392 161.964 -0.428538 162.123 -1.87297 163.043C-3.18753 163.879 -4.23033 166.1 -6.47678 164.847C-7.27183 164.403 -7.61975 163.465 -8.19803 163.421C-8.8275 163.373 -9.63362 164.091 -10.3013 164.445C-11.6405 165.155 -12.701 165.321 -13.5413 164.174C-14.4169 162.979 -14.5784 160.219 -15.5864 158.988C-16.208 158.23 -17.2723 157.865 -18.3145 157.814V161.777C-18.0936 162.437 -17.9763 163.16 -18.079 164.062C-18.6153 168.778 -16.9967 171.818 -13.5075 173.628C-10.3892 175.247 -6.79025 174.809 -3.54461 174.24C0.213257 173.581 4.47136 173.065 7.88921 170.926C9.36114 170.004 10.4624 168.764 12.0446 167.627C12.6804 167.17 13.4505 166.444 13.6518 164.734C13.805 163.432 13.2799 160.683 14.4753 159.028Z" fill="#B2C4E2"/>
<path d="M64.26 165.549C64.3788 167.228 65.3928 168.193 65.8039 169.675C66.1936 171.079 65.9648 172.705 66.2669 174.141C67.5577 180.273 75.5058 176.944 78.9881 177.474H94.6955C96.6013 177.474 99.8918 177.279 101.711 176.557C103.22 175.959 103.804 175.238 103.517 172.89C102.893 167.776 98.1509 165.829 95.1565 164.197C91.5608 162.238 87.893 160.523 84.1673 159.088C82.3408 158.385 80.9267 157.792 79.0532 158.287C77.3152 158.746 75.6227 159.558 73.837 159.606C70.3003 159.7 63.6665 157.153 64.26 165.549Z" fill="#424A71"/>
<path d="M81.8377 161.426C81.6531 161.419 80.9128 161.691 80.9832 162.052C81.0493 162.39 82.1527 162.247 82.3041 162.242C82.5999 162.233 84.08 162.272 83.5921 161.628C83.3595 161.321 82.1053 161.089 81.8905 161.489" fill="#BACDEC"/>
<path d="M89.8946 162.616C88.8856 162.69 87.5688 162.566 86.7842 163.443C87.244 164.266 88.2024 164.16 88.9191 164.179C90.1793 164.21 91.133 164.87 92.1707 165.646C93.2966 166.488 94.7739 166.188 96.0844 166.268C96.8589 166.315 97.6173 166.342 98.3883 166.251C98.6279 166.223 99.2744 166.262 99.41 165.996C100.074 164.692 94.3811 163.797 93.8032 163.646C92.9803 163.433 92.311 162.742 91.4916 162.582C90.9813 162.482 90.4046 162.715 89.8946 162.616Z" fill="#BACDEC"/>
<path d="M103.852 169.698C102.564 168.374 99.8387 168.921 98.2404 168.973C96.7741 169.022 94.6367 168.995 93.1831 168.463C92.2061 168.106 91.5285 167.378 90.4491 167.34C89.5456 167.307 88.682 167.683 87.8029 167.936C85.8184 168.507 83.8422 168.252 81.809 168.32C79.9073 168.382 78.363 167.802 76.4708 167.348C75.3585 167.081 74.5205 166.794 73.6009 166.073C72.1091 164.905 71.1472 165.132 69.4651 164.696C67.5489 164.199 66.5974 161.987 64.9754 161.025C64.5712 161.989 64.0912 163.032 63.6548 164.013C63.232 164.965 62.0426 166.724 62.083 167.801C62.1311 169.089 63.8056 171.524 64.3661 172.736C65.2124 174.566 66.4075 175.742 67.9199 176.766C70.646 178.611 73.7725 177.464 76.699 176.966C80.1153 176.385 83.4497 175.929 86.9083 175.952C90.8928 175.977 94.3283 177.522 98.1617 178.408C100.057 178.846 104.625 177.274 104.647 174.289C104.656 173.026 102.6 170.386 103.852 169.698Z" fill="#BACDEC"/>
<g opacity="0.529999">
<mask id="mask2_38_3357" style="mask-type:alpha" maskUnits="userSpaceOnUse" x="-10355" y="-12133" width="20710" height="24642">
<path d="M-10354.7 -12132.3H10354.4V12508.9H-10354.7V-12132.3Z" fill="url(#paint5_linear_38_3357)"/>
</mask>
<g mask="url(#mask2_38_3357)">
<path d="M68.0374 158.667C67.2667 160.172 66.6416 161.245 68.0184 162.629C69.2673 163.884 71.5851 164.449 73.1373 164.779C75.0273 165.18 78.2297 167.918 78.0069 168.227C79.2033 168.018 80.4647 167.564 81.7904 167.499C83.645 167.407 85.4762 168.359 87.3052 168.264C92.7514 167.98 98.5665 168.929 104.023 167.687C102.027 167.596 100.219 168.879 98.2391 168.848C98.314 169.642 98.6117 170.892 98.3734 171.582C98.5336 170.795 97.7275 169.786 97.7275 169.786C95.3705 167.936 87.7182 169.004 86.1929 169.007C82.726 169.015 77.4823 167.511 76.0932 172.335C76.1305 171.643 76.4714 168.21 76.1061 167.682C75.5361 166.86 72.8469 166.558 71.9005 166.093C70.256 165.286 68.6008 164.771 66.8328 164.503C65.1153 164.242 65.978 159.171 68.0374 158.667" fill="url(#paint6_linear_38_3357)"/>
</g>
</g>
<path d="M104.959 170.951C103.124 170.108 101.351 171.096 99.6488 171.812C97.2902 172.805 94.4958 172.304 92.0301 172.326C89.9969 172.344 87.9161 172.399 85.8984 172.73C84.0627 173.032 81.9165 173.916 80.0963 173.014C79.4523 172.696 79.1992 172.123 78.4531 171.956C77.6407 171.773 76.6917 172.019 75.879 172.068C74.2487 172.165 72.9339 171.982 71.5621 170.882C70.1319 169.736 69.3808 167.684 68.0264 166.554C66.7289 165.47 64.4091 164.852 62.8516 164.848C63.6722 166.539 65.2279 167.301 65.7066 169.407C66.3765 172.353 65.5654 174.794 67.7382 177.105C70.519 180.064 74.7784 179.183 78.2228 179.314C82.867 179.489 87.4165 178.989 92.0143 178.162C94.7233 177.675 97.4081 177.126 100.125 176.721C101.217 176.557 102.509 176.227 103.161 175.017C103.657 174.097 103.452 171.945 104.959 170.951Z" fill="#BACDEC"/>
<path d="M-13.4236 165.815C-13.3048 167.451 -12.2898 168.392 -11.8783 169.836C-11.4887 171.205 -11.7178 172.791 -11.4154 174.19C-10.1239 180.169 -2.1702 176.923 1.31402 177.44H17.0319C18.9386 177.44 22.2313 177.251 24.0521 176.546C25.5613 175.963 26.1456 175.26 25.8593 172.971C25.2349 167.985 20.4895 166.087 17.4929 164.496C13.8946 162.586 10.2246 160.913 6.49673 159.515C4.66899 158.83 3.25394 158.252 1.37911 158.734C-0.360149 159.181 -2.05359 159.973 -3.84026 160.02C-7.37946 160.112 -14.0177 157.629 -13.4236 165.815Z" fill="#424A71"/>
<path d="M4.16352 161.794C3.97897 161.787 3.23795 162.053 3.30842 162.404C3.37478 162.734 4.47888 162.594 4.63025 162.589C4.92634 162.581 6.40743 162.618 5.91921 161.991C5.68664 161.692 4.43148 161.466 4.21629 161.855" fill="#BACDEC"/>
<path d="M12.2275 162.955C11.2179 163.026 9.90018 162.906 9.11523 163.761C9.57533 164.563 10.5341 164.461 11.2514 164.478C12.5126 164.509 13.4669 165.152 14.5052 165.909C15.6318 166.73 17.11 166.438 18.4214 166.515C19.1963 166.561 19.9556 166.588 20.727 166.498C20.9665 166.471 21.6133 166.51 21.7492 166.25C22.4135 164.979 16.7172 164.106 16.1386 163.959C15.3152 163.751 14.6456 163.077 13.8255 162.921C13.3149 162.824 12.7382 163.051 12.2275 162.955Z" fill="#BACDEC"/>
<path d="M26.1926 169.859C24.9039 168.568 22.1768 169.101 20.5772 169.153C19.11 169.2 16.9714 169.173 15.5168 168.655C14.5391 168.306 13.8613 167.597 12.7812 167.559C11.8768 167.527 11.0129 167.894 10.1331 168.142C8.14738 168.698 6.16985 168.449 4.13544 168.515C2.23249 168.576 0.687247 168.01 -1.20622 167.568C-2.31949 167.308 -3.15784 167.028 -4.07803 166.325C-5.57082 165.186 -6.53335 165.407 -8.21637 164.982C-10.1342 164.498 -11.086 162.341 -12.7093 161.403C-13.1134 162.343 -13.5937 163.36 -14.0305 164.316C-14.4539 165.244 -15.6436 166.959 -15.6035 168.01C-15.5552 169.265 -13.88 171.639 -13.3188 172.821C-12.4719 174.605 -11.2759 175.751 -9.76287 176.749C-7.03484 178.548 -3.90644 177.431 -0.977757 176.945C2.44042 176.378 5.77738 175.934 9.23821 175.956C13.2252 175.98 16.6629 177.487 20.4986 178.35C22.3955 178.777 26.9664 177.246 26.9879 174.335C26.9968 173.103 24.9393 170.53 26.1926 169.859Z" fill="#BACDEC"/>
<g opacity="0.529999">
<mask id="mask3_38_3357" style="mask-type:alpha" maskUnits="userSpaceOnUse" x="-10355" y="-12133" width="20710" height="24642">
<path d="M-10354.7 -12132.3H10354.4V12508.9H-10354.7V-12132.3Z" fill="url(#paint7_linear_38_3357)"/>
</mask>
<g mask="url(#mask3_38_3357)">
<path d="M-9.64389 159.106C-10.4149 160.573 -11.0403 161.619 -9.66285 162.967C-8.41307 164.191 -6.09395 164.743 -4.54049 165.064C-2.64923 165.455 0.555323 168.125 0.332543 168.426C1.52923 168.222 2.79165 167.78 4.11822 167.716C5.97377 167.627 7.80658 168.554 9.63653 168.462C15.0866 168.185 20.9051 169.11 26.3656 167.899C24.3681 167.81 22.5587 169.061 20.5777 169.031C20.6526 169.805 20.9506 171.024 20.712 171.696C20.8722 170.93 20.0658 169.946 20.0658 169.946C17.7069 168.142 10.0499 169.183 8.52358 169.187C5.05453 169.194 -0.19265 167.728 -1.58242 172.431C-1.54513 171.756 -1.20417 168.409 -1.56978 167.895C-2.14016 167.093 -4.83121 166.799 -5.77827 166.345C-7.42368 165.559 -9.07983 165.057 -10.8491 164.795C-12.5678 164.541 -11.7045 159.597 -9.64389 159.106" fill="url(#paint8_linear_38_3357)"/>
</g>
</g>
<path d="M27.3015 171.08C25.4658 170.258 23.6915 171.222 21.9883 171.92C19.6277 172.889 16.8318 172.4 14.3644 172.422C12.33 172.44 10.2476 172.493 8.22867 172.816C6.39177 173.11 4.24391 173.972 2.4228 173.093C1.77816 172.782 1.52505 172.224 0.778342 172.06C-0.0344102 171.883 -0.98399 172.122 -1.79737 172.17C-3.42857 172.265 -4.74439 172.087 -6.11678 171.015C-7.54794 169.897 -8.29971 167.896 -9.65503 166.794C-10.9535 165.737 -13.2748 165.135 -14.833 165.132C-14.012 166.78 -12.4554 167.523 -11.976 169.576C-11.3058 172.448 -12.1176 174.828 -9.94354 177.081C-7.16084 179.965 -2.89864 179.107 0.547977 179.234C5.19539 179.406 9.74768 178.917 14.3486 178.112C17.0593 177.637 19.7456 177.102 22.4648 176.706C23.5572 176.547 24.85 176.225 25.5022 175.046C25.9989 174.148 25.7938 172.05 27.3015 171.08Z" fill="#BACDEC"/>
<path d="M247.615 160.689C245.505 159.907 242.554 160.682 240.573 160.629C238.787 160.581 237.095 159.768 235.357 159.31C233.483 158.815 232.069 159.408 230.243 160.111C226.517 161.545 222.849 163.261 219.254 165.22C216.259 166.852 211.517 168.799 210.893 173.913C210.607 176.26 211.19 176.981 212.698 177.58C214.518 178.303 217.809 178.497 219.714 178.497H235.422C238.578 178.016 245.404 180.707 247.615 176.647V160.689Z" fill="#424A71"/>
<path d="M232.573 162.448C232.758 162.441 233.498 162.714 233.428 163.074C233.361 163.413 232.258 163.269 232.107 163.265C231.811 163.255 230.331 163.294 230.818 162.651C231.051 162.344 232.305 162.112 232.52 162.511" fill="#BACDEC"/>
<path d="M224.516 163.639C225.525 163.712 226.842 163.588 227.627 164.465C227.167 165.289 226.209 165.183 225.492 165.201C224.232 165.233 223.278 165.892 222.24 166.669C221.114 167.511 219.637 167.21 218.326 167.291C217.552 167.338 216.794 167.365 216.022 167.273C215.783 167.245 215.136 167.285 215.001 167.018C214.337 165.715 220.03 164.819 220.608 164.669C221.43 164.455 222.1 163.764 222.919 163.604C223.43 163.505 224.006 163.737 224.516 163.639Z" fill="#BACDEC"/>
<path d="M247.614 163.712C246.837 164.572 246.052 165.431 244.945 165.718C243.263 166.153 242.301 165.927 240.809 167.095C239.89 167.816 239.052 168.103 237.94 168.37C236.047 168.824 234.503 169.404 232.601 169.341C230.568 169.274 228.592 169.529 226.607 168.958C225.728 168.705 224.865 168.328 223.961 168.361C222.881 168.4 222.204 169.127 221.227 169.485C219.774 170.016 217.636 170.044 216.17 169.995C214.572 169.942 211.846 169.396 210.558 170.72C211.811 171.408 209.755 174.047 209.764 175.31C209.785 178.296 214.353 179.868 216.248 179.43C220.082 178.544 223.517 176.999 227.502 176.973C230.96 176.951 234.295 177.407 237.711 177.988C240.638 178.486 243.764 179.633 246.49 177.788C246.887 177.519 247.262 177.238 247.614 176.939V163.712Z" fill="#BACDEC"/>
<g opacity="0.529999">
<mask id="mask4_38_3357" style="mask-type:alpha" maskUnits="userSpaceOnUse" x="-10355" y="-12133" width="20710" height="24642">
<path d="M-10354.7 -12132.3H10354.4V12508.9H-10354.7V-12132.3Z" fill="url(#paint9_linear_38_3357)"/>
</mask>
<g mask="url(#mask4_38_3357)">
<path d="M247.615 160.695C247.28 160.187 246.86 159.81 246.372 159.691C247.143 161.196 247.768 162.269 246.391 163.652C245.142 164.908 242.824 165.473 241.272 165.803C239.382 166.203 236.18 168.942 236.402 169.25C235.206 169.042 233.945 168.588 232.619 168.523C230.765 168.431 228.933 169.383 227.104 169.287C222.463 169.046 217.555 169.695 212.828 169.125C213.931 169.466 215.022 169.889 216.17 169.871C216.095 170.665 215.798 171.915 216.036 172.605C215.876 171.819 216.682 170.81 216.682 170.81C219.039 168.96 226.691 170.027 228.216 170.031C231.684 170.039 236.927 168.535 238.316 173.358C238.279 172.667 237.938 169.233 238.303 168.706C238.873 167.883 241.562 167.582 242.509 167.117C244.154 166.31 245.808 165.795 247.576 165.526C247.59 165.524 247.602 165.52 247.615 165.517V160.695Z" fill="url(#paint10_linear_38_3357)"/>
</g>
</g>
<g opacity="0.529999">
<mask id="mask5_38_3357" style="mask-type:alpha" maskUnits="userSpaceOnUse" x="-10355" y="-12133" width="20710" height="24642">
<path d="M-10354.7 -12132.3H10354.4V12508.9H-10354.7V-12132.3Z" fill="url(#paint11_linear_38_3357)"/>
</mask>
<g mask="url(#mask5_38_3357)">
<path d="M210.387 168.711C211.193 168.895 212.009 169.026 212.829 169.125C212.03 168.877 211.225 168.673 210.387 168.711Z" fill="url(#paint12_linear_38_3357)"/>
</g>
</g>
<path d="M247.615 166.81C247.154 167.031 246.732 167.287 246.384 167.578C245.029 168.709 244.278 170.761 242.848 171.907C241.476 173.006 240.161 173.19 238.531 173.092C237.718 173.043 236.769 172.797 235.957 172.98C235.211 173.147 234.957 173.72 234.313 174.039C232.494 174.941 230.347 174.056 228.512 173.755C226.494 173.423 224.413 173.369 222.38 173.35C219.914 173.328 217.12 173.829 214.761 172.836C213.059 172.12 211.286 171.132 209.451 171.974C210.958 172.969 210.753 175.121 211.249 176.042C211.901 177.251 213.193 177.582 214.285 177.744C217.002 178.15 219.687 178.699 222.395 179.186C226.993 180.013 231.543 180.514 236.187 180.338C239.631 180.208 243.891 181.088 246.672 178.129C247.083 177.691 247.387 177.249 247.615 176.799V166.81Z" fill="#BACDEC"/>
<path d="M221.902 173.314C218.376 173.471 214.887 174.221 211.694 175.509C210.501 175.99 209.15 176.982 209.675 178.018C210.037 178.731 211.083 178.94 211.984 179.05C219.809 180.006 227.736 180.406 235.632 180.095C238.128 179.997 244.699 178.59 242.348 177.869C235.429 175.747 229.977 172.271 223.252 173.043C222.586 173.12 221.923 173.227 221.252 173.238" fill="#D3D2D9"/>
<path d="M135.939 176.845C132.413 177.002 128.924 177.752 125.731 179.04C124.538 179.521 123.187 180.513 123.712 181.549C124.074 182.262 125.12 182.471 126.021 182.581C133.846 183.537 141.773 183.937 149.669 183.626C152.165 183.528 158.736 182.121 156.384 181.4C149.466 179.278 144.014 175.802 137.289 176.574C136.623 176.651 135.96 176.758 135.289 176.769" fill="#D3D2D9"/>
<path d="M224.719 176.656C224.96 177.776 224.701 178.428 224.939 179.381C225.165 180.285 226.06 181.347 225.387 182.197C223.027 185.179 219.387 184.502 215.862 185.018C213.251 185.226 210.922 185.018 208.332 184.771C207.64 184.703 206.408 184.477 205.608 183.969C204.946 183.549 204.714 183.068 204.743 181.65C204.793 179.165 206.866 177.289 208.604 175.846C209.905 174.766 211.414 173.623 212.919 172.776C213.587 172.401 214.196 172.058 215.155 172.26C216.045 172.447 217.097 172.868 218.104 172.835C221.446 172.723 223.865 172.675 224.719 176.656Z" fill="#3C4367"/>
<path d="M214.123 173.845C214.206 173.839 214.592 173.963 214.622 174.139C214.65 174.305 214.114 174.242 214.045 174.241C213.91 174.239 213.278 174.277 213.388 173.966C213.44 173.819 213.95 173.687 214.108 173.875" fill="#B2C4E2"/>
<path d="M210.88 174.682C211.332 174.661 211.865 174.533 212.348 174.923C212.285 175.343 211.846 175.347 211.526 175.401C210.964 175.494 210.62 175.896 210.227 176.404C209.8 176.955 209.016 176.927 208.352 177.081C207.959 177.172 207.565 177.248 207.149 177.249C207.02 177.249 206.679 177.316 206.585 177.165C206.128 176.43 208.945 175.575 209.205 175.456C209.574 175.287 209.815 174.888 210.167 174.758C210.387 174.677 210.667 174.759 210.88 174.682Z" fill="#B2C4E2"/>
<path d="M204.36 179.656C205.028 178.802 206.597 178.993 207.481 178.894C208.291 178.802 209.446 178.569 210.126 178.108C210.583 177.799 210.808 177.314 211.335 177.2C211.777 177.105 212.269 177.251 212.754 177.337C213.848 177.532 214.731 177.325 215.759 177.44C216.721 177.547 217.35 177.29 218.232 177.128C218.751 177.033 219.123 176.911 219.444 176.521C219.964 175.887 220.589 176.069 221.48 175.861C222.495 175.625 222.705 174.221 223.603 173.651C223.932 174.245 224.354 174.941 224.778 175.622C225.189 176.284 226.26 177.568 226.532 178.308C226.856 179.193 226.975 180.66 226.734 181.365C226.37 182.428 224.508 183.367 223.14 183.921C221.323 184.657 219.509 184.898 217.465 184.553C215.722 184.259 213.735 184.089 212.033 183.881C210.305 183.67 208.43 184.868 207.097 185.074C206.438 185.176 204.235 184.275 204.127 182.49C204.082 181.735 205.131 180.069 204.36 179.656Z" fill="#B2C4E2"/>
<g opacity="0.529999">
<mask id="mask6_38_3357" style="mask-type:alpha" maskUnits="userSpaceOnUse" x="-10355" y="-12133" width="20710" height="24642">
<path d="M-10354.7 -12132.3H10354.4V12508.9H-10354.7V-12132.3Z" fill="url(#paint13_linear_38_3357)"/>
</mask>
<g mask="url(#mask6_38_3357)">
<path d="M221.586 172.294C222.102 173.088 222.572 173.763 221.955 174.599C221.395 175.356 220.179 175.624 219.376 175.758C218.398 175.921 216.205 177.043 215.537 176.961C214.603 176.847 213.951 177.401 213.069 177.495C210.109 177.811 207.266 178.63 204.139 178.398C205.282 178.31 206.387 178.998 207.47 178.815C207.504 179.316 207.449 180.142 207.643 180.576C207.486 180.072 207.843 179.361 207.843 179.361C209.455 178.03 211.976 178.096 213.788 177.876C215.982 177.61 219.994 176.866 220.41 176.628C221.134 176.213 221.999 175.953 222.991 175.843C223.955 175.737 222.879 172.554 221.586 172.294" fill="url(#paint14_linear_38_3357)"/>
</g>
</g>
<path d="M203.785 180.446C204.82 179.938 205.898 180.465 206.93 180.819C208.362 181.311 209.904 180.718 211.267 180.526C212.391 180.367 213.547 180.244 214.564 180.509C215.489 180.75 216.401 181.657 217.677 180.836C218.128 180.546 218.241 180.076 218.601 179.993C218.993 179.902 219.583 180.144 220.045 180.235C220.972 180.415 221.66 180.376 222.06 179.757C222.476 179.112 222.264 177.826 222.76 177.15C223.235 176.503 224.493 176.175 225.4 176.223C225.246 177.37 224.431 178.053 224.912 179.21C225.789 181.319 225.113 182.893 223.117 184.106C221.333 185.19 219.011 185.381 216.897 185.473C214.45 185.58 211.702 185.808 209.3 185.197C208.266 184.934 207.429 184.483 206.301 184.134C205.847 183.993 205.278 183.744 204.956 182.979C204.711 182.397 204.728 181.077 203.785 180.446Z" fill="#B2C4E2"/>
<path d="M127.619 171.018C125.867 171.016 124.739 172.226 123.402 173.83C122.472 174.947 121.192 175.924 121.865 177.959C122.646 180.32 124.177 180.973 125.733 181.069C128.46 181.236 131.102 180.392 133.835 180.539C135.769 180.643 137.629 181.439 139.266 179.365C140.598 177.676 140.529 175.939 139.506 174.08C137.932 171.219 131.554 170.927 130.356 170.749C129.427 170.611 128.696 170.923 127.619 171.018Z" fill="#616C84"/>
<g opacity="0.529999">
<mask id="mask7_38_3357" style="mask-type:alpha" maskUnits="userSpaceOnUse" x="-10355" y="-12133" width="20710" height="24642">
<path d="M-10354.7 -12132.3H10354.4V12508.9H-10354.7V-12132.3Z" fill="url(#paint15_linear_38_3357)"/>
</mask>
<g mask="url(#mask7_38_3357)">
<path d="M137.128 171.547C135.926 170.981 135.366 173.151 134.192 173.403C133.214 173.615 132.197 174.009 131.21 174.063C129.342 174.164 127.568 173.649 125.668 174.066C127.185 174.045 128.682 174.317 130.185 174.49C129.389 174.889 128.503 175.453 127.618 175.65C126.432 175.915 125.073 175.738 123.953 176.457C127.037 176.984 129.774 175.425 132.765 174.725C133.908 174.457 134.808 174.221 135.759 173.13C136.511 172.266 137.103 171.913 137.901 171.243C137.534 171.02 137.016 171.2 137.128 171.547" fill="url(#paint16_linear_38_3357)"/>
</g>
</g>
<path d="M140.656 171.481C139.361 171.677 137.725 171.987 136.518 172.735C135.644 173.277 135.168 174.23 134.475 175.18C132.893 177.352 130.555 177.146 128.605 178.029C126.806 178.844 124.899 180.48 123.017 179.645C121.937 179.166 121.246 178.661 120.189 179.048C120.535 182.238 125.044 182.754 126.62 183.178C128.392 183.654 129.671 183.053 131.32 182.315C132.193 181.924 133.1 182.124 133.991 181.805C135.161 181.386 137.115 182.204 138.329 182.007C139.838 181.762 140.494 179.84 141.971 179.299C142.307 179.176 143.169 178.929 143.38 178.378C143.717 177.496 143.198 177.287 142.858 176.635C142.373 175.706 142.116 174.479 141.599 173.59C141.032 172.615 140.321 172.568 140.656 171.481Z" fill="#A4B5D0"/>
<path d="M141.584 173.4C140.487 172.69 139.74 173.486 139 174.658C138.122 176.048 137.446 176.243 136.176 176.585C133.771 177.233 131.399 176.925 128.988 177.513C126.884 178.025 125.237 177.65 123.615 175.79C121.694 173.586 120.015 174.271 118.49 177.103C119.569 177.481 120.632 178.555 121.336 179.863C121.766 180.662 121.99 181.67 122.556 182.272C123.314 183.079 124.649 183.259 125.524 183.337C127.916 183.549 130.547 183.291 132.936 183.014C134.528 182.829 136.12 182.625 137.688 182.294C139.783 181.851 141.06 181.04 141.502 177.5C141.642 176.374 142.438 172.621 141.584 173.4Z" fill="#A4B5D0"/>
<path d="M142.282 177.267C143.542 177.266 144.353 178.125 145.314 179.264C145.983 180.057 146.904 180.751 146.42 182.195C145.858 183.871 144.757 184.335 143.638 184.403C141.677 184.522 139.777 183.922 137.812 184.027C136.421 184.1 135.084 184.666 133.907 183.193C132.949 181.994 132.998 180.761 133.734 179.441C134.866 177.41 139.453 177.203 140.314 177.077C140.982 176.978 141.507 177.2 142.282 177.267Z" fill="#616C84"/>
<path d="M132.027 177.645C132.996 177.511 134.231 177.395 135.246 177.758C135.981 178.021 136.513 178.733 137.199 179.392C138.768 180.897 140.404 180.171 141.979 180.476C143.432 180.758 145.126 181.725 146.309 180.562C146.988 179.894 147.383 179.297 148.218 179.383C148.607 182.221 145.476 183.724 144.43 184.46C143.254 185.287 142.216 185.067 140.886 184.816C140.182 184.683 139.571 185.069 138.869 185.003C137.946 184.915 136.708 186.081 135.797 186.195C134.666 186.337 133.812 184.83 132.645 184.709C132.379 184.681 131.711 184.671 131.45 184.243C131.033 183.56 131.363 183.258 131.477 182.615C131.639 181.699 131.578 180.578 131.772 179.689C131.984 178.714 132.485 178.505 132.027 177.645Z" fill="#A4B5D0"/>
<path d="M132.238 178.959C133.027 178.455 133.564 179.02 134.096 179.852C134.727 180.839 135.213 180.977 136.127 181.22C137.856 181.68 139.562 181.461 141.296 181.879C142.809 182.243 143.993 181.976 145.159 180.656C146.541 179.091 147.748 179.578 148.844 181.588C148.069 181.856 147.304 182.619 146.798 183.548C146.489 184.115 146.328 184.831 145.921 185.258C145.375 185.831 144.416 185.959 143.786 186.014C142.066 186.165 140.174 185.981 138.456 185.784C137.312 185.653 136.168 185.509 135.04 185.274C133.533 184.959 132.615 184.384 132.297 181.87C132.196 181.07 131.624 178.406 132.238 178.959Z" fill="#A4B5D0"/>
<g opacity="0.529999">
<mask id="mask8_38_3357" style="mask-type:alpha" maskUnits="userSpaceOnUse" x="-10355" y="-12133" width="20710" height="24642">
<path d="M-10354.7 -12132.3H10354.4V12508.9H-10354.7V-12132.3Z" fill="url(#paint17_linear_38_3357)"/>
</mask>
<g mask="url(#mask8_38_3357)">
<path d="M135.403 178.708C136.486 179.002 137.022 180.317 138.173 180.521C138.558 180.589 138.971 180.495 139.36 180.524C139.817 180.558 140.184 180.765 140.619 180.898C141.701 181.231 142.73 180.725 143.822 180.851C144.702 180.953 144.919 180.75 145.711 180.333C145.187 180.314 144.699 180.484 144.162 180.417C143.67 180.356 143.171 180.155 142.674 180.225C141.377 180.408 140.213 180.191 138.905 180.15C138.502 180.138 137.828 180.191 137.49 179.837C137.252 179.588 137.264 179.171 137.051 178.898C136.426 178.099 135.03 178.65 134.306 178.968C134.907 178.513 135.434 178.93 135.403 178.708" fill="url(#paint18_linear_38_3357)"/>
</g>
</g>
<path d="M24.7447 171.42C26.0043 171.418 26.8161 172.277 27.7767 173.416C28.4457 174.209 29.3665 174.903 28.8824 176.347C28.3206 178.024 27.22 178.488 26.101 178.556C24.1402 178.674 22.2398 178.075 20.2749 178.179C18.8842 178.253 17.5462 178.819 16.3698 177.346C15.412 176.147 15.4613 174.914 16.1969 173.594C17.3285 171.562 21.9153 171.356 22.7764 171.229C23.4444 171.131 23.9699 171.353 24.7447 171.42Z" fill="#616C84"/>
<path d="M14.4905 171.798C15.4584 171.665 16.6943 171.548 17.7086 171.911C18.444 172.174 18.9758 172.887 19.6615 173.545C21.2308 175.05 22.8667 174.324 24.4416 174.63C25.8946 174.912 27.589 175.878 28.7721 174.715C29.4512 174.048 29.8459 173.45 30.6807 173.536C31.0697 176.374 27.9385 177.877 26.8928 178.613C25.7167 179.441 24.679 179.221 23.3489 178.97C22.6449 178.837 22.0343 179.222 21.3319 179.156C20.4085 179.068 19.1708 180.234 18.2604 180.348C17.1288 180.49 16.2749 178.983 15.1079 178.862C14.8422 178.835 14.1745 178.824 13.9131 178.397C13.4957 177.713 13.8259 177.411 13.94 176.768C14.1021 175.852 14.0414 174.731 14.2348 173.842C14.4472 172.867 14.9484 172.659 14.4905 171.798Z" fill="#A4B5D0"/>
<path d="M14.7031 173.112C15.4918 172.607 16.029 173.173 16.5612 174.005C17.1919 174.991 17.6782 175.129 18.5915 175.373C20.3213 175.832 22.0264 175.614 23.7606 176.031C25.2736 176.395 26.458 176.128 27.624 174.808C29.0056 173.243 30.2127 173.73 31.3092 175.74C30.5331 176.008 29.7693 176.771 29.2628 177.7C28.9541 178.267 28.7923 178.983 28.3856 179.41C27.8402 179.983 26.8805 180.111 26.251 180.166C24.5313 180.317 22.6391 180.134 20.921 179.936C19.7768 179.806 18.6322 179.661 17.5044 179.426C15.9977 179.111 15.0794 178.536 14.7622 176.022C14.6611 175.223 14.0888 172.558 14.7031 173.112Z" fill="#A4B5D0"/>
<g opacity="0.529999">
<mask id="mask9_38_3357" style="mask-type:alpha" maskUnits="userSpaceOnUse" x="-10355" y="-12133" width="20710" height="24642">
<path d="M-10354.7 -12132.3H10354.4V12508.9H-10354.7V-12132.3Z" fill="url(#paint19_linear_38_3357)"/>
</mask>
<g mask="url(#mask9_38_3357)">
<path d="M17.867 172.863C18.9502 173.156 19.4865 174.471 20.6364 174.675C21.0219 174.743 21.435 174.65 21.8236 174.678C22.2812 174.712 22.6481 174.919 23.0826 175.053C24.1655 175.385 25.1941 174.88 26.2856 175.006C27.1656 175.107 27.383 174.904 28.1756 174.488C27.6507 174.468 27.1628 174.639 26.6259 174.572C26.1339 174.51 25.6355 174.309 25.1375 174.379C23.8407 174.562 22.6768 174.345 21.3695 174.305C20.9657 174.292 20.2923 174.346 19.9542 173.992C19.7156 173.742 19.7282 173.325 19.5149 173.052C18.8905 172.253 17.4944 172.804 16.7695 173.122C17.3706 172.668 17.8983 173.084 17.867 172.863Z" fill="url(#paint20_linear_38_3357)"/>
</g>
</g>
<path d="M202.892 162.485C205.019 162.482 206.39 163.693 208.013 165.297C209.142 166.413 210.697 167.391 209.88 169.425C208.931 171.786 207.072 172.44 205.182 172.535C201.871 172.703 198.661 171.859 195.343 172.005C192.994 172.109 190.734 172.906 188.747 170.832C187.13 169.143 187.213 167.406 188.455 165.547C190.367 162.686 198.113 162.394 199.567 162.216C200.696 162.078 201.583 162.39 202.892 162.485Z" fill="#7D8BAA"/>
<g opacity="0.529999">
<mask id="mask10_38_3357" style="mask-type:alpha" maskUnits="userSpaceOnUse" x="-10355" y="-12133" width="20710" height="24642">
<path d="M-10354.7 -12132.3H10354.4V12508.9H-10354.7V-12132.3Z" fill="url(#paint21_linear_38_3357)"/>
</mask>
<g mask="url(#mask10_38_3357)">
<path d="M191.343 163.014C192.804 162.448 193.484 164.616 194.909 164.869C196.097 165.08 197.332 165.475 198.531 165.529C200.799 165.63 202.953 165.115 205.261 165.532C203.419 165.511 201.6 165.783 199.775 165.956C200.742 166.355 201.818 166.919 202.893 167.116C204.332 167.381 205.983 167.204 207.344 167.923C203.598 168.449 200.275 166.891 196.642 166.191C195.254 165.923 194.161 165.687 193.006 164.595C192.093 163.732 191.373 163.378 190.404 162.709C190.85 162.485 191.48 162.666 191.343 163.014" fill="url(#paint22_linear_38_3357)"/>
</g>
</g>
<path d="M187.061 162.947C188.634 163.143 190.621 163.453 192.085 164.2C193.148 164.743 193.726 165.696 194.567 166.645C196.489 168.818 199.328 168.612 201.696 169.495C203.882 170.31 206.198 171.946 208.483 171.111C209.794 170.631 210.634 170.127 211.916 170.514C211.497 173.704 206.021 174.22 204.107 174.643C201.955 175.12 200.401 174.518 198.399 173.78C197.338 173.389 196.237 173.59 195.155 173.271C193.734 172.852 191.361 173.67 189.886 173.473C188.054 173.228 187.258 171.305 185.464 170.765C185.056 170.642 184.009 170.395 183.753 169.843C183.344 168.961 183.974 168.752 184.387 168.101C184.975 167.172 185.288 165.945 185.915 165.056C186.604 164.081 187.469 164.034 187.061 162.947Z" fill="#AFC1DE"/>
<path d="M185.932 164.867C187.264 164.157 188.172 164.954 189.07 166.125C190.136 167.514 190.957 167.71 192.499 168.052C195.421 168.7 198.301 168.392 201.23 168.98C203.784 169.492 205.785 169.117 207.755 167.257C210.087 165.053 212.126 165.738 213.978 168.57C212.667 168.948 211.377 170.022 210.522 171.33C210 172.129 209.727 173.137 209.04 173.739C208.12 174.546 206.498 174.726 205.436 174.804C202.531 175.016 199.335 174.758 196.434 174.481C194.501 174.296 192.568 174.092 190.664 173.761C188.119 173.318 186.568 172.507 186.032 168.967C185.861 167.841 184.895 164.088 185.932 164.867Z" fill="#AFC1DE"/>
<path d="M194.916 168.849C195.835 168.848 196.427 169.483 197.127 170.324C197.615 170.909 198.287 171.422 197.934 172.489C197.524 173.726 196.721 174.069 195.906 174.119C194.476 174.207 193.09 173.764 191.658 173.841C190.643 173.896 189.668 174.313 188.81 173.226C188.112 172.34 188.147 171.429 188.684 170.455C189.509 168.955 192.853 168.802 193.481 168.708C193.968 168.636 194.351 168.8 194.916 168.849Z" fill="#7D8BAA"/>
<g opacity="0.529999">
<mask id="mask11_38_3357" style="mask-type:alpha" maskUnits="userSpaceOnUse" x="-10355" y="-12133" width="20710" height="24642">
<path d="M-10354.7 -12132.3H10354.4V12508.9H-10354.7V-12132.3Z" fill="url(#paint23_linear_38_3357)"/>
</mask>
<g mask="url(#mask11_38_3357)">
<path d="M189.93 169.127C190.56 168.83 190.854 169.968 191.469 170.1C191.982 170.211 192.515 170.418 193.033 170.446C194.012 170.499 194.942 170.229 195.939 170.448C195.143 170.437 194.358 170.579 193.57 170.67C193.987 170.879 194.452 171.175 194.916 171.278C195.538 171.417 196.25 171.324 196.838 171.701C195.221 171.977 193.786 171.16 192.217 170.793C191.618 170.653 191.146 170.529 190.647 169.956C190.253 169.504 189.943 169.319 189.524 168.968C189.717 168.85 189.989 168.945 189.93 169.127" fill="url(#paint24_linear_38_3357)"/>
</g>
</g>
<path d="M188.081 169.091C188.76 169.194 189.618 169.357 190.251 169.749C190.709 170.033 190.959 170.533 191.322 171.03C192.152 172.17 193.378 172.061 194.4 172.525C195.343 172.952 196.343 173.81 197.33 173.372C197.896 173.121 198.258 172.856 198.812 173.059C198.631 174.732 196.267 175.002 195.441 175.224C194.512 175.474 193.841 175.159 192.976 174.772C192.519 174.567 192.043 174.672 191.576 174.504C190.962 174.285 189.938 174.714 189.301 174.611C188.51 174.482 188.166 173.474 187.392 173.19C187.216 173.126 186.763 172.997 186.653 172.707C186.477 172.245 186.748 172.135 186.927 171.794C187.181 171.307 187.315 170.663 187.587 170.197C187.884 169.686 188.257 169.661 188.081 169.091Z" fill="#AFC1DE"/>
<path d="M187.595 170.101C188.17 169.728 188.562 170.146 188.95 170.76C189.41 171.489 189.764 171.591 190.431 171.77C191.692 172.11 192.935 171.949 194.199 172.257C195.303 172.526 196.166 172.329 197.016 171.354C198.024 170.198 198.904 170.557 199.703 172.042C199.138 172.24 198.581 172.803 198.211 173.49C197.986 173.908 197.869 174.437 197.571 174.752C197.174 175.175 196.474 175.27 196.015 175.31C194.761 175.422 193.382 175.287 192.129 175.141C191.294 175.044 190.46 174.937 189.638 174.764C188.539 174.532 187.869 174.106 187.638 172.251C187.564 171.66 187.147 169.692 187.595 170.101Z" fill="#AFC1DE"/>
<path d="M181.076 166.96C179.816 166.958 179.005 167.817 178.044 168.956C177.375 169.749 176.454 170.443 176.938 171.887C177.5 173.563 178.601 174.028 179.719 174.096C181.68 174.214 183.581 173.615 185.546 173.719C186.936 173.793 188.274 174.358 189.451 172.886C190.408 171.687 190.359 170.454 189.624 169.133C188.492 167.102 183.905 166.895 183.044 166.769C182.376 166.67 181.85 166.892 181.076 166.96Z" fill="#7D8BAA"/>
<path d="M191.329 167.337C190.361 167.203 189.125 167.087 188.111 167.449C187.375 167.713 186.844 168.425 186.158 169.083C184.589 170.589 182.953 169.862 181.378 170.168C179.925 170.45 178.23 171.417 177.047 170.254C176.368 169.586 175.974 168.988 175.139 169.075C174.75 171.912 177.881 173.415 178.927 174.151C180.103 174.979 181.141 174.759 182.471 174.508C183.174 174.375 183.785 174.761 184.488 174.694C185.411 174.607 186.648 175.772 187.559 175.886C188.69 176.028 189.545 174.521 190.712 174.4C190.977 174.373 191.645 174.362 191.906 173.935C192.323 173.251 191.994 172.95 191.879 172.307C191.717 171.39 191.778 170.269 191.585 169.381C191.372 168.405 190.871 168.197 191.329 167.337Z" fill="#AFC1DE"/>
<path d="M191.118 168.651C190.329 168.146 189.792 168.712 189.26 169.544C188.629 170.53 188.143 170.669 187.229 170.912C185.5 171.372 183.794 171.153 182.06 171.57C180.547 171.934 179.363 171.668 178.197 170.347C176.815 168.782 175.608 169.269 174.512 171.279C175.288 171.548 176.052 172.31 176.558 173.239C176.867 173.806 177.029 174.522 177.435 174.949C177.981 175.522 178.94 175.65 179.57 175.705C181.29 175.856 183.182 175.673 184.9 175.476C186.044 175.345 187.189 175.2 188.316 174.965C189.823 174.65 190.741 174.075 191.059 171.561C191.16 170.762 191.732 168.097 191.118 168.651Z" fill="#AFC1DE"/>
<g opacity="0.529999">
<mask id="mask12_38_3357" style="mask-type:alpha" maskUnits="userSpaceOnUse" x="-10355" y="-12133" width="20710" height="24642">
<path d="M-10354.7 -12132.3H10354.4V12508.9H-10354.7V-12132.3Z" fill="url(#paint25_linear_38_3357)"/>
</mask>
<g mask="url(#mask12_38_3357)">
<path d="M187.953 168.401C186.87 168.695 186.334 170.01 185.183 170.214C184.798 170.282 184.385 170.189 183.996 170.218C183.539 170.251 183.172 170.458 182.737 170.592C181.655 170.924 180.626 170.419 179.534 170.545C178.654 170.646 178.437 170.443 177.645 170.027C178.169 170.008 178.657 170.178 179.194 170.111C179.686 170.049 180.185 169.848 180.682 169.918C181.979 170.101 183.143 169.884 184.451 169.843C184.854 169.831 185.528 169.885 185.866 169.531C186.104 169.281 186.092 168.864 186.305 168.592C186.93 167.792 188.326 168.343 189.051 168.661C188.45 168.207 187.921 168.623 187.953 168.401" fill="url(#paint26_linear_38_3357)"/>
</g>
</g>
</g>
<defs>
<radialGradient id="paint0_radial_38_3357" cx="0" cy="0" r="1" gradientUnits="userSpaceOnUse" gradientTransform="translate(121.69 173.476) rotate(90) scale(20.0232 16.828)">
<stop stop-color="#E4D887"/>
<stop offset="1" stop-color="#E5A363"/>
</radialGradient>
<linearGradient id="paint1_linear_38_3357" x1="80.1294" y1="171.942" x2="64.816" y2="142.847" gradientUnits="userSpaceOnUse">
<stop stop-color="white" stop-opacity="0"/>
<stop offset="0.0068109" stop-color="white" stop-opacity="0"/>
<stop offset="0.832755" stop-color="white"/>
<stop offset="1" stop-color="white"/>
</linearGradient>
<linearGradient id="paint2_linear_38_3357" x1="80.1279" y1="171.944" x2="64.8145" y2="142.849" gradientUnits="userSpaceOnUse">
<stop stop-color="#FDFFFF"/>
<stop offset="0.0068109" stop-color="#FDFFFF"/>
<stop offset="0.832755" stop-color="#B7D6DE"/>
<stop offset="1" stop-color="#B7D6DE"/>
</linearGradient>
<linearGradient id="paint3_linear_38_3357" x1="3.54791" y1="170.114" x2="-11.7656" y2="141.019" gradientUnits="userSpaceOnUse">
<stop stop-color="white" stop-opacity="0"/>
<stop offset="0.0068109" stop-color="white" stop-opacity="0"/>
<stop offset="0.832755" stop-color="white"/>
<stop offset="1" stop-color="white"/>
</linearGradient>
<linearGradient id="paint4_linear_38_3357" x1="3.54699" y1="170.116" x2="-11.7665" y2="141.021" gradientUnits="userSpaceOnUse">
<stop stop-color="#FDFFFF"/>
<stop offset="0.0068109" stop-color="#FDFFFF"/>
<stop offset="0.832755" stop-color="#B7D6DE"/>
<stop offset="1" stop-color="#B7D6DE"/>
</linearGradient>
<linearGradient id="paint5_linear_38_3357" x1="87.2204" y1="179.427" x2="80.8996" y2="151.508" gradientUnits="userSpaceOnUse">
<stop stop-color="white" stop-opacity="0"/>
<stop offset="0.0068109" stop-color="white" stop-opacity="0"/>
<stop offset="0.832755" stop-color="white"/>
<stop offset="1" stop-color="white"/>
</linearGradient>
<linearGradient id="paint6_linear_38_3357" x1="87.2183" y1="179.428" x2="80.8974" y2="151.508" gradientUnits="userSpaceOnUse">
<stop stop-color="#FDFFFF"/>
<stop offset="0.0068109" stop-color="#FDFFFF"/>
<stop offset="0.832755" stop-color="#C0E0E8"/>
<stop offset="1" stop-color="#C0E0E8"/>
</linearGradient>
<linearGradient id="paint7_linear_38_3357" x1="9.51347" y1="179.465" x2="3.29469" y2="151.996" gradientUnits="userSpaceOnUse">
<stop stop-color="white" stop-opacity="0"/>
<stop offset="0.0068109" stop-color="white" stop-opacity="0"/>
<stop offset="0.832755" stop-color="white"/>
<stop offset="1" stop-color="white"/>
</linearGradient>
<linearGradient id="paint8_linear_38_3357" x1="9.51171" y1="179.467" x2="3.29293" y2="151.998" gradientUnits="userSpaceOnUse">
<stop stop-color="#FDFFFF"/>
<stop offset="0.0068109" stop-color="#FDFFFF"/>
<stop offset="0.832755" stop-color="#C0E0E8"/>
<stop offset="1" stop-color="#C0E0E8"/>
</linearGradient>
<linearGradient id="paint9_linear_38_3357" x1="228.091" y1="180.653" x2="234.411" y2="152.733" gradientUnits="userSpaceOnUse">
<stop stop-color="white" stop-opacity="0"/>
<stop offset="0.0068109" stop-color="white" stop-opacity="0"/>
<stop offset="0.832755" stop-color="white"/>
<stop offset="1" stop-color="white"/>
</linearGradient>
<linearGradient id="paint10_linear_38_3357" x1="228.089" y1="180.655" x2="234.41" y2="152.735" gradientUnits="userSpaceOnUse">
<stop stop-color="#FDFFFF"/>
<stop offset="0.0068109" stop-color="#FDFFFF"/>
<stop offset="0.832755" stop-color="#C0E0E8"/>
<stop offset="1" stop-color="#C0E0E8"/>
</linearGradient>
<linearGradient id="paint11_linear_38_3357" x1="210.373" y1="176.642" x2="216.694" y2="148.722" gradientUnits="userSpaceOnUse">
<stop stop-color="white" stop-opacity="0"/>
<stop offset="0.0068109" stop-color="white" stop-opacity="0"/>
<stop offset="0.832755" stop-color="white"/>
<stop offset="1" stop-color="white"/>
</linearGradient>
<linearGradient id="paint12_linear_38_3357" x1="210.372" y1="176.644" x2="216.693" y2="148.724" gradientUnits="userSpaceOnUse">
<stop stop-color="#FDFFFF"/>
<stop offset="0.0068109" stop-color="#FDFFFF"/>
<stop offset="0.832755" stop-color="#C0E0E8"/>
<stop offset="1" stop-color="#C0E0E8"/>
</linearGradient>
<linearGradient id="paint13_linear_38_3357" x1="211.949" y1="184.351" x2="214.963" y2="168.666" gradientUnits="userSpaceOnUse">
<stop stop-color="white" stop-opacity="0"/>
<stop offset="0.0068109" stop-color="white" stop-opacity="0"/>
<stop offset="0.832755" stop-color="white"/>
<stop offset="1" stop-color="white"/>
</linearGradient>
<linearGradient id="paint14_linear_38_3357" x1="211.949" y1="184.351" x2="214.963" y2="168.667" gradientUnits="userSpaceOnUse">
<stop stop-color="#FDFFFF"/>
<stop offset="0.0068109" stop-color="#FDFFFF"/>
<stop offset="0.832755" stop-color="#B7D6DE"/>
<stop offset="1" stop-color="#B7D6DE"/>
</linearGradient>
<linearGradient id="paint15_linear_38_3357" x1="123.954" y1="173.852" x2="137.903" y2="173.852" gradientUnits="userSpaceOnUse">
<stop stop-color="white" stop-opacity="0"/>
<stop offset="0.0068109" stop-color="white" stop-opacity="0"/>
<stop offset="0.832755" stop-color="white"/>
<stop offset="1" stop-color="white"/>
</linearGradient>
<linearGradient id="paint16_linear_38_3357" x1="123.953" y1="173.854" x2="137.901" y2="173.854" gradientUnits="userSpaceOnUse">
<stop stop-color="#FDFFFF"/>
<stop offset="0.0068109" stop-color="#FDFFFF"/>
<stop offset="0.832755" stop-color="#A9C5CC"/>
<stop offset="1" stop-color="#A9C5CC"/>
</linearGradient>
<linearGradient id="paint17_linear_38_3357" x1="134.307" y1="179.748" x2="145.712" y2="179.748" gradientUnits="userSpaceOnUse">
<stop stop-color="white" stop-opacity="0"/>
<stop offset="0.0068109" stop-color="white" stop-opacity="0"/>
<stop offset="0.832755" stop-color="white"/>
<stop offset="1" stop-color="white"/>
</linearGradient>
<linearGradient id="paint18_linear_38_3357" x1="134.306" y1="179.749" x2="145.711" y2="179.749" gradientUnits="userSpaceOnUse">
<stop stop-color="#FDFFFF"/>
<stop offset="0.0068109" stop-color="#FDFFFF"/>
<stop offset="0.832755" stop-color="#A9C5CC"/>
<stop offset="1" stop-color="#A9C5CC"/>
</linearGradient>
<linearGradient id="paint19_linear_38_3357" x1="16.7704" y1="173.901" x2="28.1761" y2="173.901" gradientUnits="userSpaceOnUse">
<stop stop-color="white" stop-opacity="0"/>
<stop offset="0.0068109" stop-color="white" stop-opacity="0"/>
<stop offset="0.832755" stop-color="white"/>
<stop offset="1" stop-color="white"/>
</linearGradient>
<linearGradient id="paint20_linear_38_3357" x1="16.7696" y1="173.904" x2="28.1754" y2="173.904" gradientUnits="userSpaceOnUse">
<stop stop-color="#FDFFFF"/>
<stop offset="0.0068109" stop-color="#FDFFFF"/>
<stop offset="0.832755" stop-color="#A9C5CC"/>
<stop offset="1" stop-color="#A9C5CC"/>
</linearGradient>
<linearGradient id="paint21_linear_38_3357" x1="207.345" y1="165.319" x2="190.406" y2="165.319" gradientUnits="userSpaceOnUse">
<stop stop-color="white" stop-opacity="0"/>
<stop offset="0.0068109" stop-color="white" stop-opacity="0"/>
<stop offset="0.832755" stop-color="white"/>
<stop offset="1" stop-color="white"/>
</linearGradient>
<linearGradient id="paint22_linear_38_3357" x1="207.344" y1="165.32" x2="190.404" y2="165.32" gradientUnits="userSpaceOnUse">
<stop stop-color="#FDFFFF"/>
<stop offset="0.0068109" stop-color="#FDFFFF"/>
<stop offset="0.832755" stop-color="#B6D4DC"/>
<stop offset="1" stop-color="#B6D4DC"/>
</linearGradient>
<linearGradient id="paint23_linear_38_3357" x1="196.839" y1="170.336" x2="189.525" y2="170.336" gradientUnits="userSpaceOnUse">
<stop stop-color="white" stop-opacity="0"/>
<stop offset="0.0068109" stop-color="white" stop-opacity="0"/>
<stop offset="0.832755" stop-color="white"/>
<stop offset="1" stop-color="white"/>
</linearGradient>
<linearGradient id="paint24_linear_38_3357" x1="196.838" y1="170.336" x2="189.524" y2="170.336" gradientUnits="userSpaceOnUse">
<stop stop-color="#FDFFFF"/>
<stop offset="0.0068109" stop-color="#FDFFFF"/>
<stop offset="0.832755" stop-color="#B6D4DC"/>
<stop offset="1" stop-color="#B6D4DC"/>
</linearGradient>
<linearGradient id="paint25_linear_38_3357" x1="189.051" y1="169.441" x2="177.645" y2="169.441" gradientUnits="userSpaceOnUse">
<stop stop-color="white" stop-opacity="0"/>
<stop offset="0.0068109" stop-color="white" stop-opacity="0"/>
<stop offset="0.832755" stop-color="white"/>
<stop offset="1" stop-color="white"/>
</linearGradient>
<linearGradient id="paint26_linear_38_3357" x1="189.05" y1="169.443" x2="177.645" y2="169.443" gradientUnits="userSpaceOnUse">
<stop stop-color="#FDFFFF"/>
<stop offset="0.0068109" stop-color="#FDFFFF"/>
<stop offset="0.832755" stop-color="#B6D4DC"/>
<stop offset="1" stop-color="#B6D4DC"/>
</linearGradient>
<clipPath id="clip0_38_3357">
<rect width="237" height="188" fill="white" transform="translate(0 0.120361)"/>
</clipPath>
</defs>
</svg>
