<svg width="237" height="148" viewBox="0 0 237 148" fill="none" xmlns="http://www.w3.org/2000/svg">
<path d="M174.686 125.61C170.746 129.761 159.902 133.633 156.628 126.941C153.762 121.076 156.628 113.644 156.628 107.578C156.628 102.11 151.696 79.2553 159.517 71.4002C160.804 70.11 165.433 70.782 165.433 70.782C173.953 73.0673 172.232 91.6205 172.935 95.3466C174.903 105.732 184.584 115.188 174.686 125.61ZM135.861 35.8143C134.046 41.5069 124.556 44.602 116.65 39.8205C107.767 34.4531 113.099 6.44879 130.195 9.33926C134.963 10.0608 134.457 16.1928 135.378 19.1845C136.935 24.2396 137.488 30.6903 135.861 35.8143ZM120.261 110.643C111.853 108.996 113.316 99.4368 113.293 95.3466C113.278 91.4977 116.796 85.9645 123.501 85.3614C144.325 85.4066 137.784 114.076 120.261 110.643ZM108.545 51.7786C107.127 56.1251 101.136 63.9974 90.7899 61.0962C84.0994 59.2202 83.7364 50.2774 82.2247 46.4565C79.6728 40.0122 73.6296 12.9103 89.5438 10.9568C89.7122 10.9202 94.0827 10.455 96.9901 16.1928C98.6478 19.4688 99.4485 23.0528 101.016 26.4279C104.609 34.1602 111.149 43.775 108.545 51.7786V51.7786ZM97.2446 119.866C96.7918 125.488 97.4691 134.85 89.0574 138.921C85.7308 140.532 79.7364 141.062 77.0235 138.505C74.8083 136.416 77.2667 132.416 78.0188 130.267C80.0582 124.428 79.8337 94.9956 93.0724 100.335C100.919 103.499 97.4354 117.536 97.2446 119.866ZM57.9849 56.8574C49.6555 62.1645 39.3878 57.0469 37.5917 51.7851C35.6235 46.0257 35.3391 40.5442 32.3868 34.8171C29.1725 28.5731 25.6177 22.2451 26.048 15.6199C26.2351 12.7876 26.759 9.40172 31.6683 7.78634C34.9761 6.69649 40.4542 6.77618 42.2279 8.87618C42.2279 8.87618 51.1972 23.6451 56.2375 30.8174C61.1281 37.7743 68.5145 50.146 57.9849 56.8574V56.8574ZM50.1719 96.9254C40.5553 101.892 30.7665 80.8125 46.8491 81.0451C49.2776 81.0796 52.4918 81.9519 53.6556 85.0362C54.8492 88.2023 54.5573 94.6617 50.1719 96.9254V96.9254ZM217.714 125.684C207.323 110.044 200.558 94.6531 196.049 78.1353C191.809 62.606 190.881 46.4479 195.79 30.9165C199.012 20.7331 202.08 10.5971 204.977 0.560187H185.676C185.264 2.02911 184.782 3.39895 184.378 4.55126C182.196 10.8103 181.414 17.1879 179.292 23.5094C177.799 27.9485 177.309 38.1297 168.793 40.57C158.417 43.5423 150.918 37.0571 149.245 32.4888C147.116 26.6691 146.091 20.9399 143.341 15.1202C141.047 10.2697 138.555 5.37619 136.616 0.560187H119.471C119.355 0.807879 119.232 1.03834 119.105 1.24511C116.519 5.46018 107.097 8.15679 100.698 5.13494C98.0715 3.89433 96.1969 2.28973 94.6103 0.560187H74.61C74.9281 5.49249 76.2901 17.6725 67.7774 19.9426C57.3825 22.7125 51.1485 10.0651 48.6415 0.560187H4.70445C5.55011 1.33773 6.21241 2.0248 6.54918 2.54818C10.2424 8.30326 12.3154 14.2522 14.366 20.1839C19.1069 33.8996 19.2266 47.9383 22.5532 61.7553C28.3643 85.9042 20.8394 109.512 9.72604 132.604C7.2115 137.836 3.95982 142.731 0.352661 147.56H15.597C19.642 141.058 26.078 134.45 28.2183 130.932C31.4812 125.561 34.9612 120.572 38.9051 115.375C40.7386 112.959 43.4515 103.499 48.8734 102.939C48.9408 102.917 48.9932 102.9 49.0194 102.896C61.1954 101.037 46.3776 131.917 44.6975 135.182C43.8406 136.851 41.7003 142.029 38.6394 147.56H50.8641C51.0175 147.448 51.1709 147.338 51.3318 147.228C57.3039 143.171 69.6221 143.58 75.7101 147.56H101.417C102.371 142.772 103.497 138.012 104.627 133.261C106.794 124.176 125.683 110.016 139.139 122.95C146.428 129.959 149.967 138.79 151.247 147.56H171.648C172.77 143.22 175.592 138.503 182.192 136.328C198.174 131.055 207.772 139.421 212.782 147.56H236.824C236.296 147.14 235.795 146.699 235.338 146.229C228.771 139.516 222.489 132.871 217.714 125.684" fill="#7D2D7C"/>
<path d="M70.8083 87.0198C64.8737 87.4743 62.0785 90.9377 59.186 93.4491C57.8652 94.5971 55.3058 95.6438 54.3628 96.8306C52.9933 98.5515 54.49 99.1912 55.8146 100.705C55.8034 100.512 61.0682 102.045 57.3338 122.961C56.8062 125.925 53.4086 131.604 55.8932 134.473C57.7604 136.634 61.3601 136.276 63.8185 134.689C66.0599 133.241 65.9028 131.654 66.1871 129.828C67.4294 121.813 68.3948 113.206 73.8056 105.608C77.0535 101.044 91.0144 85.4734 70.8083 87.0198" fill="#A33EA1"/>
<path d="M48.1213 68.6174C47.4066 64.9645 42.0034 63.0303 38.471 60.2088C34.5159 57.0512 33.8723 53.5189 32.3943 49.9543C31.6272 48.102 31.0846 46.2863 30.3737 44.4663C30.1042 43.7857 30.1304 42.166 29.1426 41.6232C27.8067 40.8909 25.9732 40.8328 25.7599 42.0217V41.5802C23.4063 44.7894 26.5457 49.4525 27.6757 52.7134C29.0939 56.8165 30.2652 61.1198 30.6805 65.2918C31.0659 69.1041 31.5299 72.7592 31.5374 76.6103C31.5448 80.3085 29.1276 84.8875 31.6047 88.3229C34.6693 88.5534 35.3204 85.202 35.7881 83.9269C36.6263 81.6201 37.1726 80.4355 40.7835 79.098C46.9988 76.7977 48.9595 72.9078 48.1213 68.6174Z" fill="#A33EA1"/>
<path d="M37.9809 100.611C33.1913 99.8912 30.5944 97.7654 30.5944 97.7654C25.2174 97.4208 25.7787 106.506 25.2922 108.371C24.252 112.347 22.9536 116.185 21.4194 120.122C20.8282 121.632 16.8768 131.484 23.6458 127.439C28.2446 124.688 29.4644 119.384 31.5187 115.909C33.3335 112.844 35.4963 110.111 38.0782 107.262C39.5487 105.638 44.8959 101.649 37.9809 100.611" fill="#A33EA1"/>
<path d="M140.156 39.2455L139.778 38.9178C139.853 39.1248 139.98 39.2347 140.156 39.2455Z" fill="#A33EA1"/>
<path d="M159.891 57.986C158.944 54.57 155.139 50.9666 152.789 47.7919C150.963 45.3279 149.709 42.9306 148.231 40.471C147.348 39.0063 141.934 36.1029 140.482 39.1851C140.358 39.2346 140.25 39.2519 140.156 39.2454L140.549 39.5836C140.886 43.0448 136.149 45.19 130.832 46.0193C125.469 46.8571 123.909 48.1839 121.282 51.3393C118.311 54.9082 117.975 59.2589 116.186 63.0906C114.614 66.4549 111.015 68.6713 107.808 71.5725C104.481 74.5771 98.6515 81.715 109.061 82.1586C117.335 82.5119 127.913 77.0411 135.561 80.8233C137.713 81.8894 138.63 84.0993 141.683 84.5989C146.087 85.3205 148.796 82.3331 149.896 80.2073C152.007 76.13 148.115 71.3765 152.19 67.7903C156.115 64.3377 161.171 62.5909 159.891 57.986" fill="#A33EA1"/>
<path d="M77.6746 67.7904C76.5296 63.2156 78.5764 58.7615 77.8467 54.2664C77.147 49.9372 76.0993 45.7092 75.4519 41.3584C74.8158 37.1002 69.1095 35.6249 68.1515 40.6929C68.0393 41.2938 67.7399 41.8408 67.7137 42.4547C67.2273 43.523 66.9728 44.6516 66.9766 45.0759C67.0065 47.1587 68.3461 49.1553 68.5182 51.279C68.9448 56.6205 62.6173 59.9762 60.8025 64.859C59.2347 69.0827 59.6762 75.3762 63.2197 79.2704C66.3143 82.6713 73.5062 85.3012 77.3752 80.6144C79.9384 77.5064 78.4978 71.0664 77.6746 67.7904" fill="#A33EA1"/>
<path d="M207.551 123.549C202.537 117.941 199.173 113.219 196.688 106.993C194.196 100.736 190.492 94.6919 187.453 88.5836C186.772 87.2138 186.058 83.7073 182.918 83.4747C178.664 83.1602 179.326 86.6559 179.453 88.1399C179.611 90.0095 180.164 91.991 181.145 93.8089C180.703 97.3175 184.179 101.25 185.605 104.492C187.558 108.935 187.547 112.853 187.925 117.406C188.351 122.545 196.819 126.02 201.321 130.273C203.308 132.149 211.892 141.745 215.297 138.249C218.799 134.652 210.324 126.649 207.551 123.549" fill="#A33EA1"/>
<path d="M195.543 9.87343C194.451 9.09589 192.64 8.85467 191.353 9.20359C186.372 9.01836 185.268 19.2836 184.931 20.6836C183.626 26.0488 181.93 31.0285 179.068 36.271C175.581 42.6528 166.14 53.2648 174.144 59.3042C180.55 64.1374 182.525 58.4836 182.234 55.1042C181.848 50.6565 183.629 46.7796 184.931 42.4654C187.712 33.2664 193.485 24.2654 195.629 15.1934C195.992 13.6534 197.5 11.267 195.543 9.87343" fill="#A33EA1"/>
<path d="M70.0711 90.2592C65.7305 91.0367 65.027 95.1377 64.6641 97.2312C64.3311 99.1481 64.4995 105.584 70.1534 102.995C73.1656 101.614 74.5651 96.3934 75.5455 94.3537C76.6007 92.1567 74.1235 88.7774 70.0711 90.2592Z" fill="#E65AE3"/>
<path d="M31.5823 102.103C31.5673 102.097 31.5523 102.088 31.5374 102.082C31.4663 102.108 31.4101 102.136 31.3428 102.164C31.1594 102.211 30.9686 102.265 30.7666 102.329L30.89 102.357C28.3194 103.613 29.6852 105.429 29.6141 107.208C29.5168 109.603 27.4737 111.897 27.3615 114.268C31.833 114.313 33.1127 108.24 34.1267 106.316C34.8302 104.992 36.1286 101.022 31.5823 102.103" fill="#E65AE3"/>
<path d="M136.613 113.465C120.261 110.643 118.207 115.412 118.207 115.412C116.609 117.538 123.464 116.23 125.14 116.088C128.83 115.78 130.955 115.815 134.001 117.185C138.368 119.155 141.241 125.033 147.801 124.684C150.944 120.196 143.558 114.665 136.613 113.465" fill="#E65AE3"/>
<path d="M144.4 49.3384C144.291 43.3744 137.84 47.023 132.856 48.9507C130.674 49.7929 126.341 50.3809 126.682 52.2224L126.929 52.0544C125.986 53.0021 125.428 54.1781 125.892 55.1043C127.078 57.4843 131.09 56.7261 134.008 57.4886C137.994 58.5289 140.646 65.7766 144.792 60.6461C147.206 57.663 144.459 52.6661 144.4 49.3384Z" fill="#E65AE3"/>
<path d="M70.2507 58.7615C70.2507 52.4076 68.5407 46.4673 69.0945 40.1372C69.3676 37.0292 70.1122 34.2873 68.5182 31.1578C67.7212 29.5962 63.5715 23.5439 61.0046 27.5006L61.9362 27.2852C59.1298 29.4886 65.1543 38.9805 65.6594 40.8027C67.1075 46.0322 67.2572 52.1686 66.3329 57.4325C65.9662 59.5261 60.3722 73.1556 66.1758 73.7587C72.174 74.3833 70.2507 60.8572 70.2507 58.7615" fill="#E65AE3"/>
<path d="M33.1838 3.62087C32.3605 2.62794 24.671 3.16641 23.4474 3.55625C22.0704 3.99564 21.1312 4.71934 20.4203 5.52488C14.7289 7.90272 16.8655 15.1655 18.119 18.1873C19.5596 21.6636 18.9422 29.3593 24.0274 31.5304C27.5784 29.1633 22.2987 23.9876 21.5877 21.2544C20.7645 18.099 19.2378 12.9987 21.2697 9.87564C22.613 7.8058 34.1978 4.84856 33.1838 3.62087" fill="#E65AE3"/>
<path d="M188.711 126.618C184.995 125.518 179.218 127.267 176.003 128.354C169.01 130.721 165.47 134.517 164.303 138.809C163.206 140.16 162.679 141.575 163.726 142.645C166.75 145.738 168.916 141.732 170.08 139.837C173.029 135.04 175.768 131.017 185.231 129.675C188.774 129.175 195.42 128.604 188.711 126.618" fill="#E65AE3"/>
<path d="M118.959 6.3131C115.995 6.85802 112.942 8.01895 110.502 9.20787L111.61 8.80295C106.928 10.7565 104.575 13.102 103.557 16.7463C103.142 18.2454 102.513 20.5565 103.568 22.0792C104.713 23.7312 106.85 24.4808 108.212 22.5122C109.23 21.0346 107.879 18.5685 108.276 16.9682C108.698 15.2709 110.094 13.0632 112.141 11.6977C114.105 10.386 116.691 9.97465 119.277 9.37372C120.785 9.02265 126.637 8.13094 127.449 7.43955C130.143 5.14571 120.968 5.94479 118.959 6.3131" fill="#E65AE3"/>
<path d="M176.071 69.9593C174.335 65.7528 170.518 64.6242 162.888 64.859C156.561 65.055 156.224 68.3913 162.117 67.743C168.928 66.9913 172.224 70.2048 173.654 73.5175C174.162 74.6999 177.605 83.7181 181.773 80.1535C184.254 78.0319 176.995 72.2015 176.071 69.9593Z" fill="#E65AE3"/>
<path d="M199.106 6.7697C198.761 3.86201 193.193 3.32785 191.008 5.88231L191.57 5.738C188.89 8.09 187.233 14.3879 186.78 15.6371C185.736 18.5319 181.878 25.2691 185.134 27.9722C188.625 26.3697 188.838 23.0269 189.485 20.7374C190.282 17.9331 191.981 16.0571 194.38 13.5866C196.093 11.8183 199.349 8.85247 199.106 6.7697" fill="#E65AE3"/>
</svg>
