<svg width="148" height="147" viewBox="0 0 148 147" fill="none" xmlns="http://www.w3.org/2000/svg">
<path d="M73.6378 121.217C67.3952 117.434 61.0932 113.748 54.8324 109.995C50.816 107.586 46.8103 105.159 42.8198 102.707C40.868 101.508 38.9238 100.297 36.9827 99.081C34.3915 97.4553 32.8192 96.9401 32.7674 93.6927C32.6157 84.2249 32.7224 74.7532 32.8443 65.2861C32.8924 61.5578 32.9503 57.8295 33.0029 54.1012C33.0219 52.7705 33.0387 51.4398 33.0509 50.1099C33.0615 49.0026 34.8899 48.4775 35.7724 47.9653C43.0682 43.731 50.345 39.4646 57.6667 35.2759C61.7006 32.9682 65.7498 30.6872 69.8195 28.4435C71.7111 27.4002 73.4724 25.7242 75.5759 26.8972C77.8516 28.1676 80.1135 29.4632 82.3725 30.7642C90.4632 35.423 98.4708 40.2267 106.473 45.0357C109.109 46.6202 111.743 48.2084 114.387 49.7799C115.695 50.5565 114.862 56.4432 114.863 57.9415C114.87 65.091 114.869 72.2405 114.81 79.39C114.778 83.2349 114.722 87.079 114.64 90.9232C114.601 92.7241 114.549 94.5242 114.491 96.3236C114.448 97.703 110.346 99.3607 109.307 99.978C97.3558 107.082 85.1542 113.744 73.0974 120.663C73.5265 120.91 73.9571 121.156 74.387 121.403V121.402C74.387 120.296 72.6722 120.296 72.6722 121.402V121.403C72.6722 122.057 73.4 122.467 73.9624 122.143C80.2904 118.504 86.6754 114.964 93.0216 111.355C97.0921 109.039 101.153 106.704 105.198 104.345C107.177 103.191 109.148 102.025 111.116 100.854C112.369 100.107 115.271 99.0428 116.014 97.7762C116.628 96.7275 116.222 94.3253 116.254 93.1288C116.314 90.879 116.353 88.6299 116.388 86.3802C116.466 81.3547 116.492 76.3285 116.505 71.3023C116.523 64.069 116.454 56.8349 116.502 49.6023C116.51 48.373 112.645 46.8465 111.749 46.3107C108.212 44.1936 104.679 42.0695 101.14 39.9554C92.9393 35.0549 84.713 30.1933 76.3776 25.5269C75.7428 25.1717 74.5683 24.0628 73.7414 24.5079C71.8354 25.5345 69.9361 26.5725 68.0415 27.6197C63.6151 30.0661 59.2214 32.5727 54.8362 35.0923C47.8117 39.127 40.8337 43.2401 33.8282 47.3068C31.3285 48.7579 31.5228 49.0445 31.4916 51.9428C31.4474 56.0392 31.3811 60.1357 31.3292 64.2313C31.1997 74.4064 31.1113 84.5838 31.2828 94.7589C31.2942 95.4426 30.939 97.011 31.7012 97.4782C33.8671 98.8043 36.0437 100.113 38.2272 101.412C42.9166 104.199 47.6433 106.925 52.3776 109.637C59.3777 113.646 66.4327 117.559 73.4221 121.586C73.6614 121.725 73.8748 121.359 73.6378 121.217Z" fill="#B00D3F"/>
<path d="M39.5235 53.5869C45.3644 69.8407 51.2053 86.0945 57.0462 102.348C62.1585 116.574 67.2709 130.8 72.3824 145.026C72.5013 145.356 72.9167 145.344 73.0401 145.026C79.2758 128.971 85.5108 112.916 91.7465 96.8603L108.39 54.0106C108.549 53.5998 107.89 53.4238 107.732 53.8292C101.496 69.8849 95.2606 85.9398 89.0242 101.995C83.4774 116.278 77.9299 130.561 72.3824 144.845H73.0401C67.1992 128.591 61.3583 112.337 55.5174 96.0829C50.4051 81.8571 45.2935 67.6313 40.1812 53.4055C40.0333 52.9947 39.3748 53.1723 39.5235 53.5869Z" fill="#B00D3F"/>
<path d="M72.6107 2.96917C71.1368 8.5502 68.8001 13.9537 66.7911 19.3541C63.3113 28.7099 59.7011 38.017 56.0795 47.3179C50.2592 62.2685 44.3108 77.2176 39.0315 92.3709C38.745 93.1947 40.0292 93.5285 40.3272 92.7275C45.8213 77.9439 51.7118 63.2997 57.2951 48.548C60.842 39.1761 64.2434 29.7433 67.5937 20.3006C69.5904 14.6708 71.7739 8.94117 73.0733 3.09644C73.1396 2.79617 72.69 2.66889 72.6107 2.96917Z" fill="#B00D3F"/>
<path d="M73.1377 3.64422C74.4714 9.27936 76.7074 14.7857 78.7446 20.1892C82.2786 29.561 85.9512 38.8803 89.6323 48.1957C95.4633 62.9512 101.889 77.4811 107.62 92.2739C107.928 93.068 109.214 92.7373 108.915 91.9164C103.495 77.0207 97.1308 62.4527 91.1588 47.7742C87.4648 38.6981 83.6687 29.6646 80.0448 20.5596C77.8148 14.9587 75.2228 9.33652 73.6003 3.51694C73.5172 3.21819 73.0668 3.34394 73.1377 3.64422Z" fill="#B00D3F"/>
<path d="M72.6874 2.99C72.1715 5.38841 70.2738 7.77234 68.9881 9.80721C67.2261 12.5981 65.4877 15.3997 63.654 18.1441C61.8874 20.7909 60.1162 23.4241 58.4578 26.1426C52.6855 35.6013 47.0786 45.1621 41.4548 54.7093C30.7059 72.9553 20.5917 91.5587 10.1666 109.986C9.72077 110.774 10.88 111.436 11.3692 110.69C23.096 92.7758 33.5272 73.8683 44.0453 55.2321C49.4358 45.6834 54.8164 36.1256 60.354 26.6616C62.0017 23.8448 63.6662 21.0478 65.3596 18.2592C67.2512 15.1421 69.078 11.9815 70.7082 8.72041C71.5702 6.99572 72.7682 4.98982 73.003 3.03268C73.0243 2.85206 72.7248 2.81472 72.6874 2.99Z" fill="#B00D3F"/>
<path d="M72.7223 3.17248C78.6943 14.0983 87.7544 23.1546 94.3994 33.6902C99.6077 41.9478 104.406 50.4691 109.173 58.9859C118.739 76.0757 127.497 93.6457 137.324 110.582C137.639 111.124 138.433 110.647 138.157 110.095C129.435 92.5711 119.845 75.4134 110.309 58.322C105.552 49.7969 100.729 41.2947 95.5486 33.018C88.9395 22.4573 80.9151 12.5603 73.1849 2.81505C72.97 2.54449 72.5683 2.88973 72.7223 3.17248Z" fill="#B00D3F"/>
<path d="M10.5731 111.119C28.3367 112.535 46.3328 112.309 64.1421 112.403C75.9115 112.465 87.6818 112.424 99.4513 112.277C105.619 112.199 111.788 112.081 117.956 111.932C124.091 111.783 130.455 112.013 136.542 111.211C137.111 111.136 137.144 110.334 136.542 110.3C130.406 109.953 124.103 110.579 117.956 110.723C111.789 110.868 105.619 110.964 99.4513 111.036C87.6818 111.173 75.9115 111.177 64.1421 111.102C46.3076 110.987 28.4007 110.109 10.5731 110.584C10.2241 110.593 10.2325 111.092 10.5731 111.119Z" fill="#B00D3F"/>
<path d="M72.8019 144.451C72.2044 139.47 68.0691 134.105 65.5755 129.919C63.8523 127.027 62.0903 124.166 60.4037 121.251C54.8303 111.615 49.3178 101.946 43.8443 92.2517C33.3239 73.6162 22.8957 54.7087 11.1682 36.7942C10.6789 36.0473 9.51972 36.7104 9.96556 37.4977C20.2504 55.6781 30.4156 73.918 40.8232 92.0314C46.3974 101.733 52.1727 111.335 57.9855 120.896C59.6057 123.561 61.2984 126.176 63.0566 128.752C64.8743 131.413 66.599 134.14 68.284 136.886C69.6993 139.192 71.9057 141.794 72.4864 144.494C72.5237 144.669 72.8232 144.632 72.8019 144.451Z" fill="#B00D3F"/>
<path d="M72.9843 144.669C80.5697 135.106 88.4211 125.389 94.9693 115.068C100.325 106.624 105.231 97.8873 110.108 89.1617C119.657 72.0795 129.235 54.9119 137.957 37.3892C138.231 36.8374 137.438 36.3603 137.123 36.9029C127.464 53.5485 118.836 70.8121 109.46 87.623C104.66 96.2304 99.7935 104.812 94.5836 113.179C87.8678 123.964 78.6103 133.173 72.5217 144.311C72.367 144.594 72.7694 144.939 72.9843 144.669Z" fill="#B00D3F"/>
<path d="M10.3722 36.9005C28.1991 37.3753 46.1082 36.5073 63.9411 36.3823C75.7106 36.3 87.4809 36.3205 99.2503 36.4478C105.418 36.5149 111.587 36.6223 117.755 36.761C123.904 36.8998 130.203 37.5308 136.341 37.184C136.943 37.1497 136.91 36.348 136.341 36.2725C130.253 35.4708 123.892 35.707 117.755 35.5523C111.588 35.3968 105.418 35.2894 99.2503 35.2071C87.4809 35.0501 75.7106 35.0257 63.9411 35.0806C46.1333 35.1652 28.1343 34.948 10.3722 36.3647C10.0315 36.3922 10.0232 36.8914 10.3722 36.9005Z" fill="#B00D3F"/>
<path d="M73.6631 112.5C66.9884 108.466 60.2489 104.539 53.5735 100.507C49.6082 98.1134 45.6619 95.6875 41.7476 93.2106C39.6015 91.8533 40.1837 89.4099 40.1616 87.1479C40.1357 84.4432 40.1388 81.7376 40.1464 79.0329C40.17 70.8697 40.3392 62.7082 40.423 54.5458C40.4406 52.8257 45.7015 50.7741 47.0947 49.9609C51.1774 47.5808 55.2631 45.2075 59.3618 42.8556C63.4064 40.5342 67.4678 38.2432 71.5558 36.0003C74.1615 34.5706 75.0852 35.1871 77.5537 36.5848C79.9117 37.9193 82.2545 39.2805 84.5957 40.647C91.8771 44.8966 99.0822 49.2765 106.322 53.5985C108.369 54.8209 107.439 58.752 107.441 60.9644C107.446 65.5638 107.446 70.1633 107.424 74.7627C107.401 79.4055 107.344 84.0476 107.237 88.689C107.171 91.5126 107.195 92.5758 104.672 94.0932C102.37 95.4764 100.052 96.8307 97.7317 98.1805C89.6204 102.899 81.3956 107.416 73.2576 112.085C73.58 112.27 73.9024 112.455 74.2248 112.64V112.639C74.2248 111.81 72.939 111.81 72.939 112.639V112.64C72.939 113.13 73.4847 113.437 73.9062 113.195C80.6685 109.309 87.4933 105.531 94.2572 101.648C98.2743 99.3419 102.273 97.0037 106.241 94.6145C106.791 94.2837 108.334 93.8135 108.363 92.9713C108.449 90.4136 108.51 87.8552 108.555 85.2967C108.717 76.3365 108.677 67.3746 108.664 58.4144C108.662 56.9305 109.407 54.0039 107.935 53.1366C104.921 51.3617 101.931 49.5463 98.9305 47.7492C90.807 42.8807 82.6676 38.0314 74.3818 33.4426C73.0999 32.7323 67.2437 37.0322 65.9732 37.744C61.5514 40.224 57.1608 42.7588 52.7763 45.3035C49.4496 47.234 46.1313 49.1789 42.8092 51.1163C40.5061 52.4584 39.2867 52.4705 39.2616 55.1448C39.1831 63.5008 39.0253 71.8536 39.0078 80.2096C39.0032 82.5226 39.0139 84.8357 39.0329 87.1479C39.0436 88.5213 38.504 91.643 39.1991 92.8296C39.9071 94.0391 42.8573 95.1304 44.0599 95.8499C46.4019 97.2514 48.7591 98.6278 51.1179 99.9996C58.5448 104.319 66.0609 108.482 73.5007 112.777C73.6806 112.881 73.8399 112.607 73.6631 112.5Z" fill="#B00D3F"/>
<path d="M118.131 73.4009C123.071 72.321 127.883 70.8142 132.744 69.418C136.86 68.2367 142.027 67.1042 145.396 64.3789C146.057 63.8446 145.309 63.0345 144.666 63.1252C140.154 63.7631 135.296 66.3307 130.963 67.861C126.515 69.4325 122.168 70.8859 118.048 73.205C117.938 73.2668 118.015 73.426 118.131 73.4009Z" fill="#B00D3F"/>
<path d="M118.048 73.3902C122.309 76.1567 126.951 77.9789 131.611 79.9643C135.564 81.6493 139.82 84.2863 144.014 85.1459C144.707 85.2885 145.332 84.4341 144.744 83.8923C141.831 81.2065 137.282 79.962 133.625 78.5162C128.565 76.5179 123.356 74.6873 118.13 73.1943C118.01 73.16 117.948 73.3254 118.048 73.3902Z" fill="#B00D3F"/>
<path d="M146.599 73.3436C141.969 72.5548 137.392 72.6317 132.704 72.6554C128.007 72.679 122.561 71.8872 117.989 72.836C117.209 72.9976 117.341 74.0554 117.989 74.2825C121.978 75.6833 127.226 74.9791 131.401 74.7261C136.472 74.4189 141.533 74.1979 146.571 73.5539C146.679 73.5402 146.73 73.3657 146.599 73.3436Z" fill="#B00D3F"/>
<path d="M29.8652 73.2049C25.7466 70.8865 21.3987 69.427 16.9502 67.8616C12.6114 66.3351 7.76204 63.7637 3.24646 63.125C2.60322 63.0343 1.85634 63.8452 2.51634 64.3787C5.62809 66.8953 10.1612 67.8395 13.923 69.0566C19.1184 70.7371 24.4526 72.2362 29.7828 73.4008C29.8979 73.4267 29.9749 73.2666 29.8652 73.2049Z" fill="#B00D3F"/>
<path d="M29.7825 73.1941C24.9385 74.5781 20.2506 76.382 15.5072 78.077C11.5175 79.5014 6.30378 81.002 3.1684 83.892C2.58157 84.4339 3.20575 85.2882 3.89852 85.1465C8.08639 84.2876 12.3596 81.659 16.3028 79.9648C20.9587 77.9642 25.6008 76.1587 29.8648 73.39C29.9647 73.3252 29.9022 73.1598 29.7825 73.1941Z" fill="#B00D3F"/>
<path d="M1.34205 73.5543C6.38197 74.1983 11.4402 74.4025 16.5121 74.7264C20.6787 74.9916 25.9426 75.6814 29.924 74.2829C30.5725 74.055 30.7044 72.9979 29.924 72.8364C25.746 71.9691 20.8014 72.6634 16.5121 72.6603C11.396 72.6565 6.37054 72.4827 1.31385 73.3439C1.18353 73.366 1.23306 73.5406 1.34205 73.5543Z" fill="#B00D3F"/>
<path d="M96.299 111.874C99.6996 115.615 103.405 119.03 107.04 122.545C110.116 125.52 113.68 129.439 117.721 130.998C118.51 131.302 118.853 130.26 118.451 129.744C115.649 126.153 111.001 123.227 107.508 120.234C103.926 117.163 100.496 114.119 96.4294 111.706C96.3211 111.642 96.219 111.786 96.299 111.874Z" fill="#B00D3F"/>
<path d="M96.2678 111.798C96.0071 116.661 96.6786 121.372 97.2631 126.194C97.8004 130.632 97.5886 135.978 99.0434 140.177C99.2736 140.842 100.306 140.942 100.49 140.177C101.455 136.169 100.139 131.183 99.4725 127.143C98.6228 121.992 97.7379 116.831 96.4781 111.769C96.4477 111.648 96.2739 111.681 96.2678 111.798Z" fill="#B00D3F"/>
<path d="M110.557 136.514C108.93 132.106 106.576 128.177 104.217 124.126C101.854 120.07 99.8239 114.958 96.7228 111.474C96.1817 110.865 95.3411 111.523 95.4684 112.203C96.2465 116.356 99.4764 120.551 101.778 124.041C104.574 128.28 107.29 132.553 110.361 136.596C110.428 136.685 110.603 136.638 110.557 136.514Z" fill="#B00D3F"/>
<path d="M53.4381 111.705C49.3722 114.118 45.9366 117.159 42.3584 120.234C38.8671 123.234 34.2212 126.151 31.4158 129.743C31.0142 130.259 31.3579 131.301 32.1459 130.998C35.8781 129.559 38.9616 126.095 41.892 123.444C45.9396 119.782 49.8996 115.909 53.5677 111.874C53.6485 111.786 53.5456 111.641 53.4381 111.705Z" fill="#B00D3F"/>
<path d="M53.3887 111.769C52.1266 116.841 51.321 121.997 50.3943 127.142C49.6741 131.141 48.4219 136.208 49.3769 140.177C49.5613 140.941 50.594 140.842 50.8241 140.177C52.1563 136.33 51.9452 131.479 52.4581 127.422C53.1166 122.212 53.881 117.055 53.599 111.798C53.5929 111.681 53.4192 111.647 53.3887 111.769Z" fill="#B00D3F"/>
<path d="M39.5063 136.597C42.5792 132.552 45.2794 128.273 48.0894 124.041C50.3978 120.564 53.6224 116.348 54.399 112.203C54.5263 111.523 53.6856 110.866 53.1445 111.473C50.3117 114.657 48.446 119.286 46.3052 122.998C43.7483 127.43 41.087 131.701 39.3105 136.514C39.2647 136.638 39.4393 136.685 39.5063 136.597Z" fill="#B00D3F"/>
<path d="M96.4293 34.7109C100.495 32.298 103.931 29.2571 107.508 26.1827C111 23.1822 115.646 20.2656 118.452 16.673C118.853 16.157 118.51 15.1152 117.721 15.4185C113.989 16.8574 110.906 20.3212 107.975 22.9727C103.927 26.6347 99.9678 30.5078 96.299 34.5425C96.2189 34.6309 96.3211 34.7749 96.4293 34.7109Z" fill="#B00D3F"/>
<path d="M96.4784 34.6469C97.7405 29.5749 98.546 24.4192 99.4728 19.2741C100.193 15.2752 101.445 10.2078 100.49 6.23946C100.306 5.47505 99.2739 5.57412 99.0429 6.23946C97.7107 10.0859 97.9218 14.9376 97.4089 18.9944C96.7505 24.2042 95.9861 29.3615 96.268 34.6179C96.2734 34.7353 96.4479 34.7688 96.4784 34.6469Z" fill="#B00D3F"/>
<path d="M110.361 9.81985C107.288 13.8644 104.588 18.1438 101.778 22.3758C99.4696 25.8519 96.245 30.0687 95.4684 34.2131C95.3411 34.893 96.1818 35.5507 96.7221 34.9433C99.5557 31.7591 101.421 27.13 103.561 23.4184C106.118 18.9859 108.78 14.7157 110.557 9.90216C110.602 9.77793 110.428 9.73144 110.361 9.81985Z" fill="#B00D3F"/>
<path d="M53.568 34.5422C50.1674 30.8017 46.4619 27.3859 42.8274 23.8717C39.7507 20.8964 36.187 16.9768 32.1462 15.4182C31.3574 15.1149 31.0137 16.1567 31.4161 16.6727C34.2192 20.2631 38.8659 23.1889 42.3587 26.1825C45.9414 29.2531 49.371 32.2978 53.4384 34.7107C53.5459 34.7747 53.648 34.6306 53.568 34.5422Z" fill="#B00D3F"/>
<path d="M53.5993 34.6182C53.86 29.7551 53.1878 25.0444 52.604 20.2225C52.0667 15.7839 52.2786 10.4383 50.8237 6.23978C50.5935 5.57444 49.5616 5.47537 49.3772 6.23978C48.4123 10.247 49.7277 15.2336 50.3946 19.2736C51.2444 24.4233 52.1292 29.5852 53.389 34.6472C53.4195 34.7684 53.5932 34.7356 53.5993 34.6182Z" fill="#B00D3F"/>
<path d="M39.3101 9.9024C40.9373 14.3105 43.2907 18.2393 45.6503 22.2907C48.0128 26.346 50.0431 31.4583 53.1442 34.9435C53.6853 35.5509 54.526 34.8932 54.3987 34.2134C53.6205 30.0606 50.3907 25.8651 48.0891 22.3753C45.2928 18.1364 42.5781 13.8632 39.506 9.82009C39.4389 9.73093 39.2644 9.77818 39.3101 9.9024Z" fill="#B00D3F"/>
<path d="M100.229 73.5729C86.8039 87.33 62.0486 86.9573 48.5689 73.5409C47.2131 72.1912 58.9193 66.1811 60.0915 65.7268C64.6863 63.9458 69.6561 63.3056 74.5573 63.3703C83.9406 63.4953 93.3757 67.2221 99.7196 74.2169C100.427 74.9965 101.586 73.8358 100.873 73.0646C87.0821 58.1498 60.9755 58.4127 46.9776 72.8093C46.7307 73.063 46.736 73.4563 46.9776 73.7108C60.7781 88.2392 86.6629 88.698 100.364 73.7086C100.447 73.6179 100.316 73.4837 100.229 73.5729Z" fill="#B00D3F"/>
<path d="M80.5274 80.4881C90.8237 70.2253 76.1795 56.2769 66.2505 66.2097C56.3094 76.1463 70.2639 90.7851 80.5274 80.4881Z" fill="#B00D3F"/>
<path d="M80.2274 0.628139C58.9664 -2.19248 35.8619 6.98578 20.8298 21.9905C6.49346 36.3009 -2.21914 58.705 0.562609 78.9889C0.704364 80.0209 2.20346 79.6703 2.27357 78.758C3.09667 68.0624 4.15297 58.0694 7.91253 47.9225C11.2019 39.0468 16.491 30.9904 22.9477 24.1084C37.2452 8.86898 59.5761 1.01911 80.2274 1.29804C80.6725 1.30414 80.6412 0.683012 80.2274 0.628139Z" fill="#B00D3F"/>
<path d="M67.6844 1.29792C88.2122 1.02127 109.729 8.74464 124.278 23.3965C130.916 30.0818 136.077 38.184 139.604 46.9004C143.794 57.2531 144.793 67.7536 145.64 78.7579C145.71 79.6702 147.209 80.0207 147.35 78.9888C150.163 58.4824 141.286 36.5759 127.083 21.9903C112.336 6.84618 88.7137 -2.16212 67.6844 0.628017C67.2706 0.68289 67.2394 1.30402 67.6844 1.29792Z" fill="#B00D3F"/>
<path d="M80.2275 144.943C59.7004 145.22 38.1841 137.496 23.6352 122.844C16.9971 116.16 11.836 108.057 8.30889 99.3402C4.1195 88.9875 3.12035 78.487 2.27363 67.4827C2.20351 66.5704 0.704419 66.2198 0.562664 67.2517C-2.24957 87.7582 6.62688 109.665 20.8298 124.25C35.5769 139.394 59.1982 148.403 80.2275 145.613C80.6413 145.558 80.6725 144.937 80.2275 144.943Z" fill="#B00D3F"/>
<path d="M67.6844 145.613C88.9462 148.433 112.051 139.256 127.083 124.25C141.419 109.94 150.133 87.5357 147.35 67.2517C147.209 66.2198 145.71 66.5704 145.64 67.4827C144.817 78.1783 143.76 88.1713 140 98.3182C136.712 107.194 131.422 115.251 124.965 122.132C110.667 137.372 88.3365 145.222 67.6844 144.943C67.2394 144.937 67.2706 145.558 67.6844 145.613Z" fill="#B00D3F"/>
</svg>
