<svg width="236" height="103" viewBox="0 0 236 103" fill="none" xmlns="http://www.w3.org/2000/svg">
<path d="M147.48 9.4097C147.957 7.6061 148.962 5.98479 150.357 4.69039C151.747 3.4019 153.093 1.40569 154.904 0.647062C157.254 -0.337388 159.482 0.526773 161.568 1.88316C164.617 3.41518 167.381 5.52725 169.78 7.86292C172.026 10.0488 175.625 13.5357 176.195 16.6543C177.312 22.7485 168.281 22.7448 164.16 20.7626C164.053 21.2128 163.942 21.6622 163.838 22.1131C163.787 22.333 163.583 22.502 163.365 22.564C154.722 25.0236 145.096 18.4269 147.48 9.4097" fill="#949294"/>
<path d="M154.636 22.5426C154.706 22.2732 154.981 22.0976 155.262 22.0887C155.524 22.0814 155.779 22.0865 156.035 22.0917C156.98 22.5699 158.102 22.8179 159.075 22.919C160.121 23.0282 160.978 22.8747 161.695 22.5072C161.936 22.4275 162.167 22.3138 162.384 22.1529C162.452 22.0548 162.527 21.9581 162.602 21.8622C163.029 21.4585 163.391 20.9523 163.705 20.3575C163.879 20.4172 164.053 20.477 164.235 20.5361C164.421 20.4726 164.631 20.4741 164.785 20.5855C164.885 20.6586 164.983 20.7272 165.079 20.7929C166.736 21.2696 170.162 21.4474 172.062 20.2217C174.951 18.3583 176.127 14.8227 176.491 16.5488C176.897 18.4823 177.02 19.9472 176.291 23.0828C174.989 28.673 172.36 37.3424 170.966 42.4883C170.349 44.7665 168.184 52.4606 168.184 52.4606C168.57 52.3336 169.105 52.6377 169.015 53.152C168.475 56.2206 165.175 57.3791 162.45 58.3281C157.74 59.9672 152.863 60.9773 147.885 61.5028C147.563 61.5377 147.196 61.19 147.234 60.883C148.837 47.9554 151.345 35.1758 154.636 22.5426" fill="#949294"/>
<path d="M143.074 25.7056C143.522 21.1744 143.581 16.4005 144.651 11.9572C145.666 7.73971 148.845 5.79664 151.811 2.81525C152.12 2.5053 152.525 2.74957 152.584 3.07354C152.966 2.76802 153.356 2.47431 153.75 2.19757C153.894 2.09573 154.069 2.31786 153.94 2.43299C151.283 4.80039 148.742 8.09764 148.273 11.5115C149.821 14.7829 151.698 17.813 153.811 20.7641C154.929 21.3774 156.124 21.8349 157.441 22.1515C158.209 22.3353 157.875 23.3913 157.119 23.2644C154.853 22.8843 155.129 24.9912 154.921 26.4701C154.688 28.1224 154.451 29.7748 154.205 31.4254C153.689 34.9057 153.091 38.3756 152.491 41.844C151.434 47.9525 150.241 54.0361 149.054 60.122C149.704 60.1924 150.502 60.6919 151.542 59.3892C152.026 58.7827 156.465 57.9393 157.508 57.2604C158.651 56.5163 160.45 54.1586 161.381 53.099C161.565 52.8894 162.935 50.3978 164.349 50.1854C163.84 51.5861 163.331 52.986 162.83 54.3895C162.896 54.4922 162.925 54.6227 162.898 54.7651C162.748 55.5579 162.395 56.2362 161.895 56.8213C161.861 56.9975 162.002 57.0891 162.325 57.0929C162.755 57.2742 163.168 57.2907 163.565 57.1483C163.986 56.8484 164.386 56.5178 164.775 56.1511C164.962 56.0079 165.18 56.013 165.352 56.0958C166.034 55.3549 166.555 54.4751 166.97 53.527C167.365 52.2915 168.65 50.6224 169.047 49.3878C170.134 52.5602 170.405 57.0595 170.078 60.1791C167.968 61.8203 165.4 60.7375 163.756 60.5936C163.66 60.6181 163.553 60.6291 163.43 60.6173C161.908 60.4763 160.274 60.278 158.762 60.6011C157.533 60.8632 156.462 61.5251 155.257 61.8542C153.77 62.2601 150.008 62.3685 147.84 62.2587C146.143 60.2586 143.903 58.8958 141.298 58.163C141.264 55.9917 142.02 36.3537 143.074 25.7056" fill="#656269"/>
<path d="M153.117 2.17168C155.674 0.609399 158.045 0.503869 160.813 1.6551C164.218 3.07052 169.497 6.44969 171.453 9.51964C169.497 11.0561 161.468 5.61135 158.544 6.35596C152.636 7.85994 154.893 14.56 155.393 18.2114L149.046 12.1372C149.358 12.4538 149.101 4.62321 153.117 2.17168" fill="#A19BA0"/>
<path d="M154.991 0.362913C157.657 -0.516008 161.405 1.02045 163.707 3.0779C160.39 1.7562 155.033 0.851451 152.636 3.68673C150.378 6.35596 149.998 9.73143 149.935 11.2206C149.866 12.822 150.268 12.6604 152.636 13.6884C154.364 14.4382 154.337 15.1843 155.041 17.6365C155.282 18.4778 156.942 19.37 157.258 19.8719C158.173 21.3264 158.343 20.8482 159.16 20.9035C159.826 20.9478 160.149 21.7308 160.699 21.8717C161.145 22.0998 163.004 21.3899 163.379 19.6106C165.648 20.8799 166.487 20.9271 167.92 20.4755C168.988 20.1397 170.096 19.8453 171.026 19.2593C171.799 18.7738 172.775 17.9288 173.099 17.1192C173.822 15.3127 173.937 13.3121 172.184 10.2805C173.329 11.293 175.853 14.0891 176.291 15.7097C176.704 17.2373 176.999 19.0438 175.762 20.2216C173.888 22.0083 171.236 21.871 170.256 22.2548C169.342 22.6127 168.829 22.8599 168.193 23.5543C165.913 27.7017 165.624 33.2181 164.05 36.8858C163.819 37.4237 163.195 37.4473 163.118 36.8858C162.781 34.4444 162.989 32.0218 163.668 29.7422C164.029 27.4102 164.699 24.9683 166.119 23.3802C165.676 22.8953 165.233 22.4097 164.79 21.9249C164.632 21.981 164.472 22.0304 164.312 22.0821C164.341 22.4142 164.224 22.7662 163.916 23.0938C163.764 23.2569 163.574 24.2546 163.239 24.1927C162.379 24.5919 161.325 24.0724 160.389 23.8399C160.166 23.7846 158.408 22.9248 157.867 24.7063C157.6 25.5867 155.839 28.1061 155.667 29.1996C154.63 35.7566 152.997 42.0271 151.408 47.8696C151.356 48.0622 150.822 46.0853 151.193 44.4286C152.928 36.6606 154.237 28.7444 153.117 20.7744C152.932 19.4615 148.306 14.464 148.152 10.5853C148.007 6.92198 151.557 1.49496 154.991 0.362913Z" fill="#BBB4B8"/>
<path d="M149.564 14.6751C150.416 14.3902 151.616 14.6972 152.636 14.9223C152.29 15.3289 151.226 16.565 150.833 16.9288C149.638 23.972 148.566 30.3274 147.509 37.3911C146.4 44.8034 146.169 52.7025 145.609 60.1687C144.863 59.6999 143.841 59.1407 143.346 58.8741C144.064 44.1746 148.868 17.669 149.564 14.6751Z" fill="#534F56"/>
<path d="M163.349 23.9742C163.589 23.0828 163.751 21.6895 163.62 21.3618C163.494 21.2268 166.119 22.868 166.438 23.0828C165.895 25.2509 164.948 30.7427 164.555 33.6563C164.16 36.5906 163.81 40.974 162.587 43.5474C161.115 39.1077 162.985 23.7285 163.349 23.9742" fill="#534F56"/>
<path d="M160.248 58.0713C161.064 56.5495 161.455 56.1453 161.8 55.4745C162.368 54.3719 163.204 51.6221 164.036 51.0473C164.509 52.6849 165.479 55.3777 165.598 57.3924C165.655 58.3385 165.115 60.086 165.545 60.1692C165.958 60.2491 166.603 60.1546 167.297 60.06C168.302 59.9236 169.413 59.787 170.078 60.1791C168.135 62.6282 163.483 61.1569 160.866 60.7856C159.609 60.6077 158.306 61.0476 156.797 61.4872C155.47 61.8741 153.984 62.2606 152.23 62.2275C154.597 60.1687 159.06 60.2852 160.248 58.0713" fill="#534F56"/>
<path d="M146.08 25.2664C145.748 22.1499 135.066 19.2364 131.367 18.2719C127.231 17.193 123.018 16.292 118.752 15.8293C114.628 15.382 110.456 15.3068 106.324 15.7126C102.456 16.0927 97.7172 16.7288 94.2941 18.6343C93.0664 19.3184 92.2724 20.2091 91.8286 21.195C94.4251 28.6292 103.592 31.1789 111.12 32.9463C118.469 34.671 126.368 36.3285 133.666 34.1605C134.936 33.5536 138.812 32.1539 140.113 31.6992C141.163 34.1656 137.355 36.2723 136.171 36.995C131.29 39.9734 130.997 45.9429 130.675 50.936C130.468 54.1623 129.788 57.3009 129.525 60.514C129.348 62.6769 129.276 64.8516 129.211 67.0251C132.404 66.1453 135.448 64.879 136.886 63.4702C141.851 58.6057 144.11 45.0659 144.821 40.6612C145.721 35.0858 146.678 30.8765 146.08 25.2664" fill="#656269"/>
<path d="M138.164 18.6107C137.253 18.2254 136.325 17.8956 135.386 17.5982C135.105 18.2114 134.544 18.7192 133.797 19.0468C129.706 20.843 124.24 19.2756 120.099 18.5708C118.501 18.2985 112.348 16.9561 111.052 18.4387C109.721 19.9612 112.294 20.7235 113.202 21.4563C113.897 22.0171 114.34 22.5057 114.817 23.2414C115.257 23.9218 114.983 24.9092 114.252 25.2959C111.297 26.8604 108.475 28.9105 105.273 29.9887C104.885 30.2905 104.49 30.5827 104.096 30.8779C110.618 33.2106 118.069 34.1227 124.543 34.1639C129.121 34.1927 134.035 33.8938 138.374 32.3789C141.297 31.3591 145.793 29.2109 146.136 25.8472C146.521 22.0695 141.148 19.8733 138.164 18.6107" fill="#949294"/>
<path d="M114.252 25.2959C114.983 24.9092 115.258 23.9218 114.818 23.2414C114.34 22.5057 113.897 22.0171 113.202 21.4563C112.294 20.7235 109.721 19.9612 111.052 18.4387C112.348 16.9562 118.501 18.2985 120.099 18.5708C124.24 19.2756 129.706 20.843 133.797 19.0468C134.544 18.7192 135.105 18.2114 135.386 17.5982C132.06 16.5444 128.586 15.9835 125.106 15.5488C119.033 14.7917 112.852 14.1216 106.72 14.2995C102.844 14.4116 95.6188 14.1703 93.7798 18.255C93.7287 18.3694 93.6969 18.4823 93.6667 18.5952C93.4646 18.9081 93.2895 19.252 93.1524 19.6298C92.0145 22.7551 94.0517 25.5173 96.6583 27.2464C98.8892 28.7266 101.417 29.9192 104.096 30.8779C104.49 30.5827 104.885 30.2905 105.273 29.9887C108.475 28.9105 111.297 26.8604 114.252 25.2959" fill="#A19BA0"/>
<path d="M107.679 34.2193C107.558 33.5021 107.852 32.59 108.658 32.3449C101.706 30.5753 94.1478 27.8345 91.8286 21.195C91.0331 22.9617 92.7837 28.0803 92.9665 28.7237C94.4607 33.9893 96.7296 39.1807 98.6367 44.2239C100.791 49.9219 104.899 57.7643 108.271 63.0067C109.865 64.0148 111.522 64.9116 113.138 65.668C112.219 63.0739 111.587 60.5126 111.28 58.5002C110.206 51.4725 108.858 41.2323 107.679 34.2193" fill="#827D83"/>
<path d="M140.113 31.6992C138.812 32.1538 134.936 33.5536 133.666 34.1605C126.76 36.2118 119.318 34.8384 112.312 33.223C112.845 33.7618 113.216 34.5035 113.384 35.4268C114.029 38.9786 113.412 42.9215 113.787 46.5465C114.377 52.2502 115.645 61.049 117.361 67.3512C119.34 67.9931 121.07 68.3252 122.28 68.256C124.247 68.1445 126.773 67.6974 129.211 67.0251C129.276 64.8516 129.348 62.6769 129.525 60.514C129.788 57.3009 130.468 54.1623 130.675 50.936C130.997 45.9429 131.29 39.9739 136.171 36.9941C137.355 36.2723 141.163 34.1656 140.113 31.6992" fill="#827D83"/>
<path d="M112.312 33.223C111.493 32.3951 110.288 32.0489 108.826 32.2948L108.658 32.3449C109.49 32.5568 110.315 32.7574 111.119 32.9463C111.515 33.0385 111.913 33.1308 112.312 33.223Z" fill="#656269"/>
<path d="M113.384 35.4268C113.216 34.5035 112.845 33.7618 112.312 33.223C111.913 33.1308 111.515 33.0385 111.12 32.9463C110.315 32.7574 109.49 32.5568 108.658 32.3449C107.852 32.59 107.558 33.5021 107.679 34.2193C108.858 41.2323 110.206 51.4725 111.28 58.5002C111.587 60.5126 112.219 63.0739 113.138 65.668C114.608 66.3549 116.039 66.9216 117.361 67.3512C115.645 61.049 114.377 52.2502 113.786 46.5465C113.412 42.9216 114.029 38.9786 113.384 35.4268" fill="#656269"/>
<path d="M139.293 31.6601C136.893 34.3044 134.15 35.3346 130.454 35.2727C128.907 35.2468 127.328 35.145 125.747 35.0245L125.633 34.8616C124.69 33.5892 122.961 33.8454 122.158 34.7405C121.569 34.6941 120.979 34.646 120.399 34.6068C119.253 34.5295 116.125 35.8379 123.03 38.4208C125.713 43.3474 126.534 49.2805 126.303 54.8014C126.119 59.1745 125.838 63.4149 126.303 67.713C128.702 67.4141 130.279 66.7986 131.8 66.2097C131.863 62.195 131.054 58.3238 131.409 54.3246C131.696 51.0937 132.203 47.8763 132.997 44.7221C133.49 42.7651 134.131 40.9631 134.93 38.3874C137.758 37.2459 139.847 35.1839 140.625 32.3989C140.82 31.7021 139.832 31.0654 139.293 31.6601" fill="#534F56"/>
<path d="M132.6 32.7603C128.753 32.88 114.55 33.1559 111.987 29.9598C110.74 30.554 107.367 31.3553 107.367 31.3553C107.367 31.3553 108.218 29.7894 109.125 28.4545C107.651 28.5932 101.356 28.1046 100.857 27.8951C98.4739 26.8885 95.7953 25.7527 94.2685 23.7388C92.3405 21.195 93.9718 18.5553 95.1756 17.472C97.3097 15.551 103.284 15.095 107.198 14.2877C103.284 14.2072 99.1393 14.0596 95.4026 15.6898C91.2212 17.5133 90.1941 23.1809 93.4745 26.0619C95.3832 27.7371 98.6916 31.4637 105.73 33.2467C105.809 37.1057 106.679 41.0426 107.938 44.7201C108.239 46.2911 109.39 49.9994 110.117 51.3168C110.458 49.5367 109.719 35.3346 109.734 34.2622C112.074 35.1914 115.905 35.784 116.815 35.9647C120.928 36.7837 125.566 36.1625 129.687 35.6842C135.127 35.0527 145.542 32.4306 146.136 25.8472C142.694 27.4124 138.871 32.5649 132.6 32.7603" fill="#BBB4B8"/>
<path d="M126.875 50.5064C126.652 48.3161 127.009 47.1737 126.303 45.0772C125.468 42.6012 124.755 40.4994 123.03 38.4207C124.72 42.5038 124.377 45.1936 125.126 49.5684C125.93 54.2634 125.126 62.9043 126.303 66.4073C126.703 61.6886 127.351 55.191 126.875 50.5064Z" fill="#BBB4B8"/>
<path d="M46.0149 61.4252C46.4998 61.7374 47.4432 61.2217 48.0413 59.9147C50.8384 53.8042 50.96 45.7125 55.7285 40.8523C57.2041 39.3481 56.6216 41.1017 56.5333 41.7422C55.6115 48.4468 57.6922 51.7904 57.5349 57.7584C57.5039 58.9311 56.3017 62.3522 56.129 63.7625C55.8455 66.0827 55.981 68.3592 55.493 70.6331L55.5356 70.6728C55.7827 70.8758 56.0438 71.0589 56.3157 71.2263C56.6681 70.7401 57.1065 69.9591 57.7231 68.7149C58.7332 66.6784 60.3134 66.7726 60.1911 67.2523C60.1314 67.6123 60.0617 67.9798 59.9819 68.3468C59.8161 69.5068 59.7821 70.2779 59.9447 71.4498C60.387 71.3996 62.4924 71.7208 62.9951 71.7968C63.377 71.8542 64.8751 73.1442 66.0471 74.2748C68.0851 74.8254 70.1239 75.3737 72.1666 75.9078C71.897 67.9121 70.6042 59.9842 68.1998 52.3093C65.8457 44.7944 61.3119 36.7586 62.5497 26.2058C58.7813 29.6455 51.7454 37.3285 48.592 42.2365C44.7468 48.2207 42.6081 54.9982 42.021 61.9706C41.9838 62.4157 42.3719 62.8149 42.7902 62.9456C43.2177 62.1565 43.7057 61.452 44.1326 61.0358C44.5942 60.5849 45.3038 60.9691 46.0149 61.4252" fill="#827D83"/>
<path d="M62.9952 71.7968C62.4924 71.7207 60.387 71.3996 59.9447 71.4498C59.7821 70.2779 59.8161 69.5068 59.9819 68.3468C60.0617 67.9798 60.1314 67.6123 60.1911 67.2523C60.3135 66.7726 58.7332 66.6784 57.7231 68.7149C57.1065 69.9591 56.6681 70.7401 56.3157 71.2263C58.1639 72.3716 60.5071 72.7819 62.5823 73.3399C63.738 73.6504 64.8922 73.9626 66.0471 74.2748C64.8751 73.1442 63.377 71.8542 62.9952 71.7968Z" fill="#656269"/>
<path d="M50.8531 65.5307C53.0081 66.738 53.6758 69.1156 55.493 70.6331C55.981 68.3592 55.8455 66.0827 56.129 63.7625C56.3017 62.3522 57.5039 58.9311 57.5349 57.7584C57.6922 51.7904 55.6115 48.4468 56.5333 41.7422C56.6216 41.1017 57.2041 39.3481 55.7285 40.8523C50.96 45.7125 50.8384 53.8042 48.0413 59.9147C47.4433 61.2217 46.4998 61.7374 46.0149 61.4252C45.3038 60.9691 44.5942 60.5849 44.1326 61.0358C43.7057 61.452 43.2177 62.1565 42.7902 62.9456L42.8064 62.9536C45.4029 63.7152 48.4952 64.2096 50.8531 65.5307" fill="#656269"/>
<path d="M81.135 50.2407C82.6711 49.1721 84.3156 48.2727 86.0321 47.5013C88.1228 46.5612 91.0299 44.9599 92.6272 43.0351L92.4598 42.8307C86.2598 37.9947 78.781 33.1709 74.7282 30.8263C71.5515 28.9887 66.5057 25.8066 62.6574 26.1062L62.5497 26.2058C61.3119 36.7587 65.8457 44.7945 68.1997 52.3093C69.395 56.1237 70.3137 60.0018 70.9705 63.9191C72.4105 60.998 74.2564 57.8048 75.2224 56.3399C76.777 53.983 78.7717 51.8835 81.135 50.2407Z" fill="#949294"/>
<path d="M80.4611 39.6685C79.1644 38.761 77.1768 38.9824 75.9033 39.7955C75.6066 39.6082 73.6747 38.665 73.258 38.6488C72.0597 38.603 67.618 39.735 66.3601 38.1608C65.4491 37.0207 65.1765 37.2265 65.3856 38.6427C65.8264 41.639 66.7869 43.7777 68.9868 45.9515C69.4802 46.4393 70.3168 45.8204 70.9698 45.5205C73.8064 44.2173 77.2271 41.7901 80.6222 41.9276C81.6974 41.0389 80.8569 39.946 80.4611 39.6685" fill="#827D83"/>
<path d="M99.955 55.8351C98.0084 51.5964 95.7419 46.6194 92.6272 43.0351C92.2647 43.4713 91.8285 43.8889 91.356 44.2882C91.4358 44.3332 91.5071 44.3975 91.5419 44.477C92.2956 46.1913 93.6047 47.5162 93.5528 49.4701C93.5017 51.3793 92.5063 53.1231 91.8742 54.8876C91.4745 56.0049 91.5435 57.1539 91.3103 58.2972C91.064 59.5021 90.5768 60.3249 90.8316 61.6097C91.1934 63.4327 91.8882 66.2125 92.7728 68.2788C95.3879 67.3984 97.9557 66.3143 99.8954 64.4982C102.694 61.8769 101.334 58.8357 99.955 55.8351" fill="#656269"/>
<path d="M82.8601 49.7071C82.6556 49.6961 82.4806 49.5079 82.5371 49.3352C82.0615 49.6243 81.5921 49.9227 81.135 50.2406C78.7717 51.8835 76.7771 53.9829 75.2224 56.3399C74.2565 57.8048 72.4106 60.998 70.9706 63.919C71.6352 67.8824 72.031 71.8868 72.1666 75.9078H72.1674C75.1473 74.1966 80.1234 72.4019 84.5031 70.9415C83.737 68.2079 83.8067 65.3336 83.7323 62.4696C83.6239 58.3295 82.1544 53.8411 82.8601 49.7071" fill="#656269"/>
<path d="M91.3561 44.2882C91.2314 44.2172 91.0788 44.2034 90.9633 44.3317C89.8696 45.5465 87.9741 45.967 86.5279 46.7059C85.1414 47.4142 83.857 48.2637 82.6332 49.2023L82.5371 49.3352C83.6595 48.6526 84.8269 48.0429 86.0322 47.5012C87.6488 46.7745 89.7464 45.6491 91.3561 44.2882" fill="#534F56"/>
<path d="M91.3103 58.2972C91.5435 57.1539 91.4745 56.0049 91.8742 54.8875C92.5063 53.1231 93.5017 51.3793 93.5528 49.4701C93.6047 47.5162 92.2956 46.1913 91.5419 44.477C91.5071 44.3975 91.4358 44.3332 91.356 44.2882C89.7464 45.6491 87.6487 46.7745 86.0321 47.5012C84.8268 48.0429 83.6595 48.6526 82.5371 49.3352C82.4805 49.5079 82.6556 49.6961 82.8601 49.7071C82.1544 53.8411 83.6238 58.3295 83.7323 62.4696C83.8066 65.3336 83.7369 68.2079 84.503 70.9415C85.9756 70.45 87.3815 69.996 88.6209 69.5962C89.9586 69.1644 91.3723 68.7495 92.7728 68.2788C91.8882 66.2125 91.1934 63.4327 90.8316 61.6097C90.5768 60.3249 91.064 59.5021 91.3103 58.2972" fill="#534F56"/>
<path d="M89.1554 40.3378C87.4419 40.3269 85.7409 40.1159 84.0329 40.2724C81.8895 40.4687 79.7957 41.0758 77.7763 41.7711C76.045 42.3681 74.6848 43.4684 73.0179 44.1127C70.7382 44.9937 68.4624 43.836 67.2455 42.4765C65.9116 40.597 65.3693 36.3366 64.8256 33.8166C64.5576 32.5716 62.3398 28.2892 62.6574 26.1063C61.5993 26.0863 54.4636 33.6388 53.1243 36.2438C55.2699 35.2643 57.9819 30.3429 60.2344 33.4912C61.6125 35.4179 62.3553 39.1219 62.7914 41.0678C63.4901 44.1917 64.7628 49.4385 67.436 53.0531C68.6421 54.6833 69.7149 58.6493 69.5724 59.8854C69.2625 62.579 69.2935 64.674 71.5717 68.1077C71.9582 65.9684 72.9543 65.1168 73.7305 61.8084C74.4416 58.7738 76.8321 56.2523 78.5997 53.7816C81.135 50.2407 86.6999 47.9072 89.8487 46.19C90.7325 45.7074 92.5218 45.1061 93.5544 44.1733C92.1276 41.7792 90.2724 41.1629 89.1554 40.3378" fill="#A19BA0"/>
<path d="M80.8035 40.5843C79.1118 40.9934 74.4494 43.301 73.7491 43.6345C71.3409 44.7821 69.0449 43.9614 68.0627 42.4405C66.5793 38.6907 66.0952 35.243 64.4941 31.5777C64.3624 31.2285 64.0471 30.3075 63.8953 29.7621C63.7675 29.3009 63.9906 27.9114 64.5002 27.6686C66.4221 26.7505 71.5012 29.1741 72.7739 29.9031C75.9475 31.7215 84.2227 37.9781 85.3389 38.8893C85.5945 39.0989 85.5643 39.7091 85.0035 39.8354C83.8865 40.0862 82.1668 40.3883 80.8035 40.5843ZM91.9099 42.0332C90.7255 41.1462 73.4811 29.036 70.55 27.89C69.5112 27.4841 65.319 25.0082 62.0277 26.186C60.2461 26.8236 58.0934 29.7731 56.8184 31.4721C57.9199 30.605 60.4761 29.1859 61.7961 29.3828C63.0959 29.5771 63.683 31.8763 64.2454 33.032C65.2516 36.049 65.6901 39.2989 66.8922 42.2427C67.7815 44.4212 69.749 46.2742 71.244 47.4246C71.605 47.7023 72.9544 48.8017 72.5702 50.3434C72.2766 51.5181 72.2874 52.7064 72.6538 53.9571C72.7491 54.2835 72.9528 54.0929 73.0783 53.7674C73.7607 51.9934 73.8204 50.1825 74.8708 48.4616C74.9846 48.2756 74.9258 47.9914 74.7135 47.8896C73.6267 47.3664 74.7592 46.5051 75.3905 45.9384C76.1791 45.2315 76.4099 44.1568 77.2976 43.5702C78.3999 42.8412 81.5038 41.4515 84.5031 42.0035C86.1088 42.2986 87.1445 41.721 88.5907 42.151C90.5295 42.7282 92.6721 43.9775 93.5544 44.1733C93.8155 43.9931 92.2314 42.273 91.9099 42.0332" fill="#BBB4B8"/>
<path d="M222.379 70.3924C222.257 69.9828 222.134 69.5731 222.011 69.1621C221.728 68.222 221.448 67.2811 221.166 66.3373L221.262 66.4235C220.965 65.3359 220.666 64.2546 220.355 63.1816C219.493 59.3782 218.736 55.5408 218.014 51.8008C217.603 49.6762 216.76 46.7111 216.603 44.5237C218.117 47.1876 220.277 49.8826 222.511 51.9588C223.654 53.0213 225.28 52.98 225.469 52.0118C225.803 50.2989 226.854 50.7884 227.902 51.7956C228.344 52.3505 229.16 52.0118 229.772 52.5762C230.11 53.008 230.514 54.0729 230.799 54.8005C231.691 57.0824 232.229 57.0588 233.327 58.2638C233.332 56.977 232.066 54.6581 231.733 52.3984C231.36 49.8627 230.059 49.3182 229.174 48.8924C227.06 47.8749 222.399 45.441 221.416 44.2003C220.624 43.202 218.554 40.6782 217.677 38.0287C216.998 35.9771 217.389 33.598 217.405 33.3809C217.368 32.2844 215.789 30.106 215.684 29.0122C215.373 25.749 217.842 24.9882 217.338 23.1823C216.592 20.5057 216.93 18.7649 217.77 19.0313C219.372 19.5405 221.594 21.0452 223.252 22.8038C223.914 24.2435 224.36 25.6354 224.495 26.9061C224.606 27.9585 224.678 28.8764 224.122 29.5752C223.827 29.9442 223.468 31.0881 224.838 30.4225C226.043 29.8373 226.928 31.0846 227.545 32.5923C230.027 38.6517 232.1 44.8624 233.718 51.1815C234.827 55.5128 237.24 61.567 234.978 65.9064C233.944 67.8928 230.959 69.1704 229.321 71.069C227.56 73.1102 226.327 75.5706 224.191 76.5403C223.75 74.9943 223.293 73.4432 222.828 71.8882C222.68 71.391 222.529 70.8905 222.379 70.3924" fill="#A19BA0"/>
<path d="M222.011 69.1621C221.727 68.2212 221.444 67.2782 221.162 66.3336L221.166 66.3373C221.448 67.2812 221.728 68.2221 222.011 69.1621Z" fill="#827D83"/>
<path d="M222.379 70.3925C222.529 70.8906 222.68 71.3911 222.828 71.8883C222.68 71.3902 222.53 70.8915 222.379 70.3925Z" fill="#827D83"/>
<path d="M204.13 15.385C207.154 14.191 209.72 16.9208 210.412 19.1487C211.026 21.1213 210.58 23.4363 211.758 25.1698C214.117 28.641 213.577 32.8558 214.117 37.3609C214.733 42.4996 214.901 47.7472 215.028 48.885C215.268 51.0364 215.646 53.036 216.32 55.2788C216.009 55.0554 215.694 54.8574 215.373 54.6974C208.23 51.1277 213.192 42.5903 208.309 36.8576C207.13 35.4733 205.552 34.3167 204.891 32.5981C204.196 30.7923 204.341 28.5624 204.198 26.6494C204.116 25.5461 206.68 21.2416 204.45 19.0793C201.783 16.4927 199.807 20.8851 196.586 20.2911C196.482 20.2719 196.355 20.2549 196.239 20.2364C197.328 19.2948 198.49 18.3303 199.893 17.4764C201.209 16.6757 202.635 15.9747 204.13 15.385" fill="#A19BA0"/>
<path d="M216.473 48.2911C216.427 48.0505 216.386 47.8107 216.341 47.5699C216.386 47.8107 216.427 48.0505 216.473 48.2911Z" fill="#BBB4B8"/>
<path d="M216.048 45.9553C215.993 45.6293 215.947 45.303 215.895 44.9769C215.947 45.303 215.993 45.6293 216.048 45.9553Z" fill="#BBB4B8"/>
<path d="M217.478 52.9358C217.452 52.8289 217.429 52.7219 217.404 52.6149C217.429 52.7219 217.452 52.8289 217.478 52.9358Z" fill="#BBB4B8"/>
<path d="M215.683 43.6094C215.621 43.1695 215.571 42.729 215.516 42.2891C215.571 42.729 215.621 43.1695 215.683 43.6094Z" fill="#BBB4B8"/>
<path d="M218.042 55.2413L218.01 55.1078L218.042 55.2413Z" fill="#BBB4B8"/>
<path d="M216.952 50.6163C216.916 50.4526 216.885 50.2895 216.85 50.1257C216.885 50.2895 216.916 50.4526 216.952 50.6163Z" fill="#BBB4B8"/>
<path d="M215.385 41.2545C215.297 40.467 215.222 39.6797 215.161 38.8915C215.222 39.6797 215.297 40.467 215.385 41.2545Z" fill="#BBB4B8"/>
<path d="M218.641 57.5351L218.643 57.5428V57.5422L218.641 57.5351Z" fill="#BBB4B8"/>
<path d="M217.77 19.0314C216.93 18.765 216.592 20.5058 217.338 23.1825C217.842 24.9883 215.373 25.7491 215.684 29.0123C215.789 30.1061 217.368 32.2845 217.405 33.381C217.389 33.5982 216.998 35.9772 217.677 38.0288C218.554 40.6783 220.624 43.2021 221.416 44.2004C222.399 45.4411 227.06 47.875 229.174 48.8926C230.059 49.3183 231.36 49.8628 231.733 52.3985C232.066 54.6582 233.332 56.9771 233.327 58.2639C232.229 57.0589 231.691 57.0825 230.799 54.8006C230.514 54.073 230.11 53.0081 229.772 52.5763C229.16 52.0119 228.344 52.3506 227.902 51.7957C226.854 50.7885 225.803 50.299 225.469 52.0119C225.28 52.9802 223.654 53.0214 222.511 51.9589C220.277 49.8828 218.117 47.1877 216.603 44.5238C216.76 46.7112 217.603 49.6763 218.014 51.8009C218.736 55.5409 219.493 59.3783 220.355 63.1818C220.666 64.2547 220.965 65.336 221.262 66.4236L221.166 66.3374C220.293 63.4187 219.431 60.4876 218.643 57.5429L218.641 57.5363C218.437 56.7718 218.237 56.0073 218.042 55.2414L218.01 55.1076C217.827 54.3844 217.649 53.6605 217.478 52.9358C217.452 52.8289 217.429 52.7219 217.404 52.6149C217.248 51.9491 217.096 51.2828 216.952 50.6164C216.916 50.4526 216.885 50.2895 216.85 50.1258C216.72 49.5147 216.592 48.9029 216.473 48.2912C216.427 48.0505 216.386 47.8107 216.341 47.57C216.241 47.0321 216.139 46.4942 216.048 45.9554C215.993 45.6293 215.947 45.303 215.895 44.977C215.823 44.5215 215.747 44.0655 215.683 43.6094C215.621 43.1695 215.571 42.729 215.516 42.2891C215.472 41.9438 215.423 41.5991 215.385 41.2546C215.297 40.467 215.222 39.6798 215.161 38.8916C214.648 32.3162 214.533 25.7019 214.217 19.1155C214.179 18.3451 214.13 15.1718 214.117 11.0908L214.286 11.0643C217.811 14.36 221.399 18.7768 223.252 22.8039C221.594 21.0453 219.372 19.5406 217.77 19.0314" fill="#BBB4B8"/>
<path d="M218.643 57.5423V57.5429C219.431 60.486 220.289 63.4163 221.162 66.3336C219.559 64.9603 218.36 61.1133 217.07 57.5423C216.784 56.7532 216.537 56.0035 216.32 55.2788C217.138 55.8692 217.919 56.6581 218.643 57.5423" fill="#BBB4B8"/>
<path d="M195.005 20.0689C195.453 20.1206 195.864 20.1767 196.239 20.2364C194.486 21.753 192.916 23.2031 190.843 24.0385C192.156 22.6422 193.547 21.3139 195.005 20.0689Z" fill="#BBB4B8"/>
<path d="M221.166 66.3373L221.162 66.3336C220.29 63.4163 219.431 60.486 218.643 57.5428C219.431 60.4875 220.293 63.4186 221.166 66.3373" fill="#BBB4B8"/>
<path d="M214.117 11.0909C214.13 15.1718 214.179 18.3451 214.217 19.1155C214.533 25.7019 214.648 32.3162 215.161 38.8916C215.222 39.6798 215.297 40.467 215.385 41.2546C215.423 41.5991 215.472 41.9438 215.516 42.2891C215.571 42.729 215.621 43.1695 215.683 43.6094C215.747 44.0655 215.823 44.5215 215.895 44.977C215.947 45.303 215.993 45.6293 216.048 45.9554C216.139 46.4942 216.241 47.0321 216.341 47.57C216.386 47.8107 216.426 48.0505 216.473 48.2912C216.592 48.9029 216.72 49.5147 216.85 50.1258C216.885 50.2895 216.916 50.4526 216.952 50.6164C217.096 51.2828 217.248 51.9491 217.404 52.6149C217.429 52.7219 217.452 52.8289 217.478 52.9358C217.649 53.6605 217.827 54.3844 218.01 55.1077L218.042 55.2414C218.237 56.0073 218.437 56.7718 218.641 57.5363L218.643 57.5424C217.919 56.6582 217.138 55.8692 216.32 55.2789C215.646 53.0361 215.268 51.0364 215.028 48.885C214.9 47.7472 214.733 42.4996 214.117 37.3609C213.577 32.8558 214.117 28.6411 211.758 25.1698C210.58 23.4363 211.026 21.1213 210.412 19.1487C209.72 16.9208 207.154 14.1911 204.13 15.3851C202.635 15.9747 201.209 16.6758 199.893 17.4765C198.49 18.3303 197.328 19.2949 196.239 20.2365C195.864 20.1767 195.453 20.1206 195.005 20.069C200.395 15.4655 206.765 12.0561 214.117 11.0909" fill="#BBB4B8"/>
<path d="M218.641 57.5363C218.437 56.7717 218.237 56.0073 218.042 55.2413C218.237 56.0073 218.437 56.7717 218.641 57.5363Z" fill="#BBB4B8"/>
<path d="M218.01 55.1075C217.827 54.3843 217.649 53.6604 217.478 52.9357C217.649 53.6604 217.827 54.3843 218.01 55.1075Z" fill="#BBB4B8"/>
<path d="M215.516 42.2891C215.472 41.9438 215.423 41.599 215.385 41.2545C215.423 41.599 215.472 41.9438 215.516 42.2891Z" fill="#BBB4B8"/>
<path d="M216.341 47.5699C216.241 47.032 216.139 46.4941 216.048 45.9553C216.139 46.4941 216.241 47.032 216.341 47.5699Z" fill="#BBB4B8"/>
<path d="M216.85 50.1257C216.72 49.5146 216.592 48.9028 216.473 48.2911C216.592 48.9028 216.72 49.5146 216.85 50.1257Z" fill="#BBB4B8"/>
<path d="M215.895 44.9769C215.823 44.5215 215.747 44.0655 215.683 43.6094C215.747 44.0655 215.823 44.5215 215.895 44.9769Z" fill="#BBB4B8"/>
<path d="M217.404 52.6149C217.248 51.949 217.096 51.2828 216.952 50.6163C217.096 51.2828 217.248 51.949 217.404 52.6149Z" fill="#BBB4B8"/>
<path d="M182.526 65.3743C181.985 64.3285 178.552 61.0477 178.45 60.2734C177.997 56.8234 175.362 55.5593 177.329 52.6207C181.252 46.7627 180.223 44.0712 182.526 41.772C187.389 36.9175 185.693 33.6151 184.875 31.3672C186.164 29.5606 187.523 27.8014 188.973 26.1099C189.57 25.4126 190.19 24.7314 190.821 24.0606C190.87 24.4525 190.918 24.9203 190.966 25.4827C191.245 28.7835 190.085 32.3413 189.151 35.5272C188.971 36.1389 188.783 36.7875 188.633 37.4413C187.773 39.6552 187.233 41.8265 185.471 43.6691C183.894 45.32 183.396 46.4255 183.423 48.6835C183.438 49.8844 183.474 51.043 183.186 52.2191C182.965 53.1248 182.577 53.9954 182.53 54.9357C182.465 56.2315 183.188 57.0986 184.259 57.8242C187.419 59.9649 191.543 60.3532 194.819 62.3656C197.881 64.2465 200.315 66.8612 203.091 69.0826C204.903 71.8675 205.92 74.7568 206.68 78.4504C206.424 78.4127 206.168 78.3744 205.909 78.319C198.55 76.7427 192.508 77.6969 185.518 76.1391C184.454 74.5932 183.651 73.0152 182.839 71.1408C181.808 68.7594 183.764 67.7683 182.526 65.3743" fill="#656269"/>
<path d="M179.26 71.9C175.524 71.5437 172.938 70.1237 172.109 68.6005C169.382 63.5927 172.746 55.9541 174.694 50.6961C177.215 43.8904 180.612 37.3432 184.875 31.3671C185.693 33.615 187.389 36.9174 182.526 41.7719C180.223 44.0711 181.252 46.7626 177.33 52.6206C175.362 55.5592 177.997 56.8233 178.45 60.2733C178.552 61.0476 181.985 64.3284 182.526 65.3742C183.764 67.7683 181.808 68.7594 182.839 71.1407C183.651 73.0151 184.454 74.5931 185.518 76.139C185.382 76.1088 185.249 76.0843 185.113 76.052C182.614 75.4631 181.94 72.1554 179.26 71.9" fill="#534F56"/>
<path d="M204.454 66.4235C203.306 62.4716 199.235 57.1355 196.239 55.2787C192.46 52.9357 191.719 49.8777 191.482 46.7627C191.252 43.754 189.692 41.3836 188.139 38.7727C188.3 38.3314 188.46 37.8878 188.633 37.4412C188.783 36.7875 188.971 36.1389 189.151 35.5271C190.085 32.3412 191.245 28.7834 190.966 25.4826C190.918 24.9203 190.87 24.4524 190.821 24.0605L190.843 24.0384C192.916 23.203 194.486 21.7529 196.239 20.2364C196.355 20.2548 196.482 20.2718 196.586 20.291C199.807 20.8851 201.783 16.4927 204.45 19.0792C206.68 21.2415 204.116 25.5461 204.198 26.6493C204.341 28.5623 204.196 30.7923 204.891 32.598C205.552 34.3167 207.13 35.4732 208.309 36.8575C213.192 42.5903 208.23 51.1277 215.373 54.6973C215.694 54.8573 216.009 55.0554 216.32 55.2787C216.537 56.0034 216.784 56.7532 217.07 57.5422C218.36 61.1133 219.559 64.9602 221.162 66.3336C221.444 67.2782 221.727 68.2212 222.011 69.1621C222.134 69.5725 222.257 69.9828 222.379 70.3924C222.53 70.8914 222.68 71.3901 222.828 71.8882C223.293 73.4432 223.75 74.9943 224.191 76.5403C223.497 76.8548 222.709 77.0142 221.774 76.9476C216.151 76.5463 211.814 79.2111 206.68 78.4504C206.24 76.3122 205.708 74.4489 204.992 72.7141C205.354 71.7686 205.507 70.047 204.454 66.4235" fill="#827D83"/>
<path d="M204.228 74.2144L204.225 74.095C204.248 74.291 204.253 74.3656 204.228 74.2144Z" fill="#A19BA0"/>
<path d="M194.819 62.3656C191.543 60.3533 187.419 59.9649 184.259 57.8242C183.188 57.0987 182.465 56.2316 182.53 54.9358C182.577 53.9954 182.965 53.1249 183.186 52.2192C183.474 51.043 183.438 49.8844 183.423 48.6835C183.396 46.4255 183.894 45.32 185.471 43.6691C186.878 42.1983 187.506 40.5172 188.139 38.7728C189.692 41.3837 191.252 43.7541 191.482 46.7628C191.719 49.8778 192.46 52.9358 196.239 55.2788C199.235 57.1356 203.306 62.4717 204.454 66.4236C205.507 70.0471 205.354 71.7687 204.992 72.7142C204.47 71.4522 203.854 70.2558 203.091 69.0826C200.315 66.8612 197.881 64.2466 194.819 62.3656" fill="#A19BA0"/>
<path d="M97.1355 74.2474C97.6529 74.0321 98.2036 73.8718 98.7389 73.7435C100.118 73.4123 101.397 73.1053 102.701 72.5501C102.776 72.5178 102.854 72.4824 102.933 72.4446L102.98 72.4227C103.058 72.3858 103.138 72.3472 103.22 72.3074L103.222 72.3059C103.102 71.3659 102.84 70.3924 102.348 69.636C101.504 68.337 99.8745 68.4241 98.4329 68.2249C97.4879 68.0943 96.6211 68.2448 96.1842 68.6204C95.7187 69.0197 95.7055 68.5371 95.838 68.2751C96.1199 67.7187 96.6265 67.8767 97.0859 67.4982C97.5057 67.152 97.5894 66.5593 98.1231 66.3004C98.5569 66.0894 98.9968 66.3918 99.9031 66.0767C101.156 65.64 102.761 67.3373 103.758 68.0249C103.995 68.1875 104.205 68.3512 104.396 68.5173C103.543 66.9845 102.497 65.5328 101.251 64.1877C100.888 63.981 100.503 63.7884 100.087 63.6112C98.6483 62.9957 95.8775 61.0917 94.2717 60.9346C93.7527 60.8844 92.2933 61.0836 90.9571 63.3618C90.2491 64.5691 90.1701 66.118 90.1477 67.4547C90.102 70.0773 91.5342 79.1794 91.8735 80.3631C92.2949 81.8323 92.7465 83.5525 93.7853 84.709C94.2795 84.7231 94.7729 84.7266 95.2663 84.7194C95.2222 84.605 95.1757 84.4795 95.1222 84.3372C94.2709 82.0731 93.3871 74.7908 97.1355 74.2474" fill="#827D83"/>
<path d="M103.22 72.3075C103.138 72.3472 103.058 72.3858 102.98 72.4227C103.058 72.3858 103.138 72.3472 103.22 72.3075Z" fill="#656269"/>
<path d="M102.933 72.4448C102.854 72.4825 102.776 72.5179 102.701 72.5502C102.776 72.5179 102.854 72.4816 102.933 72.4448Z" fill="#656269"/>
<path d="M87.1832 63.1041C85.6944 66.5904 85.7695 72.8017 86.9833 75.939C87.2692 75.1183 87.6364 74.0727 87.5124 71.3575C87.4288 69.5091 87.3211 66.7882 87.7262 65.7261C88.4164 63.9175 90.2336 62.2459 91.6411 60.8726C93.4142 59.1421 94.9564 60.4387 95.5699 60.7878C96.6226 61.3863 98.2454 62.1441 99.7265 62.6864C99.3996 62.3906 99.0665 62.0992 98.7187 61.8158C95.8589 59.486 92.1694 58.0905 88.4993 59.488C86.5124 60.2444 84.6866 61.4667 82.8694 62.5278C81.0971 63.5633 79.1203 64.4895 77.5207 65.7639C77.3983 65.8613 77.286 65.9622 77.1768 66.0658C79.7911 65.1315 81.2535 65.2923 84.0561 64.4408C84.3628 64.3477 86.8679 63.2096 87.1832 63.1041" fill="#BBB4B8"/>
<path d="M94.2717 60.9346C95.8774 61.0917 98.6482 62.9957 100.087 63.6112C100.503 63.7884 100.888 63.981 101.251 64.1878C100.772 63.6709 100.262 63.1713 99.7265 62.6864C98.2454 62.1442 96.6226 61.3864 95.5699 60.7879C94.9564 60.4388 93.4142 59.1421 91.6411 60.8727C90.2336 62.2459 88.4164 63.9176 87.7262 65.7262C87.3211 66.7882 87.4287 69.5092 87.5124 71.3576C87.6363 74.0728 87.2692 75.1183 86.9833 75.939C85.7695 72.8018 85.6944 66.5904 87.1832 63.1041C86.8679 63.2097 84.3628 64.3477 84.0561 64.4408C81.2535 65.2929 79.7911 65.1315 77.1767 66.0658C75.8963 67.2788 75.5113 68.8744 75.2906 70.5792C74.9497 73.2123 74.2061 78.4037 75.155 79.8672C75.2712 80.0465 75.4068 80.2103 75.5501 80.3668C75.3425 79.5328 75.9436 78.6274 76.6764 77.5366C78.0629 75.4717 79.4301 73.587 81.6408 72.2661L81.6587 72.2743C82.1776 71.5302 82.6494 70.7657 83.2373 70.0684L83.3403 70.1128C82.9709 72.0249 81.2551 73.9125 80.1156 75.4674C79.4657 76.3552 78.7802 77.2253 78.1737 78.1402C77.4262 79.2694 77.042 80.161 77.1667 81.5409L77.1651 81.5579C77.5509 81.76 77.9506 81.9307 78.3449 82.0878C78.4262 80.7387 79.5339 79.7286 80.7717 79.1682C81.6587 78.7684 82.6525 78.7173 83.5735 78.4126C84.2366 78.1936 84.8392 77.984 85.5503 78.0748C87.4822 78.3196 87.7595 79.3219 88.8037 80.656C89.246 81.2207 90.1135 80.4709 90.4691 79.8252C90.7146 79.3801 91.1461 79.2083 91.5931 79.0053C91.0593 76.0653 90.1105 69.5977 90.1476 67.4547C90.1701 66.118 90.2491 64.5691 90.9571 63.3618C92.2933 61.0836 93.7527 60.8836 94.2717 60.9346" fill="#A19BA0"/>
<path d="M84.1258 66.589C83.1048 66.8753 81.9538 66.8392 81.0452 67.4235C80.4255 67.8219 80.317 68.3838 79.9584 68.9681C79.5021 69.7121 78.6632 70.1237 78.0668 70.7487C76.8646 72.0078 76.5842 73.9081 76.1775 75.5005C75.9304 76.4689 75.1349 78.355 76.406 78.9926C76.4943 79.0376 76.578 79.0001 76.6167 78.9168C77.5284 76.9404 78.9297 75.3146 80.5138 73.7951C81.4766 72.8713 82.9879 71.433 83.3403 70.1128C83.4434 69.8934 84.0313 67.8672 84.9662 66.8044C85.383 66.3312 84.4883 66.487 84.1258 66.589Z" fill="#928E92"/>
<path d="M78.1737 78.1403C78.7802 77.2254 79.4657 76.3553 80.1156 75.4675C81.2551 73.9126 82.9709 72.025 83.3404 70.1129L83.2373 70.0685C82.6494 70.7658 82.1777 71.5303 81.6587 72.2743L81.6409 72.2662C79.4301 73.5871 78.0629 75.4718 76.6764 77.5366C75.9436 78.6275 75.3425 79.5329 75.5501 80.3669C75.9978 80.8555 76.5609 81.2421 77.1651 81.558L77.1667 81.541C77.042 80.1611 77.4262 79.2695 78.1737 78.1403Z" fill="#827D83"/>
<path d="M90.4691 79.8252C90.1135 80.471 89.246 81.2207 88.8037 80.656C87.7595 79.3219 87.4822 78.3196 85.5503 78.0748C84.8392 77.9841 84.2366 78.1937 83.5735 78.4127C82.6525 78.7174 81.6586 78.7685 80.7725 79.1683C79.5339 79.7286 78.4262 80.7388 78.3448 82.0878C78.4223 82.1187 78.5013 82.1536 78.5788 82.183L78.5827 82.1763C80.0017 80.4104 82.4364 80.6436 84.4945 80.98C85.5402 81.1513 86.476 81.4473 87.1855 82.1985C87.8617 82.9138 88.923 83.4087 89.6348 83.1585C90.4977 82.8553 91.0252 83.7342 91.6519 84.5909C92.363 84.6471 93.0741 84.6892 93.7852 84.7091C92.7464 83.5526 92.2948 81.8324 91.8734 80.3631C91.8115 80.1464 91.7123 79.663 91.593 79.0054C91.1461 79.2084 90.7146 79.3802 90.4691 79.8252" fill="#928E92"/>
<path d="M107.199 76.3515C106.857 73.5766 105.01 69.6218 104.396 68.5173C104.205 68.3512 103.995 68.1875 103.758 68.0249C102.761 67.3373 101.156 65.64 99.9031 66.0767C98.9968 66.3918 98.5569 66.0894 98.1231 66.3004C97.5894 66.5593 97.5057 67.152 97.0859 67.4982C96.6265 67.8767 96.1199 67.7187 95.838 68.2751C95.7055 68.5371 95.7187 69.0197 96.1842 68.6204C96.6211 68.2448 97.4879 68.0943 98.4329 68.2249C99.8745 68.4241 101.504 68.337 102.348 69.636C102.84 70.3924 103.102 71.3659 103.222 72.3059L103.22 72.3074C103.138 72.3472 103.058 72.3858 102.98 72.4227L102.933 72.4446C102.854 72.4815 102.776 72.5178 102.701 72.5501C101.397 73.1053 100.118 73.4124 98.7389 73.7436C98.2036 73.8718 97.6529 74.0321 97.1354 74.2474C93.3871 74.7908 94.2709 82.0731 95.1222 84.3372C95.1757 84.4795 95.2221 84.605 95.2663 84.7194C95.8302 84.7119 96.3926 84.6906 96.9542 84.6508C97.687 84.5991 98.6893 84.3806 99.7823 84.0662C102.682 80.783 103.679 72.6196 103.721 72.6167C103.988 72.2388 104.726 71.9989 105.153 71.8462C105.263 71.8064 105.346 71.9119 105.356 72.0004C105.367 72.1059 105.38 72.2132 105.393 72.3201C105.999 74.4991 106.576 78.7905 106.171 81.5078C106.697 81.2066 107.08 80.9312 107.249 80.7098C107.249 80.7098 107.523 78.9794 107.199 76.3515" fill="#656269"/>
<path d="M105.393 72.3201C105.38 72.2131 105.367 72.1058 105.356 72.0004C105.346 71.9119 105.263 71.8064 105.153 71.8461C104.726 71.9989 103.988 72.2387 103.721 72.6167C103.679 72.6195 102.682 80.783 99.7823 84.0662C101.637 83.6773 103.61 84.2492 104.67 83.8338C105.895 83.3533 106.686 82.6744 106.608 82.2108C107.013 79.4936 105.999 74.4991 105.393 72.3201Z" fill="#534F56"/>
<path d="M89.6348 83.1584C88.923 83.4087 87.8618 82.9137 87.1855 82.1985C86.476 81.4472 85.5402 81.1512 84.4945 80.9799C82.4364 80.6436 80.0018 80.4104 78.5827 82.1763L78.5788 82.1829L78.6051 82.1939C80.4998 82.9218 82.5076 83.3372 84.5162 83.6603C86.861 84.0382 89.2537 84.4029 91.6519 84.5908C91.0253 83.7341 90.4978 82.8552 89.6348 83.1584Z" fill="#827D83"/>
<path d="M105.391 71.9346C105.03 71.6971 104.67 71.4123 103.981 71.4247C103.655 71.4307 103.069 71.0808 102.735 71.1407C101.953 71.2794 101.115 71.8882 99.0146 71.8779C97.6839 71.8712 96.295 71.6388 95.1307 72.3119C94.6489 72.5908 94.5366 72.8689 94.2461 73.3509C93.6659 74.3146 92.9858 74.1996 92.7658 74.717C92.4808 75.3855 93.006 76.4703 92.8526 77.0451C92.8038 77.229 92.9804 77.2622 93.102 77.1004C93.8565 76.0961 94.6985 74.8225 95.848 74.2004C96.6575 73.762 97.4182 73.4305 99.4639 73.4423C100.95 73.4512 101.823 72.9591 102.946 72.8807C104.586 72.7666 104.377 72.0084 105.391 71.9346" fill="#A19BA0"/>
<path d="M11.3628 61.1722C12.2736 61.1523 12.8158 60.612 12.8158 59.8654C12.8158 57.0338 11.4261 54.344 12.91 51.7411C13.9211 49.9668 15.9189 49.032 15.9079 46.5443C15.9073 46.4203 15.7948 46.0084 15.6392 45.557C13.4101 45.7547 11.3665 47.0666 9.28771 48.1139C8.48591 48.5175 4.08084 51.1291 2.60033 54.3696C1.62726 56.5002 1.32462 58.9015 1.38124 61.1384C2.83511 63.2725 9.33767 61.2166 11.3628 61.1722" fill="#A19BA0"/>
<path d="M23.4991 51.4811C22.1632 54.3695 24.1382 55.2995 22.5348 57.2726C21.9387 58.2476 21.5877 59.5045 22.047 60.0585C22.9712 61.1752 26.918 62.0652 28.7417 61.3597C30.727 60.5906 31.6949 58.4927 33.0248 56.9008C34.1116 55.6004 34.9056 54.3245 36.3752 53.3505C36.7686 53.0899 38.0694 52.6641 39.5027 52.2095L39.4671 52.2006C40.7599 51.428 42.6833 50.5263 43.3316 49.1152C41.8552 48.0362 34.5464 47.0011 30.2531 47.5892C27.8872 47.9131 25.5409 48.7523 23.1733 48.1522C23.7493 49.2533 23.9366 50.5353 23.4991 51.4811" fill="#A19BA0"/>
<path d="M60.3041 74.4366C60.2414 69.3423 59.7929 66.2059 57.8262 63.131C59.3243 66.6112 57.9857 69.3003 54.9833 71.349C53.9887 72.027 53.5774 73.394 52.3117 73.6174C50.4456 73.948 48.7136 74.4225 47.3735 76.6061C46.9405 77.3124 45.6717 76.9523 44.9343 77.6577C43.8328 78.7102 42.0721 79.767 40.6933 80.4067C35.6672 82.7402 22.0615 87.5745 16.4704 83.8007C16.1866 83.6088 13.7887 80.9979 14.205 80.978C18.8841 80.7549 23.0994 78.5035 26.4633 75.6897C27.5398 74.7892 29.1332 73.0751 30.4749 72.5909C35.5818 70.7467 32.9821 69.9998 33.6696 68.067C34.3991 66.0163 36.7244 65.7692 38.711 65.0333C40.2455 64.4646 44.0411 63.9226 44.4432 62.2918C44.7871 60.8955 45.6268 59.146 44.9924 57.8456C44.6159 57.0745 42.7971 57.0073 41.9551 56.7778C41.0775 56.4449 40.1921 56.2486 39.2734 56.0448C38.6467 55.9055 38.6801 55.1667 39.1107 54.8568C40.5655 53.8096 42.2293 53.4045 43.9436 53.448C42.4912 52.992 41.0054 52.5927 39.5027 52.2096C38.0694 52.6642 36.7686 53.09 36.3752 53.3506C34.9056 54.3247 34.1116 55.6005 33.0248 56.9009C31.6949 58.4928 30.9012 60.8401 28.916 61.6083C27.092 62.3146 22.9711 61.1754 22.047 60.0586C21.5877 59.5046 21.9384 58.2477 22.5348 57.2728C24.1382 55.2996 22.1632 54.3697 23.4991 51.4812C23.9366 50.5354 23.7493 49.2526 23.1732 48.1523C23.064 48.1251 22.9548 48.0978 22.8455 48.0637C21.2276 47.5604 19.9035 46.4815 18.3183 45.9047C17.3884 45.5656 16.5003 45.4808 15.6392 45.557C15.7947 46.0084 15.907 46.4203 15.9079 46.5443C15.9188 49.032 13.9211 49.9669 12.9099 51.7412C11.4261 54.344 12.8158 57.0338 12.8158 59.8655C12.8158 60.6121 12.2736 61.1523 11.3628 61.1722C9.33766 61.2166 2.8351 63.2725 1.38123 61.1385C1.44567 63.6894 1.97884 66.0252 2.54159 67.4842C2.43477 68.8347 2.32409 70.1838 2.23601 71.5378C2.00758 75.0484 1.66621 78.677 2.9011 82.0642C4.95173 87.689 10.6161 90.7982 15.8429 93.4044C16.4743 93.719 17.2305 93.5005 17.537 92.9072C17.8006 92.9124 18.0841 92.8555 18.3809 92.7005C20.0218 91.8461 22.3375 93.9833 24.7191 95.9617C33.0056 95.4745 42.0372 92.8835 49.5603 89.4984C52.5232 88.1658 60.2437 82.479 60.2406 81.78C60.2406 81.78 60.3127 75.0757 60.3041 74.4366Z" fill="#949294"/>
<path d="M39.1108 54.8568C38.6801 55.1666 38.6468 55.9055 39.2734 56.0448C40.1921 56.2486 41.0775 56.4449 41.9551 56.7778C42.7971 57.0073 44.6159 57.0744 44.9924 57.8455C45.6268 59.1459 44.7871 60.8963 44.4432 62.2918C44.0412 63.9226 40.2456 64.4651 38.7111 65.0333C36.7244 65.7692 34.3991 66.0163 33.6696 68.067C32.9821 70.0007 35.5819 70.7467 30.4749 72.5908C29.1332 73.0751 27.5398 74.7892 26.4633 75.6897C23.0994 78.5035 18.8842 80.7549 14.205 80.978C13.7887 80.9979 16.1866 83.6088 16.4705 83.8007C22.0615 87.5745 35.6672 82.7402 40.6933 80.4067C42.0721 79.767 43.8328 78.7102 44.9343 77.6577C45.6717 76.9523 46.9405 77.3124 47.3735 76.6061C48.7136 74.4225 50.4457 73.948 52.3117 73.6173C53.5774 73.394 53.9887 72.0269 54.9833 71.349C57.9857 69.3002 59.3243 66.6112 57.8262 63.131C57.0911 61.9811 56.1499 60.8395 54.9276 59.6077C51.7966 56.4538 48.0033 54.7231 43.9436 53.448C42.2294 53.4045 40.5655 53.8095 39.1108 54.8568Z" fill="#A19BA0"/>
<path d="M23.7328 89.4601C21.9653 85.6987 17.9019 83.0147 14.7496 80.3859C8.46406 75.1449 3.00575 65.8029 3.05176 60.7781C3.06748 59.0477 2.39907 56.8398 2.60031 54.3697C1.1349 57.3835 1.0057 61.6187 0.94698 63.1036C0.800269 66.8016 1.15938 70.6332 1.4133 74.1887C1.67837 77.8999 1.60873 82.0619 4.10717 85.1306C6.64495 88.247 10.1945 91.3868 13.7911 93.3376C17.1676 95.1689 24.7191 95.9617 24.7191 95.9617C24.7191 95.9617 24.5012 91.0962 23.7328 89.4601" fill="#827D83"/>
<path d="M46.3193 72.8101C44.3293 73.9304 42.4811 74.8823 41.8552 75.4299C41.1495 76.0483 39.23 76.4888 38.3996 76.9538C35.9949 78.3006 33.4613 79.4363 30.8119 80.2723C26.3839 81.6701 19.4494 83.8713 15.3539 80.882C17.0659 84.3121 22.3154 90.2897 23.0129 95.2562L23.0274 95.296C21.4806 94.7033 18.8956 93.4023 17.5884 91.8244C16.1817 90.1271 13.0827 87.4528 11.4457 86.8028C10.9501 86.6056 9.25408 86.1674 8.74454 85.5989C6.71699 83.3372 6.24277 83.8367 5.43338 83.3165C3.26842 81.9232 2.0027 79.468 1.58759 76.931C2.11254 82.1668 3.47996 84.596 4.41701 85.7134C8.91882 91.0777 12.4588 93.3675 17.0121 94.6171C21.2046 95.7682 24.7191 96.2242 24.7191 96.2242C24.7191 96.2242 30.8373 95.8922 34.8847 94.772C37.6349 94.0104 49.7578 89.987 52.1808 88.7953C56.1452 86.8439 63.1741 83.9356 63.604 83.2743C63.9983 81.2907 63.7558 77.7751 63.597 76.3729C63.4599 75.1567 63.1834 73.8462 62.803 72.5251C59.4978 73.1561 54.3404 74.2062 51.8198 76.0673C49.8143 75.0393 47.2372 73.5009 46.3193 72.8101" fill="#656269"/>
<path d="M51.6378 69.1814C50.441 70.4019 48.3093 71.6905 46.3193 72.8101C47.2372 73.5008 49.8143 75.0393 51.8198 76.0673C54.3404 74.2062 59.4978 73.156 62.803 72.525C61.6667 68.5755 59.3885 63.5558 57.2607 61.6114C56.4504 65.0531 53.8462 66.9283 51.6378 69.1814" fill="#534F56"/>
<path d="M45.3921 73.1561C44.5059 72.8927 42.8661 72.4905 41.4702 72.4072C41.5423 72.7511 41.9962 74.1466 42.2441 75.8076C42.8575 79.9131 44.1372 86.3888 44.2456 86.7201C44.4114 87.2271 46.5509 86.475 46.7786 85.4329C47.0273 84.2943 45.7763 76.0114 45.3921 73.1561" fill="#534F56"/>
<path d="M86.0368 84.0808C80.4704 79.0177 72.107 71.0168 63.6737 71.8925C59.332 72.3443 54.5604 73.8372 50.8012 75.7758C46.1954 78.1506 41.0419 82.4723 37.8822 85.568C37.4358 86.0047 39.1007 86.649 39.5128 86.7407C54.8021 90.1345 70.6011 89.6629 85.6572 85.4484C86.2638 85.2786 86.5132 84.5141 86.0368 84.0808" fill="#949294"/>
<path d="M74.406 88.0659C73.7019 87.3686 72.4385 87.7044 71.6135 87.7716C69.3656 87.9546 67.1192 88.0895 64.8628 88.1258C60.0114 88.2049 54.9028 88.4712 50.1041 87.7848C46.1892 87.2256 39.7436 86.0587 37.8822 85.568C37.6843 87.8615 37.3317 89.9102 37.3139 92.2112C37.3069 93.0864 37.7738 95.7705 37.7738 95.7705C37.7738 95.7705 40.6391 97.0757 41.6809 97.4464C42.2061 97.633 42.7329 97.816 43.2612 97.9939C44.1853 97.0388 44.6493 96.7682 46.4076 96.9394C49.4774 97.2375 51.5968 98.2617 52.6657 95.0679C53.3319 93.076 53.1042 90.511 52.7595 88.4969C52.7285 88.3141 52.9028 88.1717 53.0856 88.2587C55.0461 89.1884 55.7115 88.3207 57.1701 89.5485C58.4567 90.632 58.889 91.7205 59.3599 93.2244C59.6752 94.2331 60.0718 95.9276 60.5978 96.8869C60.6667 97.0132 60.7488 97.1253 60.8301 97.2375C63.3593 98.3689 66.3423 96.5055 68.5724 98.7422C68.7475 98.729 68.9186 98.7163 69.0829 98.7053C69.1619 98.7001 69.1797 98.8255 69.1015 98.8374C68.969 98.8587 68.8311 98.8809 68.6909 98.9022L68.7405 99.0498C69.2424 98.9547 69.7568 98.8567 70.2858 98.7555C70.6135 98.6926 74.2704 95.5615 74.2689 95.2562C74.2619 92.9719 74.8669 92.7269 74.8243 90.4439C74.8119 89.7722 74.9629 88.6165 74.406 88.0659" fill="#827D83"/>
<path d="M69.1015 98.8374C69.1797 98.8256 69.1619 98.7002 69.0829 98.7054C68.9187 98.7164 68.7475 98.729 68.5724 98.7423C66.3423 96.5056 63.3593 98.369 60.8302 97.2375C60.7488 97.1254 60.6667 97.0133 60.5978 96.887C60.0718 95.9276 59.6752 94.2332 59.3599 93.2245C58.889 91.7206 59.3599 89.4528 58.8464 88.6704C57.8138 87.098 55.0461 89.1885 53.0856 88.2588C52.9028 88.1718 52.7285 88.3142 52.7595 88.4969C53.1042 90.5111 53.3319 93.0761 52.6657 95.068C51.5968 98.2618 49.4774 97.2375 46.4076 96.9395C44.6493 96.7682 44.1853 97.0389 43.2612 97.994C44.9831 98.5725 46.7245 99.0928 48.5092 99.4699C56.5388 101.169 61.2283 100.473 68.7405 99.0499L68.6909 98.9023C68.8311 98.881 68.969 98.8588 69.1015 98.8374Z" fill="#656269"/>
<path d="M45.1125 53.8317C44.9955 53.6028 43.9784 49.7671 43.3316 49.1153C42.4215 50.0282 39.1619 50.5307 38.3269 51.1491C35.246 53.4287 34.144 55.2995 31.2686 57.7902C30.1853 58.7348 29.5532 61.2217 27.5553 60.8164C25.646 60.4299 22.3118 59.4166 20.9614 61.3287C23.7103 62.043 25.0538 62.7559 27.7835 63.06C28.9145 63.1863 31.3932 62.6349 32.0964 61.8159C33.7958 59.838 35.0088 58.371 37.4001 56.9813C39.7475 55.6175 43.5005 56.4803 45.1125 53.8317" fill="#656269"/>
<path d="M86.919 84.3745C86.2862 84.2705 85.3218 84.0589 84.8121 84.154C81.4022 84.7946 78.9653 85.4343 75.5516 86.0534C75.4323 86.0751 75.3254 86.095 75.2154 86.1154C74.4423 85.6626 73.6515 85.2351 72.8513 84.8145C72.591 84.6773 72.2843 84.762 72.1247 84.9961C71.3354 86.1523 71.1533 87.57 71.663 88.8203C71.598 88.9973 71.5313 89.1826 71.4585 89.3885C71.4368 89.4518 71.4113 89.5199 71.3842 89.5899C71.1642 89.7464 71.079 90.0016 71.1154 90.2414C69.9899 92.8583 72.1479 96.8462 72.1781 96.4738C74.1766 96.8679 75.5849 98.6433 77.3975 98.2322C79.7531 97.6981 83.9329 96.0567 86.2862 95.0901C87.0484 91.9359 87.2227 86.8594 86.919 84.3745" fill="#656269"/>
<path d="M84.0816 83.6517C83.3024 81.6635 82.0258 80.4894 80.8476 80.4066C78.0327 80.7248 74.227 81.9624 71.3656 81.5032C69.656 81.2296 67.6203 80.5669 65.8689 80.8096C65.0587 80.9226 64.5831 81.1402 63.9975 81.6404C63.7449 81.8561 63.7976 82.3046 63.628 82.5263C62.6667 83.7828 61.6303 84.2176 60.1229 84.6854C55.4729 86.1311 49.6563 86.9059 44.8181 86.8028C44.7228 86.8005 47.9979 87.3421 52.0142 87.8837C56.6789 88.5125 62.3437 89.1412 64.8976 88.9192C67.7629 88.6696 70.5468 88.0181 71.6197 85.4101C75.6484 86.9082 79.8367 86.5834 83.6835 84.5836C83.9941 84.4219 84.211 83.982 84.0816 83.6517" fill="#A19BA0"/>
<path d="M86.919 84.3746C83.4922 81.0782 79.5238 78.1359 75.5222 75.4962C75.0969 76.7995 79.9762 79.4562 82.6773 82.901C83.0801 83.4147 82.8516 84.3746 80.8763 84.6395C80.2078 84.7298 77.0404 85.6277 74.8343 84.3746C73.3478 83.5312 72.4903 83.6669 70.7908 83.1918C70.6971 84.5813 70.5042 86.59 69.2416 87.3605C68.2958 87.9384 67.2129 87.9717 66.1509 87.7531C63.1199 87.8416 60.0934 87.8785 57.0562 87.6652C51.8399 87.2994 45.8111 86.771 40.6298 86.114C46.9948 87.7266 53.5441 89.1325 60.3049 89.5006C60.8774 89.5317 61.7224 89.4925 62.6605 89.4542C65.3259 89.3435 68.7389 89.2334 68.759 90.7324C68.7769 92.0717 67.9372 95.3112 69.6103 97.5822C71.4028 97.6145 70.1843 92.9734 70.7413 90.8342C70.8706 90.5632 71.007 90.2916 71.1549 90.0195C71.2029 89.9316 71.2153 89.8437 71.2091 89.7603C71.3354 89.6742 71.4617 89.5885 71.5871 89.5029C71.9799 89.3649 72.0256 88.8624 71.6491 88.6955L71.6654 88.6779C71.9009 88.6836 72.1495 88.5383 72.1789 88.2446C72.2696 87.351 72.258 86.5496 72.1619 85.743L72.1611 85.7289C72.4965 85.9895 72.8637 86.2048 73.3292 86.4233C73.4067 86.4593 73.4811 86.4726 73.5523 86.4758C73.8699 86.6787 73.7654 86.9007 74.0946 87.0933C74.3517 87.2432 85.6572 85.4484 86.919 84.3746" fill="#BBB4B8"/>
<path d="M53.1583 58.0248C54.7401 59.1914 56.39 62.1736 55.0561 64.597C53.3411 67.7129 48.4301 70.6418 47.7113 71.1607C45.7329 70.7467 44.7747 70.3665 44.6872 70.9473C44.6694 71.0661 45.2619 71.6801 45.3487 71.8286C45.4502 72.0027 45.0055 72.3097 44.6299 72.1356C43.605 71.6617 42.1263 70.8779 41.3091 70.4094C41.1565 70.3209 39.7204 69.4942 39.5027 70.408C39.0619 72.2566 39.5949 73.2483 38.2439 74.7147C36.8367 76.2416 34.8299 77.3535 32.9908 78.3397C31.1248 79.3411 24.4287 82.3616 20.3435 81.8839C18.5356 81.6729 16.0608 80.4723 14.8438 79.6444C12.3777 77.9661 8.82448 73.7695 7.00166 70.9473C5.08302 67.9764 4.05999 65.4494 3.32589 62.4408C4.08571 62.9095 10.7485 63.0784 12.7169 60.382C10.2209 61.1929 6.86161 61.8778 4.88062 60.1825C4.37317 59.748 4.2019 59.128 4.24791 58.5924C4.39617 56.8692 5.9629 55.1591 6.76176 54.0369C7.82623 52.541 8.8072 50.6811 10.0753 49.1816C11.7414 48.3427 14.4083 46.9988 15.4098 45.5834C7.69881 46.2925 4.51872 51.8547 2.38365 54.3696C0.936676 58.8933 2.09534 64.7077 4.31174 69.2391C5.87847 72.4426 8.17574 75.1915 10.7374 77.7211C11.6118 78.5853 17.3948 85.2757 18.6778 86.4962C19.2237 87.182 21.5683 91.3006 21.7683 91.4113C21.7683 90.0253 21.2337 86.4962 22.7433 83.9768C28.0058 82.3181 33.1464 80.1645 38.182 77.9751C39.4508 77.423 41.0023 76.3847 42.2239 75.3376C42.4834 74.4726 41.7901 72.8122 41.7801 72.7156C42.8692 73.1907 45.0993 73.9243 45.475 73.7611C45.7631 73.6357 57.6124 67.022 57.8881 63.5596C58.0446 61.595 54.8818 58.6204 53.1583 58.0248" fill="#BBB4B8"/>
<path d="M43.3316 49.1153C39.7614 46.0867 32.2595 46.9236 27.9447 48.0026C30.6603 48.2439 35.3153 47.6099 38.6545 48.4762C39.9969 48.8244 40.1967 49.727 38.5732 50.4849C37.6948 50.8953 36.8215 52.0747 36.0878 52.6973C34.9298 53.6789 32.0743 56.7556 31.9905 56.8314C30.7087 57.9842 30.1811 58.9657 28.5238 59.5059C28.2315 59.6011 27.0463 59.7472 26.6865 59.7781C25.1452 59.9118 23.5282 59.81 22.398 60.3745C24.052 60.4795 26.77 62.0363 29.4243 61.2526C30.6818 60.8807 31.9505 59.7908 33.0372 58.1304C33.7364 57.0617 35.2556 55.0346 36.191 54.079C37.0079 53.2436 40.6902 51.2245 40.9837 51.1205C41.7049 50.8642 42.3866 50.5705 43.0891 50.2156C43.3758 50.0709 43.5772 49.3243 43.3316 49.1153" fill="#BBB4B8"/>
<path d="M74.2107 86.1797C74.0837 85.7289 71.5135 84.6617 71.5391 85.1939C71.5693 85.8402 71.3555 87.438 71.2633 88.7116C70.3477 89.8739 69.804 92.2348 69.68 92.9483C69.3779 94.6872 69.3531 97.2412 69.9039 98.8241C69.9039 98.8241 71.9984 98.4395 73.433 97.8019C74.4718 98.0899 75.7282 98.6131 76.9095 98.4528C76.5284 95.5453 75.0574 89.1774 74.2107 86.1797" fill="#534F56"/>
<path d="M171.253 78.4392C171.121 75.1826 169.992 66.1027 169.531 63.1693C168.919 63.2385 168.421 63.4261 167.744 63.9102C166.638 64.7012 165.86 65.555 164.72 65.9329C165.34 69.4974 165.232 73.3031 165.331 76.9013C165.402 79.4893 165.479 82.0775 165.554 84.6655C167.376 83.8376 170.158 82.1063 171.216 81.9984C171.27 80.7897 171.298 79.5352 171.253 78.4392" fill="#827D83"/>
<path d="M178.811 77.4844C178.799 76.6859 178.756 75.8946 178.7 75.1065C178.161 72.3154 177.512 68.9202 176.934 66.5379C176.642 65.3313 176.077 62.3773 176.056 62.2776C176.056 62.2776 175.897 62.1072 175.67 61.8614C174.701 62.3817 173.849 62.7271 172.926 62.9248C173.313 66.3241 174.553 71.2189 175.019 74.0122C175.238 75.3235 175.577 76.6239 175.753 77.9395C175.923 79.2083 175.487 81.0508 175.471 82.4189C176.168 82.4781 176.836 82.4824 177.42 82.3371C178.044 82.1815 178.314 81.4236 178.724 80.8929C178.501 79.7741 178.824 78.2408 178.811 77.4844" fill="#827D83"/>
<path d="M176.934 66.5379C177.57 69.1586 178.293 73.013 178.859 75.9301C179.165 74.4659 179.466 71.7539 179.241 69.2241C178.936 65.7948 178.318 61.9715 177.696 59.8224C176.662 60.0225 175.828 60.1436 175.333 60.1237C175.353 60.9862 175.099 61.4673 175.766 61.812L175.67 61.8613C175.897 62.1072 176.056 62.2776 176.056 62.2776C176.077 62.3773 176.642 65.3313 176.934 66.5379" fill="#534F56"/>
<path d="M175.753 77.9395C175.577 76.6239 175.238 75.3235 175.019 74.0122C174.553 71.2189 173.313 66.3241 172.926 62.9248C172.237 63.0724 171.508 63.1419 170.654 63.1324C170.215 63.1271 169.858 63.1324 169.531 63.1693C169.992 66.1027 171.121 75.1826 171.253 78.4392C171.298 79.5351 171.27 80.7897 171.216 81.9984L171.278 81.9894C172.525 81.9312 174.06 82.2979 175.471 82.4189C175.487 81.0508 175.923 79.2083 175.753 77.9395" fill="#656269"/>
<path d="M164.72 65.9329C164.256 66.0871 163.739 66.1704 163.105 66.1263C161.69 66.0274 158.622 65.4457 158.637 65.5034C158.867 66.4391 158.73 67.1779 157.867 67.4302C157.578 67.5144 157.208 67.5469 156.802 67.5593C157.994 71.8248 158.509 76.2616 158.71 80.6709C158.775 82.0973 158.808 83.5245 158.825 84.9517C158.834 85.7237 158.656 86.7577 158.826 87.5842C158.905 87.5591 158.983 87.536 159.063 87.5076C160.224 87.0861 161.183 85.3769 161.183 85.3769C161.183 85.3769 163.142 85.568 164.892 84.9399C165.091 84.869 165.315 84.7739 165.554 84.6655C165.479 82.0774 165.402 79.4893 165.331 76.9012C165.232 73.3031 165.34 69.4974 164.72 65.9329" fill="#656269"/>
<path d="M182.076 73.5989C182.158 71.8831 181.89 70.8182 183.386 71.2567C184.138 71.4772 183.808 69.1621 183.973 67.8758C184.119 66.732 184.925 65.6273 184.887 64.4777C184.816 62.4002 184.703 60.3295 184.717 58.2505C182.188 58.8167 179.594 59.4558 177.696 59.8225C178.318 61.9715 178.936 65.7948 179.241 69.2241C179.466 71.7539 179.165 74.466 178.859 75.9301C178.807 75.6652 178.753 75.3847 178.7 75.1065C178.756 75.8946 178.799 76.6859 178.811 77.4844C178.824 78.2408 178.501 79.7742 178.724 80.8929C178.897 80.6695 179.091 80.4818 179.352 80.4037C180.225 80.1417 181.098 79.8672 181.973 79.5929C181.934 77.677 181.993 75.3259 182.076 73.5989" fill="#656269"/>
<path d="M187.574 67.6213C187.469 64.9523 187.578 61.1457 187.351 57.6919C186.503 57.8588 185.615 58.0508 184.717 58.2505C184.703 60.3296 184.816 62.4002 184.887 64.4777C184.925 65.6274 184.119 66.732 183.973 67.8759C183.808 69.1622 184.138 71.4772 183.386 71.2567C181.89 70.8182 182.158 71.8831 182.076 73.5989C181.993 75.3259 181.934 77.6771 181.973 79.5929C183.852 79.0022 185.746 78.4179 187.708 77.9892C187.745 74.5318 187.709 71.0765 187.574 67.6213" fill="#534F56"/>
<path d="M175.333 60.1237C177.06 60.193 182.815 58.5826 187.351 57.6919L187.348 57.6366C183.883 56.4457 180.496 55.0679 177.209 53.4849C176.106 52.9542 174.797 52.4244 173.807 51.6288C171.899 51.8775 170.012 50.9698 168.291 50.2232C166.527 49.4578 164.541 48.6016 162.682 49.6334C161.468 50.3065 160.65 51.4149 159.327 51.9418C157.655 52.6097 155.781 52.4405 154.216 53.4097C152.891 54.2295 151.931 55.5835 151.577 57.0471C150.883 59.9156 152.778 62.4579 155.406 63.474C155.962 63.4429 157.98 65.2281 158.685 66.6245C158.764 66.3077 158.741 65.9278 158.637 65.5035C158.622 65.4458 161.69 66.0275 163.105 66.1264C165.294 66.2783 166.187 65.0238 167.744 63.9102C168.783 63.1671 169.393 63.1175 170.654 63.1324C172.693 63.1552 174.028 62.7574 175.766 61.8121C175.099 61.4674 175.353 60.9863 175.333 60.1237Z" fill="#949294"/>
<path d="M155.406 63.474C152.778 62.4578 150.883 59.9156 151.577 57.0471C151.931 55.5835 152.891 54.2295 154.216 53.4097C155.781 52.4405 157.655 52.6097 159.327 51.9418C160.65 51.4149 161.468 50.3065 162.682 49.6334C164.541 48.6016 166.527 49.4578 168.291 50.2231C170.012 50.9697 171.899 51.8775 173.807 51.6287C173.528 51.4045 173.271 51.1632 173.055 50.8902C171.93 49.4644 173.378 48.0061 172.748 46.5333C171.988 44.7538 169.37 44.7835 167.713 44.8042C163.833 44.8527 159.951 45.0424 156.083 45.3258C148.584 45.8758 141.119 46.8371 133.737 48.2055C130.131 48.8741 126.528 49.6106 122.975 50.4976C121.383 50.8945 120.034 51.429 119.132 52.4731C118.494 54.828 123.942 56.8632 125.572 57.6403C128.221 58.9029 130.969 59.9819 133.737 60.9805C138.881 62.8358 148.516 66.0309 153.757 67.6118C154.335 67.5365 155.018 67.5475 155.683 67.5593C156.519 67.5734 157.327 67.5873 157.867 67.4302C158.339 67.2921 158.588 67.0053 158.685 66.6245C157.98 65.2281 155.962 63.4429 155.406 63.474" fill="#A19BA0"/>
<path d="M154.458 84.0789C154.213 83.323 153.865 82.6957 153.042 82.4052C152.95 82.3726 152.855 82.3483 152.759 82.3282C152.694 84.0544 152.646 85.7805 152.614 87.5067C154.361 87.5545 155.739 87.9148 157.155 87.8629C155.722 86.922 154.986 85.7076 154.458 84.0789" fill="#656269"/>
<path d="M152.568 87.5076L152.614 87.5067C152.646 85.7805 152.695 84.0544 152.759 82.3282C152.019 82.1734 151.184 82.3697 150.546 82.7151C150.15 82.929 149.844 83.2118 149.544 83.5349C148.773 84.3674 148.266 84.4582 147.121 84.3547C143.356 84.0154 139.614 83.3527 135.964 82.4095C134.167 81.9454 132.386 81.4193 130.634 80.8171C128.883 80.2149 127.049 79.4908 126.238 77.7721C126.077 77.4334 125.96 75.9301 125.575 77.1869C124.905 79.378 123.573 79.3913 122.035 79.1625C121.533 79.0878 121.031 79.0362 120.527 78.9935C124.495 80.3646 129.694 82.1262 132.999 83.208C138.291 84.94 146.928 87.3355 152.568 87.5076" fill="#656269"/>
<path d="M158.825 84.9517C158.809 83.5245 158.775 82.0972 158.71 80.6709C158.51 76.2615 157.994 71.8248 156.802 67.5593C155.846 67.5881 154.673 67.4921 153.757 67.6117C148.516 66.0309 138.881 62.8357 133.737 60.9804C131.4 60.1375 129.082 59.2297 126.822 58.2107C126.699 58.5287 126.64 58.8299 126.743 59.0571C127.001 59.6299 127.145 60.7899 127.58 61.1752C127.885 61.4453 127.877 62.0467 127.418 61.7855C126.866 61.5191 126.593 61.8636 126.429 62.3626C126.192 63.0807 125.561 63.6097 125.092 64.2422C124.147 65.5137 123.95 66.7469 123.789 68.2693C123.53 70.7187 122.378 72.8357 121.165 74.9715C121.037 75.1966 120.713 75.1162 120.632 74.9049C119.858 72.8948 119.416 70.6867 119.602 68.5734C119.939 64.7455 118.894 61.6786 118.899 61.4364C118.901 61.3162 119.091 61.2874 119.122 61.4076C119.139 61.4762 119.152 61.5457 119.169 61.6143C120.079 59.7126 121.079 57.861 122.164 56.0418L122.172 56.0308C120.402 55.0669 118.766 53.8235 119.132 52.473C118.717 52.955 118.387 53.5341 118.189 54.2773C117.192 58.0153 116.903 62.0476 116.311 65.8619C115.869 68.7172 115.322 74.1214 114.983 77.0024C114.773 76.9816 117.224 77.8525 120.527 78.9934C121.031 79.0361 121.533 79.0877 122.035 79.1624C123.573 79.3913 124.905 79.378 125.575 77.1869C125.96 75.93 126.077 77.4334 126.238 77.7721C127.049 79.4907 128.883 80.2148 130.634 80.817C132.386 81.4193 134.167 81.9453 135.964 82.4095C139.614 83.3527 143.356 84.0154 147.121 84.3547C148.266 84.4581 148.773 84.3674 149.544 83.5349C149.844 83.2117 150.15 82.9289 150.546 82.715C151.184 82.3696 152.019 82.1733 152.759 82.3282C152.855 82.3483 152.95 82.3726 153.042 82.4051C153.865 82.6957 154.214 83.3229 154.458 84.0788C154.986 85.7075 155.722 86.922 157.156 87.8629C157.699 87.843 158.248 87.7687 158.826 87.5842C158.656 86.7577 158.834 85.7237 158.825 84.9517" fill="#827D83"/>
<path d="M118.899 61.4364C118.894 61.6786 119.939 64.7455 119.602 68.5734C119.416 70.6867 119.858 72.8949 120.632 74.905C120.713 75.1162 121.037 75.1967 121.165 74.9715C122.378 72.8358 123.53 70.7188 123.789 68.2693C123.95 66.7469 124.147 65.5137 125.092 64.2422C125.561 63.6098 126.192 63.0808 126.429 62.3627C126.593 61.8636 126.866 61.5192 127.418 61.7856C127.877 62.0467 127.885 61.4454 127.58 61.1753C127.145 60.7899 127.001 59.6299 126.743 59.0571C126.64 58.8299 126.699 58.5287 126.822 58.2107C126.404 58.0219 125.985 57.8374 125.572 57.6403C124.877 57.3091 123.487 56.7467 122.172 56.0308L122.164 56.0418C121.079 57.8611 118.901 61.3162 118.899 61.4364" fill="#656269"/>
<path d="M183.378 55.9718C180.854 55.0015 178.254 54.0819 175.917 52.7792C175.302 52.4361 173.7 51.3329 173.297 50.5284C173.007 49.9515 172.96 49.4474 173.064 48.8069C173.216 47.8784 173.257 46.8431 172.748 46.5333C172.919 47.7812 171.544 49.5169 171.131 50.2416C170.977 50.5122 171.064 51.1248 173.141 51.9239C174.668 52.5114 176.327 53.58 176.817 53.8161C178.818 54.7792 180.878 55.3497 182.826 56.4189C183.412 56.7409 183.93 57.7688 182.385 58.1378C182.149 58.1946 180.9 58.5532 180.66 58.5916C179.201 58.7259 177.745 58.8853 176.297 58.9326C174.178 59.0027 174.879 57.6919 175.029 56.6573C173.456 56.9003 173.518 57.529 173.47 58.1857C173.425 58.7931 173.811 59.4639 174.206 60.0675C174.797 60.9672 174.284 61.7553 173.745 61.9885C172.926 62.342 170.581 62.218 169.827 62.2828C167.98 62.4431 166.827 63.693 165.911 64.6305C165.753 64.7801 165.6 64.9367 165.452 65.1004C165.179 65.291 164.895 65.459 164.603 65.6081C162.186 66.3668 155.289 63.0208 153.99 62.8334C155.021 63.4223 155.908 64.1774 156.802 64.7588C157.678 65.3279 157.326 65.8643 157.174 66.0451C156.363 67.0119 153.49 66.8847 152.313 66.7182C148.955 66.2414 145.766 65.0598 142.535 64.0364C136.157 62.0142 130.359 58.9044 124.242 56.2058C123.566 55.9069 121.616 54.661 121.259 54.2154C120.505 53.2768 121.085 51.58 122.329 50.6711C121.799 50.7152 120.838 51.0804 120.574 51.2127C119.963 51.5197 119.081 52.2384 119.008 52.6235C118.885 53.2811 119.39 54.0819 119.871 54.5688C119.952 54.6524 120.175 54.8809 120.324 55.0669C120.638 55.456 120.608 56.1018 120.544 56.4818C120.299 57.9355 120.04 58.2638 119.513 59.7296C119.323 60.2586 118.899 61.4365 118.899 61.4365C120.736 60.1796 121.888 58.2771 122.335 57.0277C122.381 56.9008 122.596 56.4094 122.964 56.5598C125.285 57.5083 134.096 61.6858 139.015 63.4716C142.16 64.6135 145.352 65.6317 148.595 66.4916C150.835 67.0857 156.011 67.4132 157.004 69.926C157.452 71.058 157.901 73.5856 158.083 74.7678C158.53 77.6695 158.386 80.8819 158.807 83.7748C159.187 80.8929 159.233 77.2512 158.761 74.2771C158.484 72.5273 158.118 71.1177 158.408 69.3423C158.546 68.4965 158.826 67.4501 158.864 66.4267C159.636 66.7845 163.354 66.8805 164.196 66.6147C164.974 66.4604 165.685 66.1255 166.256 65.5564C167.284 64.8635 168.364 63.5005 169.545 63.2629C170.447 63.0813 170.855 63.1693 171.708 63.2327C171.993 63.254 173.163 63.2976 173.413 63.2829C174.369 63.2252 175.679 62.9839 176.056 62.2777C175.931 61.4284 175.351 60.672 175.364 60.2402C175.745 60.2306 176.057 60.1465 176.859 60.0534C177.9 59.9326 179.362 59.6337 180.267 59.4748C182.609 59.0646 185.011 58.1209 187.351 57.6919C186.42 57.1903 183.652 56.0773 183.378 55.9718" fill="#BBB4B8"/>
<path d="M156.61 77.5331C156.582 76.3573 156.716 73.9673 155.544 73.5199C154.389 73.0794 154.912 71.8234 153.729 70.8484C152.904 70.1682 151.828 70.92 151.585 70.5343C150.98 69.5718 150.282 68.8317 149.641 68.9491C149.337 71.4028 149.536 72.9805 150.894 75.1051C151.121 75.4622 152.012 75.9419 152.244 76.2962C152.585 76.8157 152.079 77.8681 153.072 78.3397C154.302 78.924 154.829 79.0252 154.884 80.2784C154.949 81.7306 155.214 83.7748 156.802 83.7748C157.069 83.7748 156.258 82.3282 156.523 80.8929C156.808 79.338 156.648 79.1071 156.61 77.5331" fill="#656269"/>
<path d="M111.052 19.7944H127.463V18.4306H111.052V19.7944Z" fill="#656269"/>
<path d="M120.207 28.9148C116.972 28.9148 113.413 28.5519 110.195 27.6293C111.552 26.8434 112.888 26.0183 114.252 25.2959C114.743 25.0361 115.028 24.5048 115.029 23.9779C115.029 23.721 114.962 23.4642 114.817 23.2414C114.34 22.5056 113.897 22.0171 113.202 21.4562C112.473 20.8688 110.676 20.2622 110.677 19.26C110.678 19.0121 110.789 18.7405 111.052 18.4387C111.054 18.4357 111.057 18.4335 111.059 18.4306C111.085 18.4018 111.112 18.3745 111.142 18.3472C111.92 18.2844 112.709 18.2564 113.502 18.2564C117.079 18.2564 120.752 18.8261 124.02 19.3072C125.149 19.5117 126.31 19.694 127.463 19.7943C131.049 20.3899 135.851 21.606 134.919 24.1742C134.296 25.8914 131.383 27.067 129.688 27.6301C127.167 28.4677 124.414 28.7917 121.742 28.8874C121.241 28.9053 120.729 28.9148 120.207 28.9148" fill="#7D7A7F"/>
<path d="M110.195 27.6294C108.443 27.1276 106.793 26.4605 105.349 25.5956C103.867 24.707 102.515 23.0223 103.278 21.3478C103.758 20.2932 104.879 19.7412 106.049 19.4084C107.652 18.8166 109.37 18.4911 111.142 18.3472C111.113 18.3745 111.085 18.4018 111.059 18.4306C111.057 18.4336 111.054 18.4358 111.052 18.4387C110.789 18.7406 110.678 19.0121 110.677 19.2601C110.676 20.2623 112.474 20.8689 113.202 21.4563C113.897 22.0171 114.34 22.5057 114.818 23.2414C114.962 23.4643 115.029 23.7211 115.029 23.9779C115.028 24.5048 114.743 25.0362 114.252 25.2959C112.888 26.0184 111.552 26.8435 110.195 27.6294M127.463 19.7944C126.31 19.6933 125.149 19.5117 124.021 19.3073C124.061 19.3132 124.102 19.3191 124.143 19.3258C124.725 19.4114 125.991 19.5509 127.463 19.7944Z" fill="#847F85"/>
<path d="M152.622 61.3599C152.591 61.3599 152.56 61.3599 152.53 61.3599C151.843 60.4654 151.432 59.3939 151.433 58.2345C151.433 57.8471 151.479 57.4501 151.577 57.0471C151.931 55.5836 152.891 54.2295 154.216 53.4097C155.698 52.4924 157.456 52.5948 159.058 52.0422C162.906 52.5484 169.62 53.7254 168.487 56.619C167.815 58.3363 164.674 59.5118 162.846 60.0751C160.128 60.9125 157.159 61.2365 154.277 61.3325C153.736 61.35 153.183 61.3599 152.622 61.3599" fill="#7D7A7F"/>
<path d="M152.53 61.3599C147.165 61.35 140.991 60.4809 136.6 58.0405C135.001 57.1512 133.543 55.4671 134.366 53.7925C134.885 52.738 136.093 52.186 137.354 51.8534C139.843 51.0015 142.59 50.7015 145.391 50.7015C149.298 50.7015 153.309 51.2849 156.866 51.7697C157.3 51.8297 158.088 51.9145 159.058 52.0422C157.456 52.5948 155.698 52.4924 154.216 53.4097C152.891 54.2295 151.931 55.5836 151.577 57.0471C151.479 57.4501 151.433 57.8471 151.433 58.2345C151.432 59.3939 151.843 60.4654 152.53 61.3599" fill="#847F85"/>
<path d="M57.2368 85.4646C54.8788 84.948 52.6201 84.1187 50.7502 82.884C49.417 82.0037 48.2017 80.3342 48.888 78.6753C49.3194 77.6312 50.3272 77.0838 51.3791 76.7546C53.4543 75.9102 55.7441 75.6127 58.0803 75.6127C61.3368 75.6127 64.6816 76.1913 67.6468 76.6719C69.3633 76.95 77.7051 77.8038 77.4356 81.0008C75.8639 81.3069 74.2287 81.6044 72.7422 81.6044C72.2658 81.6044 71.8049 81.5735 71.3657 81.5032C69.9133 81.27 68.2254 80.7572 66.6762 80.7572C66.402 80.7572 66.1324 80.7736 65.869 80.8096C65.0588 80.9226 64.5832 81.1403 63.9976 81.6404C63.745 81.8561 63.7977 82.3046 63.6281 82.5263C62.6668 83.7828 61.6304 84.2176 60.123 84.6854C59.2012 84.9725 58.2337 85.2323 57.2368 85.4646" fill="#7D7A7F"/>
<path d="M64.1082 86.1724C61.8982 86.1724 59.521 85.9651 57.2366 85.4647C58.2336 85.2323 59.2011 84.9726 60.1228 84.6854C61.6302 84.2176 62.6667 83.7829 63.628 82.5264C63.7976 82.3047 63.7449 81.8561 63.9974 81.6405C64.583 81.1403 65.0587 80.9227 65.8689 80.8097C66.1323 80.7737 66.4018 80.7572 66.6761 80.7572C68.2253 80.7572 69.9132 81.27 71.3656 81.5032C71.8048 81.5736 72.2657 81.6044 72.742 81.6044C74.2285 81.6044 75.8637 81.3069 77.4354 81.0008C77.4223 81.1536 77.3897 81.3121 77.3363 81.4762C76.9614 82.6126 75.6693 83.509 74.3982 84.1461C73.1642 83.552 72.3168 83.6183 70.7908 83.1919C70.7435 83.8959 70.6707 84.7592 70.4461 85.5393C68.8202 85.9091 67.1369 86.0801 65.4886 86.1453C65.0377 86.1637 64.5769 86.1724 64.1082 86.1724" fill="#847F85"/>
<path d="M70.4462 85.5393C70.6708 84.7592 70.7436 83.8959 70.7909 83.1919C72.3169 83.6182 73.1643 83.552 74.3982 84.1461C73.7662 84.4626 73.1387 84.7143 72.6329 84.9002C72.4524 84.9659 72.2704 85.0285 72.0876 85.0884C71.9683 85.0633 71.8622 85.0486 71.7754 85.0486C71.6251 85.0486 71.5345 85.0922 71.5392 85.1939C71.5399 85.2139 71.5407 85.2352 71.5415 85.2565C71.1797 85.3623 70.8141 85.456 70.4462 85.5393Z" fill="#908C91"/>
<path d="M71.5414 85.2565C71.5407 85.2351 71.5399 85.2138 71.5391 85.1939C71.5345 85.0921 71.6251 85.0486 71.7754 85.0486C71.8621 85.0486 71.9682 85.0633 72.0875 85.0884C71.9063 85.1475 71.7242 85.2034 71.5414 85.2565" fill="#5C5860"/>
<path d="M105.643 18.7553C106.504 16.4809 107.763 14.008 109.456 12.1859C110.04 11.5564 110.699 10.9705 111.401 10.4192C111.581 10.4849 111.759 10.5336 111.944 10.5587C112.347 10.6842 112.741 10.8384 113.136 10.9904C113.214 11.0207 113.285 11.0096 113.345 10.9771L113.413 11.0126C113.607 11.0797 113.778 10.9078 113.79 10.7388C113.812 10.42 113.682 10.1366 113.618 9.82885C113.556 9.54105 113.52 9.22446 113.536 8.91894C114.807 8.10939 116.134 7.38101 117.399 6.70946C119.841 5.41064 125.3 2.56134 128.29 6.09104C129.799 9.62813 128.702 14.7548 127.218 17.6602C124.981 22.0415 120.574 25.4509 115.575 26.5734C111.921 26.169 109.063 25.3277 107.247 24.1993C105.179 22.913 104.839 20.8785 105.643 18.7553" fill="#949294"/>
<path d="M129.85 19.1273C128.437 20.17 127.873 21.9382 126.503 23.0503C124.434 24.7285 122.981 25.8893 121.761 26.8265C119.516 26.8678 117.439 26.7793 115.575 26.5734C120.574 25.4509 124.981 22.0415 127.218 17.6602C128.702 14.7548 129.799 9.62815 128.29 6.09107C128.466 6.29918 128.636 6.525 128.793 6.7796C131.541 10.0946 133.266 13.9984 134.143 18.1288C134.019 18.0823 133.892 18.0395 133.75 18.0093C132.428 17.7325 130.873 18.3723 129.85 19.1273" fill="#827D83"/>
<path d="M126.791 26.532C125.032 26.7039 123.355 26.7969 121.761 26.8264C122.981 25.8892 124.434 24.7284 126.503 23.0502C127.873 21.9381 128.437 20.1699 129.85 19.1272C130.873 18.3722 132.428 17.7324 133.75 18.0092C133.892 18.0394 134.019 18.0822 134.143 18.1287C134.476 19.6969 134.69 21.2968 134.787 22.9115C133.657 23.6849 129.595 26.2582 126.791 26.532" fill="#656269"/>
<path d="M114.603 8.81117C115.513 7.64149 117.488 6.96699 118.85 6.45484C120.784 5.7272 122.906 5.26819 124.994 5.35822C125.775 5.39216 128.183 6.63711 127.863 7.1072C129.162 9.67902 127.678 10.507 126.523 13.7105C125.472 16.6248 123.894 18.8106 121.272 16.6602C119.894 15.5304 117.092 13.0493 115.535 12.1889C113.345 10.9771 113.689 9.98528 114.603 8.81117" fill="#A19BA0"/>
<path d="M108.022 14.0102C108.869 12.4678 110.209 11.1077 111.648 9.96906C112.013 10.189 113.145 10.6288 113.145 10.6288C113.145 10.6288 113.104 9.2156 113.192 8.84587C115.224 7.51163 117.357 6.49175 118.046 6.19287C120.316 5.20621 123.183 3.52217 125.738 4.22324C126.504 4.43356 127.581 5.03943 128.118 5.45638C129.135 6.24527 132.831 12.1697 133.155 14.571C132.346 12.9844 130.385 10.0311 129.712 10.783C129.18 11.3771 128.699 14.4854 128.327 15.5503C126.781 19.9641 121.774 26.0044 116.403 26.3645C117.398 26.0678 120.284 24.4332 120.553 24.2761C123.501 22.5514 125.611 19.3044 126.763 16.0647C127.579 13.7681 128.383 10.5284 127.111 8.24074C126.18 6.56776 124.519 5.8416 122.771 5.95599C120.701 6.09104 117.319 7.77508 116.106 8.27247C114.824 8.79791 113.871 9.09456 114.357 10.7019C114.484 11.1225 115.281 11.845 115.535 12.1889C114.555 12.214 112.965 11.4258 111.944 11.2893C111.68 11.6147 109.357 14.0847 108.022 14.0102Z" fill="#BBB4B8"/>
<path d="M130.996 75.1088C128.047 74.0194 125.021 73.1237 121.937 72.4527C119.6 71.945 117.629 71.7946 115.891 71.9747C113.785 72.6432 111.167 73.7894 111.98 76.0592C113.227 79.5389 115.648 83.0958 115.648 83.0958C115.648 83.0958 124.589 81.5149 126.339 81.1615C127.349 80.9581 132.153 79.5522 136.398 77.7234C136.297 77.5331 136.194 77.3685 136.091 77.2385C135.255 76.1869 132.376 75.6187 130.996 75.1088" fill="#A19BA0"/>
<path d="M115.178 80.3475C115.627 81.2103 116.236 82.0413 116.955 82.8566C116.955 82.8566 116.126 81.8323 115.178 80.3475Z" fill="#656269"/>
<path d="M114.542 87.4519C115.296 85.8722 117.309 83.6877 118.213 82.6346C117.495 81.8192 115.627 81.2104 115.178 80.3475C114.402 79.1345 113.548 77.6193 112.987 76.0549C112.173 73.7848 113.785 72.6433 115.891 71.9748C113.728 72.1981 111.934 72.9436 110.339 74.2757C107.544 76.0777 105.363 78.9189 103.609 81.9771C105.46 83.7304 108.396 85.309 110.628 86.1628C111.739 86.5885 113.319 87.5989 114.542 87.4519" fill="#827D83"/>
<path d="M138.961 90.2614C139.16 90.2011 138.555 85.3037 137.626 81.451C137.55 81.4657 137.469 81.4582 137.395 81.4847C134.697 82.436 132.149 83.7269 129.553 84.9082C127.211 85.9745 124.195 86.8159 122.173 88.3472C120.145 89.8843 118.811 93.5623 118.978 96.2213C119.113 96.2153 119.263 96.2236 119.391 96.2109C125.754 95.6139 132.892 92.1019 138.961 90.2614Z" fill="#534F56"/>
<path d="M114.542 87.4519C113.319 87.5989 111.739 86.5885 110.628 86.1628C108.396 85.3089 105.46 83.7304 103.609 81.9771C102.035 84.7209 100.803 87.6387 99.8194 90.1544C99.7195 90.409 106.205 93.4569 112.216 95.1351C112.718 93.7065 113.096 91.5361 113.45 90.4312C113.769 89.4372 113.869 88.283 114.542 87.4519Z" fill="#656269"/>
<path d="M119.037 82.4891C117.825 82.7032 116.955 82.8566 116.955 82.8566C116.05 83.91 115.296 85.8721 114.542 87.4519C115.871 85.8131 117.031 83.7638 117.444 83.3594C117.68 83.1276 118.278 82.8154 119.037 82.4891" fill="#656269"/>
<path d="M136.398 77.7234C132.153 79.5522 127.349 80.9581 126.339 81.1615C126.102 81.2094 125.75 81.2766 125.329 81.3555C124.64 82.7202 123.783 84.7886 122.667 85.7915C121.74 86.6263 120.066 86.8468 119.295 87.21C118.724 87.4793 117.509 87.897 116.955 88.2054C115.593 90.4562 115.164 92.6346 114.649 95.2075C114.611 95.3977 114.564 95.5623 114.512 95.7085C116.169 96.0677 117.718 96.2775 118.978 96.2213C118.811 93.5623 120.145 89.8843 122.173 88.3472C124.195 86.8159 127.211 85.9745 129.553 84.9082C132.149 83.7268 134.697 82.436 137.395 81.4847C137.47 81.4582 137.55 81.4656 137.626 81.451C137.258 79.9225 136.84 78.5527 136.398 77.7234" fill="#656269"/>
<path d="M125.492 81.0259C125.967 80.1351 121.564 81.4 119.037 82.4891C120.941 82.1513 123.692 81.6612 125.329 81.3556C125.382 81.251 125.441 81.121 125.492 81.0259" fill="#534F56"/>
<path d="M116.955 88.2055C117.509 87.897 118.724 87.4793 119.295 87.21C120.066 86.8468 121.74 86.6263 122.667 85.7915C123.783 84.7886 124.64 82.7202 125.329 81.3556C123.692 81.6612 120.941 82.1512 119.037 82.4891C118.278 82.8154 117.68 83.1276 117.444 83.3594C117.031 83.7638 115.871 85.8131 114.543 87.4519C113.869 88.2829 113.769 89.4372 113.45 90.4312C113.096 91.5361 112.718 93.7065 112.216 95.1351C112.996 95.3528 113.764 95.5462 114.512 95.7085C114.564 95.5623 114.611 95.3977 114.649 95.2075C115.164 92.6347 115.593 90.4563 116.955 88.2055" fill="#534F56"/>
<path d="M135.797 77.9773C131.525 78.3573 127.022 79.913 123.176 80.8456C119.832 81.656 116.955 81.2766 114.56 78.7433C113.569 77.694 112.519 75.0999 113.737 73.0425C111.912 73.2624 112.558 76.86 112.972 77.8237C113.343 78.6879 113.569 79.6473 114.191 80.3475C115.096 81.451 115.177 82.6551 115.178 82.6648C115.279 84.7923 114.191 85.728 114.543 87.4519C116.876 84.7672 117.768 83.3608 121.306 82.3873C123.739 81.7188 130.386 80.0797 130.766 79.9676C132.149 79.5773 134.439 78.9315 135.797 77.9773" fill="#BBB4B8"/>
<path d="M130.822 82.4891C129.156 83.1769 129.779 83.5666 128.261 84.5075C127.678 84.8691 125.564 85.8212 124.792 86.3467C123.909 86.7157 121.66 87.0564 121.291 87.6756C121.229 87.7791 119.971 90.4505 120.015 91.249C120.963 90.4202 121.709 88.9316 123.13 88.0181C124.991 87.7333 126.288 87.1155 127.656 86.159C130.495 84.1763 133.196 83.4877 136.358 82.014C134.438 81.944 132.563 81.769 130.822 82.4891" fill="#BBB4B8"/>
<path d="M191.774 82.076C190.874 82.2124 190.052 83.7039 189.798 84.6382C189.63 85.2545 189.346 86.3954 189.32 87.0564C189.272 88.283 191.218 88.232 192.238 88.311C192.379 88.3223 192.624 88.2972 192.908 88.23C192.746 87.1268 191.694 86.4373 191.609 85.5719C191.516 84.6108 191.315 83.0184 191.774 82.076" fill="#949294"/>
<path d="M194.698 86.2928C194.347 84.2317 192.662 82.0552 191.909 82.0495L191.774 82.076C191.315 83.0184 191.516 84.6108 191.609 85.5718C191.694 86.4372 192.746 87.1267 192.908 88.23C193.738 88.0336 194.897 87.4637 194.698 86.2928" fill="#656269"/>
<path d="M193.191 82.9053C193.012 82.5865 192.799 82.2944 192.417 82.075C192.141 81.9151 191.882 81.7378 191.484 82.0191C191.036 82.3365 190.324 83.1195 190.226 83.5844C190.45 83.5844 190.664 83.0079 191.204 82.5562C190.834 83.5585 191.338 85.2691 191.726 85.9961C191.707 85.4579 191.544 84.5983 191.58 84.0425C191.621 83.3371 191.757 83.0442 191.9 82.5807C192.084 82.2212 192.293 82.6167 192.521 82.707C192.724 82.7874 192.912 82.9275 193.082 83.0831C193.221 83.2642 193.518 83.9332 193.795 83.9332C193.763 83.8764 193.324 83.0884 193.191 82.9053" fill="#BBB4B8"/>
<path d="M105.713 91.4511C104.813 91.5878 103.991 93.079 103.737 94.0133C103.569 94.6295 103.284 95.7705 103.259 96.4318C103.211 97.6581 105.157 97.6074 106.177 97.6864C106.318 97.6973 106.563 97.6722 106.847 97.6051C106.685 96.501 105.633 95.8126 105.548 94.9461C105.455 93.9862 105.254 92.3935 105.713 91.4511Z" fill="#949294"/>
<path d="M108.637 95.6678C108.286 93.6067 106.601 91.4303 105.848 91.4245L105.713 91.451C105.254 92.3934 105.455 93.9861 105.548 94.946C105.633 95.8125 106.685 96.5009 106.847 97.605C107.677 97.4087 108.836 96.8391 108.637 95.6678" fill="#656269"/>
<path d="M107.13 92.2807C106.951 91.9619 106.738 91.6696 106.356 91.4504C106.08 91.2902 105.821 91.1132 105.423 91.3943C104.975 91.7116 104.263 92.4946 104.165 92.9595C104.389 92.9595 104.603 92.383 105.143 91.9316C104.773 92.9336 105.277 94.6442 105.665 95.3712C105.646 94.8333 105.483 93.9734 105.519 93.4179C105.56 92.7122 105.696 92.4193 105.839 91.9558C106.023 91.5963 106.232 91.9921 106.46 92.0821C106.663 92.1625 106.851 92.3026 107.021 92.4585C107.16 92.6393 107.457 93.3087 107.734 93.3087C107.701 93.251 107.263 92.4635 107.13 92.2807" fill="#BBB4B8"/>
<path d="M53.9105 80.5196C54.2575 80.1904 54.5937 78.961 54.9849 78.6047C55.7812 77.8785 55.4954 78.9558 55.562 79.5026C55.6573 80.2746 55.5085 80.8333 55.9547 81.3778C56.0872 81.5387 56.5783 81.1792 57.1678 81.8068C58.0655 82.763 58.8308 83.4243 62.1121 83.684C61.4994 82.473 61.1384 81.1829 61.1159 79.8096C61.0935 78.417 61.6721 77.2844 62.6326 76.432C66.2021 73.2662 70.5949 71.024 74.6438 68.4311C74.1674 66.9514 73.7026 65.8185 73.3145 65.4495C71.1038 63.3478 68.285 61.6314 65.6552 60.0623C61.2213 60.9937 56.9741 63.5677 55.0368 65.1529C54.1832 65.8511 52.1258 68.3218 52.1258 68.3218C52.1258 68.3218 51.4542 75.3051 51.5015 77.8719C51.51 78.3432 51.4759 79.0768 51.4929 79.6312C52.2761 79.9595 53.7672 80.6554 53.9105 80.5196" fill="#827D83"/>
<path d="M71.5817 63.4527C70.0015 62.3293 67.326 60.0868 65.4832 59.4255C65.3825 59.4394 65.2764 59.4587 65.1664 59.4809C65.1649 59.5561 65.1215 59.6276 65.0192 59.6498C64.2353 59.8063 63.4336 60.0396 62.6458 60.3385C61.8635 60.674 61.0369 61.0741 60.2275 61.4991C59.7743 61.7672 59.3367 62.0542 58.9277 62.3633L58.8735 62.5449C58.6751 62.7049 58.4768 62.8475 58.2646 62.9655C58.1019 63.0866 57.9431 63.2114 57.782 63.3373C57.6395 63.448 57.4629 63.3576 57.4334 63.2289L57.3436 63.1612C56.5016 63.6962 55.8199 64.1854 55.4349 64.5426C54.493 65.4149 52.9748 66.4902 52.1258 68.3218C54.0174 71.8257 57.9462 76.5781 61.1655 79.0541C63.0657 77.7796 71.1263 71.5968 74.6438 68.4311C74.1457 66.589 73.6337 64.9122 71.5817 63.4527" fill="#949294"/>
<path d="M68.8985 62.9139C67.7552 61.6963 66.3005 60.2993 64.5994 59.7464C62.6218 60.2061 61.36 62.6178 62.0014 63.4201C62.917 64.5648 61.9146 65.231 61.8325 65.9949C61.7713 66.5682 62.1602 67.355 62.5583 67.6605C62.8558 67.8885 63.195 68.0347 63.5421 68.1823C64.4902 68.5867 64.9418 68.9173 65.2826 69.8834C65.7474 71.2005 66.1107 72.5547 66.4407 73.9073C66.474 74.0439 66.6614 74.1183 66.7854 74.0411C68.6282 72.894 70.6925 71.5524 71.2975 69.4086C71.9799 66.9889 70.5306 64.6539 68.8985 62.9139" fill="#A19BA0"/>
<path d="M64.47 77.5559C64.3662 77.429 63.9797 76.5123 63.676 75.5625C63.3236 75.8474 62.9711 76.1324 62.6326 76.432C61.6721 77.2843 61.0935 78.417 61.1159 79.8096C61.1384 81.1829 61.4994 82.4729 62.1121 83.6839C58.8308 83.4242 58.0655 82.7629 57.1677 81.8067C56.5783 81.1792 56.0871 81.5386 55.9547 81.3778C55.5085 80.8332 55.6572 80.2746 55.562 79.5026C55.4953 78.9558 55.7812 77.8785 54.9849 78.6046C54.5937 78.9609 54.2575 80.1904 53.9105 80.5196C53.7672 80.6554 52.2761 79.9595 51.4929 79.6311C51.5038 79.9742 51.534 80.2486 51.6076 80.3469C55.1692 85.1045 60.8572 85.5724 66.3941 84.2795C66.0975 83.4285 65.7179 82.0803 65.6916 80.6842C65.6637 79.2215 64.9263 78.1151 64.47 77.5559" fill="#656269"/>
<path d="M73.2975 72.2005C72.2215 73.6357 72.0821 75.5426 71.8939 77.3005C71.7583 78.5668 71.7289 80.7646 71.8474 82.4714C73.9071 81.5978 75.8219 80.5816 77.4471 79.5764C77.1117 78.0445 75.8398 72.1436 74.6438 68.4311C74.3269 68.6337 74.0047 68.8323 73.684 69.0315C73.7793 70.2051 73.7677 71.5732 73.2975 72.2005Z" fill="#656269"/>
<path d="M71.8939 77.3006C72.0821 75.5427 72.2215 73.6358 73.2975 72.2005C73.7677 71.5733 73.7793 70.2052 73.684 69.0316C70.2974 71.1362 66.7474 73.0801 63.676 75.5626C63.9797 76.5124 64.3662 77.4291 64.47 77.556C64.9262 78.1152 65.6637 79.2216 65.6916 80.6843C65.7179 82.0804 66.0975 83.4286 66.3941 84.2795C68.2586 83.8443 70.1045 83.211 71.8474 82.4715C71.7289 80.7647 71.7583 78.5669 71.8939 77.3006" fill="#534F56"/>
<path d="M72.0325 63.5685C70.0836 62.1441 67.7675 60.2496 65.5351 59.3102C64.5482 59.4255 61.9099 60.004 61.2863 60.3802C58.9509 61.7876 56.3869 63.0672 54.7308 65.1638C56.3358 64.1623 57.9594 63.9683 59.1941 62.8504C60.2336 61.9095 62.9053 60.1375 64.47 60.226C65.3895 60.9824 66.7675 62.5742 67.7706 63.2214C68.405 64.3358 69.7606 65.7417 69.8233 67.0347C69.9008 68.6331 70.0069 70.1349 68.7838 71.3915C67.3392 72.8764 64.4235 74.0528 62.937 75.1301C61.6729 76.0468 60.5381 76.7057 59.428 76.1206C57.844 75.2857 56.3923 72.8905 56.1019 72.5553C56.648 72.0107 57.4381 71.084 58.2227 70.7917C57.0453 70.9274 56.2289 70.9652 55.2963 71.6394C54.3691 71.1186 54.5945 70.4019 52.8524 69.5702C52.8663 70.2656 55.3179 72.9006 57.531 75.8481C58.4079 77.0157 59.8115 77.888 60.1562 79.054C60.6496 80.7254 61.3351 81.5453 61.4312 81.9453C61.9897 81.6672 62.2376 81.0854 62.2608 80.5026C62.2887 79.8139 62.7728 79.8228 63.0656 79.4383C63.3786 79.028 63.2872 78.7277 63.3848 78.3734C63.4398 78.1751 63.8325 77.4362 64.0626 77.2186C65.36 75.9934 68.6583 74.4002 69.4066 73.8113C71.2734 72.342 73.7684 70.7236 74.6438 68.431C74.9691 67.5792 73.7266 64.8066 72.0325 63.5685" fill="#BBB4B8"/>
<path d="M220.077 74.4386C219.194 75.0379 216.612 75.1921 215.683 75.7116C214.169 76.5588 214.246 78.2717 212.786 80.3928C210.461 83.771 208.549 83.9053 203.085 82.6257C204.896 80.2089 207.511 78.5101 209.52 76.5199C211.461 74.5965 213.794 71.4766 216.833 71.4588C217.87 71.453 218.828 71.2279 219.866 71.6551C220.487 71.9105 221.02 72.312 221.501 72.7687L221.486 72.8978C221.314 73.5732 220.629 74.0647 220.077 74.4386Z" fill="#A19BA0"/>
<path d="M207.115 84.6603C205.821 84.4175 204.203 84.1016 203.085 84.7157C202.178 85.2129 201.872 87.9782 201.762 88.8143C201.739 88.9901 201.725 89.176 201.714 89.3611C201.455 89.2925 201.211 89.2423 200.95 89.1709C200.926 86.3879 201.808 84.3296 203.085 82.6257C208.549 83.9053 210.461 83.771 212.786 80.3927C214.246 78.2716 214.169 76.5587 215.683 75.7116C216.612 75.1921 219.194 75.0379 220.077 74.4386C220.629 74.0646 221.314 73.5731 221.486 72.8978L221.501 72.7686C222.066 73.3074 222.559 73.9272 222.999 74.5317C223.645 75.4181 224.287 76.4172 224.875 77.4688C223.569 77.8349 221.204 79.009 220.185 79.8355C218.322 81.3475 215.161 82.6905 214.867 85.0387C214.669 86.6217 214.294 88.6519 214.507 91.1876C213.986 91.2003 213.44 91.161 212.905 91.1469C212.847 89.9774 211.618 88.7641 210.385 86.9148C209.725 85.9243 208.295 84.8808 207.115 84.6603" fill="#827D83"/>
<path d="M201.762 88.8143C201.872 87.9783 202.178 85.213 203.085 84.7157C204.203 84.1017 205.82 84.4176 207.115 84.6604C208.295 84.8809 209.725 85.9244 210.385 86.9149C211.618 88.7641 212.847 89.9774 212.905 91.147C209.473 91.0556 205.758 90.4364 201.714 89.3612C201.725 89.1761 201.739 88.9901 201.762 88.8143" fill="#534F56"/>
<path d="M217.698 83.3732C215.991 83.6839 215.525 83.7355 214.857 85.1149L214.867 85.0388C215.161 82.6906 218.322 81.3475 220.185 79.8356C221.204 79.0091 223.569 77.8349 224.875 77.4688C226.144 79.7329 227.15 82.2642 227.286 84.6108C226.373 85.4579 225.169 86.5932 223.838 87.6727C223.747 86.9021 223.157 83.647 222.395 83.033C221.207 82.076 218.9 83.1541 217.698 83.3732" fill="#656269"/>
<path d="M214.857 85.115C215.525 83.7355 215.991 83.684 217.698 83.3732C218.9 83.1541 221.207 82.076 222.395 83.0331C223.157 83.6471 223.747 86.9022 223.838 87.6728C221.963 89.1959 219.829 90.6053 217.846 90.9109C216.825 91.068 215.767 91.1464 214.685 91.1781L214.507 91.1876C214.467 90.7131 214.368 90.2897 214.364 89.8504C214.348 87.976 214.694 86.3888 214.857 85.115" fill="#534F56"/>
<path d="M204.67 82.9756C205.591 82.9033 207.291 82.9947 208.201 82.848C210.484 82.479 210.954 81.3807 211.097 81.2066C212.33 79.7078 212.712 79.3588 213.595 77.7277C213.883 77.195 213.972 75.8188 214.553 75.5706C214.748 75.4881 216.02 74.9952 216.481 74.781C216.935 74.5525 218.313 74.5398 219.072 74.0143C219.797 73.5132 219.914 72.4971 219.894 72.3287C219.846 71.9304 218.423 71.4028 218.524 71.3945C219.889 71.2817 220.53 71.7127 221.644 72.909C222.051 73.3457 220.072 74.6868 220.02 74.6969C218.951 75.3529 216.502 75.6401 215.976 76.3227C215.335 77.1523 215.825 78.6208 216.165 79.5455C216.853 81.417 216.691 83.8494 216.607 84.0898C216.186 85.2942 215.551 84.8456 215.322 85.033C214.775 85.4824 215.146 87.545 214.426 88.3236C214.327 87.4551 214.67 84.4899 213.679 83.3732C213.388 83.0443 212.73 83.2005 210.793 83.3732C209.113 83.5222 208.243 84.1305 204.67 82.9756" fill="#BBB4B8"/>
<path d="M99.0526 100.165C98.9078 100.152 98.9744 99.4307 98.8272 99.3733C98.292 99.1657 97.9573 99.1202 97.3779 98.9798C96.3818 98.74 95.1432 98.9812 94.1323 98.9461C92.6079 98.8927 91.1059 98.6543 89.6179 98.3439C90.3266 98.4021 90.5304 98.0435 90.4359 97.9054C91.0803 96.4664 91.37 95.7005 93.0533 95.6693C95.2106 95.6295 97.34 96.3883 99.2897 97.1859C99.7266 97.3643 100.435 97.5875 101.068 97.9054C101.169 98.2551 101.329 98.65 101.368 98.8988C101.486 99.65 99.7196 100.221 99.0526 100.165" fill="#827D83"/>
<path d="M102.396 99.4721C102.37 100.563 100.76 101.132 99.9194 101.442C97.972 102.163 95.9565 102.092 93.9316 102.123C92.765 102.14 91.0625 102.184 90.0415 101.533C89.0601 100.907 88.8385 99.5578 89.4706 98.5903C90.9579 98.9008 92.6078 98.8927 94.1322 98.9461C95.1431 98.9812 96.3817 98.7399 97.3779 98.9798C97.9573 99.1202 98.2919 99.1657 98.8272 99.3733C98.9743 99.4306 98.9077 100.152 99.0526 100.165C99.7195 100.221 101.486 99.65 101.368 98.8988C101.329 98.65 101.169 98.2551 101.068 97.9054C101.791 98.2683 102.412 98.7584 102.396 99.4721" fill="#656269"/>
<path d="M90.858 96.9971C92.2182 97.3231 93.6148 98.2346 95.0176 98.3142C95.7264 98.3548 96.9906 98.1533 97.6033 98.5223C97.6475 98.5488 98.0588 99.1643 98.8272 99.3733C97.9588 100.035 95.9898 99.4079 94.9216 99.3733C94.2616 99.3517 93.5211 99.5517 92.5381 99.4477C91.4606 99.3341 90.1399 98.904 89.4706 98.5903C89.6008 98.2124 90.2081 98.1075 90.4358 97.9054C90.5303 97.6552 90.6821 97.264 90.858 96.9971" fill="#949294"/>
<path d="M91.2491 96.3799C92.3863 94.9106 95.4003 95.7062 96.2965 95.9668C97.515 96.3202 99.24 96.901 100.3 97.5681C100.835 97.9054 99.6676 97.5364 99.5174 97.5001C98.2803 97.2043 96.4669 96.4522 95.2097 96.2086C94.4669 96.0656 91.717 96.6456 91.2491 96.3799" fill="#BBB4B8"/>
<path d="M165.555 50.8908C165.385 48.0283 165.727 44.3531 164.232 41.7385C162.897 42.5039 161.554 43.3924 160.787 44.7037C160.298 45.5385 160.701 46.7244 160.17 47.4638C160.599 49.0784 160.988 50.885 161.603 52.544C162.108 53.9069 163.281 55.8981 163.936 58.0698C166.409 56.4994 165.699 53.3417 165.555 50.8908" fill="#656269"/>
<path d="M163.936 58.0697C163.281 55.898 162.108 53.9068 161.603 52.5439C160.988 50.8849 160.599 49.0783 160.17 47.4637C160.067 47.6067 159.933 47.7353 159.747 47.8385C158.932 48.2925 157.603 48.5456 156.549 48.7538C156.437 50.4597 155.97 52.1401 156.517 53.8743C156.867 54.9835 157.345 56.0758 157.837 57.1332C158.147 57.7982 158.615 58.5051 158.849 59.2329C160.611 59.2041 162.358 58.9648 163.724 58.2064C163.801 58.1634 163.864 58.1147 163.936 58.0697Z" fill="#827D83"/>
<path d="M156.517 53.8744C155.97 52.1401 156.437 50.4598 156.549 48.7538C156.379 48.787 156.214 48.8201 156.061 48.8518C154.701 49.1361 153.468 49.1957 152.346 49.147C152.699 51.2502 153.152 53.3425 153.576 55.4324C153.801 56.54 154.06 57.6469 154.251 58.7605C154.266 58.8499 154.272 58.9326 154.283 59.0188C155.636 59.1125 157.248 59.2587 158.849 59.233C158.615 58.5051 158.147 57.7983 157.837 57.1332C157.344 56.0759 156.867 54.9836 156.517 53.8744" fill="#656269"/>
<path d="M154.283 59.0188C154.272 58.9326 154.266 58.8499 154.251 58.7605C154.06 57.6469 153.801 56.54 153.576 55.4324C153.152 53.3425 152.699 51.2502 152.346 49.147C149.805 49.0357 147.832 48.3612 146.247 48.429C143.964 48.5264 141.674 48.5419 139.389 48.5892C137.904 48.6195 135.099 48.1943 134.146 49.0599C133.863 49.3168 133.42 49.9582 133.012 50.738C133.137 51.0288 133.294 51.3107 133.471 51.5866C133.672 51.5823 133.887 51.5866 134.129 51.552C135.287 51.3883 135.696 50.5572 136.94 50.727C138.917 50.998 140.126 53.036 141.72 53.9887C143.903 55.2929 146.51 55.9009 149.003 56.3998C149.647 56.529 150.457 56.5489 150.842 57.1393C151.116 57.5598 151.213 58.2004 151.273 58.7671C152.306 58.8691 153.316 58.9516 154.277 59.0182L154.283 59.0188" fill="#827D83"/>
<path d="M149.003 56.3998C146.51 55.9009 143.903 55.2929 141.72 53.9887C140.126 53.036 138.917 50.998 136.94 50.727C135.696 50.5572 135.287 51.3883 134.129 51.552C133.887 51.5867 133.672 51.5823 133.471 51.5867C133.71 51.9565 133.988 52.3151 134.322 52.6575C138.373 56.8124 145.262 58.1738 151.273 58.7671C151.213 58.2004 151.116 57.5598 150.842 57.1393C150.457 56.5489 149.647 56.529 149.003 56.3998" fill="#656269"/>
<path d="M133.012 50.738C133.149 50.4748 133.291 50.2289 133.429 50.0069C133.184 49.9729 132.948 49.9205 132.72 49.8533C132.795 50.1551 132.888 50.4512 133.012 50.738Z" fill="#A19BA0"/>
<path d="M164.167 41.6175C162.728 39.2214 160.03 38.9092 157.38 38.8849C152.768 38.8429 147.636 39.1764 142.852 40.3883C142.284 40.9135 141.829 41.5446 141.29 42.1274C140.623 42.8486 139.509 43.3482 139.029 44.1828C137.287 47.2108 142.89 47.6195 144.636 48.4224L144.665 48.4838C145.192 48.4688 145.72 48.4511 146.247 48.429C148.532 48.3315 151.622 49.779 156.061 48.8519C157.157 48.6232 158.8 48.3655 159.747 47.8386C160.895 47.199 160.204 45.6999 160.787 44.7037C161.554 43.3924 162.897 42.5039 164.232 41.7385L164.167 41.6175" fill="#A19BA0"/>
<path d="M134.146 49.0599C133.958 49.2297 133.701 49.5708 133.429 50.0069C133.551 50.0236 133.674 50.0377 133.799 50.0459C135.359 50.1528 136.992 49.7823 138.528 49.5633C140.434 49.2908 142.339 49.0135 144.246 48.7383C144.381 48.7189 144.426 48.6195 144.411 48.5206L144.604 48.5359L144.665 48.4837C142.907 48.5344 141.147 48.5529 139.389 48.5892C137.904 48.6195 135.099 48.1943 134.146 49.0599" fill="#949294"/>
<path d="M139.029 44.1828C139.509 43.3483 140.623 42.8487 141.29 42.1275C141.829 41.5446 142.284 40.9136 142.852 40.3884C140.745 40.9225 138.704 41.625 136.807 42.5445C135.664 43.0986 133.417 44.5532 132.988 45.8498C132.512 47.2889 132.417 48.6276 132.72 49.8533C132.948 49.9205 133.184 49.9729 133.429 50.007C133.701 49.5708 133.958 49.2298 134.146 49.06C135.099 48.1944 137.904 48.6196 139.389 48.5892C141.147 48.5529 142.907 48.5345 144.665 48.4838L144.636 48.4224C142.89 47.6196 137.287 47.2108 139.029 44.1828" fill="#949294"/>
<path d="M164.232 41.7385C163.217 39.456 160.841 39.1726 159.661 39.0207C157.09 38.6907 154.365 38.4995 151.818 39.0481C152.52 39.1314 154.932 39.6987 157.182 39.3718C158.486 39.1822 158.95 39.499 159.727 39.4958C160.163 39.4943 161.393 39.648 161.913 40.0251C162.156 40.2014 162.86 40.8804 162.333 41.2043C161.277 41.8529 160.546 42.3837 160.164 43.4122C159.74 44.5541 158.874 45.601 157.86 46.3191C155.717 47.8348 153.149 48.3531 150.618 47.9265C149.599 47.7544 147.456 47.9937 146.236 48.0461C145.83 48.0395 145.422 48.0415 145.009 48.0623C144.547 48.0859 144.085 48.1205 143.623 48.1574C143.288 48.1721 142.953 48.1854 142.618 48.2004C141.796 48.2358 139.555 47.9501 137.484 48.1148C135.649 48.2601 135.002 48.3096 134.345 47.9441C132.498 46.9161 134.282 44.2188 135.705 43.194L135.576 43.2093C134.641 43.5598 133.371 44.469 132.754 46.0063C132.211 47.3589 132.376 49.5869 133.128 50.9049C133.367 50.28 133.978 49.6843 134.531 49.3154C134.813 49.1272 135.058 48.9804 135.401 48.9374C135.694 48.9005 137.016 49.0681 137.452 49.0932C139.899 49.2312 142.456 48.919 144.903 48.8121C145.834 48.7714 146.764 48.6673 147.696 48.6887C148.652 48.7103 149.973 49.0208 150.992 49.1655C151.247 49.5595 151.77 50.6924 151.921 50.998C152.984 53.1491 152.871 55.3785 154.016 57.5267C153.904 55.9291 153.687 53.9263 153.241 52.3803C152.996 51.5284 152.95 50.4209 152.691 49.3226C154.331 49.454 156.478 49.5544 158.369 48.6371C158.849 48.3021 159.282 48.2601 159.504 48.9545C160.03 50.5973 160.452 51.4828 161.427 52.9358C162.032 53.8383 162.266 54.1387 163.103 55.8625C162.654 54.1756 161.841 52.4541 161.474 50.7337C161.159 49.2571 160.684 47.6201 160.528 46.1191C160.385 44.7385 161.486 43.7953 162.864 43.0161C163.571 42.6154 164.541 42.6656 164.232 41.7385" fill="#BBB4B8"/>
</svg>
