<svg width="238" height="149" viewBox="0 0 238 149" fill="none" xmlns="http://www.w3.org/2000/svg">
<g opacity="0.300003">
<path d="M237.851 146.594V61.4824C196.622 61.0477 172.7 3.89086e-05 136.824 3.89086e-05C100.948 3.89086e-05 106.496 24.9897 106.496 24.9897C133.309 -1.0767 132.176 74.5152 81.1941 74.5152C30.2125 74.5152 0.0610352 31.0717 0.0610352 31.0717V146.594L237.851 146.594Z" fill="#2B97B8"/>
<path d="M237.851 146.594V81.0508C233.161 81.0508 197.903 68.2857 174.836 37.8766C151.77 7.46836 134.439 2.73522 120.225 6.60811C106.011 10.4807 106.496 24.9898 106.496 24.9898C106.496 24.9898 115.182 9.35007 126.512 19.776C137.841 30.203 143.505 78.86 96.2997 89.2862C26.1075 104.79 0.0610352 52.3116 0.0610352 52.3116V146.594H237.851Z" fill="#2AB4D3"/>
<path d="M237.851 146.594V98.9888C231.365 97.8301 193.984 75.8188 180.137 64.5234C166.289 53.2282 154.205 21.6588 137.588 12.97C120.972 4.28144 110.146 17.3151 110.146 17.3151C110.146 17.3151 128.47 0.520745 140.358 27.162C152.246 53.8036 145.897 90.8795 90.2577 105.65C34.6178 120.422 0.0610352 81.6115 0.0610352 81.6115V146.594H237.851Z" fill="#4DCFE9"/>
</g>
<g opacity="0.399994">
<path d="M79.2805 93.1118C52.9554 45.1215 92.8436 37.1439 101.399 46.8803C109.955 56.6173 100.521 68.3803 100.521 68.3803C107.761 66.5269 113.246 56.4683 112.808 48.527C112.371 40.5852 106.226 20.4672 80.7775 17.5554C55.3301 14.6435 31.6369 41.6442 10.8082 68.6447C7.49974 72.934 3.8621 76.5645 0 79.6207V148.12H237.851V110.555C210.736 120.214 102.403 135.263 79.2805 93.1118Z" fill="#2B97B8"/>
<path d="M108.676 128.366C82.333 121.81 62.5691 98.1167 63.739 69.1749C64.908 40.232 91.8194 35.8493 98.547 41.3937C105.274 46.9384 112.734 57.3504 100.521 68.3803C100.521 68.3803 116.974 59.5837 107.907 39.3197C98.8396 19.0553 60.5209 16.2322 42.9708 44.115C32.9846 59.9807 17.9777 84.5279 0 101.507V148.12H237.851V121.165C217.532 126.415 156.075 140.161 108.676 128.366Z" fill="#2AB4D3"/>
<path d="M0.000244141 148.12H126.507C47.1248 133.954 52.2971 76.249 59.3515 55.4094C67.8338 30.3492 95.9142 31.408 95.9142 31.408C57.0107 13.7602 31.2705 77.9981 26.2982 88.1621C23.2799 94.3309 15.7323 107.468 0.000244141 116.686V148.12Z" fill="#4DCFE9"/>
</g>
<g opacity="0.5">
<path d="M237.851 89.4584C226.93 98.0679 211.114 95.5457 199.983 88.2264C195.55 85.5188 193.185 81.458 189.638 78.2092C185.204 74.1482 179.293 70.9 174.268 67.9217C167.765 63.8609 159.489 61.1538 151.509 61.1538C146.188 61.1538 134.956 62.2365 133.183 68.1923C139.685 63.5902 150.03 67.6507 152.691 74.6898C158.602 91.2042 128.454 91.2042 118.108 90.9335C104.807 90.3919 92.0974 87.6848 78.7962 90.1215C65.4953 92.8286 54.8544 102.304 41.5538 104.47C30.3558 106.471 10.8315 106.16 6.10352e-05 100.121V146.264H237.851V89.4584Z" fill="#2B97B8"/>
<path d="M237.851 100.143C224.181 105.582 208.943 101.623 196.617 94.226C190.107 90.648 184.898 84.6846 178.822 80.312C174.048 76.7343 158.205 65.6736 152.563 66.0709C156.903 70.0467 169.312 79.3828 160.426 91.7357C156.953 99.6868 151.478 100.587 143.665 100.587C128.908 100.587 114.151 97.8037 98.9597 98.9967C79.8624 100.587 65.1052 111.32 46.0076 114.103C33.9708 115.941 11.5495 117.777 6.10352e-05 110.507V146.264H237.851V100.143Z" fill="#2AB4D3"/>
<path d="M237.851 110.27C229.164 109.221 219.454 111.245 210.507 110.127C195.316 108.537 177.124 91.3089 169.312 79.3826C182.277 120.916 120.662 108.935 101.13 110.923C82.0325 112.91 65.9731 123.644 47.3098 126.427C30.4319 129.066 15.8956 126.698 6.10352e-05 122.716V146.264H237.851V110.27Z" fill="#4DCFE9"/>
</g>
<g opacity="0.699997">
<path d="M205.493 55.4163C191.183 56.6747 178.395 64.8545 175.655 79.9564C185.398 56.9887 215.235 80.5857 204.579 101.036C196.663 115.508 175.959 119.913 161.04 119.913C151.907 119.913 142.773 119.913 133.943 117.396C124.505 114.565 115.066 110.789 105.627 107.643C95.8844 104.496 86.7504 100.407 76.3985 99.1482C67.2647 98.2043 56.9126 98.8337 47.7788 99.463C30.468 101.005 15.4974 110.707 0.000183105 117.017V147.536H237.851V64.5226C231.081 56.5647 214.39 54.4967 205.493 55.4163Z" fill="#2B97B8"/>
<path d="M221.756 68.0958C214.156 65.3242 207.449 64.8615 199.401 66.2479V66.7097C216.391 69.4817 218.626 88.8856 217.732 102.745C215.05 148.021 139.939 132.775 112.666 123.073C95.2302 117.068 74.6638 112.447 56.7804 112.909C46.4972 113.372 36.6612 115.682 27.2726 118.453C18.9258 121.177 8.42201 128.801 0.000305176 128.189V147.536H237.851V75.5944C234.039 72.2291 225.329 69.5726 221.756 68.0958Z" fill="#2AB4D3"/>
<path d="M228.462 80.5698C235.616 98.1252 232.038 120.763 218.626 134.161C204.766 148.021 183.306 145.249 165.87 143.863C145.75 142.015 126.526 136.471 107.301 132.313C88.9705 128.155 70.1928 125.845 51.8622 129.541C34.013 133.14 16.5886 140.678 0 139.792V147.536H237.851V87.2238C235.241 84.3607 231.851 81.2699 228.462 80.5698Z" fill="#4DCFE9"/>
</g>
<path d="M0.0632142 147.432H237.92L237.923 120.283C237.923 120.283 199.641 108.42 167.629 110.62C135.617 112.82 120.616 138.358 59.5658 128.057C-1.48401 117.755 0.0608357 135.833 0.0608357 135.833L0.0632142 147.432Z" fill="#2B97B8"/>
<path d="M0.129756 147.432H237.92L237.923 127.881C237.923 127.881 199.641 116.019 167.629 118.219C135.617 120.418 120.616 145.956 59.566 135.655C-1.48377 125.353 0.064644 140.921 0.064644 140.921L0.129756 147.432Z" fill="#2AB4D3"/>
<path d="M0.0608907 147.432H237.923V135.94C237.923 135.94 199.641 124.079 167.629 126.278C135.617 128.478 120.616 154.016 59.5658 143.714C-1.48395 133.413 0.0570256 144.227 0.0570256 144.227L0.0608907 147.432Z" fill="#4DCFE9"/>
<path d="M38.7259 130.756C32.2174 119.865 25.4589 116.082 25.4589 116.082C35.9725 127.546 17.0779 147.066 17.0779 147.066H62.1313C57.5001 146.493 45.2341 141.647 38.7259 130.756Z" fill="#80DFED"/>
<path d="M84.7856 127.129C79.654 109.777 61.8315 114.672 60.98 118.587C61.7066 117.28 73.6774 111.984 79.1218 124.967C84.5662 137.949 69.5471 143.796 62.4128 142.162C55.2784 140.529 42.1835 130.684 35.6593 122.172C29.1353 113.661 19.8895 112.156 15.6593 113.863C12.3802 115.187 12.4117 118.314 12.5916 119.654C12.4581 117.949 13.4116 114.737 18.2465 114.821C23.776 114.918 28.4625 118.261 26.0846 128.807C23.7067 139.354 0.081543 143.908 0.081543 143.908V147.066H17.0781C17.0781 147.066 35.9727 127.546 25.4591 116.083C25.4591 116.083 32.2176 119.865 38.7261 130.756C45.2343 141.647 56.3672 146.493 60.9981 147.066H67.4231C75.9587 145.729 88.7161 140.421 84.7856 127.129Z" fill="#4DCFE9"/>
<path d="M60.98 118.587L63.0484 118.518C62.4258 118.499 61.7402 118.52 60.98 118.587Z" fill="#34B9D9"/>
<path d="M26.0846 128.807C28.4625 118.26 23.776 114.918 18.2465 114.821C13.4116 114.737 12.4581 117.949 12.5916 119.654C12.4117 118.315 12.3802 115.188 15.6593 113.864C19.8895 112.156 29.1353 113.661 35.6593 122.172C42.1835 130.684 55.2784 140.529 62.4128 142.162C69.5471 143.796 84.5662 137.949 79.1218 124.967C73.6774 111.984 61.7067 117.28 60.98 118.587C60.98 118.587 73.8365 114.331 74.7662 128.376C75.6956 142.422 56.435 137.974 49.2394 131.329C44.0206 126.509 34.6475 111.068 21.327 111.635C8.00555 112.203 12.0333 120.998 13.2722 121.708C13.2722 121.708 11.1152 115.265 18.5905 115.646C26.0662 116.027 25.6508 124.442 25.0277 125.964C24.4051 127.485 21.9846 136.445 0.081543 136.445V143.908C0.081543 143.908 23.7067 139.353 26.0846 128.807Z" fill="#2AB4D3"/>
<path d="M25.0277 125.964C25.6505 124.442 26.0659 116.027 18.5905 115.646C11.1152 115.265 13.2722 121.708 13.2722 121.708C12.0333 120.999 8.00555 112.203 21.3267 111.636C34.6475 111.068 44.0206 126.509 49.2394 131.329C56.4347 137.974 75.6953 142.422 74.7659 128.376C73.8365 114.331 60.98 118.587 60.98 118.587C61.7403 118.519 62.4259 118.499 63.0484 118.518C67.3253 118.647 68.5716 120.635 69.8284 121.987C71.2674 123.534 72.3945 128.693 65.0722 131.386C57.7503 134.08 50.2407 125.941 46.6108 122.387C42.9812 118.834 34.157 109.548 25.0205 108.917C15.8841 108.287 11.0649 112.528 10.8146 117.286C10.5642 122.043 14.069 122.502 14.069 122.502C12.1914 116.656 16.8224 116.541 18.5745 116.541C20.3265 116.541 25.834 117.917 23.4561 126.343C21.0781 134.769 0.081543 132.947 0.081543 132.947V136.445C21.9846 136.445 24.4048 127.485 25.0277 125.964Z" fill="#2B97B8"/>
<path d="M199.356 130.756C205.864 119.865 212.623 116.082 212.623 116.082C202.109 127.546 221.004 147.066 221.004 147.066H175.95C180.582 146.493 192.847 141.647 199.356 130.756Z" fill="#80DFED"/>
<path d="M153.296 127.129C158.428 109.777 176.25 114.672 177.101 118.587C176.375 117.28 164.404 111.984 158.96 124.967C153.515 137.949 168.535 143.796 175.669 142.162C182.803 140.529 195.898 130.684 202.422 122.172C208.946 113.661 218.192 112.156 222.422 113.863C225.701 115.187 225.67 118.314 225.49 119.654C225.624 117.949 224.67 114.737 219.835 114.821C214.305 114.918 209.619 118.261 211.997 128.807C214.375 139.354 238 143.908 238 143.908V147.066H221.003C221.003 147.066 202.109 127.546 212.623 116.083C212.623 116.083 205.864 119.865 199.356 130.756C192.847 141.647 181.715 146.493 177.083 147.066H170.658C162.123 145.729 149.365 140.421 153.296 127.129Z" fill="#4DCFE9"/>
<path d="M177.101 118.587L175.033 118.518C175.656 118.499 176.341 118.52 177.101 118.587Z" fill="#34B9D9"/>
<path d="M211.997 128.807C209.619 118.26 214.306 114.918 219.835 114.821C224.67 114.737 225.623 117.949 225.49 119.654C225.67 118.315 225.702 115.188 222.422 113.864C218.192 112.156 208.946 113.661 202.422 122.172C195.898 130.684 182.803 140.529 175.669 142.162C168.534 143.796 153.515 137.949 158.96 124.967C164.404 111.984 176.375 117.28 177.101 118.587C177.101 118.587 164.245 114.331 163.316 128.376C162.386 142.422 181.647 137.974 188.842 131.329C194.061 126.509 203.434 111.068 216.755 111.635C230.076 112.203 226.048 120.998 224.809 121.708C224.809 121.708 226.966 115.265 219.491 115.646C212.015 116.027 212.431 124.442 213.054 125.964C213.676 127.485 216.097 136.445 238 136.445V143.908C238 143.908 214.375 139.353 211.997 128.807Z" fill="#2AB4D3"/>
<path d="M213.054 125.964C212.431 124.442 212.016 116.027 219.491 115.646C226.966 115.265 224.809 121.708 224.809 121.708C226.048 120.999 230.076 112.203 216.755 111.636C203.434 111.068 194.061 126.509 188.842 131.329C181.647 137.974 162.386 142.422 163.316 128.376C164.245 114.331 177.101 118.587 177.101 118.587C176.341 118.519 175.656 118.499 175.033 118.518C170.756 118.647 169.51 120.635 168.253 121.987C166.814 123.534 165.687 128.693 173.009 131.386C180.331 134.08 187.841 125.941 191.471 122.387C195.1 118.834 203.925 109.548 213.061 108.917C222.198 108.287 227.017 112.528 227.267 117.286C227.517 122.043 224.013 122.502 224.013 122.502C225.89 116.656 221.259 116.541 219.507 116.541C217.755 116.541 212.248 117.917 214.625 126.343C217.003 134.769 238 132.947 238 132.947V136.445C216.097 136.445 213.677 127.485 213.054 125.964Z" fill="#2B97B8"/>
</svg>
