<svg width="364" height="135" viewBox="0 0 364 135" fill="none" xmlns="http://www.w3.org/2000/svg">
<g clip-path="url(#clip0_38_267)">
<path d="M0 50.2267L16.2078 77.6211L22.6909 71.4135L4.9974 45.0986L0 50.2267Z" fill="url(#paint0_linear_38_267)"/>
<path d="M241.226 28.6349L240.551 32.2785L248.249 29.7145L247.304 25.2612L241.226 28.6349Z" fill="#0071B9"/>
<path d="M195.844 3.9395L170.857 32.5485L178.151 30.5243L201.922 0.835693L195.844 3.9395Z" fill="url(#paint1_linear_38_267)"/>
<path d="M329.694 43.0744L335.771 39.8357L334.016 55.2198L329.694 43.0744Z" fill="#1D2C5E"/>
<path d="M291.47 52.9256L297.008 54.1401L303.896 50.7664L297.818 48.4723L291.47 52.9256Z" fill="#1D2C5E"/>
<path d="M103.46 36.7319L104.27 54.41L111.969 51.4412L109.673 33.3582L103.46 36.7319Z" fill="url(#paint2_linear_38_267)"/>
<path d="M297.413 31.3339L291.335 34.7076L291.47 52.9255L297.683 49.8217L299.574 40.9152L297.413 31.3339Z" fill="url(#paint3_linear_38_267)"/>
<path d="M296.603 54.1401L289.849 114.057L300.655 111.898L302.681 50.9014L296.603 54.1401Z" fill="#312370"/>
<path d="M309.704 116.891L309.974 124.988L330.639 131.6L336.852 128.362L316.457 112.573L295.927 110.818L289.849 114.057L309.704 116.891Z" fill="#21386E"/>
<path d="M232.987 102.586L237.984 99.8875L241.361 105.825L246.088 103.261L247.034 111.088L277.153 116.486L283.096 113.112L241.631 87.8771L212.187 92.8701L206.514 98.403L232.987 102.586Z" fill="#21386E"/>
<path d="M223.397 28.9049L217.319 32.2786L206.514 98.4031L212.592 95.1644L222.992 58.0537L223.397 28.9049Z" fill="url(#paint4_linear_38_267)"/>
<path d="M175.314 37.8114L170.452 40.3754L170.857 41.9948L182.338 34.7076L177.34 29.3097L170.857 32.5484L175.314 37.8114Z" fill="#1D2C5E"/>
<path d="M188.416 115.946L139.387 91.6557L145.465 86.9325L194.494 112.573L188.416 115.946Z" fill="#21386E"/>
<path d="M143.979 25.5312L136.551 39.5658L144.384 37.2716L150.057 22.1575L143.979 25.5312Z" fill="#1D2C5E"/>
<path d="M76.4467 83.6937L70.2338 88.0121C70.2338 88.0121 71.5844 95.0294 73.3403 99.8875C75.0961 104.746 79.148 108.659 79.148 108.659C81.8493 111.223 84.9558 113.112 88.6026 114.192C95.4909 116.216 103.325 114.867 110.078 110.548C111.834 109.469 114.265 107.714 115.751 106.23C109.132 110.278 76.4467 83.6937 76.4467 83.6937V83.6937Z" fill="url(#paint5_linear_38_267)"/>
<path d="M110.078 53.0605L115.751 116.081L139.252 112.708L145.465 109.469L116.426 49.282L110.483 51.3062L104.27 54.41L110.078 53.0605Z" fill="#1D2C5E"/>
<path d="M22.2857 74.9221L48.4883 134.164L73.3402 126.202L79.4182 122.154L27.8233 68.1747L21.3402 72.0882L16.2078 77.621L22.2857 74.9221Z" fill="url(#paint6_linear_38_267)"/>
<path d="M281.475 102.856L281.881 105.825C284.042 105.555 286.203 105.285 288.229 104.611C290.525 103.801 295.387 101.642 297.143 100.022C296.332 100.292 284.987 103.261 281.475 102.856" fill="#1D2C5E"/>
<path d="M193.548 87.7422L194.494 92.4654C199.491 91.6557 203.813 89.9014 208.135 87.3374C210.836 85.718 213.673 83.4239 214.618 82.7491C213.943 83.154 193.548 87.7422 193.548 87.7422Z" fill="#1D2C5E"/>
<path d="M55.3078 128.515L53.4169 124.197L28.5649 68.8683L28.0246 67.7887L26.9441 68.3285L26.1337 68.7334L21.6766 70.8925C21.0013 69.8129 19.9208 67.9237 19.2454 66.7091L9.25062 49.8406L6.68439 45.3874L11.0065 42.6884C15.0584 40.1244 19.6506 37.6953 24.7831 35.5361C34.7779 31.3528 44.9078 29.0586 54.2272 29.0586C57.3337 29.0586 60.3052 29.3285 63.0065 29.7334C67.5987 30.2732 71.9208 31.7576 75.4324 34.1867C80.7 37.1555 84.887 41.7438 87.1831 47.1417C89.074 51.595 89.4792 56.8579 88.2636 62.2559L87.5883 65.4946L90.2896 63.6053C92.0454 62.2559 93.9363 61.1763 95.9623 60.3666C99.474 58.8822 103.121 58.0725 106.768 58.0725C110.279 58.0725 113.521 58.7472 116.492 60.0967L118.383 60.9064L118.248 58.7472L117.438 49.7057L117.303 48.2213L115.952 48.6261L111.765 49.7057L111.09 34.3216L141.884 24.4704L141.614 36.4808L143.91 37.0206L150.664 24.2005L170.788 42.0137L171.599 42.8233L172.409 42.0137C175.11 39.4496 178.487 37.2905 182.134 35.806L183.619 35.1313L182.539 33.7818L178.892 29.3285L201.988 2.74377L214.144 20.8268L195.64 30.813L191.588 32.9721L196.316 33.1071C205.095 33.242 212.929 37.0206 218.196 43.4981L220.087 45.9271L221.303 47.4116L219.277 49.5707L217.926 51.0552L213.334 56.0482L212.523 56.9929L213.469 57.8026L217.791 61.7161L219.412 63.2005L219.817 61.0413L221.438 50.7853L221.843 48.0863L222.248 45.3874L224.679 30.1382H247.64L247.775 29.0586L248.18 26.4946H268.17L273.032 56.9929L273.303 59.0171L274.923 57.8026C276.949 56.3181 279.11 55.2386 281.406 54.2939C284.513 53.0794 287.619 52.5396 290.861 52.5396C294.643 52.5396 298.29 53.3493 301.396 55.1036C301.531 55.1036 301.531 55.2386 301.801 55.3735L303.287 55.9133L303.422 54.2939L303.827 50.9202L303.962 49.8406L302.882 49.5707L298.83 48.6261L298.695 32.7022L329.625 39.4496L331.921 50.9202H334.352L336.783 41.069L362.58 47.2766L336.108 126.761L317.334 120.823L317.199 113.536V112.457L316.118 112.322L297.344 109.623L298.425 100.041L298.695 97.7472L296.669 98.8268C295.723 99.3666 294.778 99.7714 293.832 100.041C290.726 101.256 287.619 101.796 284.513 101.796C283.568 101.796 282.757 101.796 281.812 101.661L280.191 101.526L280.461 103.145L281.812 111.512L254.393 106.654L252.908 94.2385L252.503 90.1901L250.612 93.6987L247.505 99.7714L241.697 89.1105L239.942 85.8718L239.401 89.5154L238.186 97.7472L214.144 93.9686L216.035 82.633L216.44 80.069L214.144 81.4185C210.227 83.7126 205.635 85.6019 200.368 86.8164C198.477 87.2212 196.586 87.6261 194.56 87.761L193.479 87.896V110.567L146.206 87.2212L144.451 86.4116V108.408L123.245 111.512L122.3 101.931L122.03 99.3666L120.139 101.121C117.303 103.82 114.196 105.979 110.819 107.463C107.308 108.948 103.661 109.758 100.149 109.758C96.5026 109.758 93.1259 108.948 90.0194 107.598C84.3467 104.899 80.1597 99.9064 78.4039 93.5638C77.5935 90.5949 77.3233 87.4911 77.7285 84.2524L78.1337 80.8787L75.7026 83.3077C73.9467 84.9271 72.0558 86.5465 70.0298 88.0309L69.3545 88.5707L69.6246 89.3804L76.7831 116.64L77.9987 121.498L73.2714 122.982L59.9 127.301L55.3078 128.515V128.515ZM61.2506 55.2386C60.5753 55.2386 59.9 55.2386 59.0896 55.3735L58.1441 55.5085L56.7935 55.7784L57.1987 57.1278L57.4688 57.9375L61.2506 70.4877L61.6558 71.7022L62.1961 73.4565L63.5467 72.242L64.4922 71.4323C68.274 68.0586 69.4896 64.6849 68.6792 60.3666C68.1389 57.8026 66.248 56.588 65.0324 56.0482C64.222 55.5085 62.7363 55.2386 61.2506 55.2386V55.2386ZM164.17 55.6434L161.739 57.9375L155.391 64.0102L154.04 65.3597L155.796 66.0344L162.549 68.5984L164.575 69.4081L164.17 67.2489C163.63 64.415 163.495 61.5811 163.765 58.8822L164.17 55.6434ZM191.723 48.6261C189.157 48.6261 186.591 49.7057 184.835 51.7299C182.134 54.6988 181.593 59.1521 183.484 62.6607L184.025 63.6053L184.835 65.0898L186.051 63.7403L186.861 62.9306L196.18 52.4047L196.856 51.595L198.071 50.2455L196.451 49.5707L195.37 49.1659C194.019 48.896 192.939 48.6261 191.723 48.6261V48.6261Z" fill="#FFCB05"/>
<path d="M205.839 64.2612L205.569 64.5311C205.704 64.5311 205.839 64.3962 205.839 64.2612Z" fill="#7D7F68"/>
<path d="M213.943 56.974L218.535 51.981L216.914 53.6003V53.4654L215.564 54.9498L210.971 59.8079L215.294 63.7214L216.104 58.8633L218.265 60.7526L213.943 56.974Z" fill="#7D7F68"/>
<path d="M213.943 56.9741L218.265 60.7526L219.886 50.4966L218.535 51.981L213.943 56.9741Z" fill="#7D7F68"/>
<path d="M181.932 69.2544C182.338 69.6592 181.932 69.3893 182.338 69.6592L185.174 67.635C184.769 67.3651 184.364 66.9602 183.958 66.6903C179.906 62.9118 180.987 54.545 183.553 49.9568C176.53 55.6246 176.935 64.2613 181.932 69.2544Z" fill="#C7A008"/>
<path d="M216.104 73.9775C211.377 77.891 206.109 80.3201 199.086 82.0744C197.6 82.4792 195.979 82.7491 194.629 82.7491C183.418 83.8287 174.099 78.7007 170.587 70.4689C170.182 69.5242 169.777 68.4447 169.506 67.3651C167.886 60.3478 169.236 54.1402 172.748 49.1471C173.153 48.6073 173.423 48.2025 173.829 47.7976C173.693 47.9326 173.423 48.0675 173.288 48.2025C171.938 49.417 170.722 50.6315 169.777 52.1159C166.265 56.9741 164.914 63.3166 166.535 70.3339C166.805 71.4135 167.075 72.4931 167.616 73.4377C171.127 81.8045 180.582 86.9325 191.657 85.8529C193.143 85.718 194.629 85.4481 196.249 85.0433C203.273 83.2889 208.675 80.8599 213.268 76.9464C214.348 76.0017 215.564 74.9222 216.644 73.8426L216.509 73.7076C216.239 73.8426 216.104 73.8426 216.104 73.9775Z" fill="#C7A008"/>
<path d="M137.361 52.7906L149.787 35.2474L149.247 34.8425L137.226 51.711L137.361 52.7906Z" fill="#C7A008"/>
<path d="M219.886 50.4966L218.265 60.7526L216.104 58.8634L215.294 63.7215L210.971 59.808L215.564 54.9499L216.914 53.4654V53.6004L218.535 51.981L219.886 50.4966Z" fill="#C7A008"/>
<path d="M204.488 21.6176L208.81 19.7283L200.842 9.47229L198.275 13.2508L204.488 21.6176Z" fill="#C7A008"/>
<path d="M83.4701 46.9879C63.2104 22.4274 26.8779 35.6523 13.9117 47.1229L14.4519 48.0675C17.4234 46.3132 20.6649 44.8288 23.9065 43.3443C36.8727 37.8115 49.2987 36.1921 59.1584 37.9464C62.6701 38.3513 66.3169 39.4308 69.5584 41.59C74.0156 44.154 77.3922 47.6627 79.4182 52.2509C82.9299 60.3478 79.8234 71.1436 71.5844 80.0502C81.9844 70.4689 89.1429 61.2924 83.4701 46.9879V46.9879Z" fill="#C7A008"/>
<path d="M124.665 75.5969C124.53 75.1921 124.53 74.6523 124.395 74.2474C123.314 70.199 120.883 66.9602 117.642 64.8011C112.509 61.2924 105.216 60.6177 98.0571 63.5865C94.2753 65.2059 91.0338 67.7699 88.3325 70.7388C90.3584 68.9844 92.6545 67.635 95.0857 66.5554C102.244 63.4516 109.538 64.2613 114.67 67.7699C117.912 69.9291 120.343 73.1678 121.423 77.2163C121.558 77.6211 121.693 78.1609 121.693 78.5658C121.964 80.1851 122.099 81.6696 122.099 83.2889C121.964 88.0121 120.208 92.7353 117.371 96.7837C116.966 97.4585 116.426 97.9983 115.886 98.673C117.506 97.1886 118.992 95.7042 120.208 93.9498C123.179 89.9014 124.8 85.1782 125.07 80.455C125.07 78.8357 124.935 77.2163 124.665 75.5969Z" fill="#C7A008"/>
<path d="M104.81 69.6592C104.81 69.6592 107.782 66.6903 107.647 66.6903C104 66.5554 102.379 70.064 102.244 70.3339C103.055 69.9291 103.865 69.7941 104.81 69.6592Z" fill="#C7A008"/>
<path d="M111.699 73.8426C111.834 74.3824 111.969 74.7872 111.969 75.327C111.969 76.1367 111.834 76.8114 111.429 77.4862C111.969 77.2163 116.291 75.0571 114.67 70.7388C114.805 71.0087 111.564 73.8426 111.699 73.8426Z" fill="#C7A008"/>
<path d="M94.9506 76.4065C94.9506 74.6522 98.0571 70.1989 99.0026 68.7145C94.1402 71.8183 91.9792 76.0017 91.9792 79.2404C91.9792 84.9082 96.9766 89.4965 102.919 89.4965C105.756 89.4965 110.888 88.012 114.265 82.6141C112.509 83.8287 108.052 86.5276 105.621 86.5276C99.6779 86.5276 94.9506 82.0743 94.9506 76.4065" fill="#C7A008"/>
<path d="M136.686 81.5345L136.821 104.341L140.468 104.611L139.657 78.5657L136.686 81.5345Z" fill="#C7A008"/>
<path d="M115.886 37.9463V39.9705L133.174 34.8425L134.39 56.839L137.361 52.7906L136.686 30.7941L115.886 37.9463Z" fill="#C7A008"/>
<path d="M167.886 45.7734L151.813 30.9291L149.787 35.2474L164.104 48.6073L167.886 45.7734Z" fill="#C7A008"/>
<path d="M165.455 73.4377L146.41 67.0951L143.709 70.064L162.618 77.621C164.779 81.6695 168.021 85.1781 172.073 87.6072C175.99 90.0363 180.582 91.5207 185.309 91.9255V101.237L188.281 102.721L189.226 88.6868L165.455 73.4377Z" fill="#C7A008"/>
<path d="M195.979 70.8736C200.707 69.794 203.273 67.365 205.704 64.666C203.948 66.1504 195.304 68.0397 193.818 68.4446L190.982 71.5484C192.197 71.5484 194.358 71.2785 195.979 70.8736" fill="#C7A008"/>
<path d="M187.47 38.4861C178.826 39.5657 174.369 46.8529 173.694 47.6626C176.935 44.9636 180.852 42.9394 185.309 41.9948C195.979 39.4308 205.299 42.6695 211.106 49.8218L214.753 46.8529C208.945 39.8356 198.14 35.9221 187.47 38.4861" fill="#C7A008"/>
<path d="M216.374 73.7076C217.455 72.8979 219.21 71.9533 220.291 70.8737L208.81 60.6177C207.865 61.6973 207.19 63.4516 206.109 64.2613L216.374 73.7076Z" fill="#C7A008"/>
<path d="M275.397 101.237C263.377 91.2508 264.052 70.0639 269.995 63.3165L264.727 29.9844L253.112 31.4688L252.571 34.4377H261.351L266.078 64.666C260.135 71.4134 257.299 80.4549 259.19 88.8217C260.675 95.2992 264.727 100.427 270.4 103.396C270.94 103.666 271.616 103.936 272.156 104.206L272.291 104.611L275.803 105.15C275.668 105.285 276.073 101.507 275.397 101.237V101.237Z" fill="#C7A008"/>
<path d="M229.07 34.8426L228.53 37.8114H241.766L245.683 59.2682L248.655 56.2993L245.548 33.6281L229.07 34.8426Z" fill="#C7A008"/>
<path d="M251.761 76.4065L247.439 87.4723L248.519 90.4411L254.597 73.5726L251.761 76.4065Z" fill="#C7A008"/>
<path d="M239.065 69.5242L236.093 72.493L232.852 92.4653L235.958 93.5449L239.065 69.5242Z" fill="#C7A008"/>
<path d="M298.629 63.0467C300.384 64.2613 301.87 65.8806 302.951 67.7699C303.896 69.2543 304.436 70.7388 304.977 72.628C306.462 78.7007 304.707 85.1782 300.925 90.3062C300.52 90.846 300.114 91.3858 299.709 91.7907C301.195 90.4412 320.104 76.5415 301.735 58.3235C281.475 51.7111 273.777 64.801 273.101 65.7457C275.262 63.9914 277.694 62.372 280.395 61.4274C287.148 58.7284 293.901 59.673 298.629 63.0467" fill="#C7A008"/>
<path d="M288.499 64.3962C288.499 64.5312 291.47 61.4274 291.47 61.4274C287.823 61.5623 286.068 63.3166 286.338 64.1263C286.068 64.3962 285.932 64.8011 285.797 65.071C286.473 64.6661 287.958 64.3962 288.499 64.3962" fill="#C7A008"/>
<path d="M295.252 68.9844C295.387 69.5242 295.387 69.9291 295.387 70.4688C295.387 71.1436 295.117 71.8183 294.847 72.3581C295.387 72.0882 299.709 70.7387 298.088 65.8806C298.223 66.1505 295.117 68.9844 295.252 68.9844Z" fill="#C7A008"/>
<path d="M285.662 84.2335C289.714 84.3685 294.306 81.9394 297.548 77.4861C289.309 79.2405 280.53 65.3408 281.34 63.9913C278.234 66.2854 275.397 70.6038 275.262 73.7076C274.992 79.3754 279.719 83.9636 285.662 84.2335Z" fill="#C7A008"/>
<path d="M331.179 120.265L333.07 121.479L356.842 50.2267L339.013 46.1782L338.878 50.3616L353.195 53.4654L331.179 120.265Z" fill="#C7A008"/>
<path d="M302.951 38.4862L303.086 42.5346L321.995 46.3132L329.288 80.8599L332.26 77.891L325.236 42.9395L302.951 38.4862Z" fill="#C7A008"/>
<path d="M317.538 77.891L312.27 107.31L315.242 108.254L320.509 74.9221L317.538 77.891Z" fill="#C7A008"/>
<path d="M72.1247 118.105L63.3454 85.9878L60.1039 88.2819L68.3428 118.915L72.1247 118.105Z" fill="#C7A008"/>
<path d="M69.8286 69.9291C67.8026 72.0882 63.2104 76.2716 60.6442 77.891L59.0234 72.8979L55.6468 61.8322L53.4857 54.41L51.3247 57.109L53.4857 64.5311L56.8624 75.4619L58.4831 80.455C62.1299 78.4308 67.2624 74.1124 69.8286 69.9291" fill="#C7A008"/>
<path d="M195.169 50.9014C192.332 49.8218 188.416 50.0917 186.255 52.5207C185.714 53.0605 184.769 54.41 184.499 55.0847C186.525 53.4654 190.307 53.0605 192.603 54.0052L195.169 50.9014V50.9014Z" fill="#7D7F68"/>
<path d="M67.3974 60.8875C67.1273 59.2681 65.5065 57.9186 64.6961 57.5138C63.3455 56.8391 60.7792 56.7041 59.0234 57.109C59.2935 58.1885 59.6987 59.538 59.8338 60.0778C60.5091 60.2128 61.7247 60.3477 62.4 60.6176C63.2104 61.0224 64.561 61.8321 64.8312 63.5865C65.2364 65.7456 65.1013 67.9048 64.1558 69.5242C66.7221 67.0951 67.9377 64.3961 67.3974 60.8875" fill="#7D7F68"/>
<path d="M71.7856 60.7715C70.5701 54.294 62.061 50.6504 53.5519 55.2386L55.7129 62.6607L59.0895 73.7265L60.7103 78.7195C67.0584 74.8061 73.4064 69.813 71.7856 60.7715V60.7715ZM63.4116 70.8926C62.4662 67.9237 60.4402 61.4462 60.4402 61.4462C60.4402 61.4462 60.035 60.0967 59.4947 58.4773C61.2506 58.2074 63.0064 58.3424 64.3571 59.0171C65.1675 59.422 66.5181 60.2317 66.7882 61.986C67.5986 65.4946 66.3831 68.1936 63.4116 70.8926V70.8926Z" fill="#3C5AA6"/>
<path d="M199.557 50.5155C194.83 46.1971 187.536 46.467 183.214 51.1902C178.892 55.9134 179.162 63.2006 183.89 67.5189C184.295 67.9237 184.7 68.1936 185.105 68.4635L200.368 51.1902C200.097 51.0552 199.827 50.7853 199.557 50.5155V50.5155ZM185.24 62.6608C183.755 59.9618 184.025 56.4532 186.321 54.0241C188.482 51.73 191.723 51.0552 194.56 52.1348L185.24 62.6608Z" fill="#3567B0"/>
<path d="M219.886 48.6073L211.512 56.7042L219.481 63.8564L219.886 48.6073Z" fill="#1E2D5F"/>
<path d="M298.088 66.0156C298.223 66.5554 298.223 67.0952 298.223 67.635C298.088 70.8737 295.117 73.3028 291.47 73.1678C287.823 73.0329 284.987 70.3339 285.122 67.0952C285.257 64.1263 287.958 61.6972 291.2 61.5623C290.525 61.4273 289.849 61.2924 289.174 61.2924C283.096 61.0225 278.234 65.3408 277.964 70.6038C277.694 76.2716 282.286 80.9948 288.229 81.1298C294.306 81.3997 299.169 77.0813 299.439 71.4135C299.844 69.5242 299.169 67.635 298.088 66.0156" fill="#3466AF"/>
<path d="M114.94 72.493C114.94 75.7318 111.969 78.2958 108.457 78.2958C104.81 78.2958 101.974 75.7318 101.974 72.493C101.974 69.5242 104.54 66.9601 107.917 66.6902C107.242 66.5553 106.566 66.5553 105.891 66.5553C99.813 66.5553 95.0857 71.0086 95.0857 76.4065C95.0857 82.0743 99.813 86.5276 105.756 86.5276C111.834 86.5276 116.561 82.0743 116.561 76.4065C116.561 74.3823 115.886 72.628 114.805 71.0086C114.805 71.4134 114.94 71.9532 114.94 72.493" fill="url(#paint7_linear_38_267)"/>
<path d="M335.703 39.8546L333.001 50.9203L330.57 38.6401L297.344 31.3529L297.614 49.8407L302.612 50.9203L302.206 54.294C302.206 54.294 302.071 54.294 302.071 54.1591C295.858 50.9203 288.16 50.5155 281.001 53.3494C278.57 54.294 276.274 55.5086 274.248 56.993L269.251 25.4152H247.235L246.695 29.0588H223.464L220.762 45.2525L218.871 42.8234C213.199 35.9411 205.095 32.1626 196.045 31.8927L215.765 21.3667L201.988 0.854614L177.136 29.4636L181.458 34.7266C177.541 36.3459 174.165 38.5051 171.329 41.2041L149.988 22.3114L142.56 36.4809L142.83 22.7162L109.469 33.3771L110.414 51.1902L116.087 49.7058L116.897 58.7473C110.414 55.7785 102.58 55.9134 95.422 59.0172C93.261 59.9618 91.235 61.0414 89.4792 62.3909C90.6948 56.858 90.4246 51.4601 88.2636 46.602C85.8324 40.9342 81.3753 36.076 76.1077 33.1072C72.3259 30.5432 67.8688 29.0588 63.1415 28.519C51.661 26.4947 37.7493 28.519 24.1077 34.3217C19.1103 36.4809 14.3831 38.91 10.1961 41.6089L4.92853 44.9826L8.17009 50.3805L18.1649 67.384L21.2714 72.512L26.674 69.8131L27.4844 69.4082L52.3363 124.737L54.7675 130L60.3051 128.246L73.6766 123.927L79.6194 122.038L78.1337 116.1L70.9753 88.8407C73.0013 87.3563 74.8922 85.7369 76.648 83.9826C76.2428 87.2213 76.5129 90.5951 77.3233 93.6989C79.2142 100.311 83.5363 105.574 89.6142 108.408C96.0974 111.512 104.066 111.512 111.36 108.408C115.006 106.789 118.383 104.63 121.084 101.796L122.03 112.727L145.531 109.218V88.166L194.56 112.457V89.1106C196.586 88.9757 198.477 88.5708 200.503 88.166C205.905 86.8165 210.497 85.0622 214.684 82.6331L212.658 95.1833L239.131 99.3667L240.617 89.7854L247.505 102.605L251.692 94.5085L253.178 107.868L283.162 113.131L281.541 103.01C285.593 103.415 289.916 102.875 294.103 101.391C295.048 100.986 296.128 100.581 296.939 100.041L295.723 110.837L315.713 113.671L315.848 121.903L336.648 128.38L363.796 46.7369L335.703 39.8546V39.8546ZM218.466 51.9999L219.817 50.5155L218.196 60.7715L213.874 56.858L218.466 51.9999V51.9999ZM200.908 9.89613L208.201 19.7473L187.401 30.0034L185.916 27.8442C185.916 27.9792 200.908 9.89613 200.908 9.89613ZM63.2766 86.0068L71.5155 117.855L58.1441 122.173L30.5909 60.6366C29.1051 61.4463 26.2688 62.7958 23.8376 64.0103L13.8428 47.1418C17.7597 44.5778 22.2168 42.4186 26.809 40.3944C39.7753 34.8615 52.2013 33.2421 62.061 34.9965C65.5727 35.4013 69.2194 36.4809 72.461 38.6401C76.9181 41.2041 80.2948 44.7127 82.3207 49.301C87.1831 60.3667 79.2142 76.2906 63.2766 86.0068V86.0068ZM125.001 80.339C124.866 85.0622 123.11 89.7854 120.139 93.8338C117.303 97.7473 113.521 100.851 108.929 102.875C97.3129 107.868 85.6974 102.875 82.5909 91.8096C79.6194 81.1487 86.6428 68.4636 97.8532 63.6054C105.012 60.5016 112.305 61.3113 117.438 64.82C120.679 66.9791 123.11 70.2179 124.191 74.2663C124.326 74.6712 124.461 75.211 124.461 75.6158C125.001 77.2352 125.001 78.8546 125.001 80.339V80.339ZM188.347 102.875L139.588 78.5847L139.723 104.09L127.162 105.844L126.217 95.3182C130.134 88.7058 131.484 80.7438 129.458 73.5916C128.378 69.6781 126.352 66.1695 123.516 63.4705L121.76 42.0138L116.087 43.4982L115.817 38.1003L136.077 32.0276L137.292 52.8096L152.149 31.8927L166.871 45.7923L146.477 67.249L165.656 74.8061C167.817 78.8546 171.058 82.2283 175.11 84.7923C179.027 87.2214 183.619 88.7058 188.347 89.1106V102.875ZM163.09 67.5189L156.336 64.9549L162.684 58.8823C162.279 61.7162 162.414 64.5501 163.09 67.5189ZM216.035 73.9964C211.308 77.9099 206.04 80.339 199.017 82.0933C197.531 82.4982 195.91 82.7681 194.56 82.7681C183.349 83.8477 174.03 78.7196 170.518 70.4878C170.113 69.5432 169.708 68.4636 169.438 67.384C167.817 60.3667 169.167 54.1591 172.679 49.166C173.625 47.6816 174.84 46.467 176.191 45.2525C179.432 42.2837 183.619 40.2594 188.347 39.0449C199.017 36.4809 208.336 39.7196 214.144 46.7369L193.884 68.3286C195.235 68.5985 197.396 68.1937 199.017 67.7888C203.879 66.5743 206.58 64.0103 208.877 61.3113L216.98 68.5985L219.412 70.7577C218.331 71.9722 217.251 73.0518 216.035 73.9964V73.9964ZM259.121 102.74L254.664 73.5916L248.451 89.6504L239.131 69.5432H238.996L235.349 92.8892L219.817 90.1902L221.978 77.2352C222.518 76.6954 223.193 76.1556 223.734 75.4809L228.731 70.3528L223.869 65.8996L229.136 34.8615H244.804L248.721 56.3183L253.178 31.4878H264.388L269.116 61.7162C263.173 68.4636 260.336 77.5051 262.227 85.8719C263.713 92.3494 267.765 97.4774 273.438 100.581C273.978 100.851 274.653 101.121 275.193 101.391L275.734 105.304L259.121 102.74V102.74ZM297.884 93.1591C296.128 94.3736 294.238 95.4532 292.212 96.1279C288.16 97.6124 284.243 98.0172 280.596 97.2075C278.165 96.6677 275.869 95.7231 273.843 94.3736C270.736 92.0795 268.44 88.8407 267.36 84.6573C266.144 79.6643 267.225 74.2663 269.926 69.5432C271.277 67.249 273.032 65.0899 275.058 63.2006C277.354 61.1764 280.056 59.4221 282.892 58.3425C289.78 55.7785 296.534 56.7231 301.261 60.0968C303.017 61.3113 304.503 62.9307 305.583 64.82C306.393 66.3044 307.069 67.9238 307.474 69.6781C308.96 75.7508 307.204 82.2283 303.422 87.3563C302.206 89.6504 300.18 91.5397 297.884 93.1591V93.1591ZM333.001 120.688L321.521 117.315L320.575 74.9411L314.767 107.599L302.206 105.574L303.152 96.1279C311.391 89.2456 315.713 78.3148 313.282 68.3286C312.201 64.0103 310.04 60.0968 306.799 57.2629L307.879 46.1971L303.152 44.9826L303.287 39.0449L324.897 43.3632L332.191 77.775L339.619 46.8719L356.097 50.5155L333.001 120.688V120.688Z" fill="url(#paint8_linear_38_267)"/>
<path d="M348.468 115.946H349.008C349.683 115.946 350.223 115.676 350.223 115.002C350.223 114.597 349.818 114.057 349.008 114.057H348.468V115.946ZM348.468 118.78H347.657V113.652C348.062 113.517 348.468 113.517 349.143 113.517C349.953 113.517 350.494 113.652 350.764 113.922C351.034 114.192 351.304 114.462 351.304 115.002C351.304 115.676 350.899 116.081 350.358 116.216C350.764 116.351 351.169 116.756 351.169 117.431C351.304 118.24 351.439 118.51 351.439 118.645H350.629C350.494 118.51 350.358 117.971 350.223 117.296C350.088 116.621 349.818 116.351 349.143 116.351H348.468V118.78V118.78ZM349.413 112.168C347.387 112.168 345.766 113.922 345.766 116.081C345.766 118.24 347.387 119.995 349.548 119.995C351.574 119.995 353.195 118.24 353.195 116.081C353.06 113.922 351.439 112.168 349.413 112.168ZM349.413 111.493C351.979 111.493 353.87 113.517 353.87 116.081C353.87 118.645 351.844 120.67 349.278 120.67C346.712 120.67 344.686 118.645 344.686 116.081C344.821 113.517 346.847 111.493 349.413 111.493V111.493Z" fill="black"/>
</g>
<defs>
<linearGradient id="paint0_linear_38_267" x1="17.9636" y1="73.0653" x2="4.45101" y2="47.8634" gradientUnits="userSpaceOnUse">
<stop stop-color="#0070B6"/>
<stop offset="1" stop-color="#1D2C5E"/>
</linearGradient>
<linearGradient id="paint1_linear_38_267" x1="182.979" y1="21.5988" x2="200.137" y2="3.19865" gradientUnits="userSpaceOnUse">
<stop stop-color="#0070B6"/>
<stop offset="1" stop-color="#1D2C5E"/>
</linearGradient>
<linearGradient id="paint2_linear_38_267" x1="108.055" y1="52.2509" x2="106.011" y2="35.0608" gradientUnits="userSpaceOnUse">
<stop stop-color="#0070B6"/>
<stop offset="1" stop-color="#1D2C5E"/>
</linearGradient>
<linearGradient id="paint3_linear_38_267" x1="295.652" y1="48.9419" x2="294.836" y2="33.4255" gradientUnits="userSpaceOnUse">
<stop stop-color="#125D9E"/>
<stop offset="1" stop-color="#1D2C5E"/>
</linearGradient>
<linearGradient id="paint4_linear_38_267" x1="238.337" y1="26.5771" x2="220.336" y2="55.2379" gradientUnits="userSpaceOnUse">
<stop stop-color="#125D9E"/>
<stop offset="1" stop-color="#1D2C5E"/>
</linearGradient>
<linearGradient id="paint5_linear_38_267" x1="78.8374" y1="72.5241" x2="91.1087" y2="96.6789" gradientUnits="userSpaceOnUse">
<stop stop-color="#105FA1"/>
<stop offset="1" stop-color="#1D2C5E"/>
</linearGradient>
<linearGradient id="paint6_linear_38_267" x1="32.4709" y1="64.2828" x2="46.6725" y2="97.2325" gradientUnits="userSpaceOnUse">
<stop stop-color="#105FA1"/>
<stop offset="1" stop-color="#1D2C5E"/>
</linearGradient>
<linearGradient id="paint7_linear_38_267" x1="94.8898" y1="76.5199" x2="116.404" y2="76.5199" gradientUnits="userSpaceOnUse">
<stop stop-color="#3C5AA6"/>
<stop offset="0.933" stop-color="#2B73B9"/>
<stop offset="1" stop-color="#2A75BB"/>
</linearGradient>
<linearGradient id="paint8_linear_38_267" x1="5.03253" y1="65.4556" x2="363.958" y2="65.4556" gradientUnits="userSpaceOnUse">
<stop stop-color="#3C5AA6"/>
<stop offset="0.933" stop-color="#2B73B9"/>
<stop offset="1" stop-color="#2A75BB"/>
</linearGradient>
<clipPath id="clip0_38_267">
<rect width="364" height="133.4" fill="white" transform="translate(0 0.800171)"/>
</clipPath>
</defs>
</svg>
