<svg width="291" height="325" viewBox="0 0 291 325" fill="none" xmlns="http://www.w3.org/2000/svg">
<g opacity="0.15" filter="url(#filter0_f_38_343)">
<ellipse cx="145.5" cy="260" rx="121.5" ry="40.5" fill="#212121"/>
</g>
<circle cx="144.5" cy="131" r="126.5" fill="white" stroke="#212121" stroke-width="8"/>
<mask id="mask0_38_343" style="mask-type:alpha" maskUnits="userSpaceOnUse" x="21" y="8" width="247" height="246">
<circle cx="144.5" cy="131" r="122.748" fill="white"/>
</mask>
<g mask="url(#mask0_38_343)">
<path d="M275 131C275 113.862 271.625 96.8928 265.066 81.0598C258.508 65.2268 248.895 50.8406 236.777 38.7226C224.659 26.6045 210.273 16.992 194.44 10.4337C178.607 3.87548 161.637 0.499999 144.5 0.5C127.362 0.500001 110.393 3.87548 94.5598 10.4337C78.7268 16.992 64.3406 26.6045 52.2226 38.7226C40.1045 50.8406 30.492 65.2268 23.9337 81.0598C17.3755 96.8928 14 113.863 14 131L144.5 131H275Z" fill="#C12E28"/>
<rect x="19.1683" y="120.663" width="250.663" height="20.6733" fill="#212121"/>
</g>
<circle cx="144.5" cy="131" r="28.302" fill="white" stroke="#212121" stroke-width="8"/>
<defs>
<filter id="filter0_f_38_343" x="0" y="195.5" width="291" height="129" filterUnits="userSpaceOnUse" color-interpolation-filters="sRGB">
<feFlood flood-opacity="0" result="BackgroundImageFix"/>
<feBlend mode="normal" in="SourceGraphic" in2="BackgroundImageFix" result="shape"/>
<feGaussianBlur stdDeviation="12" result="effect1_foregroundBlur_38_343"/>
</filter>
</defs>
</svg>
