<svg width="323" height="323" viewBox="0 0 323 323" fill="none" xmlns="http://www.w3.org/2000/svg">
<path d="M148.945 3.54331C113.241 6.13376 78.6376 21.6701 52.3518 46.9351C41.9932 56.8221 35.9531 64.1187 28.4175 75.653C14.6868 96.6836 5.4264 123.205 3.70158 146.432L3.23 153.338H44.8195H86.409L87.3489 148.396C93.6248 115.282 119.52 90.7985 152.556 86.6415C173.742 83.9735 196.264 91.2701 212.114 105.866C223.884 116.774 231.811 130.818 234.947 146.277L236.281 152.947L278.025 153.183C314.121 153.341 319.692 153.183 319.692 152.243C319.692 151.616 319.143 146.907 318.517 141.807C311.453 87.8947 278.652 42.384 229.847 18.7663C218.077 13.0395 203.325 8.09437 191.161 5.89797C183.393 4.40571 164.168 2.52262 159.617 2.75841C158.519 2.83593 153.732 3.14925 148.945 3.54331Z" fill="#8B1F1F" fill-opacity="0.25"/>
<path d="M153.496 103.903C130.663 107.042 111.044 124.539 104.923 147.062C103.04 154.045 103.04 169.11 104.923 176.096C109.397 192.576 120.773 206.542 135.683 213.761C145.334 218.39 150.592 219.569 161.968 219.569C170.835 219.491 172.482 219.256 178.839 217.137C188.961 213.684 195.082 209.84 202.77 202.072C208.341 196.5 210.144 193.991 213.206 187.87C218.387 177.356 219.485 171.784 219.013 159.229C218.542 145.576 216.11 138.357 208.655 127.843C196.42 110.495 174.446 100.999 153.496 103.903ZM168.247 137.33C177.114 139.762 184.414 147.766 186.297 157.026C188.571 167.776 182.608 179.469 172.33 184.491C168.486 186.374 166.917 186.688 161.187 186.688C155.773 186.61 153.89 186.297 150.986 184.804C145.101 181.746 141.962 178.761 139.216 173.661C134.116 164.087 135.45 152.634 142.592 144.943C149.807 137.175 158.441 134.584 168.247 137.33Z" fill="#8B1F1F" fill-opacity="0.25"/>
<path d="M3.70158 177.036C5.89798 205.286 19.2379 238.164 37.7587 260.842C43.0947 267.434 55.7272 280.067 62.3196 285.403C110.182 324.163 176.881 331.227 232.198 303.449C248.361 295.29 260.212 286.734 273.394 273.474C299.915 246.875 315.451 213.681 319.298 175.47L319.77 170.605H277.867H236.045L235.024 176.255C231.023 199.872 211.956 223.099 189.514 231.73C178.529 235.968 173.661 236.83 161.187 236.83C151.849 236.83 148.632 236.517 143.137 235.024C113.635 227.176 92.2908 203.716 87.1131 173.506L86.564 170.602H44.897H3.23L3.70158 177.036Z" fill="#8B1F1F" fill-opacity="0.25"/>
</svg>
